G04 #@! TF.GenerationSoftware,KiCad,Pcbnew,(5.1.5)-3*
G04 #@! TF.CreationDate,2020-04-27T21:11:52-07:00*
G04 #@! TF.ProjectId,My_PCB,4d795f50-4342-42e6-9b69-6361645f7063,1*
G04 #@! TF.SameCoordinates,Original*
G04 #@! TF.FileFunction,Legend,Top*
G04 #@! TF.FilePolarity,Positive*
%FSLAX46Y46*%
G04 Gerber Fmt 4.6, Leading zero omitted, Abs format (unit mm)*
G04 Created by KiCad (PCBNEW (5.1.5)-3) date 2020-04-27 21:11:52*
%MOMM*%
%LPD*%
G04 APERTURE LIST*
%ADD10C,0.150000*%
%ADD11C,0.010000*%
%ADD12C,0.120000*%
%ADD13C,0.152400*%
%ADD14C,0.100000*%
G04 APERTURE END LIST*
D10*
X110998000Y-126365000D02*
X176998000Y-126365000D01*
X111098000Y-72965000D02*
X110998000Y-126365000D01*
X139390380Y-120999285D02*
X139390380Y-121570714D01*
X139390380Y-121285000D02*
X138390380Y-121285000D01*
X138533238Y-121380238D01*
X138628476Y-121475476D01*
X138676095Y-121570714D01*
D11*
G36*
X135923292Y-86471409D02*
G01*
X135975857Y-86471944D01*
X136129881Y-86475660D01*
X136258875Y-86486699D01*
X136367237Y-86506246D01*
X136459362Y-86535483D01*
X136539647Y-86575597D01*
X136612488Y-86627769D01*
X136638505Y-86650433D01*
X136681663Y-86703462D01*
X136720579Y-86775421D01*
X136750573Y-86855184D01*
X136766965Y-86931625D01*
X136768668Y-86959872D01*
X136757995Y-87038174D01*
X136729393Y-87123705D01*
X136687989Y-87204663D01*
X136638905Y-87269246D01*
X136630933Y-87277038D01*
X136563400Y-87331808D01*
X136489448Y-87374563D01*
X136404812Y-87406423D01*
X136305229Y-87428508D01*
X136186434Y-87441938D01*
X136044166Y-87447834D01*
X135979000Y-87448334D01*
X135896145Y-87447935D01*
X135837877Y-87446266D01*
X135798730Y-87442622D01*
X135773237Y-87436293D01*
X135755932Y-87426574D01*
X135746656Y-87418274D01*
X135737894Y-87408192D01*
X135731021Y-87395185D01*
X135725808Y-87375769D01*
X135722027Y-87346460D01*
X135719449Y-87303773D01*
X135717846Y-87244225D01*
X135716989Y-87164330D01*
X135716649Y-87060605D01*
X135716597Y-86959872D01*
X135716266Y-86825519D01*
X135716338Y-86718192D01*
X135717616Y-86666795D01*
X135911981Y-86666795D01*
X135911981Y-87252949D01*
X136035975Y-87252835D01*
X136110585Y-87250696D01*
X136188728Y-87245183D01*
X136253926Y-87237472D01*
X136255910Y-87237155D01*
X136361283Y-87211678D01*
X136443014Y-87172000D01*
X136505184Y-87115538D01*
X136544686Y-87054406D01*
X136569026Y-86986593D01*
X136567139Y-86922919D01*
X136538891Y-86854665D01*
X136483638Y-86784056D01*
X136407073Y-86731735D01*
X136307551Y-86696763D01*
X136241039Y-86684386D01*
X136165539Y-86675694D01*
X136085521Y-86669404D01*
X136017462Y-86666788D01*
X136013431Y-86666776D01*
X135911981Y-86666795D01*
X135717616Y-86666795D01*
X135718410Y-86634881D01*
X135724085Y-86572579D01*
X135734959Y-86528275D01*
X135752632Y-86498960D01*
X135778703Y-86481625D01*
X135814771Y-86473261D01*
X135862434Y-86470859D01*
X135923292Y-86471409D01*
G37*
X135923292Y-86471409D02*
X135975857Y-86471944D01*
X136129881Y-86475660D01*
X136258875Y-86486699D01*
X136367237Y-86506246D01*
X136459362Y-86535483D01*
X136539647Y-86575597D01*
X136612488Y-86627769D01*
X136638505Y-86650433D01*
X136681663Y-86703462D01*
X136720579Y-86775421D01*
X136750573Y-86855184D01*
X136766965Y-86931625D01*
X136768668Y-86959872D01*
X136757995Y-87038174D01*
X136729393Y-87123705D01*
X136687989Y-87204663D01*
X136638905Y-87269246D01*
X136630933Y-87277038D01*
X136563400Y-87331808D01*
X136489448Y-87374563D01*
X136404812Y-87406423D01*
X136305229Y-87428508D01*
X136186434Y-87441938D01*
X136044166Y-87447834D01*
X135979000Y-87448334D01*
X135896145Y-87447935D01*
X135837877Y-87446266D01*
X135798730Y-87442622D01*
X135773237Y-87436293D01*
X135755932Y-87426574D01*
X135746656Y-87418274D01*
X135737894Y-87408192D01*
X135731021Y-87395185D01*
X135725808Y-87375769D01*
X135722027Y-87346460D01*
X135719449Y-87303773D01*
X135717846Y-87244225D01*
X135716989Y-87164330D01*
X135716649Y-87060605D01*
X135716597Y-86959872D01*
X135716266Y-86825519D01*
X135716338Y-86718192D01*
X135717616Y-86666795D01*
X135911981Y-86666795D01*
X135911981Y-87252949D01*
X136035975Y-87252835D01*
X136110585Y-87250696D01*
X136188728Y-87245183D01*
X136253926Y-87237472D01*
X136255910Y-87237155D01*
X136361283Y-87211678D01*
X136443014Y-87172000D01*
X136505184Y-87115538D01*
X136544686Y-87054406D01*
X136569026Y-86986593D01*
X136567139Y-86922919D01*
X136538891Y-86854665D01*
X136483638Y-86784056D01*
X136407073Y-86731735D01*
X136307551Y-86696763D01*
X136241039Y-86684386D01*
X136165539Y-86675694D01*
X136085521Y-86669404D01*
X136017462Y-86666788D01*
X136013431Y-86666776D01*
X135911981Y-86666795D01*
X135717616Y-86666795D01*
X135718410Y-86634881D01*
X135724085Y-86572579D01*
X135734959Y-86528275D01*
X135752632Y-86498960D01*
X135778703Y-86481625D01*
X135814771Y-86473261D01*
X135862434Y-86470859D01*
X135923292Y-86471409D01*
G36*
X137798616Y-86471516D02*
G01*
X137891024Y-86472012D01*
X137960773Y-86473165D01*
X138011563Y-86475244D01*
X138047095Y-86478515D01*
X138071068Y-86483247D01*
X138087182Y-86489707D01*
X138099137Y-86498163D01*
X138103467Y-86502055D01*
X138129795Y-86543404D01*
X138134535Y-86590916D01*
X138117216Y-86633095D01*
X138109207Y-86641620D01*
X138096254Y-86649885D01*
X138075398Y-86656261D01*
X138042770Y-86661059D01*
X137994504Y-86664588D01*
X137926732Y-86667158D01*
X137835586Y-86669081D01*
X137752255Y-86670251D01*
X137422454Y-86674310D01*
X137413440Y-86847150D01*
X137637304Y-86847150D01*
X137734492Y-86847989D01*
X137805643Y-86851496D01*
X137854755Y-86859159D01*
X137885829Y-86872467D01*
X137902862Y-86892905D01*
X137909854Y-86921963D01*
X137910916Y-86948931D01*
X137907616Y-86982021D01*
X137895163Y-87006404D01*
X137869726Y-87023353D01*
X137827475Y-87034143D01*
X137764580Y-87040048D01*
X137677211Y-87042341D01*
X137629525Y-87042535D01*
X137414940Y-87042535D01*
X137414940Y-87252949D01*
X137745591Y-87252949D01*
X137853976Y-87253100D01*
X137936349Y-87253778D01*
X137996757Y-87255320D01*
X138039247Y-87258063D01*
X138067865Y-87262345D01*
X138086658Y-87268503D01*
X138099672Y-87276873D01*
X138106301Y-87283008D01*
X138129039Y-87318813D01*
X138136360Y-87350641D01*
X138125907Y-87389518D01*
X138106301Y-87418274D01*
X138095841Y-87427327D01*
X138082338Y-87434357D01*
X138062160Y-87439618D01*
X138031675Y-87443365D01*
X137987251Y-87445854D01*
X137925255Y-87447339D01*
X137842055Y-87448075D01*
X137734019Y-87448318D01*
X137677957Y-87448334D01*
X137557902Y-87448227D01*
X137464272Y-87447739D01*
X137393437Y-87446613D01*
X137341765Y-87444595D01*
X137305623Y-87441430D01*
X137281378Y-87436863D01*
X137265399Y-87430640D01*
X137254053Y-87422504D01*
X137249614Y-87418274D01*
X137240829Y-87408160D01*
X137233942Y-87395112D01*
X137228725Y-87375634D01*
X137224947Y-87346228D01*
X137222376Y-87303398D01*
X137220782Y-87243648D01*
X137219935Y-87163481D01*
X137219604Y-87059401D01*
X137219555Y-86962492D01*
X137219600Y-86838387D01*
X137219912Y-86740830D01*
X137220758Y-86666310D01*
X137222404Y-86611315D01*
X137225117Y-86572334D01*
X137229163Y-86545857D01*
X137234809Y-86528370D01*
X137242320Y-86516364D01*
X137251964Y-86506327D01*
X137254340Y-86504090D01*
X137265871Y-86494183D01*
X137279268Y-86486512D01*
X137298250Y-86480790D01*
X137326531Y-86476732D01*
X137367828Y-86474052D01*
X137425858Y-86472466D01*
X137504337Y-86471688D01*
X137606980Y-86471432D01*
X137679850Y-86471410D01*
X137798616Y-86471516D01*
G37*
X137798616Y-86471516D02*
X137891024Y-86472012D01*
X137960773Y-86473165D01*
X138011563Y-86475244D01*
X138047095Y-86478515D01*
X138071068Y-86483247D01*
X138087182Y-86489707D01*
X138099137Y-86498163D01*
X138103467Y-86502055D01*
X138129795Y-86543404D01*
X138134535Y-86590916D01*
X138117216Y-86633095D01*
X138109207Y-86641620D01*
X138096254Y-86649885D01*
X138075398Y-86656261D01*
X138042770Y-86661059D01*
X137994504Y-86664588D01*
X137926732Y-86667158D01*
X137835586Y-86669081D01*
X137752255Y-86670251D01*
X137422454Y-86674310D01*
X137413440Y-86847150D01*
X137637304Y-86847150D01*
X137734492Y-86847989D01*
X137805643Y-86851496D01*
X137854755Y-86859159D01*
X137885829Y-86872467D01*
X137902862Y-86892905D01*
X137909854Y-86921963D01*
X137910916Y-86948931D01*
X137907616Y-86982021D01*
X137895163Y-87006404D01*
X137869726Y-87023353D01*
X137827475Y-87034143D01*
X137764580Y-87040048D01*
X137677211Y-87042341D01*
X137629525Y-87042535D01*
X137414940Y-87042535D01*
X137414940Y-87252949D01*
X137745591Y-87252949D01*
X137853976Y-87253100D01*
X137936349Y-87253778D01*
X137996757Y-87255320D01*
X138039247Y-87258063D01*
X138067865Y-87262345D01*
X138086658Y-87268503D01*
X138099672Y-87276873D01*
X138106301Y-87283008D01*
X138129039Y-87318813D01*
X138136360Y-87350641D01*
X138125907Y-87389518D01*
X138106301Y-87418274D01*
X138095841Y-87427327D01*
X138082338Y-87434357D01*
X138062160Y-87439618D01*
X138031675Y-87443365D01*
X137987251Y-87445854D01*
X137925255Y-87447339D01*
X137842055Y-87448075D01*
X137734019Y-87448318D01*
X137677957Y-87448334D01*
X137557902Y-87448227D01*
X137464272Y-87447739D01*
X137393437Y-87446613D01*
X137341765Y-87444595D01*
X137305623Y-87441430D01*
X137281378Y-87436863D01*
X137265399Y-87430640D01*
X137254053Y-87422504D01*
X137249614Y-87418274D01*
X137240829Y-87408160D01*
X137233942Y-87395112D01*
X137228725Y-87375634D01*
X137224947Y-87346228D01*
X137222376Y-87303398D01*
X137220782Y-87243648D01*
X137219935Y-87163481D01*
X137219604Y-87059401D01*
X137219555Y-86962492D01*
X137219600Y-86838387D01*
X137219912Y-86740830D01*
X137220758Y-86666310D01*
X137222404Y-86611315D01*
X137225117Y-86572334D01*
X137229163Y-86545857D01*
X137234809Y-86528370D01*
X137242320Y-86516364D01*
X137251964Y-86506327D01*
X137254340Y-86504090D01*
X137265871Y-86494183D01*
X137279268Y-86486512D01*
X137298250Y-86480790D01*
X137326531Y-86476732D01*
X137367828Y-86474052D01*
X137425858Y-86472466D01*
X137504337Y-86471688D01*
X137606980Y-86471432D01*
X137679850Y-86471410D01*
X137798616Y-86471516D01*
G36*
X139158058Y-86473121D02*
G01*
X139257663Y-86480084D01*
X139350302Y-86490959D01*
X139430588Y-86505338D01*
X139493138Y-86522810D01*
X139532565Y-86542966D01*
X139538617Y-86548899D01*
X139559662Y-86594939D01*
X139553280Y-86642204D01*
X139520639Y-86682642D01*
X139519082Y-86683801D01*
X139499883Y-86696261D01*
X139479841Y-86702813D01*
X139451886Y-86703608D01*
X139408947Y-86698800D01*
X139343955Y-86688539D01*
X139338727Y-86687675D01*
X139241885Y-86675778D01*
X139137402Y-86669909D01*
X139032611Y-86669852D01*
X138934844Y-86675391D01*
X138851434Y-86686309D01*
X138789713Y-86702389D01*
X138785658Y-86704005D01*
X138740882Y-86729093D01*
X138725150Y-86754482D01*
X138737466Y-86779451D01*
X138776831Y-86803280D01*
X138842248Y-86825246D01*
X138932720Y-86844630D01*
X138993046Y-86853962D01*
X139118446Y-86871913D01*
X139218181Y-86888323D01*
X139296500Y-86904612D01*
X139357653Y-86922202D01*
X139405887Y-86942513D01*
X139445451Y-86966967D01*
X139480594Y-86996984D01*
X139508835Y-87026460D01*
X139542338Y-87067531D01*
X139558827Y-87102846D01*
X139563983Y-87146357D01*
X139564170Y-87162292D01*
X139560298Y-87215169D01*
X139544819Y-87254507D01*
X139518031Y-87289424D01*
X139463587Y-87342798D01*
X139402876Y-87383502D01*
X139331388Y-87412864D01*
X139244610Y-87432211D01*
X139138032Y-87442870D01*
X139007143Y-87446169D01*
X138985531Y-87446113D01*
X138898248Y-87444304D01*
X138811687Y-87440193D01*
X138735284Y-87434370D01*
X138678476Y-87427425D01*
X138673882Y-87426628D01*
X138617401Y-87413248D01*
X138569494Y-87396346D01*
X138542373Y-87380895D01*
X138517135Y-87340130D01*
X138515377Y-87292662D01*
X138537134Y-87250359D01*
X138542002Y-87245576D01*
X138562124Y-87231363D01*
X138587288Y-87225240D01*
X138626233Y-87226282D01*
X138673511Y-87231698D01*
X138726341Y-87236537D01*
X138800398Y-87240619D01*
X138886855Y-87243582D01*
X138976883Y-87245061D01*
X139000561Y-87245158D01*
X139090924Y-87244794D01*
X139157057Y-87243040D01*
X139204779Y-87239287D01*
X139239908Y-87232927D01*
X139268264Y-87223351D01*
X139285305Y-87215375D01*
X139322750Y-87193229D01*
X139346625Y-87173172D01*
X139350114Y-87167487D01*
X139342753Y-87144009D01*
X139307759Y-87121281D01*
X139247558Y-87100334D01*
X139164575Y-87082200D01*
X139140126Y-87078161D01*
X139012424Y-87058103D01*
X138910506Y-87041338D01*
X138830440Y-87026647D01*
X138768292Y-87012812D01*
X138720128Y-86998615D01*
X138682014Y-86982837D01*
X138650016Y-86964260D01*
X138620202Y-86941666D01*
X138588636Y-86913837D01*
X138578014Y-86904080D01*
X138540773Y-86867666D01*
X138521059Y-86838816D01*
X138513347Y-86805802D01*
X138512099Y-86764199D01*
X138525831Y-86682615D01*
X138566868Y-86613298D01*
X138634976Y-86556472D01*
X138729919Y-86512361D01*
X138797662Y-86492576D01*
X138871287Y-86479797D01*
X138959485Y-86472568D01*
X139056870Y-86470479D01*
X139158058Y-86473121D01*
G37*
X139158058Y-86473121D02*
X139257663Y-86480084D01*
X139350302Y-86490959D01*
X139430588Y-86505338D01*
X139493138Y-86522810D01*
X139532565Y-86542966D01*
X139538617Y-86548899D01*
X139559662Y-86594939D01*
X139553280Y-86642204D01*
X139520639Y-86682642D01*
X139519082Y-86683801D01*
X139499883Y-86696261D01*
X139479841Y-86702813D01*
X139451886Y-86703608D01*
X139408947Y-86698800D01*
X139343955Y-86688539D01*
X139338727Y-86687675D01*
X139241885Y-86675778D01*
X139137402Y-86669909D01*
X139032611Y-86669852D01*
X138934844Y-86675391D01*
X138851434Y-86686309D01*
X138789713Y-86702389D01*
X138785658Y-86704005D01*
X138740882Y-86729093D01*
X138725150Y-86754482D01*
X138737466Y-86779451D01*
X138776831Y-86803280D01*
X138842248Y-86825246D01*
X138932720Y-86844630D01*
X138993046Y-86853962D01*
X139118446Y-86871913D01*
X139218181Y-86888323D01*
X139296500Y-86904612D01*
X139357653Y-86922202D01*
X139405887Y-86942513D01*
X139445451Y-86966967D01*
X139480594Y-86996984D01*
X139508835Y-87026460D01*
X139542338Y-87067531D01*
X139558827Y-87102846D01*
X139563983Y-87146357D01*
X139564170Y-87162292D01*
X139560298Y-87215169D01*
X139544819Y-87254507D01*
X139518031Y-87289424D01*
X139463587Y-87342798D01*
X139402876Y-87383502D01*
X139331388Y-87412864D01*
X139244610Y-87432211D01*
X139138032Y-87442870D01*
X139007143Y-87446169D01*
X138985531Y-87446113D01*
X138898248Y-87444304D01*
X138811687Y-87440193D01*
X138735284Y-87434370D01*
X138678476Y-87427425D01*
X138673882Y-87426628D01*
X138617401Y-87413248D01*
X138569494Y-87396346D01*
X138542373Y-87380895D01*
X138517135Y-87340130D01*
X138515377Y-87292662D01*
X138537134Y-87250359D01*
X138542002Y-87245576D01*
X138562124Y-87231363D01*
X138587288Y-87225240D01*
X138626233Y-87226282D01*
X138673511Y-87231698D01*
X138726341Y-87236537D01*
X138800398Y-87240619D01*
X138886855Y-87243582D01*
X138976883Y-87245061D01*
X139000561Y-87245158D01*
X139090924Y-87244794D01*
X139157057Y-87243040D01*
X139204779Y-87239287D01*
X139239908Y-87232927D01*
X139268264Y-87223351D01*
X139285305Y-87215375D01*
X139322750Y-87193229D01*
X139346625Y-87173172D01*
X139350114Y-87167487D01*
X139342753Y-87144009D01*
X139307759Y-87121281D01*
X139247558Y-87100334D01*
X139164575Y-87082200D01*
X139140126Y-87078161D01*
X139012424Y-87058103D01*
X138910506Y-87041338D01*
X138830440Y-87026647D01*
X138768292Y-87012812D01*
X138720128Y-86998615D01*
X138682014Y-86982837D01*
X138650016Y-86964260D01*
X138620202Y-86941666D01*
X138588636Y-86913837D01*
X138578014Y-86904080D01*
X138540773Y-86867666D01*
X138521059Y-86838816D01*
X138513347Y-86805802D01*
X138512099Y-86764199D01*
X138525831Y-86682615D01*
X138566868Y-86613298D01*
X138634976Y-86556472D01*
X138729919Y-86512361D01*
X138797662Y-86492576D01*
X138871287Y-86479797D01*
X138959485Y-86472568D01*
X139056870Y-86470479D01*
X139158058Y-86473121D01*
G36*
X140180383Y-86501470D02*
G01*
X140189145Y-86511552D01*
X140196018Y-86524559D01*
X140201231Y-86543975D01*
X140205012Y-86573284D01*
X140207590Y-86615971D01*
X140209193Y-86675519D01*
X140210051Y-86755414D01*
X140210390Y-86859140D01*
X140210443Y-86959872D01*
X140210350Y-87084816D01*
X140209919Y-87183185D01*
X140208923Y-87258465D01*
X140207131Y-87314138D01*
X140204317Y-87353690D01*
X140200250Y-87380605D01*
X140194704Y-87398367D01*
X140187449Y-87410461D01*
X140180383Y-87418274D01*
X140136444Y-87444476D01*
X140089626Y-87442125D01*
X140047737Y-87413548D01*
X140038112Y-87402391D01*
X140030591Y-87389447D01*
X140024912Y-87371136D01*
X140020819Y-87343882D01*
X140018051Y-87304104D01*
X140016350Y-87248226D01*
X140015457Y-87172668D01*
X140015113Y-87073852D01*
X140015058Y-86961978D01*
X140015058Y-86545192D01*
X140051949Y-86508301D01*
X140097421Y-86477264D01*
X140141530Y-86476145D01*
X140180383Y-86501470D01*
G37*
X140180383Y-86501470D02*
X140189145Y-86511552D01*
X140196018Y-86524559D01*
X140201231Y-86543975D01*
X140205012Y-86573284D01*
X140207590Y-86615971D01*
X140209193Y-86675519D01*
X140210051Y-86755414D01*
X140210390Y-86859140D01*
X140210443Y-86959872D01*
X140210350Y-87084816D01*
X140209919Y-87183185D01*
X140208923Y-87258465D01*
X140207131Y-87314138D01*
X140204317Y-87353690D01*
X140200250Y-87380605D01*
X140194704Y-87398367D01*
X140187449Y-87410461D01*
X140180383Y-87418274D01*
X140136444Y-87444476D01*
X140089626Y-87442125D01*
X140047737Y-87413548D01*
X140038112Y-87402391D01*
X140030591Y-87389447D01*
X140024912Y-87371136D01*
X140020819Y-87343882D01*
X140018051Y-87304104D01*
X140016350Y-87248226D01*
X140015457Y-87172668D01*
X140015113Y-87073852D01*
X140015058Y-86961978D01*
X140015058Y-86545192D01*
X140051949Y-86508301D01*
X140097421Y-86477264D01*
X140141530Y-86476145D01*
X140180383Y-86501470D01*
G36*
X141476784Y-86478776D02*
G01*
X141568005Y-86494082D01*
X141638064Y-86517875D01*
X141683642Y-86549204D01*
X141696062Y-86567078D01*
X141708692Y-86608649D01*
X141700193Y-86646256D01*
X141673361Y-86681919D01*
X141631670Y-86698603D01*
X141571176Y-86697248D01*
X141524387Y-86688209D01*
X141420418Y-86670987D01*
X141314166Y-86669351D01*
X141195237Y-86683329D01*
X141162386Y-86689252D01*
X141051801Y-86720431D01*
X140965287Y-86766810D01*
X140903793Y-86827599D01*
X140868268Y-86902008D01*
X140860921Y-86940478D01*
X140865730Y-87018527D01*
X140896780Y-87087581D01*
X140951240Y-87146293D01*
X141026282Y-87193317D01*
X141119076Y-87227307D01*
X141226794Y-87246918D01*
X141346605Y-87250805D01*
X141475681Y-87237620D01*
X141482969Y-87236376D01*
X141534308Y-87226814D01*
X141562774Y-87217578D01*
X141575112Y-87203873D01*
X141578068Y-87180906D01*
X141578135Y-87168743D01*
X141578135Y-87117683D01*
X141486969Y-87117683D01*
X141406464Y-87112168D01*
X141351525Y-87094594D01*
X141319560Y-87063417D01*
X141307974Y-87017094D01*
X141307833Y-87011048D01*
X141314611Y-86971453D01*
X141337855Y-86943181D01*
X141381116Y-86924471D01*
X141447945Y-86913564D01*
X141512676Y-86909554D01*
X141606759Y-86907253D01*
X141675002Y-86910764D01*
X141721545Y-86923719D01*
X141750528Y-86949750D01*
X141766091Y-86992491D01*
X141772375Y-87055574D01*
X141773520Y-87138428D01*
X141771644Y-87230910D01*
X141766000Y-87293818D01*
X141756564Y-87327403D01*
X141754733Y-87330033D01*
X141702921Y-87371998D01*
X141626956Y-87405232D01*
X141531654Y-87429023D01*
X141421830Y-87442663D01*
X141302300Y-87445442D01*
X141177880Y-87436649D01*
X141104703Y-87425849D01*
X140989926Y-87393362D01*
X140883250Y-87340250D01*
X140793935Y-87271319D01*
X140780360Y-87257542D01*
X140736254Y-87199622D01*
X140696457Y-87127840D01*
X140665619Y-87052583D01*
X140648389Y-86984241D01*
X140646312Y-86957993D01*
X140655153Y-86903241D01*
X140678651Y-86835119D01*
X140712297Y-86763414D01*
X140751582Y-86697913D01*
X140786291Y-86654162D01*
X140867443Y-86589083D01*
X140972348Y-86537285D01*
X141097246Y-86499938D01*
X141238379Y-86478217D01*
X141367721Y-86472909D01*
X141476784Y-86478776D01*
G37*
X141476784Y-86478776D02*
X141568005Y-86494082D01*
X141638064Y-86517875D01*
X141683642Y-86549204D01*
X141696062Y-86567078D01*
X141708692Y-86608649D01*
X141700193Y-86646256D01*
X141673361Y-86681919D01*
X141631670Y-86698603D01*
X141571176Y-86697248D01*
X141524387Y-86688209D01*
X141420418Y-86670987D01*
X141314166Y-86669351D01*
X141195237Y-86683329D01*
X141162386Y-86689252D01*
X141051801Y-86720431D01*
X140965287Y-86766810D01*
X140903793Y-86827599D01*
X140868268Y-86902008D01*
X140860921Y-86940478D01*
X140865730Y-87018527D01*
X140896780Y-87087581D01*
X140951240Y-87146293D01*
X141026282Y-87193317D01*
X141119076Y-87227307D01*
X141226794Y-87246918D01*
X141346605Y-87250805D01*
X141475681Y-87237620D01*
X141482969Y-87236376D01*
X141534308Y-87226814D01*
X141562774Y-87217578D01*
X141575112Y-87203873D01*
X141578068Y-87180906D01*
X141578135Y-87168743D01*
X141578135Y-87117683D01*
X141486969Y-87117683D01*
X141406464Y-87112168D01*
X141351525Y-87094594D01*
X141319560Y-87063417D01*
X141307974Y-87017094D01*
X141307833Y-87011048D01*
X141314611Y-86971453D01*
X141337855Y-86943181D01*
X141381116Y-86924471D01*
X141447945Y-86913564D01*
X141512676Y-86909554D01*
X141606759Y-86907253D01*
X141675002Y-86910764D01*
X141721545Y-86923719D01*
X141750528Y-86949750D01*
X141766091Y-86992491D01*
X141772375Y-87055574D01*
X141773520Y-87138428D01*
X141771644Y-87230910D01*
X141766000Y-87293818D01*
X141756564Y-87327403D01*
X141754733Y-87330033D01*
X141702921Y-87371998D01*
X141626956Y-87405232D01*
X141531654Y-87429023D01*
X141421830Y-87442663D01*
X141302300Y-87445442D01*
X141177880Y-87436649D01*
X141104703Y-87425849D01*
X140989926Y-87393362D01*
X140883250Y-87340250D01*
X140793935Y-87271319D01*
X140780360Y-87257542D01*
X140736254Y-87199622D01*
X140696457Y-87127840D01*
X140665619Y-87052583D01*
X140648389Y-86984241D01*
X140646312Y-86957993D01*
X140655153Y-86903241D01*
X140678651Y-86835119D01*
X140712297Y-86763414D01*
X140751582Y-86697913D01*
X140786291Y-86654162D01*
X140867443Y-86589083D01*
X140972348Y-86537285D01*
X141097246Y-86499938D01*
X141238379Y-86478217D01*
X141367721Y-86472909D01*
X141476784Y-86478776D01*
G36*
X142342126Y-86477244D02*
G01*
X142373501Y-86495649D01*
X142414524Y-86525749D01*
X142467322Y-86568960D01*
X142534021Y-86626702D01*
X142616747Y-86700392D01*
X142717626Y-86791448D01*
X142833105Y-86896138D01*
X143073579Y-87114207D01*
X143081094Y-86821508D01*
X143083807Y-86720754D01*
X143086424Y-86645722D01*
X143089526Y-86592084D01*
X143093690Y-86555510D01*
X143099495Y-86531671D01*
X143107522Y-86516238D01*
X143118349Y-86504882D01*
X143124090Y-86500110D01*
X143170063Y-86474877D01*
X143213809Y-86478566D01*
X143248511Y-86500123D01*
X143283993Y-86528835D01*
X143288406Y-86948150D01*
X143289627Y-87071471D01*
X143290249Y-87168348D01*
X143290056Y-87242394D01*
X143288832Y-87297221D01*
X143286362Y-87336443D01*
X143282432Y-87363673D01*
X143276826Y-87382523D01*
X143269328Y-87396605D01*
X143261013Y-87407899D01*
X143243024Y-87428846D01*
X143225125Y-87442731D01*
X143204834Y-87448060D01*
X143179668Y-87443340D01*
X143147146Y-87427077D01*
X143104783Y-87397777D01*
X143050098Y-87353946D01*
X142980609Y-87294091D01*
X142893831Y-87216718D01*
X142795531Y-87127814D01*
X142442336Y-86807435D01*
X142434821Y-87099177D01*
X142432103Y-87199747D01*
X142429479Y-87274604D01*
X142426367Y-87328084D01*
X142422184Y-87364526D01*
X142416349Y-87388268D01*
X142408280Y-87403646D01*
X142397395Y-87415000D01*
X142391825Y-87419626D01*
X142342590Y-87445042D01*
X142296069Y-87441209D01*
X142255557Y-87408733D01*
X142246290Y-87395667D01*
X142239067Y-87380409D01*
X142233634Y-87359296D01*
X142229738Y-87328669D01*
X142227125Y-87284866D01*
X142225539Y-87224227D01*
X142224728Y-87143091D01*
X142224438Y-87037797D01*
X142224407Y-86959872D01*
X142224505Y-86837988D01*
X142224967Y-86742503D01*
X142226049Y-86669755D01*
X142228003Y-86616083D01*
X142231084Y-86577827D01*
X142235546Y-86551327D01*
X142241643Y-86532920D01*
X142249629Y-86518948D01*
X142255557Y-86511011D01*
X142270584Y-86492212D01*
X142284628Y-86478017D01*
X142299816Y-86469846D01*
X142318273Y-86469116D01*
X142342126Y-86477244D01*
G37*
X142342126Y-86477244D02*
X142373501Y-86495649D01*
X142414524Y-86525749D01*
X142467322Y-86568960D01*
X142534021Y-86626702D01*
X142616747Y-86700392D01*
X142717626Y-86791448D01*
X142833105Y-86896138D01*
X143073579Y-87114207D01*
X143081094Y-86821508D01*
X143083807Y-86720754D01*
X143086424Y-86645722D01*
X143089526Y-86592084D01*
X143093690Y-86555510D01*
X143099495Y-86531671D01*
X143107522Y-86516238D01*
X143118349Y-86504882D01*
X143124090Y-86500110D01*
X143170063Y-86474877D01*
X143213809Y-86478566D01*
X143248511Y-86500123D01*
X143283993Y-86528835D01*
X143288406Y-86948150D01*
X143289627Y-87071471D01*
X143290249Y-87168348D01*
X143290056Y-87242394D01*
X143288832Y-87297221D01*
X143286362Y-87336443D01*
X143282432Y-87363673D01*
X143276826Y-87382523D01*
X143269328Y-87396605D01*
X143261013Y-87407899D01*
X143243024Y-87428846D01*
X143225125Y-87442731D01*
X143204834Y-87448060D01*
X143179668Y-87443340D01*
X143147146Y-87427077D01*
X143104783Y-87397777D01*
X143050098Y-87353946D01*
X142980609Y-87294091D01*
X142893831Y-87216718D01*
X142795531Y-87127814D01*
X142442336Y-86807435D01*
X142434821Y-87099177D01*
X142432103Y-87199747D01*
X142429479Y-87274604D01*
X142426367Y-87328084D01*
X142422184Y-87364526D01*
X142416349Y-87388268D01*
X142408280Y-87403646D01*
X142397395Y-87415000D01*
X142391825Y-87419626D01*
X142342590Y-87445042D01*
X142296069Y-87441209D01*
X142255557Y-87408733D01*
X142246290Y-87395667D01*
X142239067Y-87380409D01*
X142233634Y-87359296D01*
X142229738Y-87328669D01*
X142227125Y-87284866D01*
X142225539Y-87224227D01*
X142224728Y-87143091D01*
X142224438Y-87037797D01*
X142224407Y-86959872D01*
X142224505Y-86837988D01*
X142224967Y-86742503D01*
X142226049Y-86669755D01*
X142228003Y-86616083D01*
X142231084Y-86577827D01*
X142235546Y-86551327D01*
X142241643Y-86532920D01*
X142249629Y-86518948D01*
X142255557Y-86511011D01*
X142270584Y-86492212D01*
X142284628Y-86478017D01*
X142299816Y-86469846D01*
X142318273Y-86469116D01*
X142342126Y-86477244D01*
G36*
X144379716Y-86471667D02*
G01*
X144481377Y-86472884D01*
X144559282Y-86475730D01*
X144616581Y-86480874D01*
X144656427Y-86488984D01*
X144681968Y-86500731D01*
X144696357Y-86516782D01*
X144702745Y-86537808D01*
X144704281Y-86564476D01*
X144704289Y-86567626D01*
X144702955Y-86597790D01*
X144696651Y-86621103D01*
X144681922Y-86638506D01*
X144655315Y-86650940D01*
X144613374Y-86659345D01*
X144552646Y-86664665D01*
X144469676Y-86667839D01*
X144361011Y-86669809D01*
X144327705Y-86670245D01*
X144005413Y-86674310D01*
X144000906Y-86760730D01*
X143996398Y-86847150D01*
X144220263Y-86847150D01*
X144307721Y-86847473D01*
X144370169Y-86848837D01*
X144412654Y-86851839D01*
X144440223Y-86857073D01*
X144457922Y-86865135D01*
X144470797Y-86876620D01*
X144470880Y-86876711D01*
X144494230Y-86921471D01*
X144493386Y-86969847D01*
X144468879Y-87011086D01*
X144464029Y-87015325D01*
X144446815Y-87026249D01*
X144423226Y-87033849D01*
X144388007Y-87038697D01*
X144335900Y-87041366D01*
X144261650Y-87042428D01*
X144214162Y-87042535D01*
X143997898Y-87042535D01*
X143997898Y-87252949D01*
X144326220Y-87252949D01*
X144434618Y-87253139D01*
X144516935Y-87253914D01*
X144577149Y-87255584D01*
X144619235Y-87258458D01*
X144647171Y-87262847D01*
X144664934Y-87269059D01*
X144676500Y-87277404D01*
X144679415Y-87280434D01*
X144700936Y-87322434D01*
X144702510Y-87370214D01*
X144684855Y-87411642D01*
X144670885Y-87424937D01*
X144656354Y-87432256D01*
X144633838Y-87437919D01*
X144599776Y-87442123D01*
X144550607Y-87445068D01*
X144482768Y-87446951D01*
X144392698Y-87447970D01*
X144276837Y-87448325D01*
X144250643Y-87448334D01*
X144132839Y-87448256D01*
X144041396Y-87447831D01*
X143972614Y-87446766D01*
X143922796Y-87444769D01*
X143888240Y-87441550D01*
X143865250Y-87436816D01*
X143850126Y-87430277D01*
X143839169Y-87421641D01*
X143833158Y-87415440D01*
X143824110Y-87404457D01*
X143817042Y-87390852D01*
X143811709Y-87371056D01*
X143807868Y-87341502D01*
X143805275Y-87298621D01*
X143803687Y-87238845D01*
X143802861Y-87158607D01*
X143802552Y-87054339D01*
X143802514Y-86966580D01*
X143802608Y-86843608D01*
X143803057Y-86747069D01*
X143804108Y-86673339D01*
X143806010Y-86618790D01*
X143809009Y-86579799D01*
X143813355Y-86552739D01*
X143819294Y-86533984D01*
X143827075Y-86519910D01*
X143833664Y-86511011D01*
X143864814Y-86471410D01*
X144251148Y-86471410D01*
X144379716Y-86471667D01*
G37*
X144379716Y-86471667D02*
X144481377Y-86472884D01*
X144559282Y-86475730D01*
X144616581Y-86480874D01*
X144656427Y-86488984D01*
X144681968Y-86500731D01*
X144696357Y-86516782D01*
X144702745Y-86537808D01*
X144704281Y-86564476D01*
X144704289Y-86567626D01*
X144702955Y-86597790D01*
X144696651Y-86621103D01*
X144681922Y-86638506D01*
X144655315Y-86650940D01*
X144613374Y-86659345D01*
X144552646Y-86664665D01*
X144469676Y-86667839D01*
X144361011Y-86669809D01*
X144327705Y-86670245D01*
X144005413Y-86674310D01*
X144000906Y-86760730D01*
X143996398Y-86847150D01*
X144220263Y-86847150D01*
X144307721Y-86847473D01*
X144370169Y-86848837D01*
X144412654Y-86851839D01*
X144440223Y-86857073D01*
X144457922Y-86865135D01*
X144470797Y-86876620D01*
X144470880Y-86876711D01*
X144494230Y-86921471D01*
X144493386Y-86969847D01*
X144468879Y-87011086D01*
X144464029Y-87015325D01*
X144446815Y-87026249D01*
X144423226Y-87033849D01*
X144388007Y-87038697D01*
X144335900Y-87041366D01*
X144261650Y-87042428D01*
X144214162Y-87042535D01*
X143997898Y-87042535D01*
X143997898Y-87252949D01*
X144326220Y-87252949D01*
X144434618Y-87253139D01*
X144516935Y-87253914D01*
X144577149Y-87255584D01*
X144619235Y-87258458D01*
X144647171Y-87262847D01*
X144664934Y-87269059D01*
X144676500Y-87277404D01*
X144679415Y-87280434D01*
X144700936Y-87322434D01*
X144702510Y-87370214D01*
X144684855Y-87411642D01*
X144670885Y-87424937D01*
X144656354Y-87432256D01*
X144633838Y-87437919D01*
X144599776Y-87442123D01*
X144550607Y-87445068D01*
X144482768Y-87446951D01*
X144392698Y-87447970D01*
X144276837Y-87448325D01*
X144250643Y-87448334D01*
X144132839Y-87448256D01*
X144041396Y-87447831D01*
X143972614Y-87446766D01*
X143922796Y-87444769D01*
X143888240Y-87441550D01*
X143865250Y-87436816D01*
X143850126Y-87430277D01*
X143839169Y-87421641D01*
X143833158Y-87415440D01*
X143824110Y-87404457D01*
X143817042Y-87390852D01*
X143811709Y-87371056D01*
X143807868Y-87341502D01*
X143805275Y-87298621D01*
X143803687Y-87238845D01*
X143802861Y-87158607D01*
X143802552Y-87054339D01*
X143802514Y-86966580D01*
X143802608Y-86843608D01*
X143803057Y-86747069D01*
X143804108Y-86673339D01*
X143806010Y-86618790D01*
X143809009Y-86579799D01*
X143813355Y-86552739D01*
X143819294Y-86533984D01*
X143827075Y-86519910D01*
X143833664Y-86511011D01*
X143864814Y-86471410D01*
X144251148Y-86471410D01*
X144379716Y-86471667D01*
G36*
X145428783Y-86471687D02*
G01*
X145600501Y-86477493D01*
X145746555Y-86495101D01*
X145869353Y-86525563D01*
X145971303Y-86569935D01*
X146054814Y-86629271D01*
X146122293Y-86704624D01*
X146176149Y-86797050D01*
X146177208Y-86799304D01*
X146209349Y-86882024D01*
X146220801Y-86955284D01*
X146211520Y-87029012D01*
X146181461Y-87113135D01*
X146175761Y-87125937D01*
X146136885Y-87200862D01*
X146093195Y-87258757D01*
X146036806Y-87307972D01*
X145959838Y-87356857D01*
X145955366Y-87359409D01*
X145888363Y-87391595D01*
X145812631Y-87415632D01*
X145723304Y-87432351D01*
X145615515Y-87442579D01*
X145484398Y-87447146D01*
X145438072Y-87447543D01*
X145217476Y-87448334D01*
X145186326Y-87408733D01*
X145177086Y-87395711D01*
X145169878Y-87380504D01*
X145164450Y-87359466D01*
X145160551Y-87328950D01*
X145157929Y-87285311D01*
X145157074Y-87252949D01*
X145365591Y-87252949D01*
X145490582Y-87252949D01*
X145563723Y-87250810D01*
X145638807Y-87245181D01*
X145700430Y-87237243D01*
X145704149Y-87236575D01*
X145813599Y-87207212D01*
X145898494Y-87163097D01*
X145961518Y-87102183D01*
X146005360Y-87022424D01*
X146012983Y-87001284D01*
X146020456Y-86968362D01*
X146017221Y-86935836D01*
X146001479Y-86892564D01*
X145991990Y-86871307D01*
X145960917Y-86814820D01*
X145923479Y-86775191D01*
X145882287Y-86747594D01*
X145799776Y-86711682D01*
X145694179Y-86685668D01*
X145571164Y-86670688D01*
X145482070Y-86667392D01*
X145365591Y-86666795D01*
X145365591Y-87252949D01*
X145157074Y-87252949D01*
X145156332Y-87224900D01*
X145155510Y-87144072D01*
X145155210Y-87039181D01*
X145155176Y-86957162D01*
X145155176Y-86545192D01*
X145192067Y-86508301D01*
X145208440Y-86493348D01*
X145226143Y-86483108D01*
X145250865Y-86476701D01*
X145288294Y-86473247D01*
X145344119Y-86471867D01*
X145424028Y-86471681D01*
X145428783Y-86471687D01*
G37*
X145428783Y-86471687D02*
X145600501Y-86477493D01*
X145746555Y-86495101D01*
X145869353Y-86525563D01*
X145971303Y-86569935D01*
X146054814Y-86629271D01*
X146122293Y-86704624D01*
X146176149Y-86797050D01*
X146177208Y-86799304D01*
X146209349Y-86882024D01*
X146220801Y-86955284D01*
X146211520Y-87029012D01*
X146181461Y-87113135D01*
X146175761Y-87125937D01*
X146136885Y-87200862D01*
X146093195Y-87258757D01*
X146036806Y-87307972D01*
X145959838Y-87356857D01*
X145955366Y-87359409D01*
X145888363Y-87391595D01*
X145812631Y-87415632D01*
X145723304Y-87432351D01*
X145615515Y-87442579D01*
X145484398Y-87447146D01*
X145438072Y-87447543D01*
X145217476Y-87448334D01*
X145186326Y-87408733D01*
X145177086Y-87395711D01*
X145169878Y-87380504D01*
X145164450Y-87359466D01*
X145160551Y-87328950D01*
X145157929Y-87285311D01*
X145157074Y-87252949D01*
X145365591Y-87252949D01*
X145490582Y-87252949D01*
X145563723Y-87250810D01*
X145638807Y-87245181D01*
X145700430Y-87237243D01*
X145704149Y-87236575D01*
X145813599Y-87207212D01*
X145898494Y-87163097D01*
X145961518Y-87102183D01*
X146005360Y-87022424D01*
X146012983Y-87001284D01*
X146020456Y-86968362D01*
X146017221Y-86935836D01*
X146001479Y-86892564D01*
X145991990Y-86871307D01*
X145960917Y-86814820D01*
X145923479Y-86775191D01*
X145882287Y-86747594D01*
X145799776Y-86711682D01*
X145694179Y-86685668D01*
X145571164Y-86670688D01*
X145482070Y-86667392D01*
X145365591Y-86666795D01*
X145365591Y-87252949D01*
X145157074Y-87252949D01*
X145156332Y-87224900D01*
X145155510Y-87144072D01*
X145155210Y-87039181D01*
X145155176Y-86957162D01*
X145155176Y-86545192D01*
X145192067Y-86508301D01*
X145208440Y-86493348D01*
X145226143Y-86483108D01*
X145250865Y-86476701D01*
X145288294Y-86473247D01*
X145344119Y-86471867D01*
X145424028Y-86471681D01*
X145428783Y-86471687D01*
G36*
X149058547Y-86474030D02*
G01*
X149084628Y-86483350D01*
X149085634Y-86483806D01*
X149121052Y-86510834D01*
X149140566Y-86538636D01*
X149144384Y-86551672D01*
X149144195Y-86568992D01*
X149138822Y-86593667D01*
X149127088Y-86628764D01*
X149107813Y-86677353D01*
X149079822Y-86742502D01*
X149041936Y-86827281D01*
X148992978Y-86934759D01*
X148966031Y-86993503D01*
X148917370Y-87098373D01*
X148871690Y-87194814D01*
X148830734Y-87279298D01*
X148796246Y-87348300D01*
X148769969Y-87398294D01*
X148753646Y-87425754D01*
X148750416Y-87429547D01*
X148709089Y-87446280D01*
X148662409Y-87444039D01*
X148624970Y-87423687D01*
X148623444Y-87422032D01*
X148608551Y-87399486D01*
X148583569Y-87355571D01*
X148551579Y-87295940D01*
X148515660Y-87226246D01*
X148502752Y-87200563D01*
X148405314Y-87005397D01*
X148299106Y-87217407D01*
X148261197Y-87290661D01*
X148226027Y-87354190D01*
X148196468Y-87403131D01*
X148175394Y-87432622D01*
X148168252Y-87438876D01*
X148112738Y-87447345D01*
X148066929Y-87429547D01*
X148053454Y-87410525D01*
X148030136Y-87368249D01*
X147998877Y-87306880D01*
X147961580Y-87230576D01*
X147920146Y-87143499D01*
X147876478Y-87049807D01*
X147832478Y-86953661D01*
X147790048Y-86859221D01*
X147751090Y-86770645D01*
X147717507Y-86692096D01*
X147691201Y-86627731D01*
X147674074Y-86581711D01*
X147668029Y-86558197D01*
X147668091Y-86557345D01*
X147682800Y-86527756D01*
X147712202Y-86497620D01*
X147713933Y-86496308D01*
X147750070Y-86475882D01*
X147783494Y-86476080D01*
X147796022Y-86479931D01*
X147811287Y-86488253D01*
X147827498Y-86504625D01*
X147846599Y-86532442D01*
X147870535Y-86575100D01*
X147901251Y-86635995D01*
X147940691Y-86718525D01*
X147976258Y-86794707D01*
X148017177Y-86883014D01*
X148053844Y-86962426D01*
X148084354Y-87028796D01*
X148106802Y-87077975D01*
X148119283Y-87105813D01*
X148121103Y-87110168D01*
X148129290Y-87103049D01*
X148148105Y-87073241D01*
X148175046Y-87025096D01*
X148207608Y-86962963D01*
X148220566Y-86937328D01*
X148264460Y-86850765D01*
X148298311Y-86787725D01*
X148324897Y-86744542D01*
X148346995Y-86717552D01*
X148367384Y-86703088D01*
X148388840Y-86697487D01*
X148402823Y-86696854D01*
X148427488Y-86699040D01*
X148449102Y-86708079D01*
X148470578Y-86727697D01*
X148494830Y-86761617D01*
X148524770Y-86813562D01*
X148563313Y-86887258D01*
X148584578Y-86929180D01*
X148619072Y-86995994D01*
X148649156Y-87051401D01*
X148672177Y-87090727D01*
X148685480Y-87109296D01*
X148687289Y-87110069D01*
X148695880Y-87095455D01*
X148715114Y-87057507D01*
X148743065Y-87000196D01*
X148777807Y-86927496D01*
X148817413Y-86843376D01*
X148836896Y-86801594D01*
X148887580Y-86693763D01*
X148928393Y-86610790D01*
X148961454Y-86549966D01*
X148988881Y-86508585D01*
X149012792Y-86483940D01*
X149035308Y-86473324D01*
X149058547Y-86474030D01*
G37*
X149058547Y-86474030D02*
X149084628Y-86483350D01*
X149085634Y-86483806D01*
X149121052Y-86510834D01*
X149140566Y-86538636D01*
X149144384Y-86551672D01*
X149144195Y-86568992D01*
X149138822Y-86593667D01*
X149127088Y-86628764D01*
X149107813Y-86677353D01*
X149079822Y-86742502D01*
X149041936Y-86827281D01*
X148992978Y-86934759D01*
X148966031Y-86993503D01*
X148917370Y-87098373D01*
X148871690Y-87194814D01*
X148830734Y-87279298D01*
X148796246Y-87348300D01*
X148769969Y-87398294D01*
X148753646Y-87425754D01*
X148750416Y-87429547D01*
X148709089Y-87446280D01*
X148662409Y-87444039D01*
X148624970Y-87423687D01*
X148623444Y-87422032D01*
X148608551Y-87399486D01*
X148583569Y-87355571D01*
X148551579Y-87295940D01*
X148515660Y-87226246D01*
X148502752Y-87200563D01*
X148405314Y-87005397D01*
X148299106Y-87217407D01*
X148261197Y-87290661D01*
X148226027Y-87354190D01*
X148196468Y-87403131D01*
X148175394Y-87432622D01*
X148168252Y-87438876D01*
X148112738Y-87447345D01*
X148066929Y-87429547D01*
X148053454Y-87410525D01*
X148030136Y-87368249D01*
X147998877Y-87306880D01*
X147961580Y-87230576D01*
X147920146Y-87143499D01*
X147876478Y-87049807D01*
X147832478Y-86953661D01*
X147790048Y-86859221D01*
X147751090Y-86770645D01*
X147717507Y-86692096D01*
X147691201Y-86627731D01*
X147674074Y-86581711D01*
X147668029Y-86558197D01*
X147668091Y-86557345D01*
X147682800Y-86527756D01*
X147712202Y-86497620D01*
X147713933Y-86496308D01*
X147750070Y-86475882D01*
X147783494Y-86476080D01*
X147796022Y-86479931D01*
X147811287Y-86488253D01*
X147827498Y-86504625D01*
X147846599Y-86532442D01*
X147870535Y-86575100D01*
X147901251Y-86635995D01*
X147940691Y-86718525D01*
X147976258Y-86794707D01*
X148017177Y-86883014D01*
X148053844Y-86962426D01*
X148084354Y-87028796D01*
X148106802Y-87077975D01*
X148119283Y-87105813D01*
X148121103Y-87110168D01*
X148129290Y-87103049D01*
X148148105Y-87073241D01*
X148175046Y-87025096D01*
X148207608Y-86962963D01*
X148220566Y-86937328D01*
X148264460Y-86850765D01*
X148298311Y-86787725D01*
X148324897Y-86744542D01*
X148346995Y-86717552D01*
X148367384Y-86703088D01*
X148388840Y-86697487D01*
X148402823Y-86696854D01*
X148427488Y-86699040D01*
X148449102Y-86708079D01*
X148470578Y-86727697D01*
X148494830Y-86761617D01*
X148524770Y-86813562D01*
X148563313Y-86887258D01*
X148584578Y-86929180D01*
X148619072Y-86995994D01*
X148649156Y-87051401D01*
X148672177Y-87090727D01*
X148685480Y-87109296D01*
X148687289Y-87110069D01*
X148695880Y-87095455D01*
X148715114Y-87057507D01*
X148743065Y-87000196D01*
X148777807Y-86927496D01*
X148817413Y-86843376D01*
X148836896Y-86801594D01*
X148887580Y-86693763D01*
X148928393Y-86610790D01*
X148961454Y-86549966D01*
X148988881Y-86508585D01*
X149012792Y-86483940D01*
X149035308Y-86473324D01*
X149058547Y-86474030D01*
G36*
X149649604Y-86480477D02*
G01*
X149681174Y-86500142D01*
X149716656Y-86528873D01*
X149716656Y-86956966D01*
X149716543Y-87082190D01*
X149716059Y-87180847D01*
X149714986Y-87256430D01*
X149713108Y-87312433D01*
X149710206Y-87352347D01*
X149706063Y-87379666D01*
X149700462Y-87397881D01*
X149693185Y-87410486D01*
X149688024Y-87416696D01*
X149646168Y-87443980D01*
X149598505Y-87442867D01*
X149556753Y-87419602D01*
X149521271Y-87390871D01*
X149521271Y-86528873D01*
X149556753Y-86500142D01*
X149590998Y-86479242D01*
X149618963Y-86471410D01*
X149649604Y-86480477D01*
G37*
X149649604Y-86480477D02*
X149681174Y-86500142D01*
X149716656Y-86528873D01*
X149716656Y-86956966D01*
X149716543Y-87082190D01*
X149716059Y-87180847D01*
X149714986Y-87256430D01*
X149713108Y-87312433D01*
X149710206Y-87352347D01*
X149706063Y-87379666D01*
X149700462Y-87397881D01*
X149693185Y-87410486D01*
X149688024Y-87416696D01*
X149646168Y-87443980D01*
X149598505Y-87442867D01*
X149556753Y-87419602D01*
X149521271Y-87390871D01*
X149521271Y-86528873D01*
X149556753Y-86500142D01*
X149590998Y-86479242D01*
X149618963Y-86471410D01*
X149649604Y-86480477D01*
G36*
X150680677Y-86471539D02*
G01*
X150785465Y-86472043D01*
X150866799Y-86473096D01*
X150927980Y-86474876D01*
X150972311Y-86477557D01*
X151003094Y-86481314D01*
X151023631Y-86486325D01*
X151037225Y-86492763D01*
X151043803Y-86497712D01*
X151077944Y-86541029D01*
X151082074Y-86586003D01*
X151060976Y-86626860D01*
X151047179Y-86643186D01*
X151032332Y-86654318D01*
X151010815Y-86661250D01*
X150977008Y-86664977D01*
X150925292Y-86666494D01*
X150850047Y-86666794D01*
X150835269Y-86666795D01*
X150640975Y-86666795D01*
X150640975Y-87027505D01*
X150640847Y-87141201D01*
X150640266Y-87228685D01*
X150638936Y-87293802D01*
X150636560Y-87340398D01*
X150632844Y-87372319D01*
X150627492Y-87393412D01*
X150620207Y-87407523D01*
X150610916Y-87418274D01*
X150567071Y-87444696D01*
X150521300Y-87442614D01*
X150479790Y-87412469D01*
X150476741Y-87408733D01*
X150466812Y-87394610D01*
X150459248Y-87378086D01*
X150453729Y-87355146D01*
X150449933Y-87321773D01*
X150447542Y-87273955D01*
X150446234Y-87207674D01*
X150445691Y-87118918D01*
X150445591Y-87017963D01*
X150445591Y-86666795D01*
X150260050Y-86666795D01*
X150180427Y-86666256D01*
X150125304Y-86664157D01*
X150089132Y-86659771D01*
X150066362Y-86652376D01*
X150051447Y-86641245D01*
X150049636Y-86639310D01*
X150027858Y-86595057D01*
X150029784Y-86545029D01*
X150054821Y-86501470D01*
X150064504Y-86493020D01*
X150076988Y-86486321D01*
X150095603Y-86481169D01*
X150123677Y-86477361D01*
X150164541Y-86474697D01*
X150221522Y-86472972D01*
X150297952Y-86471984D01*
X150397157Y-86471532D01*
X150522469Y-86471412D01*
X150549133Y-86471410D01*
X150680677Y-86471539D01*
G37*
X150680677Y-86471539D02*
X150785465Y-86472043D01*
X150866799Y-86473096D01*
X150927980Y-86474876D01*
X150972311Y-86477557D01*
X151003094Y-86481314D01*
X151023631Y-86486325D01*
X151037225Y-86492763D01*
X151043803Y-86497712D01*
X151077944Y-86541029D01*
X151082074Y-86586003D01*
X151060976Y-86626860D01*
X151047179Y-86643186D01*
X151032332Y-86654318D01*
X151010815Y-86661250D01*
X150977008Y-86664977D01*
X150925292Y-86666494D01*
X150850047Y-86666794D01*
X150835269Y-86666795D01*
X150640975Y-86666795D01*
X150640975Y-87027505D01*
X150640847Y-87141201D01*
X150640266Y-87228685D01*
X150638936Y-87293802D01*
X150636560Y-87340398D01*
X150632844Y-87372319D01*
X150627492Y-87393412D01*
X150620207Y-87407523D01*
X150610916Y-87418274D01*
X150567071Y-87444696D01*
X150521300Y-87442614D01*
X150479790Y-87412469D01*
X150476741Y-87408733D01*
X150466812Y-87394610D01*
X150459248Y-87378086D01*
X150453729Y-87355146D01*
X150449933Y-87321773D01*
X150447542Y-87273955D01*
X150446234Y-87207674D01*
X150445691Y-87118918D01*
X150445591Y-87017963D01*
X150445591Y-86666795D01*
X150260050Y-86666795D01*
X150180427Y-86666256D01*
X150125304Y-86664157D01*
X150089132Y-86659771D01*
X150066362Y-86652376D01*
X150051447Y-86641245D01*
X150049636Y-86639310D01*
X150027858Y-86595057D01*
X150029784Y-86545029D01*
X150054821Y-86501470D01*
X150064504Y-86493020D01*
X150076988Y-86486321D01*
X150095603Y-86481169D01*
X150123677Y-86477361D01*
X150164541Y-86474697D01*
X150221522Y-86472972D01*
X150297952Y-86471984D01*
X150397157Y-86471532D01*
X150522469Y-86471412D01*
X150549133Y-86471410D01*
X150680677Y-86471539D01*
G36*
X152365859Y-86478688D02*
G01*
X152407635Y-86508301D01*
X152444525Y-86545192D01*
X152444525Y-86957162D01*
X152444429Y-87079486D01*
X152443972Y-87175398D01*
X152442903Y-87248544D01*
X152440971Y-87302570D01*
X152437923Y-87341123D01*
X152433509Y-87367848D01*
X152427476Y-87386394D01*
X152419574Y-87400405D01*
X152413375Y-87408733D01*
X152372461Y-87441449D01*
X152325482Y-87445000D01*
X152282544Y-87424937D01*
X152268356Y-87413092D01*
X152258872Y-87397358D01*
X152253151Y-87372022D01*
X152250253Y-87331370D01*
X152249238Y-87269688D01*
X152249141Y-87222038D01*
X152249141Y-87042535D01*
X151587839Y-87042535D01*
X151587839Y-87205833D01*
X151587155Y-87280505D01*
X151584419Y-87331824D01*
X151578604Y-87366477D01*
X151568684Y-87391155D01*
X151556689Y-87408733D01*
X151515546Y-87441357D01*
X151469017Y-87445220D01*
X151424473Y-87422032D01*
X151412312Y-87409876D01*
X151403723Y-87393761D01*
X151398058Y-87368660D01*
X151394669Y-87329544D01*
X151392908Y-87271386D01*
X151392128Y-87189158D01*
X151392036Y-87170286D01*
X151391392Y-87015357D01*
X151391060Y-86887674D01*
X151391168Y-86784427D01*
X151391845Y-86702803D01*
X151393218Y-86639992D01*
X151395416Y-86593181D01*
X151398566Y-86559559D01*
X151402798Y-86536315D01*
X151408238Y-86520636D01*
X151415015Y-86509711D01*
X151422514Y-86501470D01*
X151464933Y-86475107D01*
X151509172Y-86478688D01*
X151550948Y-86508301D01*
X151567853Y-86527407D01*
X151578629Y-86548511D01*
X151584641Y-86578568D01*
X151587256Y-86624533D01*
X151587839Y-86693360D01*
X151587839Y-86847150D01*
X152249141Y-86847150D01*
X152249141Y-86689339D01*
X152249816Y-86616636D01*
X152252526Y-86567545D01*
X152258301Y-86535636D01*
X152268169Y-86514478D01*
X152279200Y-86501470D01*
X152321619Y-86475107D01*
X152365859Y-86478688D01*
G37*
X152365859Y-86478688D02*
X152407635Y-86508301D01*
X152444525Y-86545192D01*
X152444525Y-86957162D01*
X152444429Y-87079486D01*
X152443972Y-87175398D01*
X152442903Y-87248544D01*
X152440971Y-87302570D01*
X152437923Y-87341123D01*
X152433509Y-87367848D01*
X152427476Y-87386394D01*
X152419574Y-87400405D01*
X152413375Y-87408733D01*
X152372461Y-87441449D01*
X152325482Y-87445000D01*
X152282544Y-87424937D01*
X152268356Y-87413092D01*
X152258872Y-87397358D01*
X152253151Y-87372022D01*
X152250253Y-87331370D01*
X152249238Y-87269688D01*
X152249141Y-87222038D01*
X152249141Y-87042535D01*
X151587839Y-87042535D01*
X151587839Y-87205833D01*
X151587155Y-87280505D01*
X151584419Y-87331824D01*
X151578604Y-87366477D01*
X151568684Y-87391155D01*
X151556689Y-87408733D01*
X151515546Y-87441357D01*
X151469017Y-87445220D01*
X151424473Y-87422032D01*
X151412312Y-87409876D01*
X151403723Y-87393761D01*
X151398058Y-87368660D01*
X151394669Y-87329544D01*
X151392908Y-87271386D01*
X151392128Y-87189158D01*
X151392036Y-87170286D01*
X151391392Y-87015357D01*
X151391060Y-86887674D01*
X151391168Y-86784427D01*
X151391845Y-86702803D01*
X151393218Y-86639992D01*
X151395416Y-86593181D01*
X151398566Y-86559559D01*
X151402798Y-86536315D01*
X151408238Y-86520636D01*
X151415015Y-86509711D01*
X151422514Y-86501470D01*
X151464933Y-86475107D01*
X151509172Y-86478688D01*
X151550948Y-86508301D01*
X151567853Y-86527407D01*
X151578629Y-86548511D01*
X151584641Y-86578568D01*
X151587256Y-86624533D01*
X151587839Y-86693360D01*
X151587839Y-86847150D01*
X152249141Y-86847150D01*
X152249141Y-86689339D01*
X152249816Y-86616636D01*
X152252526Y-86567545D01*
X152258301Y-86535636D01*
X152268169Y-86514478D01*
X152279200Y-86501470D01*
X152321619Y-86475107D01*
X152365859Y-86478688D01*
G36*
X140295682Y-77948933D02*
G01*
X140431929Y-77996172D01*
X140558779Y-78070527D01*
X140672067Y-78171987D01*
X140767628Y-78300543D01*
X140810554Y-78381572D01*
X140847705Y-78494908D01*
X140865712Y-78625751D01*
X140863717Y-78760265D01*
X140841577Y-78882158D01*
X140781064Y-79031107D01*
X140693314Y-79160309D01*
X140582788Y-79267223D01*
X140453946Y-79349306D01*
X140311247Y-79404016D01*
X140159151Y-79428810D01*
X140002119Y-79421147D01*
X139924714Y-79404772D01*
X139773859Y-79346089D01*
X139639875Y-79256543D01*
X139525994Y-79138893D01*
X139435448Y-78995902D01*
X139427788Y-78980286D01*
X139401306Y-78921686D01*
X139384678Y-78872334D01*
X139375650Y-78820270D01*
X139371968Y-78753539D01*
X139371357Y-78680929D01*
X139372367Y-78593691D01*
X139376928Y-78530624D01*
X139387334Y-78479636D01*
X139405879Y-78428633D01*
X139428770Y-78378313D01*
X139514154Y-78235470D01*
X139619301Y-78119810D01*
X139740045Y-78031325D01*
X139872221Y-77970005D01*
X140011663Y-77935839D01*
X140154205Y-77928818D01*
X140295682Y-77948933D01*
G37*
X140295682Y-77948933D02*
X140431929Y-77996172D01*
X140558779Y-78070527D01*
X140672067Y-78171987D01*
X140767628Y-78300543D01*
X140810554Y-78381572D01*
X140847705Y-78494908D01*
X140865712Y-78625751D01*
X140863717Y-78760265D01*
X140841577Y-78882158D01*
X140781064Y-79031107D01*
X140693314Y-79160309D01*
X140582788Y-79267223D01*
X140453946Y-79349306D01*
X140311247Y-79404016D01*
X140159151Y-79428810D01*
X140002119Y-79421147D01*
X139924714Y-79404772D01*
X139773859Y-79346089D01*
X139639875Y-79256543D01*
X139525994Y-79138893D01*
X139435448Y-78995902D01*
X139427788Y-78980286D01*
X139401306Y-78921686D01*
X139384678Y-78872334D01*
X139375650Y-78820270D01*
X139371968Y-78753539D01*
X139371357Y-78680929D01*
X139372367Y-78593691D01*
X139376928Y-78530624D01*
X139387334Y-78479636D01*
X139405879Y-78428633D01*
X139428770Y-78378313D01*
X139514154Y-78235470D01*
X139619301Y-78119810D01*
X139740045Y-78031325D01*
X139872221Y-77970005D01*
X140011663Y-77935839D01*
X140154205Y-77928818D01*
X140295682Y-77948933D01*
G36*
X152939571Y-79165089D02*
G01*
X153093876Y-79165723D01*
X153146321Y-79166042D01*
X153867500Y-79170786D01*
X153876571Y-81937572D01*
X153877769Y-82312756D01*
X153878832Y-82653417D01*
X153879827Y-82961318D01*
X153880823Y-83238221D01*
X153881888Y-83485888D01*
X153883091Y-83706081D01*
X153884499Y-83900562D01*
X153886182Y-84071094D01*
X153888206Y-84219440D01*
X153890641Y-84347361D01*
X153893554Y-84456620D01*
X153897015Y-84548979D01*
X153901090Y-84626200D01*
X153905849Y-84690046D01*
X153911360Y-84742278D01*
X153917691Y-84784660D01*
X153924910Y-84818953D01*
X153933085Y-84846920D01*
X153942285Y-84870324D01*
X153952577Y-84890925D01*
X153964031Y-84910487D01*
X153976715Y-84930772D01*
X153990695Y-84953543D01*
X153993561Y-84958393D01*
X154041640Y-85040433D01*
X152651928Y-85030929D01*
X152642857Y-84878295D01*
X152637918Y-84805045D01*
X152632771Y-84762696D01*
X152625786Y-84745892D01*
X152615337Y-84749277D01*
X152606571Y-84758960D01*
X152568388Y-84794229D01*
X152506155Y-84839563D01*
X152428641Y-84889546D01*
X152344613Y-84938761D01*
X152262839Y-84981791D01*
X152200052Y-85010101D01*
X152052954Y-85056624D01*
X151884180Y-85089579D01*
X151706191Y-85107707D01*
X151531447Y-85109750D01*
X151372407Y-85094447D01*
X151369788Y-85094009D01*
X151152168Y-85039402D01*
X150948455Y-84952401D01*
X150760613Y-84834876D01*
X150590607Y-84688697D01*
X150440402Y-84515734D01*
X150311964Y-84317857D01*
X150207257Y-84096936D01*
X150150246Y-83933286D01*
X150112651Y-83796375D01*
X150084771Y-83663798D01*
X150065753Y-83527502D01*
X150054745Y-83379433D01*
X150050895Y-83211537D01*
X150052600Y-83074440D01*
X151391359Y-83074440D01*
X151397694Y-83304329D01*
X151417679Y-83502111D01*
X151451927Y-83669539D01*
X151501055Y-83808369D01*
X151565676Y-83920358D01*
X151646405Y-84007259D01*
X151739591Y-84068692D01*
X151788080Y-84091626D01*
X151830134Y-84105375D01*
X151877020Y-84111666D01*
X151940004Y-84112222D01*
X152007857Y-84109773D01*
X152141295Y-84098004D01*
X152246832Y-84074955D01*
X152280000Y-84063410D01*
X152355735Y-84029311D01*
X152435614Y-83986491D01*
X152470500Y-83965057D01*
X152561214Y-83905556D01*
X152561214Y-82019584D01*
X152461428Y-81959771D01*
X152322267Y-81892185D01*
X152180087Y-81852214D01*
X152040090Y-81839622D01*
X151907474Y-81854173D01*
X151787440Y-81895632D01*
X151685188Y-81963763D01*
X151652195Y-81996466D01*
X151572667Y-82103619D01*
X151508299Y-82233327D01*
X151458553Y-82387814D01*
X151422891Y-82569302D01*
X151400775Y-82780015D01*
X151391667Y-83022175D01*
X151391359Y-83074440D01*
X150052600Y-83074440D01*
X150053310Y-83017374D01*
X150068605Y-82718713D01*
X150099358Y-82449325D01*
X150146381Y-82205285D01*
X150210482Y-81982670D01*
X150292472Y-81777556D01*
X150321730Y-81716746D01*
X150439581Y-81518440D01*
X150581996Y-81342212D01*
X150745629Y-81190908D01*
X150927131Y-81067371D01*
X151123153Y-80974447D01*
X151240655Y-80936115D01*
X151356054Y-80913359D01*
X151494907Y-80899820D01*
X151645574Y-80895492D01*
X151796413Y-80900368D01*
X151935785Y-80914444D01*
X152047691Y-80936525D01*
X152180884Y-80979828D01*
X152309979Y-81035511D01*
X152422928Y-81097936D01*
X152483043Y-81140303D01*
X152524510Y-81171807D01*
X152553545Y-81190990D01*
X152560150Y-81193714D01*
X152562198Y-81176163D01*
X152564107Y-81125875D01*
X152565836Y-81046400D01*
X152567341Y-80941286D01*
X152568581Y-80814083D01*
X152569513Y-80668339D01*
X152570095Y-80507603D01*
X152570286Y-80343884D01*
X152570179Y-80134188D01*
X152569658Y-79957396D01*
X152568416Y-79810126D01*
X152566148Y-79688997D01*
X152562550Y-79590627D01*
X152557317Y-79511634D01*
X152550144Y-79448638D01*
X152540726Y-79398255D01*
X152528758Y-79357105D01*
X152513935Y-79321806D01*
X152495952Y-79288977D01*
X152474505Y-79255235D01*
X152471745Y-79251057D01*
X152444083Y-79207356D01*
X152427382Y-79177305D01*
X152425143Y-79170967D01*
X152442643Y-79168967D01*
X152492574Y-79167340D01*
X152571085Y-79166112D01*
X152674323Y-79165311D01*
X152798436Y-79164961D01*
X152939571Y-79165089D01*
G37*
X152939571Y-79165089D02*
X153093876Y-79165723D01*
X153146321Y-79166042D01*
X153867500Y-79170786D01*
X153876571Y-81937572D01*
X153877769Y-82312756D01*
X153878832Y-82653417D01*
X153879827Y-82961318D01*
X153880823Y-83238221D01*
X153881888Y-83485888D01*
X153883091Y-83706081D01*
X153884499Y-83900562D01*
X153886182Y-84071094D01*
X153888206Y-84219440D01*
X153890641Y-84347361D01*
X153893554Y-84456620D01*
X153897015Y-84548979D01*
X153901090Y-84626200D01*
X153905849Y-84690046D01*
X153911360Y-84742278D01*
X153917691Y-84784660D01*
X153924910Y-84818953D01*
X153933085Y-84846920D01*
X153942285Y-84870324D01*
X153952577Y-84890925D01*
X153964031Y-84910487D01*
X153976715Y-84930772D01*
X153990695Y-84953543D01*
X153993561Y-84958393D01*
X154041640Y-85040433D01*
X152651928Y-85030929D01*
X152642857Y-84878295D01*
X152637918Y-84805045D01*
X152632771Y-84762696D01*
X152625786Y-84745892D01*
X152615337Y-84749277D01*
X152606571Y-84758960D01*
X152568388Y-84794229D01*
X152506155Y-84839563D01*
X152428641Y-84889546D01*
X152344613Y-84938761D01*
X152262839Y-84981791D01*
X152200052Y-85010101D01*
X152052954Y-85056624D01*
X151884180Y-85089579D01*
X151706191Y-85107707D01*
X151531447Y-85109750D01*
X151372407Y-85094447D01*
X151369788Y-85094009D01*
X151152168Y-85039402D01*
X150948455Y-84952401D01*
X150760613Y-84834876D01*
X150590607Y-84688697D01*
X150440402Y-84515734D01*
X150311964Y-84317857D01*
X150207257Y-84096936D01*
X150150246Y-83933286D01*
X150112651Y-83796375D01*
X150084771Y-83663798D01*
X150065753Y-83527502D01*
X150054745Y-83379433D01*
X150050895Y-83211537D01*
X150052600Y-83074440D01*
X151391359Y-83074440D01*
X151397694Y-83304329D01*
X151417679Y-83502111D01*
X151451927Y-83669539D01*
X151501055Y-83808369D01*
X151565676Y-83920358D01*
X151646405Y-84007259D01*
X151739591Y-84068692D01*
X151788080Y-84091626D01*
X151830134Y-84105375D01*
X151877020Y-84111666D01*
X151940004Y-84112222D01*
X152007857Y-84109773D01*
X152141295Y-84098004D01*
X152246832Y-84074955D01*
X152280000Y-84063410D01*
X152355735Y-84029311D01*
X152435614Y-83986491D01*
X152470500Y-83965057D01*
X152561214Y-83905556D01*
X152561214Y-82019584D01*
X152461428Y-81959771D01*
X152322267Y-81892185D01*
X152180087Y-81852214D01*
X152040090Y-81839622D01*
X151907474Y-81854173D01*
X151787440Y-81895632D01*
X151685188Y-81963763D01*
X151652195Y-81996466D01*
X151572667Y-82103619D01*
X151508299Y-82233327D01*
X151458553Y-82387814D01*
X151422891Y-82569302D01*
X151400775Y-82780015D01*
X151391667Y-83022175D01*
X151391359Y-83074440D01*
X150052600Y-83074440D01*
X150053310Y-83017374D01*
X150068605Y-82718713D01*
X150099358Y-82449325D01*
X150146381Y-82205285D01*
X150210482Y-81982670D01*
X150292472Y-81777556D01*
X150321730Y-81716746D01*
X150439581Y-81518440D01*
X150581996Y-81342212D01*
X150745629Y-81190908D01*
X150927131Y-81067371D01*
X151123153Y-80974447D01*
X151240655Y-80936115D01*
X151356054Y-80913359D01*
X151494907Y-80899820D01*
X151645574Y-80895492D01*
X151796413Y-80900368D01*
X151935785Y-80914444D01*
X152047691Y-80936525D01*
X152180884Y-80979828D01*
X152309979Y-81035511D01*
X152422928Y-81097936D01*
X152483043Y-81140303D01*
X152524510Y-81171807D01*
X152553545Y-81190990D01*
X152560150Y-81193714D01*
X152562198Y-81176163D01*
X152564107Y-81125875D01*
X152565836Y-81046400D01*
X152567341Y-80941286D01*
X152568581Y-80814083D01*
X152569513Y-80668339D01*
X152570095Y-80507603D01*
X152570286Y-80343884D01*
X152570179Y-80134188D01*
X152569658Y-79957396D01*
X152568416Y-79810126D01*
X152566148Y-79688997D01*
X152562550Y-79590627D01*
X152557317Y-79511634D01*
X152550144Y-79448638D01*
X152540726Y-79398255D01*
X152528758Y-79357105D01*
X152513935Y-79321806D01*
X152495952Y-79288977D01*
X152474505Y-79255235D01*
X152471745Y-79251057D01*
X152444083Y-79207356D01*
X152427382Y-79177305D01*
X152425143Y-79170967D01*
X152442643Y-79168967D01*
X152492574Y-79167340D01*
X152571085Y-79166112D01*
X152674323Y-79165311D01*
X152798436Y-79164961D01*
X152939571Y-79165089D01*
G36*
X148083632Y-80892730D02*
G01*
X148173523Y-80899535D01*
X148430715Y-80933753D01*
X148658485Y-80988331D01*
X148857943Y-81064020D01*
X149030197Y-81161570D01*
X149176359Y-81281732D01*
X149297536Y-81425258D01*
X149394839Y-81592898D01*
X149465891Y-81774286D01*
X149483927Y-81832146D01*
X149499632Y-81886329D01*
X149513192Y-81939752D01*
X149524792Y-81995333D01*
X149534617Y-82055988D01*
X149542853Y-82124635D01*
X149549684Y-82204190D01*
X149555295Y-82297572D01*
X149559872Y-82407696D01*
X149563600Y-82537481D01*
X149566665Y-82689842D01*
X149569250Y-82867698D01*
X149571542Y-83073965D01*
X149573725Y-83311561D01*
X149575286Y-83497857D01*
X149585785Y-84776929D01*
X149653821Y-84900018D01*
X149686038Y-84959317D01*
X149710012Y-85005377D01*
X149721450Y-85029893D01*
X149721857Y-85031553D01*
X149704375Y-85033454D01*
X149654574Y-85035205D01*
X149576421Y-85036758D01*
X149473882Y-85038062D01*
X149350922Y-85039070D01*
X149211510Y-85039731D01*
X149059611Y-85039997D01*
X149041500Y-85040000D01*
X148361143Y-85040000D01*
X148361143Y-84885786D01*
X148359982Y-84816094D01*
X148356887Y-84762794D01*
X148352432Y-84734217D01*
X148350463Y-84731572D01*
X148332455Y-84742653D01*
X148295393Y-84771736D01*
X148247222Y-84812579D01*
X148246141Y-84813524D01*
X148158235Y-84878971D01*
X148047217Y-84944688D01*
X147925631Y-85004219D01*
X147806021Y-85051109D01*
X147753357Y-85067133D01*
X147648551Y-85087485D01*
X147519950Y-85100472D01*
X147379325Y-85105909D01*
X147238448Y-85103611D01*
X147109093Y-85093392D01*
X147018571Y-85078689D01*
X146796580Y-85013499D01*
X146596729Y-84920594D01*
X146420319Y-84801126D01*
X146268650Y-84656247D01*
X146143024Y-84487110D01*
X146044741Y-84294867D01*
X146002341Y-84178214D01*
X145975768Y-84064833D01*
X145958158Y-83928722D01*
X145950010Y-83782437D01*
X145950278Y-83761151D01*
X147177321Y-83761151D01*
X147187496Y-83869850D01*
X147221378Y-83960185D01*
X147284000Y-84043995D01*
X147308052Y-84068571D01*
X147393551Y-84135011D01*
X147492373Y-84177574D01*
X147610768Y-84198177D01*
X147735445Y-84199694D01*
X147853698Y-84189677D01*
X147944239Y-84170085D01*
X147983560Y-84155370D01*
X148054432Y-84115265D01*
X148129525Y-84058863D01*
X148198038Y-83995561D01*
X148249172Y-83934755D01*
X148262750Y-83912449D01*
X148273305Y-83881212D01*
X148280810Y-83831507D01*
X148285613Y-83758587D01*
X148288065Y-83657703D01*
X148288571Y-83561689D01*
X148288228Y-83449750D01*
X148286843Y-83368809D01*
X148283881Y-83313585D01*
X148278808Y-83278794D01*
X148271090Y-83259154D01*
X148260192Y-83249380D01*
X148256821Y-83247824D01*
X148227529Y-83243029D01*
X148169756Y-83239108D01*
X148091304Y-83236414D01*
X147999974Y-83235299D01*
X147980143Y-83235298D01*
X147858063Y-83237246D01*
X147763749Y-83243041D01*
X147688807Y-83253475D01*
X147626903Y-83268714D01*
X147473349Y-83326784D01*
X147352932Y-83398179D01*
X147264610Y-83484039D01*
X147207339Y-83585507D01*
X147180078Y-83703725D01*
X147177321Y-83761151D01*
X145950278Y-83761151D01*
X145951823Y-83638533D01*
X145964096Y-83509565D01*
X145973670Y-83457460D01*
X146034801Y-83263997D01*
X146127757Y-83085993D01*
X146250783Y-82925155D01*
X146402124Y-82783190D01*
X146580025Y-82661806D01*
X146782732Y-82562709D01*
X146955071Y-82502533D01*
X147070253Y-82470919D01*
X147180423Y-82446354D01*
X147292719Y-82428039D01*
X147414275Y-82415178D01*
X147552229Y-82406972D01*
X147713715Y-82402624D01*
X147859715Y-82401400D01*
X148292645Y-82400215D01*
X148284351Y-82270080D01*
X148260801Y-82128883D01*
X148210703Y-82007518D01*
X148136191Y-81909017D01*
X148039399Y-81836409D01*
X147954171Y-81800979D01*
X147832056Y-81778650D01*
X147686683Y-81775443D01*
X147524867Y-81790177D01*
X147353422Y-81821670D01*
X147179163Y-81868740D01*
X147008904Y-81930203D01*
X146885176Y-81986417D01*
X146825647Y-82015283D01*
X146780242Y-82035443D01*
X146757150Y-82043310D01*
X146755897Y-82043058D01*
X146747929Y-82025437D01*
X146728031Y-81978733D01*
X146698077Y-81907418D01*
X146659939Y-81815969D01*
X146615488Y-81708859D01*
X146570305Y-81599549D01*
X146389667Y-81161740D01*
X146518155Y-81140636D01*
X146573846Y-81130047D01*
X146657564Y-81112263D01*
X146762139Y-81088898D01*
X146880399Y-81061565D01*
X147005172Y-81031881D01*
X147054857Y-81019818D01*
X147269807Y-80969962D01*
X147457995Y-80932584D01*
X147626446Y-80906927D01*
X147782186Y-80892235D01*
X147932240Y-80887755D01*
X148083632Y-80892730D01*
G37*
X148083632Y-80892730D02*
X148173523Y-80899535D01*
X148430715Y-80933753D01*
X148658485Y-80988331D01*
X148857943Y-81064020D01*
X149030197Y-81161570D01*
X149176359Y-81281732D01*
X149297536Y-81425258D01*
X149394839Y-81592898D01*
X149465891Y-81774286D01*
X149483927Y-81832146D01*
X149499632Y-81886329D01*
X149513192Y-81939752D01*
X149524792Y-81995333D01*
X149534617Y-82055988D01*
X149542853Y-82124635D01*
X149549684Y-82204190D01*
X149555295Y-82297572D01*
X149559872Y-82407696D01*
X149563600Y-82537481D01*
X149566665Y-82689842D01*
X149569250Y-82867698D01*
X149571542Y-83073965D01*
X149573725Y-83311561D01*
X149575286Y-83497857D01*
X149585785Y-84776929D01*
X149653821Y-84900018D01*
X149686038Y-84959317D01*
X149710012Y-85005377D01*
X149721450Y-85029893D01*
X149721857Y-85031553D01*
X149704375Y-85033454D01*
X149654574Y-85035205D01*
X149576421Y-85036758D01*
X149473882Y-85038062D01*
X149350922Y-85039070D01*
X149211510Y-85039731D01*
X149059611Y-85039997D01*
X149041500Y-85040000D01*
X148361143Y-85040000D01*
X148361143Y-84885786D01*
X148359982Y-84816094D01*
X148356887Y-84762794D01*
X148352432Y-84734217D01*
X148350463Y-84731572D01*
X148332455Y-84742653D01*
X148295393Y-84771736D01*
X148247222Y-84812579D01*
X148246141Y-84813524D01*
X148158235Y-84878971D01*
X148047217Y-84944688D01*
X147925631Y-85004219D01*
X147806021Y-85051109D01*
X147753357Y-85067133D01*
X147648551Y-85087485D01*
X147519950Y-85100472D01*
X147379325Y-85105909D01*
X147238448Y-85103611D01*
X147109093Y-85093392D01*
X147018571Y-85078689D01*
X146796580Y-85013499D01*
X146596729Y-84920594D01*
X146420319Y-84801126D01*
X146268650Y-84656247D01*
X146143024Y-84487110D01*
X146044741Y-84294867D01*
X146002341Y-84178214D01*
X145975768Y-84064833D01*
X145958158Y-83928722D01*
X145950010Y-83782437D01*
X145950278Y-83761151D01*
X147177321Y-83761151D01*
X147187496Y-83869850D01*
X147221378Y-83960185D01*
X147284000Y-84043995D01*
X147308052Y-84068571D01*
X147393551Y-84135011D01*
X147492373Y-84177574D01*
X147610768Y-84198177D01*
X147735445Y-84199694D01*
X147853698Y-84189677D01*
X147944239Y-84170085D01*
X147983560Y-84155370D01*
X148054432Y-84115265D01*
X148129525Y-84058863D01*
X148198038Y-83995561D01*
X148249172Y-83934755D01*
X148262750Y-83912449D01*
X148273305Y-83881212D01*
X148280810Y-83831507D01*
X148285613Y-83758587D01*
X148288065Y-83657703D01*
X148288571Y-83561689D01*
X148288228Y-83449750D01*
X148286843Y-83368809D01*
X148283881Y-83313585D01*
X148278808Y-83278794D01*
X148271090Y-83259154D01*
X148260192Y-83249380D01*
X148256821Y-83247824D01*
X148227529Y-83243029D01*
X148169756Y-83239108D01*
X148091304Y-83236414D01*
X147999974Y-83235299D01*
X147980143Y-83235298D01*
X147858063Y-83237246D01*
X147763749Y-83243041D01*
X147688807Y-83253475D01*
X147626903Y-83268714D01*
X147473349Y-83326784D01*
X147352932Y-83398179D01*
X147264610Y-83484039D01*
X147207339Y-83585507D01*
X147180078Y-83703725D01*
X147177321Y-83761151D01*
X145950278Y-83761151D01*
X145951823Y-83638533D01*
X145964096Y-83509565D01*
X145973670Y-83457460D01*
X146034801Y-83263997D01*
X146127757Y-83085993D01*
X146250783Y-82925155D01*
X146402124Y-82783190D01*
X146580025Y-82661806D01*
X146782732Y-82562709D01*
X146955071Y-82502533D01*
X147070253Y-82470919D01*
X147180423Y-82446354D01*
X147292719Y-82428039D01*
X147414275Y-82415178D01*
X147552229Y-82406972D01*
X147713715Y-82402624D01*
X147859715Y-82401400D01*
X148292645Y-82400215D01*
X148284351Y-82270080D01*
X148260801Y-82128883D01*
X148210703Y-82007518D01*
X148136191Y-81909017D01*
X148039399Y-81836409D01*
X147954171Y-81800979D01*
X147832056Y-81778650D01*
X147686683Y-81775443D01*
X147524867Y-81790177D01*
X147353422Y-81821670D01*
X147179163Y-81868740D01*
X147008904Y-81930203D01*
X146885176Y-81986417D01*
X146825647Y-82015283D01*
X146780242Y-82035443D01*
X146757150Y-82043310D01*
X146755897Y-82043058D01*
X146747929Y-82025437D01*
X146728031Y-81978733D01*
X146698077Y-81907418D01*
X146659939Y-81815969D01*
X146615488Y-81708859D01*
X146570305Y-81599549D01*
X146389667Y-81161740D01*
X146518155Y-81140636D01*
X146573846Y-81130047D01*
X146657564Y-81112263D01*
X146762139Y-81088898D01*
X146880399Y-81061565D01*
X147005172Y-81031881D01*
X147054857Y-81019818D01*
X147269807Y-80969962D01*
X147457995Y-80932584D01*
X147626446Y-80906927D01*
X147782186Y-80892235D01*
X147932240Y-80887755D01*
X148083632Y-80892730D01*
G36*
X144479378Y-79434231D02*
G01*
X144675019Y-79455649D01*
X144864562Y-79493985D01*
X145055717Y-79551238D01*
X145256196Y-79629409D01*
X145473708Y-79730496D01*
X145512880Y-79750076D01*
X145602772Y-79794362D01*
X145687553Y-79834239D01*
X145758855Y-79865898D01*
X145808310Y-79885532D01*
X145815908Y-79888004D01*
X145888714Y-79909817D01*
X145562803Y-80383944D01*
X145483123Y-80499823D01*
X145410272Y-80605694D01*
X145346730Y-80697962D01*
X145294972Y-80773033D01*
X145257477Y-80827313D01*
X145236723Y-80857207D01*
X145233351Y-80861941D01*
X145219655Y-80852042D01*
X145185943Y-80822285D01*
X145138244Y-80778073D01*
X145111920Y-80753084D01*
X144962772Y-80634456D01*
X144795268Y-80544313D01*
X144650928Y-80494936D01*
X144564283Y-80479429D01*
X144455796Y-80469979D01*
X144338227Y-80466761D01*
X144224334Y-80469951D01*
X144126879Y-80479724D01*
X144087990Y-80487209D01*
X143912712Y-80547512D01*
X143754765Y-80639590D01*
X143614268Y-80763273D01*
X143491335Y-80918393D01*
X143386085Y-81104781D01*
X143298635Y-81322270D01*
X143229100Y-81570692D01*
X143187775Y-81783357D01*
X143176994Y-81877241D01*
X143169648Y-81998524D01*
X143165667Y-82138493D01*
X143164979Y-82288431D01*
X143167514Y-82439622D01*
X143173200Y-82583351D01*
X143181967Y-82710903D01*
X143193744Y-82813562D01*
X143196293Y-82829401D01*
X143252481Y-83084536D01*
X143329036Y-83310342D01*
X143426426Y-83507831D01*
X143545114Y-83678014D01*
X143629363Y-83770022D01*
X143780770Y-83894943D01*
X143946817Y-83987540D01*
X144124701Y-84047309D01*
X144311622Y-84073746D01*
X144504778Y-84066348D01*
X144701369Y-84024611D01*
X144817597Y-83983771D01*
X144978438Y-83901990D01*
X145144213Y-83784678D01*
X145237073Y-83705345D01*
X145289214Y-83659429D01*
X145330180Y-83625742D01*
X145353498Y-83609510D01*
X145356393Y-83609015D01*
X145366800Y-83625601D01*
X145393767Y-83669432D01*
X145434996Y-83736748D01*
X145488189Y-83823794D01*
X145551050Y-83926810D01*
X145621281Y-84042041D01*
X145660372Y-84106231D01*
X145958964Y-84596677D01*
X145586161Y-84780915D01*
X145451369Y-84847093D01*
X145342175Y-84899278D01*
X145251907Y-84940060D01*
X145173888Y-84972033D01*
X145101444Y-84997787D01*
X145027901Y-85019914D01*
X144946584Y-85041007D01*
X144868643Y-85059530D01*
X144799366Y-85073863D01*
X144726917Y-85084694D01*
X144644042Y-85092626D01*
X144543488Y-85098258D01*
X144418003Y-85102192D01*
X144333428Y-85103891D01*
X144212754Y-85105050D01*
X144097042Y-85104465D01*
X143993951Y-85102304D01*
X143911138Y-85098732D01*
X143856260Y-85093917D01*
X143853008Y-85093437D01*
X143568043Y-85031786D01*
X143300442Y-84938285D01*
X143050297Y-84812993D01*
X142817704Y-84655974D01*
X142602757Y-84467289D01*
X142405550Y-84247000D01*
X142262727Y-84051214D01*
X142110680Y-83794949D01*
X141987773Y-83524317D01*
X141893410Y-83237149D01*
X141826999Y-82931276D01*
X141787944Y-82604528D01*
X141775640Y-82272739D01*
X141785759Y-81951779D01*
X141817561Y-81655646D01*
X141872054Y-81379345D01*
X141950250Y-81117881D01*
X142053159Y-80866258D01*
X142065447Y-80840190D01*
X142200820Y-80596507D01*
X142367089Y-80364618D01*
X142559541Y-80149323D01*
X142773466Y-79955422D01*
X143004155Y-79787715D01*
X143219109Y-79664696D01*
X143436258Y-79568345D01*
X143653868Y-79498551D01*
X143880362Y-79453413D01*
X144124166Y-79431031D01*
X144269928Y-79427731D01*
X144479378Y-79434231D01*
G37*
X144479378Y-79434231D02*
X144675019Y-79455649D01*
X144864562Y-79493985D01*
X145055717Y-79551238D01*
X145256196Y-79629409D01*
X145473708Y-79730496D01*
X145512880Y-79750076D01*
X145602772Y-79794362D01*
X145687553Y-79834239D01*
X145758855Y-79865898D01*
X145808310Y-79885532D01*
X145815908Y-79888004D01*
X145888714Y-79909817D01*
X145562803Y-80383944D01*
X145483123Y-80499823D01*
X145410272Y-80605694D01*
X145346730Y-80697962D01*
X145294972Y-80773033D01*
X145257477Y-80827313D01*
X145236723Y-80857207D01*
X145233351Y-80861941D01*
X145219655Y-80852042D01*
X145185943Y-80822285D01*
X145138244Y-80778073D01*
X145111920Y-80753084D01*
X144962772Y-80634456D01*
X144795268Y-80544313D01*
X144650928Y-80494936D01*
X144564283Y-80479429D01*
X144455796Y-80469979D01*
X144338227Y-80466761D01*
X144224334Y-80469951D01*
X144126879Y-80479724D01*
X144087990Y-80487209D01*
X143912712Y-80547512D01*
X143754765Y-80639590D01*
X143614268Y-80763273D01*
X143491335Y-80918393D01*
X143386085Y-81104781D01*
X143298635Y-81322270D01*
X143229100Y-81570692D01*
X143187775Y-81783357D01*
X143176994Y-81877241D01*
X143169648Y-81998524D01*
X143165667Y-82138493D01*
X143164979Y-82288431D01*
X143167514Y-82439622D01*
X143173200Y-82583351D01*
X143181967Y-82710903D01*
X143193744Y-82813562D01*
X143196293Y-82829401D01*
X143252481Y-83084536D01*
X143329036Y-83310342D01*
X143426426Y-83507831D01*
X143545114Y-83678014D01*
X143629363Y-83770022D01*
X143780770Y-83894943D01*
X143946817Y-83987540D01*
X144124701Y-84047309D01*
X144311622Y-84073746D01*
X144504778Y-84066348D01*
X144701369Y-84024611D01*
X144817597Y-83983771D01*
X144978438Y-83901990D01*
X145144213Y-83784678D01*
X145237073Y-83705345D01*
X145289214Y-83659429D01*
X145330180Y-83625742D01*
X145353498Y-83609510D01*
X145356393Y-83609015D01*
X145366800Y-83625601D01*
X145393767Y-83669432D01*
X145434996Y-83736748D01*
X145488189Y-83823794D01*
X145551050Y-83926810D01*
X145621281Y-84042041D01*
X145660372Y-84106231D01*
X145958964Y-84596677D01*
X145586161Y-84780915D01*
X145451369Y-84847093D01*
X145342175Y-84899278D01*
X145251907Y-84940060D01*
X145173888Y-84972033D01*
X145101444Y-84997787D01*
X145027901Y-85019914D01*
X144946584Y-85041007D01*
X144868643Y-85059530D01*
X144799366Y-85073863D01*
X144726917Y-85084694D01*
X144644042Y-85092626D01*
X144543488Y-85098258D01*
X144418003Y-85102192D01*
X144333428Y-85103891D01*
X144212754Y-85105050D01*
X144097042Y-85104465D01*
X143993951Y-85102304D01*
X143911138Y-85098732D01*
X143856260Y-85093917D01*
X143853008Y-85093437D01*
X143568043Y-85031786D01*
X143300442Y-84938285D01*
X143050297Y-84812993D01*
X142817704Y-84655974D01*
X142602757Y-84467289D01*
X142405550Y-84247000D01*
X142262727Y-84051214D01*
X142110680Y-83794949D01*
X141987773Y-83524317D01*
X141893410Y-83237149D01*
X141826999Y-82931276D01*
X141787944Y-82604528D01*
X141775640Y-82272739D01*
X141785759Y-81951779D01*
X141817561Y-81655646D01*
X141872054Y-81379345D01*
X141950250Y-81117881D01*
X142053159Y-80866258D01*
X142065447Y-80840190D01*
X142200820Y-80596507D01*
X142367089Y-80364618D01*
X142559541Y-80149323D01*
X142773466Y-79955422D01*
X143004155Y-79787715D01*
X143219109Y-79664696D01*
X143436258Y-79568345D01*
X143653868Y-79498551D01*
X143880362Y-79453413D01*
X144124166Y-79431031D01*
X144269928Y-79427731D01*
X144479378Y-79434231D01*
G36*
X136027911Y-78526660D02*
G01*
X136377460Y-78526707D01*
X136540170Y-78526714D01*
X139144571Y-78526715D01*
X139144571Y-78680238D01*
X139160957Y-78867063D01*
X139210412Y-79039367D01*
X139293380Y-79198175D01*
X139410305Y-79344510D01*
X139449864Y-79384032D01*
X139592170Y-79496138D01*
X139749078Y-79577899D01*
X139915928Y-79629353D01*
X140088061Y-79650537D01*
X140260815Y-79641487D01*
X140429530Y-79602242D01*
X140589546Y-79532838D01*
X140736202Y-79433311D01*
X140802068Y-79373265D01*
X140924808Y-79226043D01*
X141014812Y-79064147D01*
X141071294Y-78889427D01*
X141093471Y-78703735D01*
X141093766Y-78685467D01*
X141094928Y-78526720D01*
X141164700Y-78526717D01*
X141226595Y-78535118D01*
X141283135Y-78555556D01*
X141286872Y-78557667D01*
X141299642Y-78564293D01*
X141311368Y-78569454D01*
X141322094Y-78574651D01*
X141331861Y-78581390D01*
X141340712Y-78591171D01*
X141348689Y-78605500D01*
X141355835Y-78625878D01*
X141362192Y-78653808D01*
X141367802Y-78690795D01*
X141372707Y-78738340D01*
X141376951Y-78797947D01*
X141380576Y-78871119D01*
X141383623Y-78959359D01*
X141386136Y-79064170D01*
X141388156Y-79187055D01*
X141389726Y-79329517D01*
X141390888Y-79493060D01*
X141391686Y-79679186D01*
X141392160Y-79889398D01*
X141392354Y-80125200D01*
X141392310Y-80388094D01*
X141392070Y-80679584D01*
X141391677Y-81001172D01*
X141391173Y-81354362D01*
X141390600Y-81740657D01*
X141390001Y-82161560D01*
X141389932Y-82212840D01*
X141389395Y-82636426D01*
X141388939Y-83025230D01*
X141388516Y-83380753D01*
X141388079Y-83704498D01*
X141387578Y-83997966D01*
X141386965Y-84262661D01*
X141386192Y-84500085D01*
X141385211Y-84711740D01*
X141383974Y-84899129D01*
X141382432Y-85063754D01*
X141380537Y-85207117D01*
X141378241Y-85330720D01*
X141375496Y-85436067D01*
X141372253Y-85524659D01*
X141368464Y-85598000D01*
X141364081Y-85657590D01*
X141359055Y-85704933D01*
X141353339Y-85741531D01*
X141346884Y-85768886D01*
X141339641Y-85788502D01*
X141331563Y-85801879D01*
X141322602Y-85810521D01*
X141312708Y-85815930D01*
X141301835Y-85819608D01*
X141289933Y-85823058D01*
X141276954Y-85827782D01*
X141273783Y-85829220D01*
X141263819Y-85832451D01*
X141247141Y-85835420D01*
X141222293Y-85838137D01*
X141187820Y-85840613D01*
X141142264Y-85842858D01*
X141084170Y-85844883D01*
X141012081Y-85846698D01*
X140924542Y-85848315D01*
X140820095Y-85849743D01*
X140697285Y-85850993D01*
X140554655Y-85852076D01*
X140390749Y-85853002D01*
X140204110Y-85853782D01*
X139993284Y-85854426D01*
X139756812Y-85854946D01*
X139493239Y-85855351D01*
X139201110Y-85855652D01*
X138878966Y-85855860D01*
X138525353Y-85855985D01*
X138138814Y-85856038D01*
X137717892Y-85856029D01*
X137581544Y-85856016D01*
X137151284Y-85855947D01*
X136755836Y-85855834D01*
X136393727Y-85855665D01*
X136063483Y-85855430D01*
X135763629Y-85855116D01*
X135492692Y-85854713D01*
X135249200Y-85854207D01*
X135031677Y-85853589D01*
X134838650Y-85852846D01*
X134668646Y-85851968D01*
X134520190Y-85850941D01*
X134391810Y-85849756D01*
X134282031Y-85848400D01*
X134189380Y-85846862D01*
X134112383Y-85845130D01*
X134049566Y-85843194D01*
X133999456Y-85841040D01*
X133960579Y-85838659D01*
X133931462Y-85836037D01*
X133910629Y-85833165D01*
X133896609Y-85830030D01*
X133888966Y-85827159D01*
X133875382Y-85821430D01*
X133862910Y-85817206D01*
X133851502Y-85812985D01*
X133841111Y-85807268D01*
X133831691Y-85798555D01*
X133823192Y-85785345D01*
X133815570Y-85766137D01*
X133808775Y-85739433D01*
X133802762Y-85703730D01*
X133797483Y-85657530D01*
X133792890Y-85599332D01*
X133788936Y-85527635D01*
X133785575Y-85440940D01*
X133782759Y-85337746D01*
X133780440Y-85216553D01*
X133778572Y-85075860D01*
X133778084Y-85021857D01*
X134262296Y-85021857D01*
X135973744Y-85021857D01*
X135940813Y-84971964D01*
X135908053Y-84920693D01*
X135880311Y-84871869D01*
X135857193Y-84822076D01*
X135838303Y-84767898D01*
X135823249Y-84705916D01*
X135811633Y-84632715D01*
X135803064Y-84544878D01*
X135797144Y-84438988D01*
X135793481Y-84311628D01*
X135791679Y-84159381D01*
X135791344Y-83978832D01*
X135792081Y-83766562D01*
X135792499Y-83687755D01*
X135797214Y-82842911D01*
X136332428Y-83571557D01*
X136484054Y-83778265D01*
X136615419Y-83958260D01*
X136727943Y-84113925D01*
X136823043Y-84247647D01*
X136902138Y-84361809D01*
X136966647Y-84458797D01*
X137017988Y-84540994D01*
X137057580Y-84610786D01*
X137086840Y-84670558D01*
X137107188Y-84722693D01*
X137120042Y-84769576D01*
X137126819Y-84813593D01*
X137128940Y-84857127D01*
X137127821Y-84902564D01*
X137127536Y-84908275D01*
X137121643Y-85021933D01*
X138997229Y-85021857D01*
X138857722Y-84881189D01*
X138819865Y-84842715D01*
X138783953Y-84805279D01*
X138748407Y-84766814D01*
X138711653Y-84725258D01*
X138672114Y-84678545D01*
X138628214Y-84624610D01*
X138578377Y-84561390D01*
X138521028Y-84486818D01*
X138454589Y-84398832D01*
X138377485Y-84295365D01*
X138288139Y-84174354D01*
X138184976Y-84033734D01*
X138066420Y-83871440D01*
X137930895Y-83685407D01*
X137776823Y-83473571D01*
X137650538Y-83299804D01*
X137492046Y-83081501D01*
X137353784Y-82890629D01*
X137234501Y-82725374D01*
X137132943Y-82583926D01*
X137047859Y-82464471D01*
X136977995Y-82365198D01*
X136922100Y-82284295D01*
X136878920Y-82219949D01*
X136847203Y-82170347D01*
X136825698Y-82133679D01*
X136813150Y-82108132D01*
X136808308Y-82091893D01*
X136809763Y-82083355D01*
X136827401Y-82060635D01*
X136865534Y-82012543D01*
X136921862Y-81941938D01*
X136994084Y-81851678D01*
X137079899Y-81744621D01*
X137177006Y-81623627D01*
X137283104Y-81491554D01*
X137395891Y-81351260D01*
X137513068Y-81205603D01*
X137632333Y-81057444D01*
X137697933Y-80976000D01*
X139326686Y-80976000D01*
X139394379Y-81098465D01*
X139462071Y-81220929D01*
X139462071Y-84776929D01*
X139394379Y-84899393D01*
X139326686Y-85021857D01*
X140127441Y-85021857D01*
X140318602Y-85021802D01*
X140476499Y-85021551D01*
X140604152Y-85020979D01*
X140704581Y-85019959D01*
X140780807Y-85018365D01*
X140835852Y-85016070D01*
X140872736Y-85012950D01*
X140894479Y-85008877D01*
X140904102Y-85003725D01*
X140904627Y-84997367D01*
X140899074Y-84989679D01*
X140899016Y-84989615D01*
X140876140Y-84956524D01*
X140845849Y-84902719D01*
X140819097Y-84849008D01*
X140768357Y-84740643D01*
X140763182Y-82858322D01*
X140758007Y-80976000D01*
X139326686Y-80976000D01*
X137697933Y-80976000D01*
X137751385Y-80909639D01*
X137867923Y-80765047D01*
X137979646Y-80626528D01*
X138084254Y-80496939D01*
X138179444Y-80379140D01*
X138262917Y-80275988D01*
X138332371Y-80190343D01*
X138385506Y-80125062D01*
X138416715Y-80087000D01*
X138537903Y-79944670D01*
X138654493Y-79816230D01*
X138762397Y-79705886D01*
X138857530Y-79617841D01*
X138925043Y-79563862D01*
X139004873Y-79506429D01*
X137168892Y-79506429D01*
X137169408Y-79614165D01*
X137164276Y-79693372D01*
X137144985Y-79766805D01*
X137115123Y-79836415D01*
X137095712Y-79875741D01*
X137074841Y-79914707D01*
X137050604Y-79955901D01*
X137021094Y-80001908D01*
X136984406Y-80055317D01*
X136938632Y-80118714D01*
X136881865Y-80194685D01*
X136812200Y-80285817D01*
X136727730Y-80394698D01*
X136626547Y-80523914D01*
X136506747Y-80676052D01*
X136366421Y-80853698D01*
X136350571Y-80873742D01*
X135797214Y-81573508D01*
X135791857Y-80798504D01*
X135790779Y-80566368D01*
X135791008Y-80369846D01*
X135792557Y-80208292D01*
X135795437Y-80081056D01*
X135799659Y-79987492D01*
X135805234Y-79926952D01*
X135807107Y-79915468D01*
X135836505Y-79794499D01*
X135875022Y-79685446D01*
X135918974Y-79597763D01*
X135945379Y-79560574D01*
X135990940Y-79506429D01*
X135126470Y-79506429D01*
X134920255Y-79506605D01*
X134747812Y-79507179D01*
X134606627Y-79508217D01*
X134494188Y-79509787D01*
X134407983Y-79511954D01*
X134345498Y-79514788D01*
X134304221Y-79518353D01*
X134281640Y-79522718D01*
X134275241Y-79527949D01*
X134275683Y-79529107D01*
X134294009Y-79556769D01*
X134324604Y-79600615D01*
X134340433Y-79622791D01*
X134356798Y-79644920D01*
X134371508Y-79664709D01*
X134384656Y-79684106D01*
X134396333Y-79705058D01*
X134406632Y-79729512D01*
X134415646Y-79759416D01*
X134423468Y-79796717D01*
X134430191Y-79843363D01*
X134435906Y-79901301D01*
X134440707Y-79972479D01*
X134444685Y-80058844D01*
X134447935Y-80162344D01*
X134450548Y-80284925D01*
X134452617Y-80428537D01*
X134454234Y-80595125D01*
X134455493Y-80786637D01*
X134456485Y-81005022D01*
X134457304Y-81252226D01*
X134458042Y-81530196D01*
X134458791Y-81840881D01*
X134459492Y-82126300D01*
X134460153Y-82444492D01*
X134460497Y-82748077D01*
X134460532Y-83035115D01*
X134460268Y-83303669D01*
X134459715Y-83551798D01*
X134458880Y-83777563D01*
X134457773Y-83979026D01*
X134456404Y-84154246D01*
X134454781Y-84301286D01*
X134452913Y-84418206D01*
X134450811Y-84503067D01*
X134448482Y-84553929D01*
X134448041Y-84559304D01*
X134431992Y-84682613D01*
X134406936Y-84781644D01*
X134368779Y-84868070D01*
X134313428Y-84953565D01*
X134306504Y-84962893D01*
X134262296Y-85021857D01*
X133778084Y-85021857D01*
X133777108Y-84914168D01*
X133775999Y-84729976D01*
X133775199Y-84521784D01*
X133774661Y-84288091D01*
X133774338Y-84027398D01*
X133774183Y-83738204D01*
X133774146Y-83419009D01*
X133774183Y-83068313D01*
X133774245Y-82684614D01*
X133774285Y-82266414D01*
X133774286Y-82183393D01*
X133774309Y-81760789D01*
X133774388Y-81372981D01*
X133774533Y-81018480D01*
X133774756Y-80695797D01*
X133775069Y-80403442D01*
X133775483Y-80139927D01*
X133776009Y-79903762D01*
X133776660Y-79693458D01*
X133777447Y-79507526D01*
X133778381Y-79344475D01*
X133779474Y-79202818D01*
X133780737Y-79081064D01*
X133782183Y-78977725D01*
X133783821Y-78891311D01*
X133785666Y-78820333D01*
X133787726Y-78763301D01*
X133790015Y-78718727D01*
X133792544Y-78685121D01*
X133795324Y-78660993D01*
X133798367Y-78644856D01*
X133801684Y-78635218D01*
X133801807Y-78634978D01*
X133808640Y-78620255D01*
X133814330Y-78606926D01*
X133820626Y-78594922D01*
X133829272Y-78584173D01*
X133842014Y-78574611D01*
X133860600Y-78566167D01*
X133886774Y-78558771D01*
X133922284Y-78552354D01*
X133968875Y-78546848D01*
X134028293Y-78542183D01*
X134102285Y-78538291D01*
X134192597Y-78535102D01*
X134300975Y-78532547D01*
X134429165Y-78530558D01*
X134578913Y-78529065D01*
X134751966Y-78527998D01*
X134950069Y-78527291D01*
X135174969Y-78526872D01*
X135428412Y-78526673D01*
X135712144Y-78526626D01*
X136027911Y-78526660D01*
G37*
X136027911Y-78526660D02*
X136377460Y-78526707D01*
X136540170Y-78526714D01*
X139144571Y-78526715D01*
X139144571Y-78680238D01*
X139160957Y-78867063D01*
X139210412Y-79039367D01*
X139293380Y-79198175D01*
X139410305Y-79344510D01*
X139449864Y-79384032D01*
X139592170Y-79496138D01*
X139749078Y-79577899D01*
X139915928Y-79629353D01*
X140088061Y-79650537D01*
X140260815Y-79641487D01*
X140429530Y-79602242D01*
X140589546Y-79532838D01*
X140736202Y-79433311D01*
X140802068Y-79373265D01*
X140924808Y-79226043D01*
X141014812Y-79064147D01*
X141071294Y-78889427D01*
X141093471Y-78703735D01*
X141093766Y-78685467D01*
X141094928Y-78526720D01*
X141164700Y-78526717D01*
X141226595Y-78535118D01*
X141283135Y-78555556D01*
X141286872Y-78557667D01*
X141299642Y-78564293D01*
X141311368Y-78569454D01*
X141322094Y-78574651D01*
X141331861Y-78581390D01*
X141340712Y-78591171D01*
X141348689Y-78605500D01*
X141355835Y-78625878D01*
X141362192Y-78653808D01*
X141367802Y-78690795D01*
X141372707Y-78738340D01*
X141376951Y-78797947D01*
X141380576Y-78871119D01*
X141383623Y-78959359D01*
X141386136Y-79064170D01*
X141388156Y-79187055D01*
X141389726Y-79329517D01*
X141390888Y-79493060D01*
X141391686Y-79679186D01*
X141392160Y-79889398D01*
X141392354Y-80125200D01*
X141392310Y-80388094D01*
X141392070Y-80679584D01*
X141391677Y-81001172D01*
X141391173Y-81354362D01*
X141390600Y-81740657D01*
X141390001Y-82161560D01*
X141389932Y-82212840D01*
X141389395Y-82636426D01*
X141388939Y-83025230D01*
X141388516Y-83380753D01*
X141388079Y-83704498D01*
X141387578Y-83997966D01*
X141386965Y-84262661D01*
X141386192Y-84500085D01*
X141385211Y-84711740D01*
X141383974Y-84899129D01*
X141382432Y-85063754D01*
X141380537Y-85207117D01*
X141378241Y-85330720D01*
X141375496Y-85436067D01*
X141372253Y-85524659D01*
X141368464Y-85598000D01*
X141364081Y-85657590D01*
X141359055Y-85704933D01*
X141353339Y-85741531D01*
X141346884Y-85768886D01*
X141339641Y-85788502D01*
X141331563Y-85801879D01*
X141322602Y-85810521D01*
X141312708Y-85815930D01*
X141301835Y-85819608D01*
X141289933Y-85823058D01*
X141276954Y-85827782D01*
X141273783Y-85829220D01*
X141263819Y-85832451D01*
X141247141Y-85835420D01*
X141222293Y-85838137D01*
X141187820Y-85840613D01*
X141142264Y-85842858D01*
X141084170Y-85844883D01*
X141012081Y-85846698D01*
X140924542Y-85848315D01*
X140820095Y-85849743D01*
X140697285Y-85850993D01*
X140554655Y-85852076D01*
X140390749Y-85853002D01*
X140204110Y-85853782D01*
X139993284Y-85854426D01*
X139756812Y-85854946D01*
X139493239Y-85855351D01*
X139201110Y-85855652D01*
X138878966Y-85855860D01*
X138525353Y-85855985D01*
X138138814Y-85856038D01*
X137717892Y-85856029D01*
X137581544Y-85856016D01*
X137151284Y-85855947D01*
X136755836Y-85855834D01*
X136393727Y-85855665D01*
X136063483Y-85855430D01*
X135763629Y-85855116D01*
X135492692Y-85854713D01*
X135249200Y-85854207D01*
X135031677Y-85853589D01*
X134838650Y-85852846D01*
X134668646Y-85851968D01*
X134520190Y-85850941D01*
X134391810Y-85849756D01*
X134282031Y-85848400D01*
X134189380Y-85846862D01*
X134112383Y-85845130D01*
X134049566Y-85843194D01*
X133999456Y-85841040D01*
X133960579Y-85838659D01*
X133931462Y-85836037D01*
X133910629Y-85833165D01*
X133896609Y-85830030D01*
X133888966Y-85827159D01*
X133875382Y-85821430D01*
X133862910Y-85817206D01*
X133851502Y-85812985D01*
X133841111Y-85807268D01*
X133831691Y-85798555D01*
X133823192Y-85785345D01*
X133815570Y-85766137D01*
X133808775Y-85739433D01*
X133802762Y-85703730D01*
X133797483Y-85657530D01*
X133792890Y-85599332D01*
X133788936Y-85527635D01*
X133785575Y-85440940D01*
X133782759Y-85337746D01*
X133780440Y-85216553D01*
X133778572Y-85075860D01*
X133778084Y-85021857D01*
X134262296Y-85021857D01*
X135973744Y-85021857D01*
X135940813Y-84971964D01*
X135908053Y-84920693D01*
X135880311Y-84871869D01*
X135857193Y-84822076D01*
X135838303Y-84767898D01*
X135823249Y-84705916D01*
X135811633Y-84632715D01*
X135803064Y-84544878D01*
X135797144Y-84438988D01*
X135793481Y-84311628D01*
X135791679Y-84159381D01*
X135791344Y-83978832D01*
X135792081Y-83766562D01*
X135792499Y-83687755D01*
X135797214Y-82842911D01*
X136332428Y-83571557D01*
X136484054Y-83778265D01*
X136615419Y-83958260D01*
X136727943Y-84113925D01*
X136823043Y-84247647D01*
X136902138Y-84361809D01*
X136966647Y-84458797D01*
X137017988Y-84540994D01*
X137057580Y-84610786D01*
X137086840Y-84670558D01*
X137107188Y-84722693D01*
X137120042Y-84769576D01*
X137126819Y-84813593D01*
X137128940Y-84857127D01*
X137127821Y-84902564D01*
X137127536Y-84908275D01*
X137121643Y-85021933D01*
X138997229Y-85021857D01*
X138857722Y-84881189D01*
X138819865Y-84842715D01*
X138783953Y-84805279D01*
X138748407Y-84766814D01*
X138711653Y-84725258D01*
X138672114Y-84678545D01*
X138628214Y-84624610D01*
X138578377Y-84561390D01*
X138521028Y-84486818D01*
X138454589Y-84398832D01*
X138377485Y-84295365D01*
X138288139Y-84174354D01*
X138184976Y-84033734D01*
X138066420Y-83871440D01*
X137930895Y-83685407D01*
X137776823Y-83473571D01*
X137650538Y-83299804D01*
X137492046Y-83081501D01*
X137353784Y-82890629D01*
X137234501Y-82725374D01*
X137132943Y-82583926D01*
X137047859Y-82464471D01*
X136977995Y-82365198D01*
X136922100Y-82284295D01*
X136878920Y-82219949D01*
X136847203Y-82170347D01*
X136825698Y-82133679D01*
X136813150Y-82108132D01*
X136808308Y-82091893D01*
X136809763Y-82083355D01*
X136827401Y-82060635D01*
X136865534Y-82012543D01*
X136921862Y-81941938D01*
X136994084Y-81851678D01*
X137079899Y-81744621D01*
X137177006Y-81623627D01*
X137283104Y-81491554D01*
X137395891Y-81351260D01*
X137513068Y-81205603D01*
X137632333Y-81057444D01*
X137697933Y-80976000D01*
X139326686Y-80976000D01*
X139394379Y-81098465D01*
X139462071Y-81220929D01*
X139462071Y-84776929D01*
X139394379Y-84899393D01*
X139326686Y-85021857D01*
X140127441Y-85021857D01*
X140318602Y-85021802D01*
X140476499Y-85021551D01*
X140604152Y-85020979D01*
X140704581Y-85019959D01*
X140780807Y-85018365D01*
X140835852Y-85016070D01*
X140872736Y-85012950D01*
X140894479Y-85008877D01*
X140904102Y-85003725D01*
X140904627Y-84997367D01*
X140899074Y-84989679D01*
X140899016Y-84989615D01*
X140876140Y-84956524D01*
X140845849Y-84902719D01*
X140819097Y-84849008D01*
X140768357Y-84740643D01*
X140763182Y-82858322D01*
X140758007Y-80976000D01*
X139326686Y-80976000D01*
X137697933Y-80976000D01*
X137751385Y-80909639D01*
X137867923Y-80765047D01*
X137979646Y-80626528D01*
X138084254Y-80496939D01*
X138179444Y-80379140D01*
X138262917Y-80275988D01*
X138332371Y-80190343D01*
X138385506Y-80125062D01*
X138416715Y-80087000D01*
X138537903Y-79944670D01*
X138654493Y-79816230D01*
X138762397Y-79705886D01*
X138857530Y-79617841D01*
X138925043Y-79563862D01*
X139004873Y-79506429D01*
X137168892Y-79506429D01*
X137169408Y-79614165D01*
X137164276Y-79693372D01*
X137144985Y-79766805D01*
X137115123Y-79836415D01*
X137095712Y-79875741D01*
X137074841Y-79914707D01*
X137050604Y-79955901D01*
X137021094Y-80001908D01*
X136984406Y-80055317D01*
X136938632Y-80118714D01*
X136881865Y-80194685D01*
X136812200Y-80285817D01*
X136727730Y-80394698D01*
X136626547Y-80523914D01*
X136506747Y-80676052D01*
X136366421Y-80853698D01*
X136350571Y-80873742D01*
X135797214Y-81573508D01*
X135791857Y-80798504D01*
X135790779Y-80566368D01*
X135791008Y-80369846D01*
X135792557Y-80208292D01*
X135795437Y-80081056D01*
X135799659Y-79987492D01*
X135805234Y-79926952D01*
X135807107Y-79915468D01*
X135836505Y-79794499D01*
X135875022Y-79685446D01*
X135918974Y-79597763D01*
X135945379Y-79560574D01*
X135990940Y-79506429D01*
X135126470Y-79506429D01*
X134920255Y-79506605D01*
X134747812Y-79507179D01*
X134606627Y-79508217D01*
X134494188Y-79509787D01*
X134407983Y-79511954D01*
X134345498Y-79514788D01*
X134304221Y-79518353D01*
X134281640Y-79522718D01*
X134275241Y-79527949D01*
X134275683Y-79529107D01*
X134294009Y-79556769D01*
X134324604Y-79600615D01*
X134340433Y-79622791D01*
X134356798Y-79644920D01*
X134371508Y-79664709D01*
X134384656Y-79684106D01*
X134396333Y-79705058D01*
X134406632Y-79729512D01*
X134415646Y-79759416D01*
X134423468Y-79796717D01*
X134430191Y-79843363D01*
X134435906Y-79901301D01*
X134440707Y-79972479D01*
X134444685Y-80058844D01*
X134447935Y-80162344D01*
X134450548Y-80284925D01*
X134452617Y-80428537D01*
X134454234Y-80595125D01*
X134455493Y-80786637D01*
X134456485Y-81005022D01*
X134457304Y-81252226D01*
X134458042Y-81530196D01*
X134458791Y-81840881D01*
X134459492Y-82126300D01*
X134460153Y-82444492D01*
X134460497Y-82748077D01*
X134460532Y-83035115D01*
X134460268Y-83303669D01*
X134459715Y-83551798D01*
X134458880Y-83777563D01*
X134457773Y-83979026D01*
X134456404Y-84154246D01*
X134454781Y-84301286D01*
X134452913Y-84418206D01*
X134450811Y-84503067D01*
X134448482Y-84553929D01*
X134448041Y-84559304D01*
X134431992Y-84682613D01*
X134406936Y-84781644D01*
X134368779Y-84868070D01*
X134313428Y-84953565D01*
X134306504Y-84962893D01*
X134262296Y-85021857D01*
X133778084Y-85021857D01*
X133777108Y-84914168D01*
X133775999Y-84729976D01*
X133775199Y-84521784D01*
X133774661Y-84288091D01*
X133774338Y-84027398D01*
X133774183Y-83738204D01*
X133774146Y-83419009D01*
X133774183Y-83068313D01*
X133774245Y-82684614D01*
X133774285Y-82266414D01*
X133774286Y-82183393D01*
X133774309Y-81760789D01*
X133774388Y-81372981D01*
X133774533Y-81018480D01*
X133774756Y-80695797D01*
X133775069Y-80403442D01*
X133775483Y-80139927D01*
X133776009Y-79903762D01*
X133776660Y-79693458D01*
X133777447Y-79507526D01*
X133778381Y-79344475D01*
X133779474Y-79202818D01*
X133780737Y-79081064D01*
X133782183Y-78977725D01*
X133783821Y-78891311D01*
X133785666Y-78820333D01*
X133787726Y-78763301D01*
X133790015Y-78718727D01*
X133792544Y-78685121D01*
X133795324Y-78660993D01*
X133798367Y-78644856D01*
X133801684Y-78635218D01*
X133801807Y-78634978D01*
X133808640Y-78620255D01*
X133814330Y-78606926D01*
X133820626Y-78594922D01*
X133829272Y-78584173D01*
X133842014Y-78574611D01*
X133860600Y-78566167D01*
X133886774Y-78558771D01*
X133922284Y-78552354D01*
X133968875Y-78546848D01*
X134028293Y-78542183D01*
X134102285Y-78538291D01*
X134192597Y-78535102D01*
X134300975Y-78532547D01*
X134429165Y-78530558D01*
X134578913Y-78529065D01*
X134751966Y-78527998D01*
X134950069Y-78527291D01*
X135174969Y-78526872D01*
X135428412Y-78526673D01*
X135712144Y-78526626D01*
X136027911Y-78526660D01*
D10*
X179324000Y-90805000D02*
G75*
G03X179324000Y-90805000I-2286000J0D01*
G01*
D12*
X142653001Y-92250001D02*
X158853001Y-92250001D01*
X158853001Y-92250001D02*
X158853001Y-92650001D01*
X142653001Y-108050001D02*
X142653001Y-108450001D01*
X142653001Y-108450001D02*
X158853001Y-108450001D01*
X158853001Y-108450001D02*
X158853001Y-108050001D01*
X142653001Y-92250001D02*
X142653001Y-92600001D01*
X142653001Y-92600001D02*
X141753001Y-92600001D01*
D13*
X175511300Y-110965000D02*
G75*
G03X175511300Y-110965000I-1003300J0D01*
G01*
X171929900Y-109943041D02*
X171929900Y-111986959D01*
X176124670Y-108336100D02*
X172891330Y-108336100D01*
X177086100Y-111986959D02*
X177086100Y-109943041D01*
X172891330Y-113593900D02*
X176124670Y-113593900D01*
X175451300Y-98715000D02*
G75*
G03X175451300Y-98715000I-1003300J0D01*
G01*
X171869900Y-97693041D02*
X171869900Y-99736959D01*
X176064670Y-96086100D02*
X172831330Y-96086100D01*
X177026100Y-99736959D02*
X177026100Y-97693041D01*
X172831330Y-101343900D02*
X176064670Y-101343900D01*
D12*
X125288000Y-79576267D02*
X125288000Y-79233733D01*
X124268000Y-79576267D02*
X124268000Y-79233733D01*
X121438000Y-79576267D02*
X121438000Y-79233733D01*
X122458000Y-79576267D02*
X122458000Y-79233733D01*
X174619267Y-105545000D02*
X174276733Y-105545000D01*
X174619267Y-106565000D02*
X174276733Y-106565000D01*
X174276733Y-103615000D02*
X174619267Y-103615000D01*
X174276733Y-102595000D02*
X174619267Y-102595000D01*
D10*
X140208000Y-125095000D02*
X157988000Y-125095000D01*
X157988000Y-125095000D02*
X157988000Y-122555000D01*
X157988000Y-122555000D02*
X140208000Y-122555000D01*
X137388000Y-125375000D02*
X138938000Y-125375000D01*
X140208000Y-125095000D02*
X140208000Y-122555000D01*
X138938000Y-122275000D02*
X137388000Y-122275000D01*
X137388000Y-122275000D02*
X137388000Y-125375000D01*
X163068000Y-125095000D02*
X175768000Y-125095000D01*
X175768000Y-125095000D02*
X175768000Y-122555000D01*
X175768000Y-122555000D02*
X163068000Y-122555000D01*
X160248000Y-125375000D02*
X161798000Y-125375000D01*
X163068000Y-125095000D02*
X163068000Y-122555000D01*
X161798000Y-122275000D02*
X160248000Y-122275000D01*
X160248000Y-122275000D02*
X160248000Y-125375000D01*
X131064000Y-76835000D02*
X153924000Y-76835000D01*
X153924000Y-76835000D02*
X153924000Y-74295000D01*
X153924000Y-74295000D02*
X131064000Y-74295000D01*
X128244000Y-77115000D02*
X129794000Y-77115000D01*
X131064000Y-76835000D02*
X131064000Y-74295000D01*
X129794000Y-74015000D02*
X128244000Y-74015000D01*
X128244000Y-74015000D02*
X128244000Y-77115000D01*
X157988000Y-76835000D02*
X175768000Y-76835000D01*
X175768000Y-76835000D02*
X175768000Y-74295000D01*
X175768000Y-74295000D02*
X157988000Y-74295000D01*
X155168000Y-77115000D02*
X156718000Y-77115000D01*
X157988000Y-76835000D02*
X157988000Y-74295000D01*
X156718000Y-74015000D02*
X155168000Y-74015000D01*
X155168000Y-74015000D02*
X155168000Y-77115000D01*
X117094000Y-122555000D02*
G75*
G03X117094000Y-122555000I-2286000J0D01*
G01*
X179324000Y-118745000D02*
G75*
G03X179324000Y-118745000I-2286000J0D01*
G01*
X117094000Y-76835000D02*
G75*
G03X117094000Y-76835000I-2286000J0D01*
G01*
D12*
X122248000Y-75615000D02*
X122248000Y-75015000D01*
X121648000Y-75615000D02*
X121648000Y-75015000D01*
X124398000Y-75615000D02*
X124398000Y-75015000D01*
X124998000Y-75615000D02*
X124998000Y-75015000D01*
D13*
X166725600Y-86995000D02*
G75*
G03X166725600Y-86995000I-127000J0D01*
G01*
X161327476Y-81026000D02*
X158216600Y-81026000D01*
X162724286Y-87884000D02*
X165455600Y-87884000D01*
X158216600Y-87884000D02*
X160871714Y-87884000D01*
X158216600Y-81026000D02*
X158216600Y-87884000D01*
X165455600Y-81026000D02*
X162268524Y-81026000D01*
X165455600Y-87884000D02*
X165455600Y-81026000D01*
D12*
X164278000Y-100965000D02*
X166938000Y-100965000D01*
X164278000Y-100965000D02*
X164278000Y-106105000D01*
X164278000Y-106105000D02*
X166938000Y-106105000D01*
X166938000Y-100965000D02*
X166938000Y-106105000D01*
X166938000Y-98365000D02*
X166938000Y-99695000D01*
X165608000Y-98365000D02*
X166938000Y-98365000D01*
X127508000Y-125155000D02*
X127508000Y-122495000D01*
X127508000Y-125155000D02*
X135188000Y-125155000D01*
X135188000Y-125155000D02*
X135188000Y-122495000D01*
X127508000Y-122495000D02*
X135188000Y-122495000D01*
X124908000Y-122495000D02*
X126238000Y-122495000D01*
X124908000Y-123825000D02*
X124908000Y-122495000D01*
X154178000Y-120075000D02*
X154178000Y-117415000D01*
X154178000Y-120075000D02*
X159318000Y-120075000D01*
X159318000Y-120075000D02*
X159318000Y-117415000D01*
X154178000Y-117415000D02*
X159318000Y-117415000D01*
X151578000Y-117415000D02*
X152908000Y-117415000D01*
X151578000Y-118745000D02*
X151578000Y-117415000D01*
D14*
X163153001Y-96200001D02*
X163153001Y-95900001D01*
X163153001Y-95900001D02*
X163203001Y-95850001D01*
X163203001Y-95850001D02*
X163203001Y-95550001D01*
X163193001Y-93000001D02*
X163193001Y-93500001D01*
X161403001Y-93500001D02*
X161403001Y-93000001D01*
X161403001Y-96200001D02*
X161403001Y-95600001D01*
D10*
X122298000Y-119290000D02*
X126698000Y-119290000D01*
X120723000Y-113765000D02*
X126698000Y-113765000D01*
D13*
X128514400Y-111532000D02*
X128514400Y-101118000D01*
X128514400Y-101118000D02*
X120081600Y-101118000D01*
X120081600Y-101118000D02*
X120081600Y-111532000D01*
X120081600Y-111532000D02*
X128514400Y-111532000D01*
X124679000Y-112167000D02*
G75*
G03X124679000Y-112167000I-381000J0D01*
G01*
D12*
X122768000Y-88195000D02*
X122768000Y-85535000D01*
X122768000Y-88195000D02*
X130448000Y-88195000D01*
X130448000Y-88195000D02*
X130448000Y-85535000D01*
X122768000Y-85535000D02*
X130448000Y-85535000D01*
X120168000Y-85535000D02*
X121498000Y-85535000D01*
X120168000Y-86865000D02*
X120168000Y-85535000D01*
X113768000Y-86735000D02*
X116428000Y-86735000D01*
X113768000Y-86735000D02*
X113768000Y-99495000D01*
X113768000Y-99495000D02*
X116428000Y-99495000D01*
X116428000Y-86735000D02*
X116428000Y-99495000D01*
X116428000Y-84135000D02*
X116428000Y-85465000D01*
X115098000Y-84135000D02*
X116428000Y-84135000D01*
X175968000Y-83665000D02*
G75*
G03X175968000Y-83665000I-2620000J0D01*
G01*
X173348000Y-81085000D02*
X173348000Y-86245000D01*
X173388000Y-81085000D02*
X173388000Y-86245000D01*
X173428000Y-81086000D02*
X173428000Y-86244000D01*
X173468000Y-81087000D02*
X173468000Y-86243000D01*
X173508000Y-81089000D02*
X173508000Y-86241000D01*
X173548000Y-81092000D02*
X173548000Y-86238000D01*
X173588000Y-81096000D02*
X173588000Y-82625000D01*
X173588000Y-84705000D02*
X173588000Y-86234000D01*
X173628000Y-81100000D02*
X173628000Y-82625000D01*
X173628000Y-84705000D02*
X173628000Y-86230000D01*
X173668000Y-81104000D02*
X173668000Y-82625000D01*
X173668000Y-84705000D02*
X173668000Y-86226000D01*
X173708000Y-81109000D02*
X173708000Y-82625000D01*
X173708000Y-84705000D02*
X173708000Y-86221000D01*
X173748000Y-81115000D02*
X173748000Y-82625000D01*
X173748000Y-84705000D02*
X173748000Y-86215000D01*
X173788000Y-81122000D02*
X173788000Y-82625000D01*
X173788000Y-84705000D02*
X173788000Y-86208000D01*
X173828000Y-81129000D02*
X173828000Y-82625000D01*
X173828000Y-84705000D02*
X173828000Y-86201000D01*
X173868000Y-81137000D02*
X173868000Y-82625000D01*
X173868000Y-84705000D02*
X173868000Y-86193000D01*
X173908000Y-81145000D02*
X173908000Y-82625000D01*
X173908000Y-84705000D02*
X173908000Y-86185000D01*
X173948000Y-81154000D02*
X173948000Y-82625000D01*
X173948000Y-84705000D02*
X173948000Y-86176000D01*
X173988000Y-81164000D02*
X173988000Y-82625000D01*
X173988000Y-84705000D02*
X173988000Y-86166000D01*
X174028000Y-81174000D02*
X174028000Y-82625000D01*
X174028000Y-84705000D02*
X174028000Y-86156000D01*
X174069000Y-81185000D02*
X174069000Y-82625000D01*
X174069000Y-84705000D02*
X174069000Y-86145000D01*
X174109000Y-81197000D02*
X174109000Y-82625000D01*
X174109000Y-84705000D02*
X174109000Y-86133000D01*
X174149000Y-81210000D02*
X174149000Y-82625000D01*
X174149000Y-84705000D02*
X174149000Y-86120000D01*
X174189000Y-81223000D02*
X174189000Y-82625000D01*
X174189000Y-84705000D02*
X174189000Y-86107000D01*
X174229000Y-81237000D02*
X174229000Y-82625000D01*
X174229000Y-84705000D02*
X174229000Y-86093000D01*
X174269000Y-81251000D02*
X174269000Y-82625000D01*
X174269000Y-84705000D02*
X174269000Y-86079000D01*
X174309000Y-81267000D02*
X174309000Y-82625000D01*
X174309000Y-84705000D02*
X174309000Y-86063000D01*
X174349000Y-81283000D02*
X174349000Y-82625000D01*
X174349000Y-84705000D02*
X174349000Y-86047000D01*
X174389000Y-81300000D02*
X174389000Y-82625000D01*
X174389000Y-84705000D02*
X174389000Y-86030000D01*
X174429000Y-81317000D02*
X174429000Y-82625000D01*
X174429000Y-84705000D02*
X174429000Y-86013000D01*
X174469000Y-81336000D02*
X174469000Y-82625000D01*
X174469000Y-84705000D02*
X174469000Y-85994000D01*
X174509000Y-81355000D02*
X174509000Y-82625000D01*
X174509000Y-84705000D02*
X174509000Y-85975000D01*
X174549000Y-81375000D02*
X174549000Y-82625000D01*
X174549000Y-84705000D02*
X174549000Y-85955000D01*
X174589000Y-81397000D02*
X174589000Y-82625000D01*
X174589000Y-84705000D02*
X174589000Y-85933000D01*
X174629000Y-81418000D02*
X174629000Y-82625000D01*
X174629000Y-84705000D02*
X174629000Y-85912000D01*
X174669000Y-81441000D02*
X174669000Y-82625000D01*
X174669000Y-84705000D02*
X174669000Y-85889000D01*
X174709000Y-81465000D02*
X174709000Y-82625000D01*
X174709000Y-84705000D02*
X174709000Y-85865000D01*
X174749000Y-81490000D02*
X174749000Y-82625000D01*
X174749000Y-84705000D02*
X174749000Y-85840000D01*
X174789000Y-81516000D02*
X174789000Y-82625000D01*
X174789000Y-84705000D02*
X174789000Y-85814000D01*
X174829000Y-81543000D02*
X174829000Y-82625000D01*
X174829000Y-84705000D02*
X174829000Y-85787000D01*
X174869000Y-81570000D02*
X174869000Y-82625000D01*
X174869000Y-84705000D02*
X174869000Y-85760000D01*
X174909000Y-81600000D02*
X174909000Y-82625000D01*
X174909000Y-84705000D02*
X174909000Y-85730000D01*
X174949000Y-81630000D02*
X174949000Y-82625000D01*
X174949000Y-84705000D02*
X174949000Y-85700000D01*
X174989000Y-81661000D02*
X174989000Y-82625000D01*
X174989000Y-84705000D02*
X174989000Y-85669000D01*
X175029000Y-81694000D02*
X175029000Y-82625000D01*
X175029000Y-84705000D02*
X175029000Y-85636000D01*
X175069000Y-81728000D02*
X175069000Y-82625000D01*
X175069000Y-84705000D02*
X175069000Y-85602000D01*
X175109000Y-81764000D02*
X175109000Y-82625000D01*
X175109000Y-84705000D02*
X175109000Y-85566000D01*
X175149000Y-81801000D02*
X175149000Y-82625000D01*
X175149000Y-84705000D02*
X175149000Y-85529000D01*
X175189000Y-81839000D02*
X175189000Y-82625000D01*
X175189000Y-84705000D02*
X175189000Y-85491000D01*
X175229000Y-81880000D02*
X175229000Y-82625000D01*
X175229000Y-84705000D02*
X175229000Y-85450000D01*
X175269000Y-81922000D02*
X175269000Y-82625000D01*
X175269000Y-84705000D02*
X175269000Y-85408000D01*
X175309000Y-81966000D02*
X175309000Y-82625000D01*
X175309000Y-84705000D02*
X175309000Y-85364000D01*
X175349000Y-82012000D02*
X175349000Y-82625000D01*
X175349000Y-84705000D02*
X175349000Y-85318000D01*
X175389000Y-82060000D02*
X175389000Y-82625000D01*
X175389000Y-84705000D02*
X175389000Y-85270000D01*
X175429000Y-82111000D02*
X175429000Y-82625000D01*
X175429000Y-84705000D02*
X175429000Y-85219000D01*
X175469000Y-82165000D02*
X175469000Y-82625000D01*
X175469000Y-84705000D02*
X175469000Y-85165000D01*
X175509000Y-82222000D02*
X175509000Y-82625000D01*
X175509000Y-84705000D02*
X175509000Y-85108000D01*
X175549000Y-82282000D02*
X175549000Y-82625000D01*
X175549000Y-84705000D02*
X175549000Y-85048000D01*
X175589000Y-82346000D02*
X175589000Y-82625000D01*
X175589000Y-84705000D02*
X175589000Y-84984000D01*
X175629000Y-82414000D02*
X175629000Y-82625000D01*
X175629000Y-84705000D02*
X175629000Y-84916000D01*
X175669000Y-82487000D02*
X175669000Y-84843000D01*
X175709000Y-82567000D02*
X175709000Y-84763000D01*
X175749000Y-82654000D02*
X175749000Y-84676000D01*
X175789000Y-82750000D02*
X175789000Y-84580000D01*
X175829000Y-82860000D02*
X175829000Y-84470000D01*
X175869000Y-82988000D02*
X175869000Y-84342000D01*
X175909000Y-83147000D02*
X175909000Y-84183000D01*
X175949000Y-83381000D02*
X175949000Y-83949000D01*
X170543225Y-82190000D02*
X171043225Y-82190000D01*
X170793225Y-81940000D02*
X170793225Y-82440000D01*
D10*
X148062524Y-91602381D02*
X147729191Y-91126191D01*
X147491096Y-91602381D02*
X147491096Y-90602381D01*
X147872048Y-90602381D01*
X147967286Y-90650001D01*
X148014905Y-90697620D01*
X148062524Y-90792858D01*
X148062524Y-90935715D01*
X148014905Y-91030953D01*
X147967286Y-91078572D01*
X147872048Y-91126191D01*
X147491096Y-91126191D01*
X148824429Y-91078572D02*
X148491096Y-91078572D01*
X148491096Y-91602381D02*
X148491096Y-90602381D01*
X148967286Y-90602381D01*
X149348239Y-91602381D02*
X149348239Y-90602381D01*
X149681572Y-91316667D01*
X150014905Y-90602381D01*
X150014905Y-91602381D01*
X150538715Y-91602381D02*
X150729191Y-91602381D01*
X150824429Y-91554762D01*
X150872048Y-91507143D01*
X150967286Y-91364286D01*
X151014905Y-91173810D01*
X151014905Y-90792858D01*
X150967286Y-90697620D01*
X150919667Y-90650001D01*
X150824429Y-90602381D01*
X150633953Y-90602381D01*
X150538715Y-90650001D01*
X150491096Y-90697620D01*
X150443477Y-90792858D01*
X150443477Y-91030953D01*
X150491096Y-91126191D01*
X150538715Y-91173810D01*
X150633953Y-91221429D01*
X150824429Y-91221429D01*
X150919667Y-91173810D01*
X150967286Y-91126191D01*
X151014905Y-91030953D01*
X151919667Y-90602381D02*
X151443477Y-90602381D01*
X151395858Y-91078572D01*
X151443477Y-91030953D01*
X151538715Y-90983334D01*
X151776810Y-90983334D01*
X151872048Y-91030953D01*
X151919667Y-91078572D01*
X151967286Y-91173810D01*
X151967286Y-91411905D01*
X151919667Y-91507143D01*
X151872048Y-91554762D01*
X151776810Y-91602381D01*
X151538715Y-91602381D01*
X151443477Y-91554762D01*
X151395858Y-91507143D01*
X152300620Y-90602381D02*
X152538715Y-91602381D01*
X152729191Y-90888096D01*
X152919667Y-91602381D01*
X153157762Y-90602381D01*
X154062524Y-91602381D02*
X153491096Y-91602381D01*
X153776810Y-91602381D02*
X153776810Y-90602381D01*
X153681572Y-90745239D01*
X153586334Y-90840477D01*
X153491096Y-90888096D01*
X169732761Y-112298333D02*
X169780380Y-112155476D01*
X169780380Y-111917380D01*
X169732761Y-111822142D01*
X169685142Y-111774523D01*
X169589904Y-111726904D01*
X169494666Y-111726904D01*
X169399428Y-111774523D01*
X169351809Y-111822142D01*
X169304190Y-111917380D01*
X169256571Y-112107857D01*
X169208952Y-112203095D01*
X169161333Y-112250714D01*
X169066095Y-112298333D01*
X168970857Y-112298333D01*
X168875619Y-112250714D01*
X168828000Y-112203095D01*
X168780380Y-112107857D01*
X168780380Y-111869761D01*
X168828000Y-111726904D01*
X168780380Y-111393571D02*
X169780380Y-111155476D01*
X169066095Y-110965000D01*
X169780380Y-110774523D01*
X168780380Y-110536428D01*
X169780380Y-109631666D02*
X169780380Y-110203095D01*
X169780380Y-109917380D02*
X168780380Y-109917380D01*
X168923238Y-110012619D01*
X169018476Y-110107857D01*
X169066095Y-110203095D01*
X169602761Y-100108333D02*
X169650380Y-99965476D01*
X169650380Y-99727380D01*
X169602761Y-99632142D01*
X169555142Y-99584523D01*
X169459904Y-99536904D01*
X169364666Y-99536904D01*
X169269428Y-99584523D01*
X169221809Y-99632142D01*
X169174190Y-99727380D01*
X169126571Y-99917857D01*
X169078952Y-100013095D01*
X169031333Y-100060714D01*
X168936095Y-100108333D01*
X168840857Y-100108333D01*
X168745619Y-100060714D01*
X168698000Y-100013095D01*
X168650380Y-99917857D01*
X168650380Y-99679761D01*
X168698000Y-99536904D01*
X168650380Y-99203571D02*
X169650380Y-98965476D01*
X168936095Y-98775000D01*
X169650380Y-98584523D01*
X168650380Y-98346428D01*
X168745619Y-98013095D02*
X168698000Y-97965476D01*
X168650380Y-97870238D01*
X168650380Y-97632142D01*
X168698000Y-97536904D01*
X168745619Y-97489285D01*
X168840857Y-97441666D01*
X168936095Y-97441666D01*
X169078952Y-97489285D01*
X169650380Y-98060714D01*
X169650380Y-97441666D01*
X126700380Y-81911666D02*
X126224190Y-82245000D01*
X126700380Y-82483095D02*
X125700380Y-82483095D01*
X125700380Y-82102142D01*
X125748000Y-82006904D01*
X125795619Y-81959285D01*
X125890857Y-81911666D01*
X126033714Y-81911666D01*
X126128952Y-81959285D01*
X126176571Y-82006904D01*
X126224190Y-82102142D01*
X126224190Y-82483095D01*
X125795619Y-81530714D02*
X125748000Y-81483095D01*
X125700380Y-81387857D01*
X125700380Y-81149761D01*
X125748000Y-81054523D01*
X125795619Y-81006904D01*
X125890857Y-80959285D01*
X125986095Y-80959285D01*
X126128952Y-81006904D01*
X126700380Y-81578333D01*
X126700380Y-80959285D01*
X120810380Y-79156666D02*
X120334190Y-79490000D01*
X120810380Y-79728095D02*
X119810380Y-79728095D01*
X119810380Y-79347142D01*
X119858000Y-79251904D01*
X119905619Y-79204285D01*
X120000857Y-79156666D01*
X120143714Y-79156666D01*
X120238952Y-79204285D01*
X120286571Y-79251904D01*
X120334190Y-79347142D01*
X120334190Y-79728095D01*
X120810380Y-78204285D02*
X120810380Y-78775714D01*
X120810380Y-78490000D02*
X119810380Y-78490000D01*
X119953238Y-78585238D01*
X120048476Y-78680476D01*
X120096095Y-78775714D01*
X172540380Y-106361666D02*
X172064190Y-106695000D01*
X172540380Y-106933095D02*
X171540380Y-106933095D01*
X171540380Y-106552142D01*
X171588000Y-106456904D01*
X171635619Y-106409285D01*
X171730857Y-106361666D01*
X171873714Y-106361666D01*
X171968952Y-106409285D01*
X172016571Y-106456904D01*
X172064190Y-106552142D01*
X172064190Y-106933095D01*
X171540380Y-106028333D02*
X171540380Y-105409285D01*
X171921333Y-105742619D01*
X171921333Y-105599761D01*
X171968952Y-105504523D01*
X172016571Y-105456904D01*
X172111809Y-105409285D01*
X172349904Y-105409285D01*
X172445142Y-105456904D01*
X172492761Y-105504523D01*
X172540380Y-105599761D01*
X172540380Y-105885476D01*
X172492761Y-105980714D01*
X172445142Y-106028333D01*
X172590380Y-103271666D02*
X172114190Y-103605000D01*
X172590380Y-103843095D02*
X171590380Y-103843095D01*
X171590380Y-103462142D01*
X171638000Y-103366904D01*
X171685619Y-103319285D01*
X171780857Y-103271666D01*
X171923714Y-103271666D01*
X172018952Y-103319285D01*
X172066571Y-103366904D01*
X172114190Y-103462142D01*
X172114190Y-103843095D01*
X171923714Y-102414523D02*
X172590380Y-102414523D01*
X171542761Y-102652619D02*
X172257047Y-102890714D01*
X172257047Y-102271666D01*
X147089904Y-121737380D02*
X147089904Y-120737380D01*
X147470857Y-120737380D01*
X147566095Y-120785000D01*
X147613714Y-120832619D01*
X147661333Y-120927857D01*
X147661333Y-121070714D01*
X147613714Y-121165952D01*
X147566095Y-121213571D01*
X147470857Y-121261190D01*
X147089904Y-121261190D01*
X148613714Y-121737380D02*
X148042285Y-121737380D01*
X148328000Y-121737380D02*
X148328000Y-120737380D01*
X148232761Y-120880238D01*
X148137523Y-120975476D01*
X148042285Y-121023095D01*
X167663904Y-121737380D02*
X167663904Y-120737380D01*
X168044857Y-120737380D01*
X168140095Y-120785000D01*
X168187714Y-120832619D01*
X168235333Y-120927857D01*
X168235333Y-121070714D01*
X168187714Y-121165952D01*
X168140095Y-121213571D01*
X168044857Y-121261190D01*
X167663904Y-121261190D01*
X168616285Y-120832619D02*
X168663904Y-120785000D01*
X168759142Y-120737380D01*
X168997238Y-120737380D01*
X169092476Y-120785000D01*
X169140095Y-120832619D01*
X169187714Y-120927857D01*
X169187714Y-121023095D01*
X169140095Y-121165952D01*
X168568666Y-121737380D01*
X169187714Y-121737380D01*
X140485904Y-78811380D02*
X140485904Y-77811380D01*
X140866857Y-77811380D01*
X140962095Y-77859000D01*
X141009714Y-77906619D01*
X141057333Y-78001857D01*
X141057333Y-78144714D01*
X141009714Y-78239952D01*
X140962095Y-78287571D01*
X140866857Y-78335190D01*
X140485904Y-78335190D01*
X141390666Y-77811380D02*
X142009714Y-77811380D01*
X141676380Y-78192333D01*
X141819238Y-78192333D01*
X141914476Y-78239952D01*
X141962095Y-78287571D01*
X142009714Y-78382809D01*
X142009714Y-78620904D01*
X141962095Y-78716142D01*
X141914476Y-78763761D01*
X141819238Y-78811380D01*
X141533523Y-78811380D01*
X141438285Y-78763761D01*
X141390666Y-78716142D01*
X164869904Y-78811380D02*
X164869904Y-77811380D01*
X165250857Y-77811380D01*
X165346095Y-77859000D01*
X165393714Y-77906619D01*
X165441333Y-78001857D01*
X165441333Y-78144714D01*
X165393714Y-78239952D01*
X165346095Y-78287571D01*
X165250857Y-78335190D01*
X164869904Y-78335190D01*
X166298476Y-78144714D02*
X166298476Y-78811380D01*
X166060380Y-77763761D02*
X165822285Y-78478047D01*
X166441333Y-78478047D01*
X120200380Y-76434047D02*
X120200380Y-76910238D01*
X119200380Y-76910238D01*
X119676571Y-76100714D02*
X119676571Y-75767380D01*
X120200380Y-75624523D02*
X120200380Y-76100714D01*
X119200380Y-76100714D01*
X119200380Y-75624523D01*
X120200380Y-75195952D02*
X119200380Y-75195952D01*
X119200380Y-74957857D01*
X119248000Y-74815000D01*
X119343238Y-74719761D01*
X119438476Y-74672142D01*
X119628952Y-74624523D01*
X119771809Y-74624523D01*
X119962285Y-74672142D01*
X120057523Y-74719761D01*
X120152761Y-74815000D01*
X120200380Y-74957857D01*
X120200380Y-75195952D01*
X120200380Y-73672142D02*
X120200380Y-74243571D01*
X120200380Y-73957857D02*
X119200380Y-73957857D01*
X119343238Y-74053095D01*
X119438476Y-74148333D01*
X119486095Y-74243571D01*
X127300380Y-76584047D02*
X127300380Y-77060238D01*
X126300380Y-77060238D01*
X126776571Y-76250714D02*
X126776571Y-75917380D01*
X127300380Y-75774523D02*
X127300380Y-76250714D01*
X126300380Y-76250714D01*
X126300380Y-75774523D01*
X127300380Y-75345952D02*
X126300380Y-75345952D01*
X126300380Y-75107857D01*
X126348000Y-74965000D01*
X126443238Y-74869761D01*
X126538476Y-74822142D01*
X126728952Y-74774523D01*
X126871809Y-74774523D01*
X127062285Y-74822142D01*
X127157523Y-74869761D01*
X127252761Y-74965000D01*
X127300380Y-75107857D01*
X127300380Y-75345952D01*
X126395619Y-74393571D02*
X126348000Y-74345952D01*
X126300380Y-74250714D01*
X126300380Y-74012619D01*
X126348000Y-73917380D01*
X126395619Y-73869761D01*
X126490857Y-73822142D01*
X126586095Y-73822142D01*
X126728952Y-73869761D01*
X127300380Y-74441190D01*
X127300380Y-73822142D01*
X162288480Y-85931190D02*
X161288480Y-85931190D01*
X161288480Y-85550238D01*
X161336100Y-85455000D01*
X161383719Y-85407380D01*
X161478957Y-85359761D01*
X161621814Y-85359761D01*
X161717052Y-85407380D01*
X161764671Y-85455000D01*
X161812290Y-85550238D01*
X161812290Y-85931190D01*
X162288480Y-84788333D02*
X162240861Y-84883571D01*
X162193242Y-84931190D01*
X162098004Y-84978809D01*
X161812290Y-84978809D01*
X161717052Y-84931190D01*
X161669433Y-84883571D01*
X161621814Y-84788333D01*
X161621814Y-84645476D01*
X161669433Y-84550238D01*
X161717052Y-84502619D01*
X161812290Y-84455000D01*
X162098004Y-84455000D01*
X162193242Y-84502619D01*
X162240861Y-84550238D01*
X162288480Y-84645476D01*
X162288480Y-84788333D01*
X161621814Y-84169285D02*
X161621814Y-83788333D01*
X161288480Y-84026428D02*
X162145623Y-84026428D01*
X162240861Y-83978809D01*
X162288480Y-83883571D01*
X162288480Y-83788333D01*
X162288480Y-82931190D02*
X162288480Y-83502619D01*
X162288480Y-83216904D02*
X161288480Y-83216904D01*
X161431338Y-83312142D01*
X161526576Y-83407380D01*
X161574195Y-83502619D01*
X163520380Y-104925476D02*
X163520380Y-105401666D01*
X162520380Y-105401666D01*
X163520380Y-104592142D02*
X162520380Y-104592142D01*
X163234666Y-104258809D01*
X162520380Y-103925476D01*
X163520380Y-103925476D01*
X162520380Y-103544523D02*
X162520380Y-102925476D01*
X162901333Y-103258809D01*
X162901333Y-103115952D01*
X162948952Y-103020714D01*
X162996571Y-102973095D01*
X163091809Y-102925476D01*
X163329904Y-102925476D01*
X163425142Y-102973095D01*
X163472761Y-103020714D01*
X163520380Y-103115952D01*
X163520380Y-103401666D01*
X163472761Y-103496904D01*
X163425142Y-103544523D01*
X162520380Y-102020714D02*
X162520380Y-102496904D01*
X162996571Y-102544523D01*
X162948952Y-102496904D01*
X162901333Y-102401666D01*
X162901333Y-102163571D01*
X162948952Y-102068333D01*
X162996571Y-102020714D01*
X163091809Y-101973095D01*
X163329904Y-101973095D01*
X163425142Y-102020714D01*
X163472761Y-102068333D01*
X163520380Y-102163571D01*
X163520380Y-102401666D01*
X163472761Y-102496904D01*
X163425142Y-102544523D01*
X162472761Y-100830238D02*
X163758476Y-101687380D01*
X162520380Y-100592142D02*
X162520380Y-99973095D01*
X162901333Y-100306428D01*
X162901333Y-100163571D01*
X162948952Y-100068333D01*
X162996571Y-100020714D01*
X163091809Y-99973095D01*
X163329904Y-99973095D01*
X163425142Y-100020714D01*
X163472761Y-100068333D01*
X163520380Y-100163571D01*
X163520380Y-100449285D01*
X163472761Y-100544523D01*
X163425142Y-100592142D01*
X162853714Y-99115952D02*
X163520380Y-99115952D01*
X162472761Y-99354047D02*
X163187047Y-99592142D01*
X163187047Y-98973095D01*
X123920380Y-126420238D02*
X122920380Y-126420238D01*
X122920380Y-126039285D01*
X122968000Y-125944047D01*
X123015619Y-125896428D01*
X123110857Y-125848809D01*
X123253714Y-125848809D01*
X123348952Y-125896428D01*
X123396571Y-125944047D01*
X123444190Y-126039285D01*
X123444190Y-126420238D01*
X122920380Y-125229761D02*
X122920380Y-125039285D01*
X122968000Y-124944047D01*
X123063238Y-124848809D01*
X123253714Y-124801190D01*
X123587047Y-124801190D01*
X123777523Y-124848809D01*
X123872761Y-124944047D01*
X123920380Y-125039285D01*
X123920380Y-125229761D01*
X123872761Y-125325000D01*
X123777523Y-125420238D01*
X123587047Y-125467857D01*
X123253714Y-125467857D01*
X123063238Y-125420238D01*
X122968000Y-125325000D01*
X122920380Y-125229761D01*
X123920380Y-123801190D02*
X123444190Y-124134523D01*
X123920380Y-124372619D02*
X122920380Y-124372619D01*
X122920380Y-123991666D01*
X122968000Y-123896428D01*
X123015619Y-123848809D01*
X123110857Y-123801190D01*
X123253714Y-123801190D01*
X123348952Y-123848809D01*
X123396571Y-123896428D01*
X123444190Y-123991666D01*
X123444190Y-124372619D01*
X122920380Y-123515476D02*
X122920380Y-122944047D01*
X123920380Y-123229761D02*
X122920380Y-123229761D01*
X123396571Y-122610714D02*
X123396571Y-122277380D01*
X123920380Y-122134523D02*
X123920380Y-122610714D01*
X122920380Y-122610714D01*
X122920380Y-122134523D01*
X123920380Y-121182142D02*
X123920380Y-121753571D01*
X123920380Y-121467857D02*
X122920380Y-121467857D01*
X123063238Y-121563095D01*
X123158476Y-121658333D01*
X123206095Y-121753571D01*
X150590380Y-121864047D02*
X149590380Y-121864047D01*
X149590380Y-121625952D01*
X149638000Y-121483095D01*
X149733238Y-121387857D01*
X149828476Y-121340238D01*
X150018952Y-121292619D01*
X150161809Y-121292619D01*
X150352285Y-121340238D01*
X150447523Y-121387857D01*
X150542761Y-121483095D01*
X150590380Y-121625952D01*
X150590380Y-121864047D01*
X150542761Y-120911666D02*
X150590380Y-120768809D01*
X150590380Y-120530714D01*
X150542761Y-120435476D01*
X150495142Y-120387857D01*
X150399904Y-120340238D01*
X150304666Y-120340238D01*
X150209428Y-120387857D01*
X150161809Y-120435476D01*
X150114190Y-120530714D01*
X150066571Y-120721190D01*
X150018952Y-120816428D01*
X149971333Y-120864047D01*
X149876095Y-120911666D01*
X149780857Y-120911666D01*
X149685619Y-120864047D01*
X149638000Y-120816428D01*
X149590380Y-120721190D01*
X149590380Y-120483095D01*
X149638000Y-120340238D01*
X150590380Y-119387857D02*
X150590380Y-119959285D01*
X150590380Y-119673571D02*
X149590380Y-119673571D01*
X149733238Y-119768809D01*
X149828476Y-119864047D01*
X149876095Y-119959285D01*
X150018952Y-118816428D02*
X149971333Y-118911666D01*
X149923714Y-118959285D01*
X149828476Y-119006904D01*
X149780857Y-119006904D01*
X149685619Y-118959285D01*
X149638000Y-118911666D01*
X149590380Y-118816428D01*
X149590380Y-118625952D01*
X149638000Y-118530714D01*
X149685619Y-118483095D01*
X149780857Y-118435476D01*
X149828476Y-118435476D01*
X149923714Y-118483095D01*
X149971333Y-118530714D01*
X150018952Y-118625952D01*
X150018952Y-118816428D01*
X150066571Y-118911666D01*
X150114190Y-118959285D01*
X150209428Y-119006904D01*
X150399904Y-119006904D01*
X150495142Y-118959285D01*
X150542761Y-118911666D01*
X150590380Y-118816428D01*
X150590380Y-118625952D01*
X150542761Y-118530714D01*
X150495142Y-118483095D01*
X150399904Y-118435476D01*
X150209428Y-118435476D01*
X150114190Y-118483095D01*
X150066571Y-118530714D01*
X150018952Y-118625952D01*
X150542761Y-118054523D02*
X150590380Y-117911666D01*
X150590380Y-117673571D01*
X150542761Y-117578333D01*
X150495142Y-117530714D01*
X150399904Y-117483095D01*
X150304666Y-117483095D01*
X150209428Y-117530714D01*
X150161809Y-117578333D01*
X150114190Y-117673571D01*
X150066571Y-117864047D01*
X150018952Y-117959285D01*
X149971333Y-118006904D01*
X149876095Y-118054523D01*
X149780857Y-118054523D01*
X149685619Y-118006904D01*
X149638000Y-117959285D01*
X149590380Y-117864047D01*
X149590380Y-117625952D01*
X149638000Y-117483095D01*
X149685619Y-117102142D02*
X149638000Y-117054523D01*
X149590380Y-116959285D01*
X149590380Y-116721190D01*
X149638000Y-116625952D01*
X149685619Y-116578333D01*
X149780857Y-116530714D01*
X149876095Y-116530714D01*
X150018952Y-116578333D01*
X150590380Y-117149761D01*
X150590380Y-116530714D01*
X149590380Y-115911666D02*
X149590380Y-115816428D01*
X149638000Y-115721190D01*
X149685619Y-115673571D01*
X149780857Y-115625952D01*
X149971333Y-115578333D01*
X150209428Y-115578333D01*
X150399904Y-115625952D01*
X150495142Y-115673571D01*
X150542761Y-115721190D01*
X150590380Y-115816428D01*
X150590380Y-115911666D01*
X150542761Y-116006904D01*
X150495142Y-116054523D01*
X150399904Y-116102142D01*
X150209428Y-116149761D01*
X149971333Y-116149761D01*
X149780857Y-116102142D01*
X149685619Y-116054523D01*
X149638000Y-116006904D01*
X149590380Y-115911666D01*
X158755381Y-98266667D02*
X159231572Y-98266667D01*
X158660143Y-98552381D02*
X158993477Y-97552381D01*
X159326810Y-98552381D01*
X159660143Y-98552381D02*
X159660143Y-97552381D01*
X160231572Y-98552381D01*
X160231572Y-97552381D01*
X160564905Y-97552381D02*
X161136334Y-97552381D01*
X160850620Y-98552381D02*
X160850620Y-97552381D01*
X161469667Y-98028572D02*
X161803001Y-98028572D01*
X161945858Y-98552381D02*
X161469667Y-98552381D01*
X161469667Y-97552381D01*
X161945858Y-97552381D01*
X162374429Y-98552381D02*
X162374429Y-97552381D01*
X162945858Y-98552381D01*
X162945858Y-97552381D01*
X163422048Y-98552381D02*
X163422048Y-97552381D01*
X163993477Y-98552381D01*
X163993477Y-97552381D01*
X164422048Y-98266667D02*
X164898239Y-98266667D01*
X164326810Y-98552381D02*
X164660143Y-97552381D01*
X164993477Y-98552381D01*
X165850620Y-98552381D02*
X165279191Y-98552381D01*
X165564905Y-98552381D02*
X165564905Y-97552381D01*
X165469667Y-97695239D01*
X165374429Y-97790477D01*
X165279191Y-97838096D01*
X121402761Y-113467380D02*
X121402761Y-112467380D01*
X121640857Y-112467380D01*
X121783714Y-112515000D01*
X121878952Y-112610238D01*
X121926571Y-112705476D01*
X121974190Y-112895952D01*
X121974190Y-113038809D01*
X121926571Y-113229285D01*
X121878952Y-113324523D01*
X121783714Y-113419761D01*
X121640857Y-113467380D01*
X121402761Y-113467380D01*
X122974190Y-113467380D02*
X122640857Y-112991190D01*
X122402761Y-113467380D02*
X122402761Y-112467380D01*
X122783714Y-112467380D01*
X122878952Y-112515000D01*
X122926571Y-112562619D01*
X122974190Y-112657857D01*
X122974190Y-112800714D01*
X122926571Y-112895952D01*
X122878952Y-112943571D01*
X122783714Y-112991190D01*
X122402761Y-112991190D01*
X123259904Y-112467380D02*
X123593238Y-113467380D01*
X123926571Y-112467380D01*
X124402761Y-112895952D02*
X124307523Y-112848333D01*
X124259904Y-112800714D01*
X124212285Y-112705476D01*
X124212285Y-112657857D01*
X124259904Y-112562619D01*
X124307523Y-112515000D01*
X124402761Y-112467380D01*
X124593238Y-112467380D01*
X124688476Y-112515000D01*
X124736095Y-112562619D01*
X124783714Y-112657857D01*
X124783714Y-112705476D01*
X124736095Y-112800714D01*
X124688476Y-112848333D01*
X124593238Y-112895952D01*
X124402761Y-112895952D01*
X124307523Y-112943571D01*
X124259904Y-112991190D01*
X124212285Y-113086428D01*
X124212285Y-113276904D01*
X124259904Y-113372142D01*
X124307523Y-113419761D01*
X124402761Y-113467380D01*
X124593238Y-113467380D01*
X124688476Y-113419761D01*
X124736095Y-113372142D01*
X124783714Y-113276904D01*
X124783714Y-113086428D01*
X124736095Y-112991190D01*
X124688476Y-112943571D01*
X124593238Y-112895952D01*
X125355142Y-112895952D02*
X125259904Y-112848333D01*
X125212285Y-112800714D01*
X125164666Y-112705476D01*
X125164666Y-112657857D01*
X125212285Y-112562619D01*
X125259904Y-112515000D01*
X125355142Y-112467380D01*
X125545619Y-112467380D01*
X125640857Y-112515000D01*
X125688476Y-112562619D01*
X125736095Y-112657857D01*
X125736095Y-112705476D01*
X125688476Y-112800714D01*
X125640857Y-112848333D01*
X125545619Y-112895952D01*
X125355142Y-112895952D01*
X125259904Y-112943571D01*
X125212285Y-112991190D01*
X125164666Y-113086428D01*
X125164666Y-113276904D01*
X125212285Y-113372142D01*
X125259904Y-113419761D01*
X125355142Y-113467380D01*
X125545619Y-113467380D01*
X125640857Y-113419761D01*
X125688476Y-113372142D01*
X125736095Y-113276904D01*
X125736095Y-113086428D01*
X125688476Y-112991190D01*
X125640857Y-112943571D01*
X125545619Y-112895952D01*
X126069428Y-112467380D02*
X126688476Y-112467380D01*
X126355142Y-112848333D01*
X126498000Y-112848333D01*
X126593238Y-112895952D01*
X126640857Y-112943571D01*
X126688476Y-113038809D01*
X126688476Y-113276904D01*
X126640857Y-113372142D01*
X126593238Y-113419761D01*
X126498000Y-113467380D01*
X126212285Y-113467380D01*
X126117047Y-113419761D01*
X126069428Y-113372142D01*
X127021809Y-112467380D02*
X127640857Y-112467380D01*
X127307523Y-112848333D01*
X127450380Y-112848333D01*
X127545619Y-112895952D01*
X127593238Y-112943571D01*
X127640857Y-113038809D01*
X127640857Y-113276904D01*
X127593238Y-113372142D01*
X127545619Y-113419761D01*
X127450380Y-113467380D01*
X127164666Y-113467380D01*
X127069428Y-113419761D01*
X127021809Y-113372142D01*
X123750380Y-107539285D02*
X123750380Y-106967857D01*
X124750380Y-107253571D02*
X123750380Y-107253571D01*
X124226571Y-106634523D02*
X124226571Y-106301190D01*
X124750380Y-106158333D02*
X124750380Y-106634523D01*
X123750380Y-106634523D01*
X123750380Y-106158333D01*
X124750380Y-105205952D02*
X124750380Y-105777380D01*
X124750380Y-105491666D02*
X123750380Y-105491666D01*
X123893238Y-105586904D01*
X123988476Y-105682142D01*
X124036095Y-105777380D01*
X123750380Y-108865000D02*
X123988476Y-108865000D01*
X123893238Y-109103095D02*
X123988476Y-108865000D01*
X123893238Y-108626904D01*
X124178952Y-109007857D02*
X123988476Y-108865000D01*
X124178952Y-108722142D01*
X119180380Y-88317380D02*
X118180380Y-88317380D01*
X118275619Y-87888809D02*
X118228000Y-87841190D01*
X118180380Y-87745952D01*
X118180380Y-87507857D01*
X118228000Y-87412619D01*
X118275619Y-87365000D01*
X118370857Y-87317380D01*
X118466095Y-87317380D01*
X118608952Y-87365000D01*
X119180380Y-87936428D01*
X119180380Y-87317380D01*
X119085142Y-86317380D02*
X119132761Y-86365000D01*
X119180380Y-86507857D01*
X119180380Y-86603095D01*
X119132761Y-86745952D01*
X119037523Y-86841190D01*
X118942285Y-86888809D01*
X118751809Y-86936428D01*
X118608952Y-86936428D01*
X118418476Y-86888809D01*
X118323238Y-86841190D01*
X118228000Y-86745952D01*
X118180380Y-86603095D01*
X118180380Y-86507857D01*
X118228000Y-86365000D01*
X118275619Y-86317380D01*
X119180380Y-85365000D02*
X119180380Y-85936428D01*
X119180380Y-85650714D02*
X118180380Y-85650714D01*
X118323238Y-85745952D01*
X118418476Y-85841190D01*
X118466095Y-85936428D01*
X113598000Y-83099761D02*
X113740857Y-83147380D01*
X113978952Y-83147380D01*
X114074190Y-83099761D01*
X114121809Y-83052142D01*
X114169428Y-82956904D01*
X114169428Y-82861666D01*
X114121809Y-82766428D01*
X114074190Y-82718809D01*
X113978952Y-82671190D01*
X113788476Y-82623571D01*
X113693238Y-82575952D01*
X113645619Y-82528333D01*
X113598000Y-82433095D01*
X113598000Y-82337857D01*
X113645619Y-82242619D01*
X113693238Y-82195000D01*
X113788476Y-82147380D01*
X114026571Y-82147380D01*
X114169428Y-82195000D01*
X114598000Y-83147380D02*
X114598000Y-82147380D01*
X114978952Y-82147380D01*
X115074190Y-82195000D01*
X115121809Y-82242619D01*
X115169428Y-82337857D01*
X115169428Y-82480714D01*
X115121809Y-82575952D01*
X115074190Y-82623571D01*
X114978952Y-82671190D01*
X114598000Y-82671190D01*
X115598000Y-83147380D02*
X115598000Y-82147380D01*
X116598000Y-83147380D02*
X116026571Y-83147380D01*
X116312285Y-83147380D02*
X116312285Y-82147380D01*
X116217047Y-82290238D01*
X116121809Y-82385476D01*
X116026571Y-82433095D01*
X173181333Y-80272142D02*
X173133714Y-80319761D01*
X172990857Y-80367380D01*
X172895619Y-80367380D01*
X172752761Y-80319761D01*
X172657523Y-80224523D01*
X172609904Y-80129285D01*
X172562285Y-79938809D01*
X172562285Y-79795952D01*
X172609904Y-79605476D01*
X172657523Y-79510238D01*
X172752761Y-79415000D01*
X172895619Y-79367380D01*
X172990857Y-79367380D01*
X173133714Y-79415000D01*
X173181333Y-79462619D01*
X174133714Y-80367380D02*
X173562285Y-80367380D01*
X173848000Y-80367380D02*
X173848000Y-79367380D01*
X173752761Y-79510238D01*
X173657523Y-79605476D01*
X173562285Y-79653095D01*
M02*
