G04 #@! TF.GenerationSoftware,KiCad,Pcbnew,(5.1.5)-3*
G04 #@! TF.CreationDate,2020-04-27T21:11:52-07:00*
G04 #@! TF.ProjectId,My_PCB,4d795f50-4342-42e6-9b69-6361645f7063,1*
G04 #@! TF.SameCoordinates,Original*
G04 #@! TF.FileFunction,Soldermask,Bot*
G04 #@! TF.FilePolarity,Negative*
%FSLAX46Y46*%
G04 Gerber Fmt 4.6, Leading zero omitted, Abs format (unit mm)*
G04 Created by KiCad (PCBNEW (5.1.5)-3) date 2020-04-27 21:11:52*
%MOMM*%
%LPD*%
G04 APERTURE LIST*
%ADD10C,4.064000*%
%ADD11O,1.727200X2.032000*%
%ADD12C,1.346200*%
%ADD13R,1.346200X1.346200*%
%ADD14R,1.700000X1.700000*%
%ADD15O,1.700000X1.700000*%
%ADD16C,2.032000*%
%ADD17R,1.600000X1.600000*%
%ADD18C,1.600000*%
G04 APERTURE END LIST*
D10*
X177038000Y-90805000D03*
D11*
X138938000Y-123825000D03*
X141478000Y-123825000D03*
X144018000Y-123825000D03*
X146558000Y-123825000D03*
X149098000Y-123825000D03*
X151638000Y-123825000D03*
X154178000Y-123825000D03*
X156718000Y-123825000D03*
X161798000Y-123825000D03*
X164338000Y-123825000D03*
X166878000Y-123825000D03*
X169418000Y-123825000D03*
X171958000Y-123825000D03*
X174498000Y-123825000D03*
X129794000Y-75565000D03*
X132334000Y-75565000D03*
X134874000Y-75565000D03*
X137414000Y-75565000D03*
X139954000Y-75565000D03*
X142494000Y-75565000D03*
X145034000Y-75565000D03*
X147574000Y-75565000D03*
X150114000Y-75565000D03*
X152654000Y-75565000D03*
X156718000Y-75565000D03*
X159258000Y-75565000D03*
X161798000Y-75565000D03*
X164338000Y-75565000D03*
X166878000Y-75565000D03*
X169418000Y-75565000D03*
X171958000Y-75565000D03*
X174498000Y-75565000D03*
D10*
X114808000Y-122555000D03*
X177038000Y-118745000D03*
X114808000Y-76835000D03*
D12*
X161798000Y-81915000D03*
X159258000Y-84455000D03*
D13*
X161798000Y-86995000D03*
D14*
X165608000Y-99695000D03*
D15*
X165608000Y-102235000D03*
X165608000Y-104775000D03*
D14*
X126238000Y-123825000D03*
D15*
X128778000Y-123825000D03*
X131318000Y-123825000D03*
X133858000Y-123825000D03*
D14*
X152908000Y-118745000D03*
D15*
X155448000Y-118745000D03*
X157988000Y-118745000D03*
D16*
X124298000Y-108865000D03*
X124298000Y-103785000D03*
D14*
X121498000Y-86865000D03*
D15*
X124038000Y-86865000D03*
X126578000Y-86865000D03*
X129118000Y-86865000D03*
D14*
X115098000Y-85465000D03*
D15*
X115098000Y-88005000D03*
X115098000Y-90545000D03*
X115098000Y-93085000D03*
X115098000Y-95625000D03*
X115098000Y-98165000D03*
D17*
X172098000Y-83665000D03*
D18*
X174598000Y-83665000D03*
M02*
