G04 #@! TF.GenerationSoftware,KiCad,Pcbnew,(5.1.5)-3*
G04 #@! TF.CreationDate,2020-04-27T21:11:52-07:00*
G04 #@! TF.ProjectId,My_PCB,4d795f50-4342-42e6-9b69-6361645f7063,1*
G04 #@! TF.SameCoordinates,Original*
G04 #@! TF.FileFunction,Paste,Top*
G04 #@! TF.FilePolarity,Positive*
%FSLAX46Y46*%
G04 Gerber Fmt 4.6, Leading zero omitted, Abs format (unit mm)*
G04 Created by KiCad (PCBNEW (5.1.5)-3) date 2020-04-27 21:11:52*
%MOMM*%
%LPD*%
G04 APERTURE LIST*
%ADD10R,2.000000X1.000000*%
%ADD11R,1.701800X0.990600*%
%ADD12C,0.100000*%
%ADD13R,0.800000X0.600000*%
%ADD14R,1.600000X0.800000*%
%ADD15R,1.500000X0.450000*%
G04 APERTURE END LIST*
D10*
X142753001Y-93350001D03*
X142753001Y-95350001D03*
X142753001Y-97350001D03*
X142753001Y-99350001D03*
X142753001Y-101350001D03*
X142753001Y-103350001D03*
X142753001Y-105350001D03*
X142753001Y-107350001D03*
X158753001Y-107350001D03*
X158753001Y-105350001D03*
X158753001Y-103350001D03*
X158753001Y-101350001D03*
X158753001Y-99350001D03*
X158753001Y-97350001D03*
X158753001Y-95350001D03*
X158753001Y-93350001D03*
D11*
X177149600Y-109115001D03*
X177149600Y-112814999D03*
X171866400Y-112814999D03*
X171866400Y-109115001D03*
X177089600Y-96865001D03*
X177089600Y-100564999D03*
X171806400Y-100564999D03*
X171806400Y-96865001D03*
D12*
G36*
X125038779Y-78006144D02*
G01*
X125061834Y-78009563D01*
X125084443Y-78015227D01*
X125106387Y-78023079D01*
X125127457Y-78033044D01*
X125147448Y-78045026D01*
X125166168Y-78058910D01*
X125183438Y-78074562D01*
X125199090Y-78091832D01*
X125212974Y-78110552D01*
X125224956Y-78130543D01*
X125234921Y-78151613D01*
X125242773Y-78173557D01*
X125248437Y-78196166D01*
X125251856Y-78219221D01*
X125253000Y-78242500D01*
X125253000Y-78817500D01*
X125251856Y-78840779D01*
X125248437Y-78863834D01*
X125242773Y-78886443D01*
X125234921Y-78908387D01*
X125224956Y-78929457D01*
X125212974Y-78949448D01*
X125199090Y-78968168D01*
X125183438Y-78985438D01*
X125166168Y-79001090D01*
X125147448Y-79014974D01*
X125127457Y-79026956D01*
X125106387Y-79036921D01*
X125084443Y-79044773D01*
X125061834Y-79050437D01*
X125038779Y-79053856D01*
X125015500Y-79055000D01*
X124540500Y-79055000D01*
X124517221Y-79053856D01*
X124494166Y-79050437D01*
X124471557Y-79044773D01*
X124449613Y-79036921D01*
X124428543Y-79026956D01*
X124408552Y-79014974D01*
X124389832Y-79001090D01*
X124372562Y-78985438D01*
X124356910Y-78968168D01*
X124343026Y-78949448D01*
X124331044Y-78929457D01*
X124321079Y-78908387D01*
X124313227Y-78886443D01*
X124307563Y-78863834D01*
X124304144Y-78840779D01*
X124303000Y-78817500D01*
X124303000Y-78242500D01*
X124304144Y-78219221D01*
X124307563Y-78196166D01*
X124313227Y-78173557D01*
X124321079Y-78151613D01*
X124331044Y-78130543D01*
X124343026Y-78110552D01*
X124356910Y-78091832D01*
X124372562Y-78074562D01*
X124389832Y-78058910D01*
X124408552Y-78045026D01*
X124428543Y-78033044D01*
X124449613Y-78023079D01*
X124471557Y-78015227D01*
X124494166Y-78009563D01*
X124517221Y-78006144D01*
X124540500Y-78005000D01*
X125015500Y-78005000D01*
X125038779Y-78006144D01*
G37*
G36*
X125038779Y-79756144D02*
G01*
X125061834Y-79759563D01*
X125084443Y-79765227D01*
X125106387Y-79773079D01*
X125127457Y-79783044D01*
X125147448Y-79795026D01*
X125166168Y-79808910D01*
X125183438Y-79824562D01*
X125199090Y-79841832D01*
X125212974Y-79860552D01*
X125224956Y-79880543D01*
X125234921Y-79901613D01*
X125242773Y-79923557D01*
X125248437Y-79946166D01*
X125251856Y-79969221D01*
X125253000Y-79992500D01*
X125253000Y-80567500D01*
X125251856Y-80590779D01*
X125248437Y-80613834D01*
X125242773Y-80636443D01*
X125234921Y-80658387D01*
X125224956Y-80679457D01*
X125212974Y-80699448D01*
X125199090Y-80718168D01*
X125183438Y-80735438D01*
X125166168Y-80751090D01*
X125147448Y-80764974D01*
X125127457Y-80776956D01*
X125106387Y-80786921D01*
X125084443Y-80794773D01*
X125061834Y-80800437D01*
X125038779Y-80803856D01*
X125015500Y-80805000D01*
X124540500Y-80805000D01*
X124517221Y-80803856D01*
X124494166Y-80800437D01*
X124471557Y-80794773D01*
X124449613Y-80786921D01*
X124428543Y-80776956D01*
X124408552Y-80764974D01*
X124389832Y-80751090D01*
X124372562Y-80735438D01*
X124356910Y-80718168D01*
X124343026Y-80699448D01*
X124331044Y-80679457D01*
X124321079Y-80658387D01*
X124313227Y-80636443D01*
X124307563Y-80613834D01*
X124304144Y-80590779D01*
X124303000Y-80567500D01*
X124303000Y-79992500D01*
X124304144Y-79969221D01*
X124307563Y-79946166D01*
X124313227Y-79923557D01*
X124321079Y-79901613D01*
X124331044Y-79880543D01*
X124343026Y-79860552D01*
X124356910Y-79841832D01*
X124372562Y-79824562D01*
X124389832Y-79808910D01*
X124408552Y-79795026D01*
X124428543Y-79783044D01*
X124449613Y-79773079D01*
X124471557Y-79765227D01*
X124494166Y-79759563D01*
X124517221Y-79756144D01*
X124540500Y-79755000D01*
X125015500Y-79755000D01*
X125038779Y-79756144D01*
G37*
G36*
X122208779Y-79756144D02*
G01*
X122231834Y-79759563D01*
X122254443Y-79765227D01*
X122276387Y-79773079D01*
X122297457Y-79783044D01*
X122317448Y-79795026D01*
X122336168Y-79808910D01*
X122353438Y-79824562D01*
X122369090Y-79841832D01*
X122382974Y-79860552D01*
X122394956Y-79880543D01*
X122404921Y-79901613D01*
X122412773Y-79923557D01*
X122418437Y-79946166D01*
X122421856Y-79969221D01*
X122423000Y-79992500D01*
X122423000Y-80567500D01*
X122421856Y-80590779D01*
X122418437Y-80613834D01*
X122412773Y-80636443D01*
X122404921Y-80658387D01*
X122394956Y-80679457D01*
X122382974Y-80699448D01*
X122369090Y-80718168D01*
X122353438Y-80735438D01*
X122336168Y-80751090D01*
X122317448Y-80764974D01*
X122297457Y-80776956D01*
X122276387Y-80786921D01*
X122254443Y-80794773D01*
X122231834Y-80800437D01*
X122208779Y-80803856D01*
X122185500Y-80805000D01*
X121710500Y-80805000D01*
X121687221Y-80803856D01*
X121664166Y-80800437D01*
X121641557Y-80794773D01*
X121619613Y-80786921D01*
X121598543Y-80776956D01*
X121578552Y-80764974D01*
X121559832Y-80751090D01*
X121542562Y-80735438D01*
X121526910Y-80718168D01*
X121513026Y-80699448D01*
X121501044Y-80679457D01*
X121491079Y-80658387D01*
X121483227Y-80636443D01*
X121477563Y-80613834D01*
X121474144Y-80590779D01*
X121473000Y-80567500D01*
X121473000Y-79992500D01*
X121474144Y-79969221D01*
X121477563Y-79946166D01*
X121483227Y-79923557D01*
X121491079Y-79901613D01*
X121501044Y-79880543D01*
X121513026Y-79860552D01*
X121526910Y-79841832D01*
X121542562Y-79824562D01*
X121559832Y-79808910D01*
X121578552Y-79795026D01*
X121598543Y-79783044D01*
X121619613Y-79773079D01*
X121641557Y-79765227D01*
X121664166Y-79759563D01*
X121687221Y-79756144D01*
X121710500Y-79755000D01*
X122185500Y-79755000D01*
X122208779Y-79756144D01*
G37*
G36*
X122208779Y-78006144D02*
G01*
X122231834Y-78009563D01*
X122254443Y-78015227D01*
X122276387Y-78023079D01*
X122297457Y-78033044D01*
X122317448Y-78045026D01*
X122336168Y-78058910D01*
X122353438Y-78074562D01*
X122369090Y-78091832D01*
X122382974Y-78110552D01*
X122394956Y-78130543D01*
X122404921Y-78151613D01*
X122412773Y-78173557D01*
X122418437Y-78196166D01*
X122421856Y-78219221D01*
X122423000Y-78242500D01*
X122423000Y-78817500D01*
X122421856Y-78840779D01*
X122418437Y-78863834D01*
X122412773Y-78886443D01*
X122404921Y-78908387D01*
X122394956Y-78929457D01*
X122382974Y-78949448D01*
X122369090Y-78968168D01*
X122353438Y-78985438D01*
X122336168Y-79001090D01*
X122317448Y-79014974D01*
X122297457Y-79026956D01*
X122276387Y-79036921D01*
X122254443Y-79044773D01*
X122231834Y-79050437D01*
X122208779Y-79053856D01*
X122185500Y-79055000D01*
X121710500Y-79055000D01*
X121687221Y-79053856D01*
X121664166Y-79050437D01*
X121641557Y-79044773D01*
X121619613Y-79036921D01*
X121598543Y-79026956D01*
X121578552Y-79014974D01*
X121559832Y-79001090D01*
X121542562Y-78985438D01*
X121526910Y-78968168D01*
X121513026Y-78949448D01*
X121501044Y-78929457D01*
X121491079Y-78908387D01*
X121483227Y-78886443D01*
X121477563Y-78863834D01*
X121474144Y-78840779D01*
X121473000Y-78817500D01*
X121473000Y-78242500D01*
X121474144Y-78219221D01*
X121477563Y-78196166D01*
X121483227Y-78173557D01*
X121491079Y-78151613D01*
X121501044Y-78130543D01*
X121513026Y-78110552D01*
X121526910Y-78091832D01*
X121542562Y-78074562D01*
X121559832Y-78058910D01*
X121578552Y-78045026D01*
X121598543Y-78033044D01*
X121619613Y-78023079D01*
X121641557Y-78015227D01*
X121664166Y-78009563D01*
X121687221Y-78006144D01*
X121710500Y-78005000D01*
X122185500Y-78005000D01*
X122208779Y-78006144D01*
G37*
G36*
X173883779Y-105581144D02*
G01*
X173906834Y-105584563D01*
X173929443Y-105590227D01*
X173951387Y-105598079D01*
X173972457Y-105608044D01*
X173992448Y-105620026D01*
X174011168Y-105633910D01*
X174028438Y-105649562D01*
X174044090Y-105666832D01*
X174057974Y-105685552D01*
X174069956Y-105705543D01*
X174079921Y-105726613D01*
X174087773Y-105748557D01*
X174093437Y-105771166D01*
X174096856Y-105794221D01*
X174098000Y-105817500D01*
X174098000Y-106292500D01*
X174096856Y-106315779D01*
X174093437Y-106338834D01*
X174087773Y-106361443D01*
X174079921Y-106383387D01*
X174069956Y-106404457D01*
X174057974Y-106424448D01*
X174044090Y-106443168D01*
X174028438Y-106460438D01*
X174011168Y-106476090D01*
X173992448Y-106489974D01*
X173972457Y-106501956D01*
X173951387Y-106511921D01*
X173929443Y-106519773D01*
X173906834Y-106525437D01*
X173883779Y-106528856D01*
X173860500Y-106530000D01*
X173285500Y-106530000D01*
X173262221Y-106528856D01*
X173239166Y-106525437D01*
X173216557Y-106519773D01*
X173194613Y-106511921D01*
X173173543Y-106501956D01*
X173153552Y-106489974D01*
X173134832Y-106476090D01*
X173117562Y-106460438D01*
X173101910Y-106443168D01*
X173088026Y-106424448D01*
X173076044Y-106404457D01*
X173066079Y-106383387D01*
X173058227Y-106361443D01*
X173052563Y-106338834D01*
X173049144Y-106315779D01*
X173048000Y-106292500D01*
X173048000Y-105817500D01*
X173049144Y-105794221D01*
X173052563Y-105771166D01*
X173058227Y-105748557D01*
X173066079Y-105726613D01*
X173076044Y-105705543D01*
X173088026Y-105685552D01*
X173101910Y-105666832D01*
X173117562Y-105649562D01*
X173134832Y-105633910D01*
X173153552Y-105620026D01*
X173173543Y-105608044D01*
X173194613Y-105598079D01*
X173216557Y-105590227D01*
X173239166Y-105584563D01*
X173262221Y-105581144D01*
X173285500Y-105580000D01*
X173860500Y-105580000D01*
X173883779Y-105581144D01*
G37*
G36*
X175633779Y-105581144D02*
G01*
X175656834Y-105584563D01*
X175679443Y-105590227D01*
X175701387Y-105598079D01*
X175722457Y-105608044D01*
X175742448Y-105620026D01*
X175761168Y-105633910D01*
X175778438Y-105649562D01*
X175794090Y-105666832D01*
X175807974Y-105685552D01*
X175819956Y-105705543D01*
X175829921Y-105726613D01*
X175837773Y-105748557D01*
X175843437Y-105771166D01*
X175846856Y-105794221D01*
X175848000Y-105817500D01*
X175848000Y-106292500D01*
X175846856Y-106315779D01*
X175843437Y-106338834D01*
X175837773Y-106361443D01*
X175829921Y-106383387D01*
X175819956Y-106404457D01*
X175807974Y-106424448D01*
X175794090Y-106443168D01*
X175778438Y-106460438D01*
X175761168Y-106476090D01*
X175742448Y-106489974D01*
X175722457Y-106501956D01*
X175701387Y-106511921D01*
X175679443Y-106519773D01*
X175656834Y-106525437D01*
X175633779Y-106528856D01*
X175610500Y-106530000D01*
X175035500Y-106530000D01*
X175012221Y-106528856D01*
X174989166Y-106525437D01*
X174966557Y-106519773D01*
X174944613Y-106511921D01*
X174923543Y-106501956D01*
X174903552Y-106489974D01*
X174884832Y-106476090D01*
X174867562Y-106460438D01*
X174851910Y-106443168D01*
X174838026Y-106424448D01*
X174826044Y-106404457D01*
X174816079Y-106383387D01*
X174808227Y-106361443D01*
X174802563Y-106338834D01*
X174799144Y-106315779D01*
X174798000Y-106292500D01*
X174798000Y-105817500D01*
X174799144Y-105794221D01*
X174802563Y-105771166D01*
X174808227Y-105748557D01*
X174816079Y-105726613D01*
X174826044Y-105705543D01*
X174838026Y-105685552D01*
X174851910Y-105666832D01*
X174867562Y-105649562D01*
X174884832Y-105633910D01*
X174903552Y-105620026D01*
X174923543Y-105608044D01*
X174944613Y-105598079D01*
X174966557Y-105590227D01*
X174989166Y-105584563D01*
X175012221Y-105581144D01*
X175035500Y-105580000D01*
X175610500Y-105580000D01*
X175633779Y-105581144D01*
G37*
G36*
X175633779Y-102631144D02*
G01*
X175656834Y-102634563D01*
X175679443Y-102640227D01*
X175701387Y-102648079D01*
X175722457Y-102658044D01*
X175742448Y-102670026D01*
X175761168Y-102683910D01*
X175778438Y-102699562D01*
X175794090Y-102716832D01*
X175807974Y-102735552D01*
X175819956Y-102755543D01*
X175829921Y-102776613D01*
X175837773Y-102798557D01*
X175843437Y-102821166D01*
X175846856Y-102844221D01*
X175848000Y-102867500D01*
X175848000Y-103342500D01*
X175846856Y-103365779D01*
X175843437Y-103388834D01*
X175837773Y-103411443D01*
X175829921Y-103433387D01*
X175819956Y-103454457D01*
X175807974Y-103474448D01*
X175794090Y-103493168D01*
X175778438Y-103510438D01*
X175761168Y-103526090D01*
X175742448Y-103539974D01*
X175722457Y-103551956D01*
X175701387Y-103561921D01*
X175679443Y-103569773D01*
X175656834Y-103575437D01*
X175633779Y-103578856D01*
X175610500Y-103580000D01*
X175035500Y-103580000D01*
X175012221Y-103578856D01*
X174989166Y-103575437D01*
X174966557Y-103569773D01*
X174944613Y-103561921D01*
X174923543Y-103551956D01*
X174903552Y-103539974D01*
X174884832Y-103526090D01*
X174867562Y-103510438D01*
X174851910Y-103493168D01*
X174838026Y-103474448D01*
X174826044Y-103454457D01*
X174816079Y-103433387D01*
X174808227Y-103411443D01*
X174802563Y-103388834D01*
X174799144Y-103365779D01*
X174798000Y-103342500D01*
X174798000Y-102867500D01*
X174799144Y-102844221D01*
X174802563Y-102821166D01*
X174808227Y-102798557D01*
X174816079Y-102776613D01*
X174826044Y-102755543D01*
X174838026Y-102735552D01*
X174851910Y-102716832D01*
X174867562Y-102699562D01*
X174884832Y-102683910D01*
X174903552Y-102670026D01*
X174923543Y-102658044D01*
X174944613Y-102648079D01*
X174966557Y-102640227D01*
X174989166Y-102634563D01*
X175012221Y-102631144D01*
X175035500Y-102630000D01*
X175610500Y-102630000D01*
X175633779Y-102631144D01*
G37*
G36*
X173883779Y-102631144D02*
G01*
X173906834Y-102634563D01*
X173929443Y-102640227D01*
X173951387Y-102648079D01*
X173972457Y-102658044D01*
X173992448Y-102670026D01*
X174011168Y-102683910D01*
X174028438Y-102699562D01*
X174044090Y-102716832D01*
X174057974Y-102735552D01*
X174069956Y-102755543D01*
X174079921Y-102776613D01*
X174087773Y-102798557D01*
X174093437Y-102821166D01*
X174096856Y-102844221D01*
X174098000Y-102867500D01*
X174098000Y-103342500D01*
X174096856Y-103365779D01*
X174093437Y-103388834D01*
X174087773Y-103411443D01*
X174079921Y-103433387D01*
X174069956Y-103454457D01*
X174057974Y-103474448D01*
X174044090Y-103493168D01*
X174028438Y-103510438D01*
X174011168Y-103526090D01*
X173992448Y-103539974D01*
X173972457Y-103551956D01*
X173951387Y-103561921D01*
X173929443Y-103569773D01*
X173906834Y-103575437D01*
X173883779Y-103578856D01*
X173860500Y-103580000D01*
X173285500Y-103580000D01*
X173262221Y-103578856D01*
X173239166Y-103575437D01*
X173216557Y-103569773D01*
X173194613Y-103561921D01*
X173173543Y-103551956D01*
X173153552Y-103539974D01*
X173134832Y-103526090D01*
X173117562Y-103510438D01*
X173101910Y-103493168D01*
X173088026Y-103474448D01*
X173076044Y-103454457D01*
X173066079Y-103433387D01*
X173058227Y-103411443D01*
X173052563Y-103388834D01*
X173049144Y-103365779D01*
X173048000Y-103342500D01*
X173048000Y-102867500D01*
X173049144Y-102844221D01*
X173052563Y-102821166D01*
X173058227Y-102798557D01*
X173066079Y-102776613D01*
X173076044Y-102755543D01*
X173088026Y-102735552D01*
X173101910Y-102716832D01*
X173117562Y-102699562D01*
X173134832Y-102683910D01*
X173153552Y-102670026D01*
X173173543Y-102658044D01*
X173194613Y-102648079D01*
X173216557Y-102640227D01*
X173239166Y-102634563D01*
X173262221Y-102631144D01*
X173285500Y-102630000D01*
X173860500Y-102630000D01*
X173883779Y-102631144D01*
G37*
D13*
X121948000Y-74615000D03*
X121948000Y-76015000D03*
X124698000Y-76015000D03*
X124698000Y-74615000D03*
D14*
X162303001Y-96300001D03*
X162303001Y-92900001D03*
D15*
X121548000Y-114290000D03*
X121548000Y-114940000D03*
X121548000Y-115590000D03*
X121548000Y-116240000D03*
X121548000Y-116890000D03*
X121548000Y-117540000D03*
X121548000Y-118190000D03*
X121548000Y-118840000D03*
X127448000Y-118840000D03*
X127448000Y-118190000D03*
X127448000Y-117540000D03*
X127448000Y-116890000D03*
X127448000Y-116240000D03*
X127448000Y-115590000D03*
X127448000Y-114940000D03*
X127448000Y-114290000D03*
M02*
