M48
; DRILL file {KiCad (5.1.5)-3} date 27/04/2020 21:11:50
; FORMAT={-:-/ absolute / inch / decimal}
; #@! TF.CreationDate,2020-04-27T21:11:50-07:00
; #@! TF.GenerationSoftware,Kicad,Pcbnew,(5.1.5)-3
; #@! TF.FileFunction,Plated,1,2,PTH
FMAT,2
INCH
T1C0.0157
T2C0.0315
T3C0.0330
T4C0.0394
T5C0.0400
T6C0.0500
T7C0.1200
%
G90
G05
T1
X4.5787Y-3.2427
X4.9448Y-3.5774
X4.9566Y-3.1797
X5.0737Y-4.4996
X5.0747Y-4.4159
X5.1125Y-3.099
X5.1613Y-3.1128
X5.2117Y-3.0888
X5.2117Y-3.5093
X5.3401Y-3.4167
X5.3451Y-3.0459
X5.3523Y-4.9455
X5.47Y-3.075
X5.47Y-3.775
X5.6202Y-3.7539
X5.6602Y-3.075
X5.67Y-3.375
X5.7602Y-3.075
X5.77Y-3.275
X5.7873Y-4.1837
X5.8602Y-3.075
X5.8617Y-4.725
X5.8716Y-4.425
X6.07Y-3.5896
X6.1667Y-3.2783
X6.2519Y-3.5144
X6.37Y-3.075
X6.37Y-3.075
X6.37Y-3.475
X6.37Y-4.325
X6.37Y-4.775
X6.47Y-3.575
X6.47Y-4.275
X6.47Y-4.775
X6.5511Y-3.5104
X6.67Y-3.575
X6.9712Y-4.0073
X6.9743Y-4.499
T2
X6.7755Y-3.2939
X6.8739Y-3.2939
T3
X6.27Y-3.325
X6.37Y-3.225
X6.37Y-3.425
T4
X4.5314Y-3.3648
X4.5314Y-3.4648
X4.5314Y-3.5648
X4.5314Y-3.6648
X4.5314Y-3.7648
X4.5314Y-3.8648
X6.02Y-4.675
X6.12Y-4.675
X6.22Y-4.675
X4.7834Y-3.4199
X4.8834Y-3.4199
X4.9834Y-3.4199
X5.0834Y-3.4199
X4.97Y-4.875
X5.07Y-4.875
X5.17Y-4.875
X5.27Y-4.875
X6.52Y-3.925
X6.52Y-4.025
X6.52Y-4.125
T5
X5.11Y-2.975
X5.21Y-2.975
X5.31Y-2.975
X5.41Y-2.975
X5.51Y-2.975
X5.61Y-2.975
X5.71Y-2.975
X5.81Y-2.975
X5.91Y-2.975
X6.01Y-2.975
X6.17Y-2.975
X6.27Y-2.975
X6.37Y-2.975
X6.47Y-2.975
X6.57Y-2.975
X6.67Y-2.975
X6.77Y-2.975
X6.87Y-2.975
X6.37Y-4.875
X6.47Y-4.875
X6.57Y-4.875
X6.67Y-4.875
X6.77Y-4.875
X6.87Y-4.875
X5.47Y-4.875
X5.57Y-4.875
X5.67Y-4.875
X5.77Y-4.875
X5.87Y-4.875
X5.97Y-4.875
X6.07Y-4.875
X6.17Y-4.875
T6
X4.8936Y-4.086
X4.8936Y-4.286
T7
X4.52Y-3.025
X6.97Y-4.675
X6.97Y-3.575
X4.52Y-4.825
T0
M30
