G04 #@! TF.GenerationSoftware,KiCad,Pcbnew,(5.1.5)-3*
G04 #@! TF.CreationDate,2020-04-27T21:11:52-07:00*
G04 #@! TF.ProjectId,My_PCB,4d795f50-4342-42e6-9b69-6361645f7063,1*
G04 #@! TF.SameCoordinates,Original*
G04 #@! TF.FileFunction,Copper,L1,Top*
G04 #@! TF.FilePolarity,Positive*
%FSLAX46Y46*%
G04 Gerber Fmt 4.6, Leading zero omitted, Abs format (unit mm)*
G04 Created by KiCad (PCBNEW (5.1.5)-3) date 2020-04-27 21:11:52*
%MOMM*%
%LPD*%
G04 APERTURE LIST*
%ADD10C,0.150000*%
%ADD11C,4.064000*%
%ADD12R,2.000000X1.000000*%
%ADD13R,1.701800X0.990600*%
%ADD14C,0.100000*%
%ADD15O,1.727200X2.032000*%
%ADD16R,0.800000X0.600000*%
%ADD17C,1.346200*%
%ADD18R,1.346200X1.346200*%
%ADD19R,1.700000X1.700000*%
%ADD20O,1.700000X1.700000*%
%ADD21R,1.600000X0.800000*%
%ADD22R,1.500000X0.450000*%
%ADD23C,2.032000*%
%ADD24R,1.600000X1.600000*%
%ADD25C,1.600000*%
%ADD26C,0.600000*%
%ADD27C,0.250000*%
G04 APERTURE END LIST*
D10*
X157845142Y-120874285D02*
X157488000Y-120874285D01*
X157452285Y-121231428D01*
X157488000Y-121195714D01*
X157559428Y-121160000D01*
X157738000Y-121160000D01*
X157809428Y-121195714D01*
X157845142Y-121231428D01*
X157880857Y-121302857D01*
X157880857Y-121481428D01*
X157845142Y-121552857D01*
X157809428Y-121588571D01*
X157738000Y-121624285D01*
X157559428Y-121624285D01*
X157488000Y-121588571D01*
X157452285Y-121552857D01*
X158095142Y-120874285D02*
X158345142Y-121624285D01*
X158595142Y-120874285D01*
D11*
X177038000Y-90805000D03*
D12*
X142753001Y-93350001D03*
X142753001Y-95350001D03*
X142753001Y-97350001D03*
X142753001Y-99350001D03*
X142753001Y-101350001D03*
X142753001Y-103350001D03*
X142753001Y-105350001D03*
X142753001Y-107350001D03*
X158753001Y-107350001D03*
X158753001Y-105350001D03*
X158753001Y-103350001D03*
X158753001Y-101350001D03*
X158753001Y-99350001D03*
X158753001Y-97350001D03*
X158753001Y-95350001D03*
X158753001Y-93350001D03*
D13*
X177149600Y-109115001D03*
X177149600Y-112814999D03*
X171866400Y-112814999D03*
X171866400Y-109115001D03*
X177089600Y-96865001D03*
X177089600Y-100564999D03*
X171806400Y-100564999D03*
X171806400Y-96865001D03*
G04 #@! TA.AperFunction,SMDPad,CuDef*
D14*
G36*
X125038779Y-78006144D02*
G01*
X125061834Y-78009563D01*
X125084443Y-78015227D01*
X125106387Y-78023079D01*
X125127457Y-78033044D01*
X125147448Y-78045026D01*
X125166168Y-78058910D01*
X125183438Y-78074562D01*
X125199090Y-78091832D01*
X125212974Y-78110552D01*
X125224956Y-78130543D01*
X125234921Y-78151613D01*
X125242773Y-78173557D01*
X125248437Y-78196166D01*
X125251856Y-78219221D01*
X125253000Y-78242500D01*
X125253000Y-78817500D01*
X125251856Y-78840779D01*
X125248437Y-78863834D01*
X125242773Y-78886443D01*
X125234921Y-78908387D01*
X125224956Y-78929457D01*
X125212974Y-78949448D01*
X125199090Y-78968168D01*
X125183438Y-78985438D01*
X125166168Y-79001090D01*
X125147448Y-79014974D01*
X125127457Y-79026956D01*
X125106387Y-79036921D01*
X125084443Y-79044773D01*
X125061834Y-79050437D01*
X125038779Y-79053856D01*
X125015500Y-79055000D01*
X124540500Y-79055000D01*
X124517221Y-79053856D01*
X124494166Y-79050437D01*
X124471557Y-79044773D01*
X124449613Y-79036921D01*
X124428543Y-79026956D01*
X124408552Y-79014974D01*
X124389832Y-79001090D01*
X124372562Y-78985438D01*
X124356910Y-78968168D01*
X124343026Y-78949448D01*
X124331044Y-78929457D01*
X124321079Y-78908387D01*
X124313227Y-78886443D01*
X124307563Y-78863834D01*
X124304144Y-78840779D01*
X124303000Y-78817500D01*
X124303000Y-78242500D01*
X124304144Y-78219221D01*
X124307563Y-78196166D01*
X124313227Y-78173557D01*
X124321079Y-78151613D01*
X124331044Y-78130543D01*
X124343026Y-78110552D01*
X124356910Y-78091832D01*
X124372562Y-78074562D01*
X124389832Y-78058910D01*
X124408552Y-78045026D01*
X124428543Y-78033044D01*
X124449613Y-78023079D01*
X124471557Y-78015227D01*
X124494166Y-78009563D01*
X124517221Y-78006144D01*
X124540500Y-78005000D01*
X125015500Y-78005000D01*
X125038779Y-78006144D01*
G37*
G04 #@! TD.AperFunction*
G04 #@! TA.AperFunction,SMDPad,CuDef*
G36*
X125038779Y-79756144D02*
G01*
X125061834Y-79759563D01*
X125084443Y-79765227D01*
X125106387Y-79773079D01*
X125127457Y-79783044D01*
X125147448Y-79795026D01*
X125166168Y-79808910D01*
X125183438Y-79824562D01*
X125199090Y-79841832D01*
X125212974Y-79860552D01*
X125224956Y-79880543D01*
X125234921Y-79901613D01*
X125242773Y-79923557D01*
X125248437Y-79946166D01*
X125251856Y-79969221D01*
X125253000Y-79992500D01*
X125253000Y-80567500D01*
X125251856Y-80590779D01*
X125248437Y-80613834D01*
X125242773Y-80636443D01*
X125234921Y-80658387D01*
X125224956Y-80679457D01*
X125212974Y-80699448D01*
X125199090Y-80718168D01*
X125183438Y-80735438D01*
X125166168Y-80751090D01*
X125147448Y-80764974D01*
X125127457Y-80776956D01*
X125106387Y-80786921D01*
X125084443Y-80794773D01*
X125061834Y-80800437D01*
X125038779Y-80803856D01*
X125015500Y-80805000D01*
X124540500Y-80805000D01*
X124517221Y-80803856D01*
X124494166Y-80800437D01*
X124471557Y-80794773D01*
X124449613Y-80786921D01*
X124428543Y-80776956D01*
X124408552Y-80764974D01*
X124389832Y-80751090D01*
X124372562Y-80735438D01*
X124356910Y-80718168D01*
X124343026Y-80699448D01*
X124331044Y-80679457D01*
X124321079Y-80658387D01*
X124313227Y-80636443D01*
X124307563Y-80613834D01*
X124304144Y-80590779D01*
X124303000Y-80567500D01*
X124303000Y-79992500D01*
X124304144Y-79969221D01*
X124307563Y-79946166D01*
X124313227Y-79923557D01*
X124321079Y-79901613D01*
X124331044Y-79880543D01*
X124343026Y-79860552D01*
X124356910Y-79841832D01*
X124372562Y-79824562D01*
X124389832Y-79808910D01*
X124408552Y-79795026D01*
X124428543Y-79783044D01*
X124449613Y-79773079D01*
X124471557Y-79765227D01*
X124494166Y-79759563D01*
X124517221Y-79756144D01*
X124540500Y-79755000D01*
X125015500Y-79755000D01*
X125038779Y-79756144D01*
G37*
G04 #@! TD.AperFunction*
G04 #@! TA.AperFunction,SMDPad,CuDef*
G36*
X122208779Y-79756144D02*
G01*
X122231834Y-79759563D01*
X122254443Y-79765227D01*
X122276387Y-79773079D01*
X122297457Y-79783044D01*
X122317448Y-79795026D01*
X122336168Y-79808910D01*
X122353438Y-79824562D01*
X122369090Y-79841832D01*
X122382974Y-79860552D01*
X122394956Y-79880543D01*
X122404921Y-79901613D01*
X122412773Y-79923557D01*
X122418437Y-79946166D01*
X122421856Y-79969221D01*
X122423000Y-79992500D01*
X122423000Y-80567500D01*
X122421856Y-80590779D01*
X122418437Y-80613834D01*
X122412773Y-80636443D01*
X122404921Y-80658387D01*
X122394956Y-80679457D01*
X122382974Y-80699448D01*
X122369090Y-80718168D01*
X122353438Y-80735438D01*
X122336168Y-80751090D01*
X122317448Y-80764974D01*
X122297457Y-80776956D01*
X122276387Y-80786921D01*
X122254443Y-80794773D01*
X122231834Y-80800437D01*
X122208779Y-80803856D01*
X122185500Y-80805000D01*
X121710500Y-80805000D01*
X121687221Y-80803856D01*
X121664166Y-80800437D01*
X121641557Y-80794773D01*
X121619613Y-80786921D01*
X121598543Y-80776956D01*
X121578552Y-80764974D01*
X121559832Y-80751090D01*
X121542562Y-80735438D01*
X121526910Y-80718168D01*
X121513026Y-80699448D01*
X121501044Y-80679457D01*
X121491079Y-80658387D01*
X121483227Y-80636443D01*
X121477563Y-80613834D01*
X121474144Y-80590779D01*
X121473000Y-80567500D01*
X121473000Y-79992500D01*
X121474144Y-79969221D01*
X121477563Y-79946166D01*
X121483227Y-79923557D01*
X121491079Y-79901613D01*
X121501044Y-79880543D01*
X121513026Y-79860552D01*
X121526910Y-79841832D01*
X121542562Y-79824562D01*
X121559832Y-79808910D01*
X121578552Y-79795026D01*
X121598543Y-79783044D01*
X121619613Y-79773079D01*
X121641557Y-79765227D01*
X121664166Y-79759563D01*
X121687221Y-79756144D01*
X121710500Y-79755000D01*
X122185500Y-79755000D01*
X122208779Y-79756144D01*
G37*
G04 #@! TD.AperFunction*
G04 #@! TA.AperFunction,SMDPad,CuDef*
G36*
X122208779Y-78006144D02*
G01*
X122231834Y-78009563D01*
X122254443Y-78015227D01*
X122276387Y-78023079D01*
X122297457Y-78033044D01*
X122317448Y-78045026D01*
X122336168Y-78058910D01*
X122353438Y-78074562D01*
X122369090Y-78091832D01*
X122382974Y-78110552D01*
X122394956Y-78130543D01*
X122404921Y-78151613D01*
X122412773Y-78173557D01*
X122418437Y-78196166D01*
X122421856Y-78219221D01*
X122423000Y-78242500D01*
X122423000Y-78817500D01*
X122421856Y-78840779D01*
X122418437Y-78863834D01*
X122412773Y-78886443D01*
X122404921Y-78908387D01*
X122394956Y-78929457D01*
X122382974Y-78949448D01*
X122369090Y-78968168D01*
X122353438Y-78985438D01*
X122336168Y-79001090D01*
X122317448Y-79014974D01*
X122297457Y-79026956D01*
X122276387Y-79036921D01*
X122254443Y-79044773D01*
X122231834Y-79050437D01*
X122208779Y-79053856D01*
X122185500Y-79055000D01*
X121710500Y-79055000D01*
X121687221Y-79053856D01*
X121664166Y-79050437D01*
X121641557Y-79044773D01*
X121619613Y-79036921D01*
X121598543Y-79026956D01*
X121578552Y-79014974D01*
X121559832Y-79001090D01*
X121542562Y-78985438D01*
X121526910Y-78968168D01*
X121513026Y-78949448D01*
X121501044Y-78929457D01*
X121491079Y-78908387D01*
X121483227Y-78886443D01*
X121477563Y-78863834D01*
X121474144Y-78840779D01*
X121473000Y-78817500D01*
X121473000Y-78242500D01*
X121474144Y-78219221D01*
X121477563Y-78196166D01*
X121483227Y-78173557D01*
X121491079Y-78151613D01*
X121501044Y-78130543D01*
X121513026Y-78110552D01*
X121526910Y-78091832D01*
X121542562Y-78074562D01*
X121559832Y-78058910D01*
X121578552Y-78045026D01*
X121598543Y-78033044D01*
X121619613Y-78023079D01*
X121641557Y-78015227D01*
X121664166Y-78009563D01*
X121687221Y-78006144D01*
X121710500Y-78005000D01*
X122185500Y-78005000D01*
X122208779Y-78006144D01*
G37*
G04 #@! TD.AperFunction*
G04 #@! TA.AperFunction,SMDPad,CuDef*
G36*
X173883779Y-105581144D02*
G01*
X173906834Y-105584563D01*
X173929443Y-105590227D01*
X173951387Y-105598079D01*
X173972457Y-105608044D01*
X173992448Y-105620026D01*
X174011168Y-105633910D01*
X174028438Y-105649562D01*
X174044090Y-105666832D01*
X174057974Y-105685552D01*
X174069956Y-105705543D01*
X174079921Y-105726613D01*
X174087773Y-105748557D01*
X174093437Y-105771166D01*
X174096856Y-105794221D01*
X174098000Y-105817500D01*
X174098000Y-106292500D01*
X174096856Y-106315779D01*
X174093437Y-106338834D01*
X174087773Y-106361443D01*
X174079921Y-106383387D01*
X174069956Y-106404457D01*
X174057974Y-106424448D01*
X174044090Y-106443168D01*
X174028438Y-106460438D01*
X174011168Y-106476090D01*
X173992448Y-106489974D01*
X173972457Y-106501956D01*
X173951387Y-106511921D01*
X173929443Y-106519773D01*
X173906834Y-106525437D01*
X173883779Y-106528856D01*
X173860500Y-106530000D01*
X173285500Y-106530000D01*
X173262221Y-106528856D01*
X173239166Y-106525437D01*
X173216557Y-106519773D01*
X173194613Y-106511921D01*
X173173543Y-106501956D01*
X173153552Y-106489974D01*
X173134832Y-106476090D01*
X173117562Y-106460438D01*
X173101910Y-106443168D01*
X173088026Y-106424448D01*
X173076044Y-106404457D01*
X173066079Y-106383387D01*
X173058227Y-106361443D01*
X173052563Y-106338834D01*
X173049144Y-106315779D01*
X173048000Y-106292500D01*
X173048000Y-105817500D01*
X173049144Y-105794221D01*
X173052563Y-105771166D01*
X173058227Y-105748557D01*
X173066079Y-105726613D01*
X173076044Y-105705543D01*
X173088026Y-105685552D01*
X173101910Y-105666832D01*
X173117562Y-105649562D01*
X173134832Y-105633910D01*
X173153552Y-105620026D01*
X173173543Y-105608044D01*
X173194613Y-105598079D01*
X173216557Y-105590227D01*
X173239166Y-105584563D01*
X173262221Y-105581144D01*
X173285500Y-105580000D01*
X173860500Y-105580000D01*
X173883779Y-105581144D01*
G37*
G04 #@! TD.AperFunction*
G04 #@! TA.AperFunction,SMDPad,CuDef*
G36*
X175633779Y-105581144D02*
G01*
X175656834Y-105584563D01*
X175679443Y-105590227D01*
X175701387Y-105598079D01*
X175722457Y-105608044D01*
X175742448Y-105620026D01*
X175761168Y-105633910D01*
X175778438Y-105649562D01*
X175794090Y-105666832D01*
X175807974Y-105685552D01*
X175819956Y-105705543D01*
X175829921Y-105726613D01*
X175837773Y-105748557D01*
X175843437Y-105771166D01*
X175846856Y-105794221D01*
X175848000Y-105817500D01*
X175848000Y-106292500D01*
X175846856Y-106315779D01*
X175843437Y-106338834D01*
X175837773Y-106361443D01*
X175829921Y-106383387D01*
X175819956Y-106404457D01*
X175807974Y-106424448D01*
X175794090Y-106443168D01*
X175778438Y-106460438D01*
X175761168Y-106476090D01*
X175742448Y-106489974D01*
X175722457Y-106501956D01*
X175701387Y-106511921D01*
X175679443Y-106519773D01*
X175656834Y-106525437D01*
X175633779Y-106528856D01*
X175610500Y-106530000D01*
X175035500Y-106530000D01*
X175012221Y-106528856D01*
X174989166Y-106525437D01*
X174966557Y-106519773D01*
X174944613Y-106511921D01*
X174923543Y-106501956D01*
X174903552Y-106489974D01*
X174884832Y-106476090D01*
X174867562Y-106460438D01*
X174851910Y-106443168D01*
X174838026Y-106424448D01*
X174826044Y-106404457D01*
X174816079Y-106383387D01*
X174808227Y-106361443D01*
X174802563Y-106338834D01*
X174799144Y-106315779D01*
X174798000Y-106292500D01*
X174798000Y-105817500D01*
X174799144Y-105794221D01*
X174802563Y-105771166D01*
X174808227Y-105748557D01*
X174816079Y-105726613D01*
X174826044Y-105705543D01*
X174838026Y-105685552D01*
X174851910Y-105666832D01*
X174867562Y-105649562D01*
X174884832Y-105633910D01*
X174903552Y-105620026D01*
X174923543Y-105608044D01*
X174944613Y-105598079D01*
X174966557Y-105590227D01*
X174989166Y-105584563D01*
X175012221Y-105581144D01*
X175035500Y-105580000D01*
X175610500Y-105580000D01*
X175633779Y-105581144D01*
G37*
G04 #@! TD.AperFunction*
G04 #@! TA.AperFunction,SMDPad,CuDef*
G36*
X175633779Y-102631144D02*
G01*
X175656834Y-102634563D01*
X175679443Y-102640227D01*
X175701387Y-102648079D01*
X175722457Y-102658044D01*
X175742448Y-102670026D01*
X175761168Y-102683910D01*
X175778438Y-102699562D01*
X175794090Y-102716832D01*
X175807974Y-102735552D01*
X175819956Y-102755543D01*
X175829921Y-102776613D01*
X175837773Y-102798557D01*
X175843437Y-102821166D01*
X175846856Y-102844221D01*
X175848000Y-102867500D01*
X175848000Y-103342500D01*
X175846856Y-103365779D01*
X175843437Y-103388834D01*
X175837773Y-103411443D01*
X175829921Y-103433387D01*
X175819956Y-103454457D01*
X175807974Y-103474448D01*
X175794090Y-103493168D01*
X175778438Y-103510438D01*
X175761168Y-103526090D01*
X175742448Y-103539974D01*
X175722457Y-103551956D01*
X175701387Y-103561921D01*
X175679443Y-103569773D01*
X175656834Y-103575437D01*
X175633779Y-103578856D01*
X175610500Y-103580000D01*
X175035500Y-103580000D01*
X175012221Y-103578856D01*
X174989166Y-103575437D01*
X174966557Y-103569773D01*
X174944613Y-103561921D01*
X174923543Y-103551956D01*
X174903552Y-103539974D01*
X174884832Y-103526090D01*
X174867562Y-103510438D01*
X174851910Y-103493168D01*
X174838026Y-103474448D01*
X174826044Y-103454457D01*
X174816079Y-103433387D01*
X174808227Y-103411443D01*
X174802563Y-103388834D01*
X174799144Y-103365779D01*
X174798000Y-103342500D01*
X174798000Y-102867500D01*
X174799144Y-102844221D01*
X174802563Y-102821166D01*
X174808227Y-102798557D01*
X174816079Y-102776613D01*
X174826044Y-102755543D01*
X174838026Y-102735552D01*
X174851910Y-102716832D01*
X174867562Y-102699562D01*
X174884832Y-102683910D01*
X174903552Y-102670026D01*
X174923543Y-102658044D01*
X174944613Y-102648079D01*
X174966557Y-102640227D01*
X174989166Y-102634563D01*
X175012221Y-102631144D01*
X175035500Y-102630000D01*
X175610500Y-102630000D01*
X175633779Y-102631144D01*
G37*
G04 #@! TD.AperFunction*
G04 #@! TA.AperFunction,SMDPad,CuDef*
G36*
X173883779Y-102631144D02*
G01*
X173906834Y-102634563D01*
X173929443Y-102640227D01*
X173951387Y-102648079D01*
X173972457Y-102658044D01*
X173992448Y-102670026D01*
X174011168Y-102683910D01*
X174028438Y-102699562D01*
X174044090Y-102716832D01*
X174057974Y-102735552D01*
X174069956Y-102755543D01*
X174079921Y-102776613D01*
X174087773Y-102798557D01*
X174093437Y-102821166D01*
X174096856Y-102844221D01*
X174098000Y-102867500D01*
X174098000Y-103342500D01*
X174096856Y-103365779D01*
X174093437Y-103388834D01*
X174087773Y-103411443D01*
X174079921Y-103433387D01*
X174069956Y-103454457D01*
X174057974Y-103474448D01*
X174044090Y-103493168D01*
X174028438Y-103510438D01*
X174011168Y-103526090D01*
X173992448Y-103539974D01*
X173972457Y-103551956D01*
X173951387Y-103561921D01*
X173929443Y-103569773D01*
X173906834Y-103575437D01*
X173883779Y-103578856D01*
X173860500Y-103580000D01*
X173285500Y-103580000D01*
X173262221Y-103578856D01*
X173239166Y-103575437D01*
X173216557Y-103569773D01*
X173194613Y-103561921D01*
X173173543Y-103551956D01*
X173153552Y-103539974D01*
X173134832Y-103526090D01*
X173117562Y-103510438D01*
X173101910Y-103493168D01*
X173088026Y-103474448D01*
X173076044Y-103454457D01*
X173066079Y-103433387D01*
X173058227Y-103411443D01*
X173052563Y-103388834D01*
X173049144Y-103365779D01*
X173048000Y-103342500D01*
X173048000Y-102867500D01*
X173049144Y-102844221D01*
X173052563Y-102821166D01*
X173058227Y-102798557D01*
X173066079Y-102776613D01*
X173076044Y-102755543D01*
X173088026Y-102735552D01*
X173101910Y-102716832D01*
X173117562Y-102699562D01*
X173134832Y-102683910D01*
X173153552Y-102670026D01*
X173173543Y-102658044D01*
X173194613Y-102648079D01*
X173216557Y-102640227D01*
X173239166Y-102634563D01*
X173262221Y-102631144D01*
X173285500Y-102630000D01*
X173860500Y-102630000D01*
X173883779Y-102631144D01*
G37*
G04 #@! TD.AperFunction*
D15*
X138938000Y-123825000D03*
X141478000Y-123825000D03*
X144018000Y-123825000D03*
X146558000Y-123825000D03*
X149098000Y-123825000D03*
X151638000Y-123825000D03*
X154178000Y-123825000D03*
X156718000Y-123825000D03*
X161798000Y-123825000D03*
X164338000Y-123825000D03*
X166878000Y-123825000D03*
X169418000Y-123825000D03*
X171958000Y-123825000D03*
X174498000Y-123825000D03*
X129794000Y-75565000D03*
X132334000Y-75565000D03*
X134874000Y-75565000D03*
X137414000Y-75565000D03*
X139954000Y-75565000D03*
X142494000Y-75565000D03*
X145034000Y-75565000D03*
X147574000Y-75565000D03*
X150114000Y-75565000D03*
X152654000Y-75565000D03*
X156718000Y-75565000D03*
X159258000Y-75565000D03*
X161798000Y-75565000D03*
X164338000Y-75565000D03*
X166878000Y-75565000D03*
X169418000Y-75565000D03*
X171958000Y-75565000D03*
X174498000Y-75565000D03*
D11*
X114808000Y-122555000D03*
X177038000Y-118745000D03*
X114808000Y-76835000D03*
D16*
X121948000Y-74615000D03*
X121948000Y-76015000D03*
X124698000Y-76015000D03*
X124698000Y-74615000D03*
D17*
X161798000Y-81915000D03*
X159258000Y-84455000D03*
D18*
X161798000Y-86995000D03*
D19*
X165608000Y-99695000D03*
D20*
X165608000Y-102235000D03*
X165608000Y-104775000D03*
D19*
X126238000Y-123825000D03*
D20*
X128778000Y-123825000D03*
X131318000Y-123825000D03*
X133858000Y-123825000D03*
D19*
X152908000Y-118745000D03*
D20*
X155448000Y-118745000D03*
X157988000Y-118745000D03*
D21*
X162303001Y-96300001D03*
X162303001Y-92900001D03*
D22*
X121548000Y-114290000D03*
X121548000Y-114940000D03*
X121548000Y-115590000D03*
X121548000Y-116240000D03*
X121548000Y-116890000D03*
X121548000Y-117540000D03*
X121548000Y-118190000D03*
X121548000Y-118840000D03*
X127448000Y-118840000D03*
X127448000Y-118190000D03*
X127448000Y-117540000D03*
X127448000Y-116890000D03*
X127448000Y-116240000D03*
X127448000Y-115590000D03*
X127448000Y-114940000D03*
X127448000Y-114290000D03*
D23*
X124298000Y-108865000D03*
X124298000Y-103785000D03*
D19*
X121498000Y-86865000D03*
D20*
X124038000Y-86865000D03*
X126578000Y-86865000D03*
X129118000Y-86865000D03*
D19*
X115098000Y-85465000D03*
D20*
X115098000Y-88005000D03*
X115098000Y-90545000D03*
X115098000Y-93085000D03*
X115098000Y-95625000D03*
X115098000Y-98165000D03*
D24*
X172098000Y-83665000D03*
D25*
X174598000Y-83665000D03*
D26*
X149138000Y-112395000D03*
X148888000Y-120015000D03*
X161798000Y-88265000D03*
X177068000Y-101785000D03*
X177148000Y-114275000D03*
X131098000Y-79065000D03*
X135766400Y-77365000D03*
X161798000Y-109855000D03*
X161798000Y-121285000D03*
X164338000Y-121285000D03*
X164338000Y-108585000D03*
X128873000Y-114290000D03*
X135949020Y-125616020D03*
X128898000Y-112165000D03*
X132378000Y-78455000D03*
X132378000Y-89135000D03*
X135638000Y-86785000D03*
X129858000Y-78715000D03*
X161798000Y-78105000D03*
X161798000Y-78105000D03*
X156633001Y-83269999D03*
X158798000Y-89265000D03*
X166398000Y-89165000D03*
X164338000Y-90805000D03*
X169418000Y-90805000D03*
X138938000Y-78105000D03*
X138938000Y-95885000D03*
X148848000Y-78105000D03*
X154178000Y-91175002D03*
X116298000Y-82365000D03*
X125898000Y-80765000D03*
X146998000Y-106265000D03*
X143768000Y-78105000D03*
X144018000Y-85725000D03*
X125598000Y-90865000D03*
X142753001Y-95350001D03*
X146558000Y-83185000D03*
X146308000Y-78105000D03*
D27*
X149138000Y-111225000D02*
X149138000Y-111225000D01*
X161798000Y-88265000D02*
X161798000Y-88265000D01*
X149098000Y-118745000D02*
X149098000Y-121285000D01*
X149098000Y-121015000D02*
X149098000Y-123825000D01*
X124778000Y-80805000D02*
X124908000Y-80935000D01*
X124778000Y-80280000D02*
X124778000Y-80805000D01*
X124908000Y-80935000D02*
X124908000Y-83775000D01*
X121948000Y-83045000D02*
X121948000Y-80280000D01*
X124748000Y-83315000D02*
X122218000Y-83315000D01*
X124908000Y-83775000D02*
X124848000Y-83415000D01*
X124848000Y-83415000D02*
X124748000Y-83315000D01*
X175323000Y-104305000D02*
X173573000Y-106055000D01*
X175323000Y-103105000D02*
X175323000Y-104305000D01*
X148888000Y-120805000D02*
X149098000Y-121015000D01*
X149138000Y-112395000D02*
X149188000Y-111275000D01*
X148888000Y-120805000D02*
X148888000Y-120015000D01*
X166878000Y-111125000D02*
X171958000Y-106045000D01*
X149138000Y-112395000D02*
X149098000Y-111085000D01*
X149098000Y-111085000D02*
X166878000Y-111125000D01*
X161798000Y-86995000D02*
X161798000Y-88265000D01*
X157988000Y-117475000D02*
X157068010Y-116555010D01*
X157988000Y-118745000D02*
X157988000Y-117475000D01*
X151287990Y-116555010D02*
X149098000Y-118745000D01*
X157068010Y-116555010D02*
X151287990Y-116555010D01*
X149098000Y-121285000D02*
X149098000Y-123825000D01*
X148748000Y-120665000D02*
X148888000Y-120805000D01*
X131798000Y-116265000D02*
X148748000Y-120665000D01*
X131798000Y-116265000D02*
X131498000Y-116265000D01*
X131498000Y-116265000D02*
X130198000Y-114965000D01*
X129073000Y-114965000D02*
X130198000Y-114965000D01*
X128448000Y-115590000D02*
X129073000Y-114965000D01*
X127448000Y-115590000D02*
X128448000Y-115590000D01*
X171968000Y-106055000D02*
X173573000Y-106055000D01*
X171958000Y-106045000D02*
X171968000Y-106055000D01*
X124848000Y-83615000D02*
X124848000Y-83415000D01*
X125698000Y-84465000D02*
X124848000Y-83615000D01*
X129898000Y-84465000D02*
X125698000Y-84465000D01*
X130198000Y-114965000D02*
X131398000Y-84665000D01*
X131398000Y-84665000D02*
X129898000Y-84465000D01*
X121498000Y-85765000D02*
X122098000Y-85165000D01*
X121498000Y-86865000D02*
X121498000Y-85765000D01*
X122098000Y-85165000D02*
X122098000Y-83165000D01*
X122218000Y-83315000D02*
X122098000Y-83165000D01*
X122098000Y-83165000D02*
X121948000Y-83045000D01*
X177148000Y-114275000D02*
X177148000Y-114275000D01*
X177068000Y-101785000D02*
X177068000Y-101785000D01*
X140008000Y-105855000D02*
X136398000Y-102245000D01*
X166783001Y-103599999D02*
X166457999Y-103925001D01*
X161798000Y-82866907D02*
X160898000Y-83766907D01*
X161798000Y-81915000D02*
X161798000Y-82866907D01*
X177089600Y-101310299D02*
X177068000Y-101331899D01*
X177089600Y-100564999D02*
X177089600Y-101310299D01*
X177068000Y-101331899D02*
X177068000Y-101785000D01*
X177149600Y-113560299D02*
X177148000Y-113561899D01*
X177149600Y-112814999D02*
X177149600Y-113560299D01*
X177148000Y-113561899D02*
X177148000Y-114275000D01*
X157503001Y-106100001D02*
X158253001Y-105350001D01*
X157503001Y-106600001D02*
X157503001Y-106100001D01*
X156753001Y-107350001D02*
X157503001Y-106600001D01*
X158253001Y-105350001D02*
X158753001Y-105350001D01*
X142753001Y-107350001D02*
X156753001Y-107350001D01*
X141503001Y-107350001D02*
X140008000Y-105855000D01*
X142753001Y-107350001D02*
X141503001Y-107350001D01*
X138943001Y-93350001D02*
X142753001Y-93350001D01*
X136398000Y-102245000D02*
X136398000Y-95885000D01*
X138938000Y-93345000D02*
X138943001Y-93350001D01*
X136398000Y-95885000D02*
X138938000Y-93345000D01*
X166457999Y-103925001D02*
X165608000Y-104775000D01*
X166783001Y-101670999D02*
X166783001Y-103599999D01*
X166172001Y-101059999D02*
X166783001Y-101670999D01*
X164293003Y-101059999D02*
X166172001Y-101059999D01*
X160003001Y-105350001D02*
X164293003Y-101059999D01*
X158753001Y-105350001D02*
X160003001Y-105350001D01*
X127448000Y-116240000D02*
X128448000Y-116240000D01*
X151638000Y-125091000D02*
X151638000Y-123825000D01*
X151562990Y-125166010D02*
X151638000Y-125091000D01*
X147909390Y-124469738D02*
X148605662Y-125166010D01*
X147909390Y-123180262D02*
X147909390Y-124469738D01*
X147213118Y-122483990D02*
X147909390Y-123180262D01*
X148605662Y-125166010D02*
X151562990Y-125166010D01*
X130836590Y-116240000D02*
X137080580Y-122483990D01*
X137080580Y-122483990D02*
X147213118Y-122483990D01*
X127448000Y-116240000D02*
X130836590Y-116240000D01*
X128973010Y-116765010D02*
X128348001Y-116140001D01*
X114248001Y-99014999D02*
X114248001Y-113736413D01*
X120351599Y-119840011D02*
X128644402Y-119840010D01*
X115098000Y-98165000D02*
X114248001Y-99014999D01*
X128973010Y-119511402D02*
X128973010Y-116765010D01*
X114248001Y-113736413D02*
X120351599Y-119840011D01*
X128644402Y-119840010D02*
X128973010Y-119511402D01*
X161798000Y-109855000D02*
X161798000Y-109855000D01*
X161798000Y-121285000D02*
X161798000Y-121285000D01*
X168148000Y-95885000D02*
X168148000Y-97155000D01*
X168148000Y-93345000D02*
X168148000Y-97155000D01*
X168148000Y-107315000D02*
X168148000Y-108585000D01*
X159258000Y-84455000D02*
X159258000Y-86386202D01*
X159258000Y-84455000D02*
X159258000Y-88265000D01*
X159258000Y-88265000D02*
X160528000Y-89535000D01*
X160528000Y-89535000D02*
X165608000Y-89535000D01*
X165608000Y-89535000D02*
X165608000Y-90805000D01*
X165608000Y-90805000D02*
X168148000Y-93345000D01*
X168148000Y-97155000D02*
X168148000Y-107315000D01*
X168148000Y-108585000D02*
X166878000Y-109855000D01*
X166878000Y-109855000D02*
X161798000Y-109855000D01*
X161798000Y-123825000D02*
X161798000Y-121285000D01*
X165608000Y-75001652D02*
X165608000Y-89535000D01*
X166385662Y-74223990D02*
X165608000Y-75001652D01*
X169910338Y-74223990D02*
X166385662Y-74223990D01*
X170606610Y-83223610D02*
X170606610Y-74920262D01*
X170606610Y-74920262D02*
X169910338Y-74223990D01*
X171048000Y-83665000D02*
X170606610Y-83223610D01*
X172098000Y-83665000D02*
X171048000Y-83665000D01*
X164338000Y-121285000D02*
X164338000Y-121285000D01*
X164338000Y-108585000D02*
X164338000Y-108585000D01*
X165608000Y-102235000D02*
X164338000Y-102235000D01*
X164338000Y-102235000D02*
X163068000Y-103505000D01*
X163068000Y-103505000D02*
X163068000Y-107315000D01*
X163068000Y-107315000D02*
X164338000Y-107315000D01*
X164338000Y-107315000D02*
X164338000Y-108585000D01*
X164338000Y-123825000D02*
X164338000Y-121285000D01*
X128873000Y-114290000D02*
X128873000Y-114290000D01*
X135949020Y-125616020D02*
X135949020Y-125616020D01*
X166352980Y-125616020D02*
X135949020Y-125616020D01*
X166878000Y-123825000D02*
X166878000Y-125091000D01*
X166878000Y-125091000D02*
X166352980Y-125616020D01*
X127448000Y-114290000D02*
X128873000Y-114290000D01*
X128898000Y-112165000D02*
X128898000Y-112165000D01*
X128698000Y-112165000D02*
X128898000Y-112165000D01*
X169418000Y-124531652D02*
X165355747Y-120469399D01*
X126448000Y-114940000D02*
X125998000Y-114490000D01*
X127448000Y-114940000D02*
X126448000Y-114940000D01*
X125998000Y-114179998D02*
X127412998Y-112765000D01*
X125998000Y-114490000D02*
X125998000Y-114179998D01*
X169418000Y-123825000D02*
X169418000Y-124531652D01*
X127412998Y-112765000D02*
X127412998Y-112550002D01*
X127412998Y-112550002D02*
X127798000Y-112165000D01*
X127798000Y-112165000D02*
X128698000Y-112165000D01*
X132378000Y-89135000D02*
X132378000Y-89135000D01*
X132378000Y-78455000D02*
X132378000Y-78455000D01*
X171958000Y-122559000D02*
X171798000Y-122399000D01*
X171958000Y-123825000D02*
X171958000Y-122559000D01*
X171958000Y-122559000D02*
X167634000Y-118235000D01*
X171958000Y-122559000D02*
X165504000Y-116105000D01*
X165504000Y-116105000D02*
X134038000Y-116105000D01*
X134038000Y-116105000D02*
X132378000Y-114445000D01*
X132378000Y-114445000D02*
X132378000Y-89135000D01*
X132378000Y-89135000D02*
X132318000Y-89075000D01*
X132334000Y-76831000D02*
X132378000Y-76875000D01*
X132334000Y-75565000D02*
X132334000Y-76831000D01*
X132378000Y-76875000D02*
X132378000Y-78455000D01*
X135638000Y-86785000D02*
X135638000Y-86785000D01*
X129794000Y-76831000D02*
X129858000Y-76895000D01*
X129794000Y-75565000D02*
X129794000Y-76831000D01*
X129858000Y-76895000D02*
X129858000Y-78715000D01*
X174498000Y-123825000D02*
X174498000Y-123575000D01*
X174498000Y-123575000D02*
X164658000Y-113735000D01*
X164658000Y-113735000D02*
X135638000Y-113735000D01*
X135638000Y-113735000D02*
X135638000Y-86785000D01*
X129858000Y-78715000D02*
X129858000Y-78725000D01*
X157210338Y-76906010D02*
X150189010Y-76906010D01*
X157906610Y-76209738D02*
X157210338Y-76906010D01*
X157906610Y-75083042D02*
X157906610Y-76209738D01*
X159750338Y-74223990D02*
X158765662Y-74223990D01*
X150114000Y-76831000D02*
X150114000Y-75565000D01*
X160446610Y-74920262D02*
X159750338Y-74223990D01*
X160446610Y-79777800D02*
X160446610Y-74920262D01*
X159484400Y-80740010D02*
X160446610Y-79777800D01*
X150189010Y-76906010D02*
X150114000Y-76831000D01*
X127061600Y-80740010D02*
X159484400Y-80740010D01*
X125751580Y-79429990D02*
X127061600Y-80740010D01*
X121477500Y-79429990D02*
X125751580Y-79429990D01*
X119572979Y-118424981D02*
X119572979Y-81334511D01*
X120537999Y-119390001D02*
X119572979Y-118424981D01*
X128458001Y-119390001D02*
X120537999Y-119390001D01*
X128523001Y-119325001D02*
X128458001Y-119390001D01*
X128523001Y-116965001D02*
X128523001Y-119325001D01*
X119572979Y-81334511D02*
X121477500Y-79429990D01*
X128448000Y-116890000D02*
X128523001Y-116965001D01*
X158765662Y-74223990D02*
X157906610Y-75083042D01*
X127448000Y-116890000D02*
X128448000Y-116890000D01*
X126748000Y-77465000D02*
X126998000Y-77715000D01*
X127048000Y-80090000D02*
X159348000Y-80090000D01*
X159298000Y-77715000D02*
X159258000Y-77675000D01*
X126748000Y-76815000D02*
X126748000Y-79790000D01*
X126748000Y-76815000D02*
X126748000Y-77465000D01*
X126748000Y-79790000D02*
X127248000Y-80290000D01*
X127248000Y-80290000D02*
X159298000Y-80290000D01*
X159298000Y-80290000D02*
X159123000Y-80115000D01*
X159123000Y-80115000D02*
X159123000Y-79990000D01*
X159123000Y-79990000D02*
X159258000Y-79855000D01*
X159258000Y-77675000D02*
X159258000Y-77605000D01*
X159258000Y-79855000D02*
X159258000Y-77605000D01*
X159258000Y-77605000D02*
X159258000Y-75565000D01*
X125898000Y-74615000D02*
X124698000Y-74615000D01*
X126748000Y-76815000D02*
X126748000Y-75465000D01*
X126748000Y-75465000D02*
X125898000Y-74615000D01*
X161798000Y-78105000D02*
X161798000Y-78105000D01*
X156633001Y-83269999D02*
X156633001Y-83269999D01*
X161798000Y-78105000D02*
X161798000Y-78105000D01*
X161798000Y-73565000D02*
X161798000Y-75565000D01*
X121948000Y-74615000D02*
X121948000Y-73465000D01*
X161658010Y-73425010D02*
X161798000Y-73565000D01*
X121987990Y-73425010D02*
X161658010Y-73425010D01*
X121948000Y-73465000D02*
X121987990Y-73425010D01*
X142753001Y-103350001D02*
X144003001Y-103350001D01*
X156633001Y-90720001D02*
X156633001Y-83269999D01*
X156633001Y-90720001D02*
X156718000Y-90635002D01*
X144003001Y-103350001D02*
X156633001Y-90720001D01*
X161798000Y-75565000D02*
X161798000Y-78105000D01*
X158798000Y-89265000D02*
X158798000Y-89265000D01*
X166398000Y-89165000D02*
X166398000Y-89165000D01*
X170705500Y-96865001D02*
X171806400Y-96865001D01*
X169548000Y-102645000D02*
X169548000Y-98022501D01*
X173573000Y-103105000D02*
X170008000Y-103105000D01*
X169548000Y-98022501D02*
X170705500Y-96865001D01*
X170008000Y-103105000D02*
X169548000Y-102645000D01*
X171806400Y-96865001D02*
X171806400Y-95623400D01*
X166878000Y-90695000D02*
X166878000Y-75565000D01*
X171806400Y-95623400D02*
X166878000Y-90695000D01*
X157428000Y-95275000D02*
X157428000Y-90635000D01*
X158753001Y-95350001D02*
X157503001Y-95350001D01*
X157503001Y-95350001D02*
X157428000Y-95275000D01*
X157428000Y-90635000D02*
X158798000Y-89265000D01*
X166878000Y-90695000D02*
X166878000Y-89545000D01*
X166423001Y-89139999D02*
X166398000Y-89165000D01*
X166423001Y-89090001D02*
X166423001Y-89139999D01*
X166878000Y-89545000D02*
X166398000Y-89165000D01*
X164338000Y-90805000D02*
X164338000Y-90805000D01*
X172967300Y-109115001D02*
X171866400Y-109115001D01*
X175323000Y-106759301D02*
X172967300Y-109115001D01*
X175323000Y-106055000D02*
X175323000Y-106759301D01*
X169418000Y-91175000D02*
X169418000Y-90805000D01*
X177918000Y-94525000D02*
X172768000Y-94525000D01*
X178998000Y-95605000D02*
X177918000Y-94525000D01*
X175323000Y-105580000D02*
X176538000Y-104365000D01*
X175323000Y-106055000D02*
X175323000Y-105580000D01*
X172768000Y-94525000D02*
X169418000Y-91175000D01*
X176538000Y-104365000D02*
X178948000Y-104365000D01*
X178948000Y-104365000D02*
X178998000Y-104315000D01*
X178998000Y-104315000D02*
X178998000Y-95605000D01*
X160078002Y-96525000D02*
X160078002Y-93339998D01*
X160078002Y-93339998D02*
X162613000Y-90805000D01*
X158753001Y-97350001D02*
X159253001Y-97350001D01*
X159253001Y-97350001D02*
X160078002Y-96525000D01*
X162613000Y-90805000D02*
X164338000Y-90805000D01*
X169418000Y-90805000D02*
X169418000Y-75565000D01*
X138938000Y-95885000D02*
X138938000Y-95885000D01*
X138938000Y-78105000D02*
X138938000Y-78105000D01*
X141503001Y-99350001D02*
X138938000Y-96785000D01*
X142753001Y-99350001D02*
X141503001Y-99350001D01*
X139954000Y-75565000D02*
X139954000Y-77089000D01*
X139954000Y-77089000D02*
X138938000Y-78105000D01*
X138938000Y-96785000D02*
X138938000Y-95885000D01*
X154178000Y-91175002D02*
X154178000Y-91175002D01*
X148848000Y-78105000D02*
X148848000Y-78105000D01*
X144003001Y-101350001D02*
X154178000Y-91175002D01*
X142753001Y-101350001D02*
X144003001Y-101350001D01*
X147574000Y-76831000D02*
X148848000Y-78105000D01*
X147574000Y-75565000D02*
X147574000Y-76831000D01*
X142753001Y-102100001D02*
X142688002Y-102165000D01*
X142753001Y-101350001D02*
X142753001Y-102100001D01*
X141898000Y-102165000D02*
X141798000Y-102165000D01*
X131868697Y-84470032D02*
X130263665Y-82865000D01*
X132077999Y-88509999D02*
X131868697Y-88719301D01*
X132678001Y-88509999D02*
X132077999Y-88509999D01*
X133998000Y-89829998D02*
X132678001Y-88509999D01*
X139133001Y-102100001D02*
X136848010Y-99815010D01*
X136848010Y-96071400D02*
X138744408Y-94175002D01*
X131868697Y-88719301D02*
X131868697Y-84470032D01*
X142753001Y-102100001D02*
X139133001Y-102100001D01*
X136848010Y-99815010D02*
X136848010Y-96071400D01*
X144013002Y-94175002D02*
X144078002Y-94110002D01*
X144078002Y-94110002D02*
X144078002Y-92590000D01*
X138744408Y-94175002D02*
X144013002Y-94175002D01*
X133998000Y-87499998D02*
X133998000Y-89829998D01*
X144078002Y-92590000D02*
X137648001Y-86159999D01*
X137648001Y-86159999D02*
X135337999Y-86159999D01*
X135337999Y-86159999D02*
X133998000Y-87499998D01*
X113298000Y-82965000D02*
X116298000Y-82365000D01*
X113358000Y-88005000D02*
X113398000Y-87965000D01*
X115098000Y-88005000D02*
X113358000Y-88005000D01*
X113398000Y-87965000D02*
X113398000Y-84879998D01*
X113398000Y-84879998D02*
X113298000Y-84779998D01*
X113298000Y-84779998D02*
X113298000Y-82965000D01*
X130263665Y-82865000D02*
X130263665Y-82599335D01*
X130263665Y-82599335D02*
X130298000Y-82565000D01*
X130263665Y-82865000D02*
X127098000Y-82865000D01*
X127098000Y-82865000D02*
X127098000Y-82865000D01*
X127098000Y-82865000D02*
X127098000Y-82865000D01*
X116298000Y-82365000D02*
X116298000Y-82365000D01*
X127098000Y-82865000D02*
X127098000Y-81565000D01*
X127098000Y-81565000D02*
X127098000Y-81265000D01*
X127023020Y-81190020D02*
X126323020Y-81190020D01*
X127098000Y-81265000D02*
X127023020Y-81190020D01*
X126323020Y-81190020D02*
X125898000Y-80765000D01*
X125898000Y-80765000D02*
X125898000Y-80765000D01*
X157503001Y-99350001D02*
X158753001Y-99350001D01*
X150488002Y-106365000D02*
X157503001Y-99350001D01*
X147098000Y-106365000D02*
X150488002Y-106365000D01*
X146998000Y-106265000D02*
X146998000Y-106265000D01*
X146998000Y-106265000D02*
X147098000Y-106365000D01*
X144018000Y-85725000D02*
X144018000Y-85725000D01*
X143768000Y-78105000D02*
X143768000Y-78105000D01*
X142494000Y-76831000D02*
X143768000Y-78105000D01*
X142494000Y-75565000D02*
X142494000Y-76831000D01*
X144003001Y-95350001D02*
X146558000Y-92795002D01*
X142753001Y-95350001D02*
X142753001Y-95350001D01*
X146558000Y-92795002D02*
X146558000Y-88265000D01*
X146558000Y-88265000D02*
X144018000Y-85725000D01*
X142753001Y-95350001D02*
X144003001Y-95350001D01*
X146558000Y-83185000D02*
X146558000Y-83185000D01*
X146308000Y-78105000D02*
X146308000Y-78105000D01*
X145034000Y-76831000D02*
X146308000Y-78105000D01*
X145034000Y-75565000D02*
X145034000Y-76831000D01*
X144003001Y-97350001D02*
X149098000Y-92255002D01*
X142753001Y-97350001D02*
X144003001Y-97350001D01*
X149098000Y-92255002D02*
X149098000Y-88265000D01*
X149098000Y-88265000D02*
X146558000Y-85725000D01*
X146558000Y-85725000D02*
X146558000Y-83185000D01*
X123673001Y-75240001D02*
X123673001Y-75240001D01*
X112678000Y-90545000D02*
X115098000Y-90545000D01*
X112678000Y-85599998D02*
X112678000Y-90545000D01*
X112498000Y-85419998D02*
X112678000Y-85599998D01*
X124152978Y-73875020D02*
X123673001Y-74354997D01*
X144696000Y-73963000D02*
X144608020Y-73875020D01*
X123673001Y-74354997D02*
X123673001Y-75240001D01*
X123673001Y-75240001D02*
X121437997Y-75240001D01*
X144608020Y-73875020D02*
X124152978Y-73875020D01*
X114812998Y-81865000D02*
X112498000Y-81865000D01*
X144698000Y-73963000D02*
X144696000Y-73963000D01*
X145034000Y-74299000D02*
X144698000Y-73963000D01*
X145034000Y-75565000D02*
X145034000Y-74299000D01*
X121437997Y-75240001D02*
X114812998Y-81865000D01*
X112498000Y-81865000D02*
X112498000Y-85419998D01*
X121948000Y-76015000D02*
X121948000Y-76565000D01*
X121898000Y-76065000D02*
X121948000Y-76015000D01*
X121948000Y-76565000D02*
X121948000Y-78530000D01*
X124848000Y-76165000D02*
X124698000Y-76015000D01*
X124698000Y-78450000D02*
X124778000Y-78530000D01*
X124698000Y-76015000D02*
X124698000Y-78450000D01*
X162303001Y-96300001D02*
X162303001Y-97919999D01*
X167233010Y-99035008D02*
X166623002Y-98425000D01*
X158753001Y-108100001D02*
X159863001Y-109210001D01*
X158753001Y-107350001D02*
X158753001Y-108100001D01*
X159863001Y-109210001D02*
X164638001Y-109210001D01*
X164638001Y-109210001D02*
X167233010Y-106614992D01*
X167233010Y-106614992D02*
X167233010Y-99035008D01*
X162808002Y-98425000D02*
X162303001Y-97919999D01*
X166623002Y-98425000D02*
X162808002Y-98425000D01*
X123282001Y-109880999D02*
X124298000Y-108865000D01*
X120472999Y-112690001D02*
X123282001Y-109880999D01*
X120472999Y-114864999D02*
X120472999Y-112690001D01*
X120548000Y-114940000D02*
X120472999Y-114864999D01*
X121548000Y-114940000D02*
X120548000Y-114940000D01*
X120022989Y-108060011D02*
X123282001Y-104800999D01*
X123282001Y-104800999D02*
X124298000Y-103785000D01*
X120022989Y-115714989D02*
X120022989Y-108060011D01*
X120548000Y-116240000D02*
X120022989Y-115714989D01*
X121548000Y-116240000D02*
X120548000Y-116240000D01*
M02*
