G04 #@! TF.GenerationSoftware,KiCad,Pcbnew,(5.1.5)-3*
G04 #@! TF.CreationDate,2020-04-27T21:11:52-07:00*
G04 #@! TF.ProjectId,My_PCB,4d795f50-4342-42e6-9b69-6361645f7063,1*
G04 #@! TF.SameCoordinates,Original*
G04 #@! TF.FileFunction,Copper,L2,Bot*
G04 #@! TF.FilePolarity,Positive*
%FSLAX46Y46*%
G04 Gerber Fmt 4.6, Leading zero omitted, Abs format (unit mm)*
G04 Created by KiCad (PCBNEW (5.1.5)-3) date 2020-04-27 21:11:52*
%MOMM*%
%LPD*%
G04 APERTURE LIST*
%ADD10C,4.064000*%
%ADD11O,1.727200X2.032000*%
%ADD12C,1.346200*%
%ADD13R,1.346200X1.346200*%
%ADD14R,1.700000X1.700000*%
%ADD15O,1.700000X1.700000*%
%ADD16C,2.032000*%
%ADD17R,1.600000X1.600000*%
%ADD18C,1.600000*%
%ADD19C,0.600000*%
%ADD20C,0.250000*%
%ADD21C,0.254000*%
G04 APERTURE END LIST*
D10*
X177038000Y-90805000D03*
D11*
X138938000Y-123825000D03*
X141478000Y-123825000D03*
X144018000Y-123825000D03*
X146558000Y-123825000D03*
X149098000Y-123825000D03*
X151638000Y-123825000D03*
X154178000Y-123825000D03*
X156718000Y-123825000D03*
X161798000Y-123825000D03*
X164338000Y-123825000D03*
X166878000Y-123825000D03*
X169418000Y-123825000D03*
X171958000Y-123825000D03*
X174498000Y-123825000D03*
X129794000Y-75565000D03*
X132334000Y-75565000D03*
X134874000Y-75565000D03*
X137414000Y-75565000D03*
X139954000Y-75565000D03*
X142494000Y-75565000D03*
X145034000Y-75565000D03*
X147574000Y-75565000D03*
X150114000Y-75565000D03*
X152654000Y-75565000D03*
X156718000Y-75565000D03*
X159258000Y-75565000D03*
X161798000Y-75565000D03*
X164338000Y-75565000D03*
X166878000Y-75565000D03*
X169418000Y-75565000D03*
X171958000Y-75565000D03*
X174498000Y-75565000D03*
D10*
X114808000Y-122555000D03*
X177038000Y-118745000D03*
X114808000Y-76835000D03*
D12*
X161798000Y-81915000D03*
X159258000Y-84455000D03*
D13*
X161798000Y-86995000D03*
D14*
X165608000Y-99695000D03*
D15*
X165608000Y-102235000D03*
X165608000Y-104775000D03*
D14*
X126238000Y-123825000D03*
D15*
X128778000Y-123825000D03*
X131318000Y-123825000D03*
X133858000Y-123825000D03*
D14*
X152908000Y-118745000D03*
D15*
X155448000Y-118745000D03*
X157988000Y-118745000D03*
D16*
X124298000Y-108865000D03*
X124298000Y-103785000D03*
D14*
X121498000Y-86865000D03*
D15*
X124038000Y-86865000D03*
X126578000Y-86865000D03*
X129118000Y-86865000D03*
D14*
X115098000Y-85465000D03*
D15*
X115098000Y-88005000D03*
X115098000Y-90545000D03*
X115098000Y-93085000D03*
X115098000Y-95625000D03*
X115098000Y-98165000D03*
D17*
X172098000Y-83665000D03*
D18*
X174598000Y-83665000D03*
D19*
X149138000Y-112395000D03*
X148888000Y-120015000D03*
X161798000Y-88265000D03*
X177068000Y-101785000D03*
X177148000Y-114275000D03*
X131098000Y-79065000D03*
X135766400Y-77365000D03*
X161798000Y-109855000D03*
X161798000Y-121285000D03*
X164338000Y-121285000D03*
X164338000Y-108585000D03*
X128873000Y-114290000D03*
X135949020Y-125616020D03*
X128898000Y-112165000D03*
X132378000Y-78455000D03*
X132378000Y-89135000D03*
X135638000Y-86785000D03*
X129858000Y-78715000D03*
X161798000Y-78105000D03*
X161798000Y-78105000D03*
X156633001Y-83269999D03*
X158798000Y-89265000D03*
X166398000Y-89165000D03*
X164338000Y-90805000D03*
X169418000Y-90805000D03*
X138938000Y-78105000D03*
X138938000Y-95885000D03*
X148848000Y-78105000D03*
X154178000Y-91175002D03*
X116298000Y-82365000D03*
X125898000Y-80765000D03*
X146998000Y-106265000D03*
X143768000Y-78105000D03*
X144018000Y-85725000D03*
X125598000Y-90865000D03*
X142753001Y-95350001D03*
X146558000Y-83185000D03*
X146308000Y-78105000D03*
D20*
X148888000Y-120015000D02*
X149138000Y-118705000D01*
X149138000Y-118705000D02*
X149138000Y-112395000D01*
X161798000Y-86995000D02*
X161798000Y-88265000D01*
X161798000Y-99735000D02*
X149138000Y-112395000D01*
X161798000Y-88265000D02*
X161798000Y-99735000D01*
X164508000Y-99695000D02*
X164468000Y-99735000D01*
X164468000Y-99735000D02*
X161798000Y-99735000D01*
X165608000Y-99695000D02*
X164508000Y-99695000D01*
X115098000Y-86565000D02*
X115098000Y-85465000D01*
X115398000Y-86865000D02*
X115098000Y-86565000D01*
X121498000Y-86865000D02*
X115398000Y-86865000D01*
X140008000Y-105855000D02*
X133072999Y-112790001D01*
X160864899Y-85996899D02*
X158798000Y-88063798D01*
X165798000Y-88865000D02*
X162998000Y-86165000D01*
X133072999Y-112790001D02*
X130198000Y-115665000D01*
X177089600Y-106846600D02*
X177518000Y-107275000D01*
X162929899Y-85996899D02*
X160864899Y-85996899D01*
X162829898Y-85996898D02*
X162998000Y-86165000D01*
X160864900Y-85996898D02*
X162829898Y-85996898D01*
X159423001Y-87438797D02*
X160864900Y-85996898D01*
X159423001Y-89565001D02*
X159423001Y-87438797D01*
X157897981Y-89289983D02*
X158497999Y-89890001D01*
X157897981Y-87690997D02*
X157897981Y-89289983D01*
X162471099Y-83117879D02*
X157897981Y-87690997D01*
X162471099Y-82588099D02*
X162471099Y-83117879D01*
X159098001Y-89890001D02*
X159423001Y-89565001D01*
X158497999Y-89890001D02*
X159098001Y-89890001D01*
X161798000Y-81915000D02*
X162471099Y-82588099D01*
X162998000Y-86165000D02*
X162929899Y-85996899D01*
X136498000Y-107435002D02*
X136498000Y-109765000D01*
X135183017Y-104954981D02*
X140380802Y-104954982D01*
X133072999Y-112790001D02*
X128597999Y-112790001D01*
X128272999Y-112465001D02*
X128272999Y-111864999D01*
X140380802Y-104954982D02*
X141498000Y-106072180D01*
X128597999Y-112790001D02*
X128272999Y-112465001D01*
X128272999Y-111864999D02*
X135183017Y-104954981D01*
X141498000Y-106072180D02*
X141498000Y-107365000D01*
X129118000Y-86865000D02*
X131098000Y-84885000D01*
X131098000Y-84885000D02*
X131098000Y-79065000D01*
X131098000Y-79065000D02*
X131098000Y-79065000D01*
X137414000Y-75717400D02*
X135766400Y-77365000D01*
X137414000Y-75565000D02*
X137414000Y-75717400D01*
X135766400Y-77365000D02*
X135766400Y-77365000D01*
X131098000Y-79489264D02*
X131098000Y-79065000D01*
X131098000Y-84084002D02*
X131098000Y-79489264D01*
X127142001Y-88040001D02*
X131098000Y-84084002D01*
X125402999Y-87429001D02*
X126013999Y-88040001D01*
X125402999Y-82244999D02*
X125402999Y-87429001D01*
X130282998Y-77365000D02*
X125402999Y-82244999D01*
X126013999Y-88040001D02*
X127142001Y-88040001D01*
X135766400Y-77365000D02*
X130282998Y-77365000D01*
X161798000Y-109855000D02*
X161798000Y-121285000D01*
X164338000Y-108585000D02*
X164338000Y-121285000D01*
X128873000Y-114976410D02*
X128873000Y-114714264D01*
X128873000Y-114714264D02*
X128873000Y-114290000D01*
X135949020Y-122052430D02*
X128873000Y-114976410D01*
X135949020Y-125616020D02*
X135949020Y-122052430D01*
X169418000Y-125091000D02*
X169418000Y-123825000D01*
X169044000Y-125465000D02*
X169418000Y-125091000D01*
X160098000Y-125465000D02*
X169044000Y-125465000D01*
X159498000Y-123558348D02*
X159498000Y-124865000D01*
X159598000Y-123458348D02*
X159498000Y-123558348D01*
X140458009Y-105668599D02*
X140458009Y-106504991D01*
X140458009Y-106504991D02*
X137498000Y-109465000D01*
X137498000Y-120965000D02*
X138047524Y-121514524D01*
X135658009Y-105404991D02*
X140194401Y-105404991D01*
X138047524Y-121514524D02*
X159048476Y-121514524D01*
X159048476Y-121514524D02*
X159598000Y-122064048D01*
X159498000Y-124865000D02*
X160098000Y-125465000D01*
X128898000Y-112165000D02*
X135658009Y-105404991D01*
X137498000Y-109465000D02*
X137498000Y-120965000D01*
X140194401Y-105404991D02*
X140458009Y-105668599D01*
X159598000Y-122064048D02*
X159598000Y-123458348D01*
X132378000Y-89135000D02*
X132378000Y-88710736D01*
X171958000Y-123825000D02*
X171938000Y-123825000D01*
X132378000Y-88710736D02*
X132378000Y-78455000D01*
X126308000Y-89135000D02*
X132378000Y-89135000D01*
X124038000Y-86865000D02*
X126308000Y-89135000D01*
X135638000Y-80789998D02*
X135638000Y-86360736D01*
X135638000Y-86360736D02*
X135638000Y-86785000D01*
X132678001Y-77829999D02*
X135638000Y-80789998D01*
X130743001Y-77829999D02*
X132678001Y-77829999D01*
X129858000Y-78715000D02*
X130743001Y-77829999D01*
X129858000Y-83585000D02*
X129858000Y-78715000D01*
X126578000Y-86865000D02*
X129858000Y-83585000D01*
X161798000Y-78105000D02*
X156718000Y-83185000D01*
X158498001Y-88965001D02*
X158798000Y-89265000D01*
X158347991Y-87877397D02*
X158347991Y-88814991D01*
X158347991Y-88814991D02*
X158498001Y-88965001D01*
X160678498Y-85546890D02*
X158347991Y-87877397D01*
X163116299Y-85546889D02*
X160678498Y-85546890D01*
X166248009Y-88678599D02*
X163116299Y-85546889D01*
X166248009Y-89314989D02*
X166248009Y-88678599D01*
X166398000Y-89165000D02*
X166248009Y-89314989D01*
X164338000Y-90805000D02*
X169418000Y-90805000D01*
X139362264Y-95885000D02*
X139388010Y-95859254D01*
X138938000Y-95885000D02*
X139362264Y-95885000D01*
X138938000Y-78105000D02*
X138938000Y-95259999D01*
X138938000Y-78105000D02*
X138938000Y-95885000D01*
X115358000Y-95885000D02*
X115098000Y-95625000D01*
X115947999Y-96474999D02*
X117007999Y-96474999D01*
X115098000Y-95625000D02*
X115947999Y-96474999D01*
X117007999Y-96474999D02*
X116998000Y-96484998D01*
X116998000Y-96484998D02*
X116998000Y-101765000D01*
X116998000Y-101765000D02*
X117398000Y-101365000D01*
X117398000Y-101365000D02*
X127398000Y-101365000D01*
X127398000Y-101365000D02*
X127798000Y-100965000D01*
X133858000Y-100965000D02*
X138938000Y-95885000D01*
X127798000Y-100965000D02*
X133858000Y-100965000D01*
X148848000Y-85845002D02*
X154178000Y-91175002D01*
X148848000Y-78105000D02*
X148848000Y-85845002D01*
X113922999Y-99326409D02*
X116811599Y-102215009D01*
X114659007Y-91784991D02*
X113922999Y-92520999D01*
X113922999Y-92520999D02*
X113922999Y-99326409D01*
X117898000Y-80765000D02*
X116298000Y-82365000D01*
X125898000Y-80765000D02*
X117898000Y-80765000D01*
X113922999Y-91048983D02*
X114659007Y-91784991D01*
X113922999Y-89980999D02*
X113922999Y-91048983D01*
X115098000Y-88805998D02*
X113922999Y-89980999D01*
X115098000Y-88005000D02*
X115098000Y-88805998D01*
X146698001Y-106564999D02*
X146698001Y-110865001D01*
X146998000Y-106265000D02*
X146698001Y-106564999D01*
X146698001Y-110865001D02*
X146798000Y-110965000D01*
X146798000Y-110965000D02*
X146598000Y-110965000D01*
X146558000Y-122559000D02*
X146558000Y-123825000D01*
X146633010Y-122483990D02*
X146558000Y-122559000D01*
X157210338Y-122483990D02*
X146633010Y-122483990D01*
X157906610Y-123180262D02*
X157210338Y-122483990D01*
X159911600Y-125915010D02*
X157906610Y-123910020D01*
X169230400Y-125915010D02*
X159911600Y-125915010D01*
X170606610Y-123180262D02*
X170606610Y-124538800D01*
X169910338Y-122483990D02*
X170606610Y-123180262D01*
X170606610Y-124538800D02*
X169230400Y-125915010D01*
X160654352Y-122483990D02*
X169910338Y-122483990D01*
X159234877Y-121064515D02*
X160654352Y-122483990D01*
X146598000Y-121064514D02*
X159234877Y-121064515D01*
X157906610Y-123910020D02*
X157906610Y-123180262D01*
X146598000Y-110965000D02*
X146598000Y-121064514D01*
X143768000Y-85475000D02*
X144018000Y-85725000D01*
X143768000Y-78105000D02*
X143768000Y-85475000D01*
X115947999Y-92235001D02*
X124027999Y-92235001D01*
X115098000Y-93085000D02*
X115947999Y-92235001D01*
X124027999Y-92235001D02*
X125598000Y-90665000D01*
X115947999Y-92235001D02*
X124127999Y-92235001D01*
X124127999Y-92235001D02*
X125598000Y-90765000D01*
X125598000Y-90765000D02*
X125598000Y-90865000D01*
X125598000Y-90865000D02*
X125598000Y-90965000D01*
X142753001Y-94600001D02*
X142753001Y-95350001D01*
X142753001Y-80994999D02*
X142753001Y-94600001D01*
X139238001Y-77479999D02*
X142753001Y-80994999D01*
X138312999Y-77804999D02*
X138637999Y-77479999D01*
X138312999Y-78405001D02*
X138312999Y-77804999D01*
X138487990Y-93865000D02*
X138487990Y-78579992D01*
X129022264Y-93865000D02*
X138487990Y-93865000D01*
X138487990Y-78579992D02*
X138312999Y-78405001D01*
X126022264Y-90865000D02*
X129022264Y-93865000D01*
X138637999Y-77479999D02*
X139238001Y-77479999D01*
X125598000Y-90865000D02*
X126022264Y-90865000D01*
X146258001Y-82824999D02*
X146258001Y-82885001D01*
X146308000Y-82775000D02*
X146258001Y-82824999D01*
X146308000Y-82775000D02*
X146308000Y-82935000D01*
X146258001Y-82885001D02*
X146558000Y-83185000D01*
X146308000Y-78105000D02*
X146308000Y-82775000D01*
D21*
G36*
X176328001Y-74843093D02*
G01*
X176328000Y-85944125D01*
X176324565Y-85979000D01*
X176328000Y-86013875D01*
X176328000Y-86013876D01*
X176338273Y-86118183D01*
X176378872Y-86252019D01*
X176444800Y-86375362D01*
X176533525Y-86483474D01*
X176560617Y-86505708D01*
X178868001Y-88813093D01*
X178868001Y-88863294D01*
X178738113Y-88733406D01*
X178301298Y-88441536D01*
X177815935Y-88240492D01*
X177300677Y-88138000D01*
X176775323Y-88138000D01*
X176260065Y-88240492D01*
X175774702Y-88441536D01*
X175337887Y-88733406D01*
X174966406Y-89104887D01*
X174674536Y-89541702D01*
X174473492Y-90027065D01*
X174371000Y-90542323D01*
X174371000Y-91067677D01*
X174473492Y-91582935D01*
X174674536Y-92068298D01*
X174966406Y-92505113D01*
X175337887Y-92876594D01*
X175774702Y-93168464D01*
X176260065Y-93369508D01*
X176775323Y-93472000D01*
X177300677Y-93472000D01*
X177815935Y-93369508D01*
X178301298Y-93168464D01*
X178738113Y-92876594D01*
X178868001Y-92746706D01*
X178868000Y-116803293D01*
X178738113Y-116673406D01*
X178301298Y-116381536D01*
X177815935Y-116180492D01*
X177300677Y-116078000D01*
X176775323Y-116078000D01*
X176260065Y-116180492D01*
X175774702Y-116381536D01*
X175337887Y-116673406D01*
X174966406Y-117044887D01*
X174674536Y-117481702D01*
X174473492Y-117967065D01*
X174371000Y-118482323D01*
X174371000Y-119007677D01*
X174473492Y-119522935D01*
X174674536Y-120008298D01*
X174966406Y-120445113D01*
X175337887Y-120816594D01*
X175774702Y-121108464D01*
X176260065Y-121309508D01*
X176775323Y-121412000D01*
X177300677Y-121412000D01*
X177815935Y-121309508D01*
X178301298Y-121108464D01*
X178738113Y-120816594D01*
X178868000Y-120686707D01*
X178868000Y-120990908D01*
X176560617Y-123298292D01*
X176533526Y-123320525D01*
X176511293Y-123347616D01*
X176444801Y-123428637D01*
X176378872Y-123551981D01*
X176338274Y-123685816D01*
X176324565Y-123825000D01*
X176328001Y-123859885D01*
X176328000Y-125655000D01*
X170565212Y-125655000D01*
X171049635Y-125170577D01*
X171121395Y-125229469D01*
X171381737Y-125368625D01*
X171664224Y-125454316D01*
X171958000Y-125483251D01*
X172251777Y-125454316D01*
X172534264Y-125368625D01*
X172794606Y-125229469D01*
X173022797Y-125042197D01*
X173210069Y-124814006D01*
X173228000Y-124780459D01*
X173245931Y-124814006D01*
X173433203Y-125042197D01*
X173661395Y-125229469D01*
X173921737Y-125368625D01*
X174204224Y-125454316D01*
X174498000Y-125483251D01*
X174791777Y-125454316D01*
X175074264Y-125368625D01*
X175334606Y-125229469D01*
X175562797Y-125042197D01*
X175750069Y-124814006D01*
X175889225Y-124553663D01*
X175974916Y-124271176D01*
X175996600Y-124051018D01*
X175996600Y-123598981D01*
X175974916Y-123378823D01*
X175889225Y-123096336D01*
X175750069Y-122835994D01*
X175562797Y-122607803D01*
X175334605Y-122420531D01*
X175074263Y-122281375D01*
X174791776Y-122195684D01*
X174498000Y-122166749D01*
X174204223Y-122195684D01*
X173921736Y-122281375D01*
X173661394Y-122420531D01*
X173433203Y-122607803D01*
X173245931Y-122835995D01*
X173228000Y-122869541D01*
X173210069Y-122835994D01*
X173022797Y-122607803D01*
X172794605Y-122420531D01*
X172534263Y-122281375D01*
X172251776Y-122195684D01*
X171958000Y-122166749D01*
X171664223Y-122195684D01*
X171381736Y-122281375D01*
X171121394Y-122420531D01*
X171011703Y-122510553D01*
X170474141Y-121972992D01*
X170450339Y-121943989D01*
X170334614Y-121849016D01*
X170202585Y-121778444D01*
X170059324Y-121734987D01*
X169947671Y-121723990D01*
X169947660Y-121723990D01*
X169910338Y-121720314D01*
X169873016Y-121723990D01*
X165168201Y-121723990D01*
X165237068Y-121557729D01*
X165273000Y-121377089D01*
X165273000Y-121192911D01*
X165237068Y-121012271D01*
X165166586Y-120842111D01*
X165098000Y-120739465D01*
X165098000Y-109130535D01*
X165166586Y-109027889D01*
X165237068Y-108857729D01*
X165273000Y-108677089D01*
X165273000Y-108492911D01*
X165237068Y-108312271D01*
X165166586Y-108142111D01*
X165064262Y-107988972D01*
X164934028Y-107858738D01*
X164780889Y-107756414D01*
X164610729Y-107685932D01*
X164430089Y-107650000D01*
X164245911Y-107650000D01*
X164065271Y-107685932D01*
X163895111Y-107756414D01*
X163741972Y-107858738D01*
X163611738Y-107988972D01*
X163509414Y-108142111D01*
X163438932Y-108312271D01*
X163403000Y-108492911D01*
X163403000Y-108677089D01*
X163438932Y-108857729D01*
X163509414Y-109027889D01*
X163578000Y-109130535D01*
X163578001Y-120739463D01*
X163509414Y-120842111D01*
X163438932Y-121012271D01*
X163403000Y-121192911D01*
X163403000Y-121377089D01*
X163438932Y-121557729D01*
X163507799Y-121723990D01*
X162628201Y-121723990D01*
X162697068Y-121557729D01*
X162733000Y-121377089D01*
X162733000Y-121192911D01*
X162697068Y-121012271D01*
X162626586Y-120842111D01*
X162558000Y-120739465D01*
X162558000Y-110400535D01*
X162626586Y-110297889D01*
X162697068Y-110127729D01*
X162733000Y-109947089D01*
X162733000Y-109762911D01*
X162697068Y-109582271D01*
X162626586Y-109412111D01*
X162524262Y-109258972D01*
X162394028Y-109128738D01*
X162240889Y-109026414D01*
X162070729Y-108955932D01*
X161890089Y-108920000D01*
X161705911Y-108920000D01*
X161525271Y-108955932D01*
X161355111Y-109026414D01*
X161201972Y-109128738D01*
X161071738Y-109258972D01*
X160969414Y-109412111D01*
X160898932Y-109582271D01*
X160863000Y-109762911D01*
X160863000Y-109947089D01*
X160898932Y-110127729D01*
X160969414Y-110297889D01*
X161038000Y-110400535D01*
X161038001Y-120739463D01*
X160969414Y-120842111D01*
X160898932Y-121012271D01*
X160863000Y-121192911D01*
X160863000Y-121377089D01*
X160898932Y-121557729D01*
X160966841Y-121721677D01*
X159798676Y-120553513D01*
X159774878Y-120524515D01*
X159724787Y-120483406D01*
X159659153Y-120429541D01*
X159527123Y-120358969D01*
X159427319Y-120328695D01*
X159383863Y-120315513D01*
X159272210Y-120304516D01*
X159234877Y-120300839D01*
X159197545Y-120304516D01*
X149780115Y-120304515D01*
X149787068Y-120287729D01*
X149823000Y-120107089D01*
X149823000Y-119922911D01*
X149787068Y-119742271D01*
X149736884Y-119621116D01*
X149741867Y-119595000D01*
X151419928Y-119595000D01*
X151432188Y-119719482D01*
X151468498Y-119839180D01*
X151527463Y-119949494D01*
X151606815Y-120046185D01*
X151703506Y-120125537D01*
X151813820Y-120184502D01*
X151933518Y-120220812D01*
X152058000Y-120233072D01*
X152622250Y-120230000D01*
X152781000Y-120071250D01*
X152781000Y-118872000D01*
X151581750Y-118872000D01*
X151423000Y-119030750D01*
X151419928Y-119595000D01*
X149741867Y-119595000D01*
X149876972Y-118887055D01*
X149887003Y-118853986D01*
X149890971Y-118813699D01*
X149891525Y-118810796D01*
X149894621Y-118776641D01*
X149898000Y-118742333D01*
X149898000Y-118739362D01*
X149901653Y-118699061D01*
X149898000Y-118664710D01*
X149898000Y-117895000D01*
X151419928Y-117895000D01*
X151423000Y-118459250D01*
X151581750Y-118618000D01*
X152781000Y-118618000D01*
X152781000Y-117418750D01*
X153035000Y-117418750D01*
X153035000Y-118618000D01*
X153055000Y-118618000D01*
X153055000Y-118872000D01*
X153035000Y-118872000D01*
X153035000Y-120071250D01*
X153193750Y-120230000D01*
X153758000Y-120233072D01*
X153882482Y-120220812D01*
X154002180Y-120184502D01*
X154112494Y-120125537D01*
X154209185Y-120046185D01*
X154288537Y-119949494D01*
X154347502Y-119839180D01*
X154369513Y-119766620D01*
X154501368Y-119898475D01*
X154744589Y-120060990D01*
X155014842Y-120172932D01*
X155301740Y-120230000D01*
X155594260Y-120230000D01*
X155881158Y-120172932D01*
X156151411Y-120060990D01*
X156394632Y-119898475D01*
X156601475Y-119691632D01*
X156718000Y-119517240D01*
X156834525Y-119691632D01*
X157041368Y-119898475D01*
X157284589Y-120060990D01*
X157554842Y-120172932D01*
X157841740Y-120230000D01*
X158134260Y-120230000D01*
X158421158Y-120172932D01*
X158691411Y-120060990D01*
X158934632Y-119898475D01*
X159141475Y-119691632D01*
X159303990Y-119448411D01*
X159415932Y-119178158D01*
X159473000Y-118891260D01*
X159473000Y-118598740D01*
X159415932Y-118311842D01*
X159303990Y-118041589D01*
X159141475Y-117798368D01*
X158934632Y-117591525D01*
X158691411Y-117429010D01*
X158421158Y-117317068D01*
X158134260Y-117260000D01*
X157841740Y-117260000D01*
X157554842Y-117317068D01*
X157284589Y-117429010D01*
X157041368Y-117591525D01*
X156834525Y-117798368D01*
X156718000Y-117972760D01*
X156601475Y-117798368D01*
X156394632Y-117591525D01*
X156151411Y-117429010D01*
X155881158Y-117317068D01*
X155594260Y-117260000D01*
X155301740Y-117260000D01*
X155014842Y-117317068D01*
X154744589Y-117429010D01*
X154501368Y-117591525D01*
X154369513Y-117723380D01*
X154347502Y-117650820D01*
X154288537Y-117540506D01*
X154209185Y-117443815D01*
X154112494Y-117364463D01*
X154002180Y-117305498D01*
X153882482Y-117269188D01*
X153758000Y-117256928D01*
X153193750Y-117260000D01*
X153035000Y-117418750D01*
X152781000Y-117418750D01*
X152622250Y-117260000D01*
X152058000Y-117256928D01*
X151933518Y-117269188D01*
X151813820Y-117305498D01*
X151703506Y-117364463D01*
X151606815Y-117443815D01*
X151527463Y-117540506D01*
X151468498Y-117650820D01*
X151432188Y-117770518D01*
X151419928Y-117895000D01*
X149898000Y-117895000D01*
X149898000Y-112940535D01*
X149966586Y-112837889D01*
X150037068Y-112667729D01*
X150061153Y-112546648D01*
X157475911Y-105131890D01*
X164166524Y-105131890D01*
X164211175Y-105279099D01*
X164336359Y-105541920D01*
X164510412Y-105775269D01*
X164726645Y-105970178D01*
X164976748Y-106119157D01*
X165251109Y-106216481D01*
X165481000Y-106095814D01*
X165481000Y-104902000D01*
X165735000Y-104902000D01*
X165735000Y-106095814D01*
X165964891Y-106216481D01*
X166239252Y-106119157D01*
X166489355Y-105970178D01*
X166705588Y-105775269D01*
X166879641Y-105541920D01*
X167004825Y-105279099D01*
X167049476Y-105131890D01*
X166928155Y-104902000D01*
X165735000Y-104902000D01*
X165481000Y-104902000D01*
X164287845Y-104902000D01*
X164166524Y-105131890D01*
X157475911Y-105131890D01*
X162112802Y-100495000D01*
X164119928Y-100495000D01*
X164119928Y-100545000D01*
X164132188Y-100669482D01*
X164168498Y-100789180D01*
X164227463Y-100899494D01*
X164306815Y-100996185D01*
X164403506Y-101075537D01*
X164513820Y-101134502D01*
X164586380Y-101156513D01*
X164454525Y-101288368D01*
X164292010Y-101531589D01*
X164180068Y-101801842D01*
X164123000Y-102088740D01*
X164123000Y-102381260D01*
X164180068Y-102668158D01*
X164292010Y-102938411D01*
X164454525Y-103181632D01*
X164661368Y-103388475D01*
X164843534Y-103510195D01*
X164726645Y-103579822D01*
X164510412Y-103774731D01*
X164336359Y-104008080D01*
X164211175Y-104270901D01*
X164166524Y-104418110D01*
X164287845Y-104648000D01*
X165481000Y-104648000D01*
X165481000Y-104628000D01*
X165735000Y-104628000D01*
X165735000Y-104648000D01*
X166928155Y-104648000D01*
X167049476Y-104418110D01*
X167004825Y-104270901D01*
X166879641Y-104008080D01*
X166705588Y-103774731D01*
X166489355Y-103579822D01*
X166372466Y-103510195D01*
X166554632Y-103388475D01*
X166761475Y-103181632D01*
X166923990Y-102938411D01*
X167035932Y-102668158D01*
X167093000Y-102381260D01*
X167093000Y-102088740D01*
X167035932Y-101801842D01*
X166923990Y-101531589D01*
X166761475Y-101288368D01*
X166629620Y-101156513D01*
X166702180Y-101134502D01*
X166812494Y-101075537D01*
X166909185Y-100996185D01*
X166988537Y-100899494D01*
X167047502Y-100789180D01*
X167083812Y-100669482D01*
X167096072Y-100545000D01*
X167096072Y-98845000D01*
X167083812Y-98720518D01*
X167047502Y-98600820D01*
X166988537Y-98490506D01*
X166909185Y-98393815D01*
X166812494Y-98314463D01*
X166702180Y-98255498D01*
X166582482Y-98219188D01*
X166458000Y-98206928D01*
X164758000Y-98206928D01*
X164633518Y-98219188D01*
X164513820Y-98255498D01*
X164403506Y-98314463D01*
X164306815Y-98393815D01*
X164227463Y-98490506D01*
X164168498Y-98600820D01*
X164132188Y-98720518D01*
X164119928Y-98845000D01*
X164119928Y-98975000D01*
X162558000Y-98975000D01*
X162558000Y-88810535D01*
X162626586Y-88707889D01*
X162697068Y-88537729D01*
X162733000Y-88357089D01*
X162733000Y-88248130D01*
X162825594Y-88198637D01*
X162922285Y-88119285D01*
X163001637Y-88022594D01*
X163060602Y-87912280D01*
X163096912Y-87792582D01*
X163109172Y-87668100D01*
X163109172Y-86614563D01*
X165480341Y-88985733D01*
X165463000Y-89072911D01*
X165463000Y-89257089D01*
X165493958Y-89412725D01*
X165499006Y-89463974D01*
X165531960Y-89572611D01*
X165537017Y-89589280D01*
X165542463Y-89607235D01*
X165613035Y-89739264D01*
X165708008Y-89854990D01*
X165823733Y-89949963D01*
X165955762Y-90020535D01*
X166036414Y-90045000D01*
X164883535Y-90045000D01*
X164780889Y-89976414D01*
X164610729Y-89905932D01*
X164430089Y-89870000D01*
X164245911Y-89870000D01*
X164065271Y-89905932D01*
X163895111Y-89976414D01*
X163741972Y-90078738D01*
X163611738Y-90208972D01*
X163509414Y-90362111D01*
X163438932Y-90532271D01*
X163403000Y-90712911D01*
X163403000Y-90897089D01*
X163438932Y-91077729D01*
X163509414Y-91247889D01*
X163611738Y-91401028D01*
X163741972Y-91531262D01*
X163895111Y-91633586D01*
X164065271Y-91704068D01*
X164245911Y-91740000D01*
X164430089Y-91740000D01*
X164610729Y-91704068D01*
X164780889Y-91633586D01*
X164883535Y-91565000D01*
X168872465Y-91565000D01*
X168975111Y-91633586D01*
X169145271Y-91704068D01*
X169325911Y-91740000D01*
X169510089Y-91740000D01*
X169690729Y-91704068D01*
X169860889Y-91633586D01*
X170014028Y-91531262D01*
X170144262Y-91401028D01*
X170246586Y-91247889D01*
X170317068Y-91077729D01*
X170353000Y-90897089D01*
X170353000Y-90712911D01*
X170317068Y-90532271D01*
X170246586Y-90362111D01*
X170144262Y-90208972D01*
X170014028Y-90078738D01*
X169860889Y-89976414D01*
X169690729Y-89905932D01*
X169510089Y-89870000D01*
X169325911Y-89870000D01*
X169145271Y-89905932D01*
X168975111Y-89976414D01*
X168872465Y-90045000D01*
X166716764Y-90045000D01*
X166840889Y-89993586D01*
X166994028Y-89891262D01*
X167124262Y-89761028D01*
X167226586Y-89607889D01*
X167297068Y-89437729D01*
X167333000Y-89257089D01*
X167333000Y-89072911D01*
X167297068Y-88892271D01*
X167226586Y-88722111D01*
X167124262Y-88568972D01*
X166994028Y-88438738D01*
X166963197Y-88418137D01*
X166953555Y-88386352D01*
X166882983Y-88254323D01*
X166788010Y-88138598D01*
X166759012Y-88114800D01*
X163680097Y-85035886D01*
X163656299Y-85006888D01*
X163609649Y-84968603D01*
X163540575Y-84911915D01*
X163408545Y-84841343D01*
X163392774Y-84836559D01*
X163265284Y-84797886D01*
X163153631Y-84786889D01*
X163153621Y-84786889D01*
X163116299Y-84783213D01*
X163078976Y-84786889D01*
X160715840Y-84786891D01*
X160678498Y-84783213D01*
X160529512Y-84797887D01*
X160523138Y-84799821D01*
X160566100Y-84583837D01*
X160566100Y-84326163D01*
X160515830Y-84073441D01*
X160417223Y-83835382D01*
X160274067Y-83621135D01*
X160091865Y-83438933D01*
X159877618Y-83295777D01*
X159639559Y-83197170D01*
X159386837Y-83146900D01*
X159129163Y-83146900D01*
X158876441Y-83197170D01*
X158638382Y-83295777D01*
X158424135Y-83438933D01*
X158241933Y-83621135D01*
X158098777Y-83835382D01*
X158000170Y-84073441D01*
X157949900Y-84326163D01*
X157949900Y-84583837D01*
X158000170Y-84836559D01*
X158098777Y-85074618D01*
X158241933Y-85288865D01*
X158424135Y-85471067D01*
X158638382Y-85614223D01*
X158876441Y-85712830D01*
X159129163Y-85763100D01*
X159386837Y-85763100D01*
X159387648Y-85762939D01*
X157836994Y-87313593D01*
X157807990Y-87337396D01*
X157752862Y-87404571D01*
X157713017Y-87453121D01*
X157651393Y-87568411D01*
X157642445Y-87585151D01*
X157598988Y-87728412D01*
X157587991Y-87840065D01*
X157587991Y-87840075D01*
X157584315Y-87877397D01*
X157587991Y-87914720D01*
X157587992Y-88777659D01*
X157584315Y-88814991D01*
X157587992Y-88852324D01*
X157598989Y-88963977D01*
X157601651Y-88972753D01*
X157642445Y-89107237D01*
X157713017Y-89239267D01*
X157780086Y-89320990D01*
X157807991Y-89354992D01*
X157836989Y-89378790D01*
X157874847Y-89416648D01*
X157898932Y-89537729D01*
X157969414Y-89707889D01*
X158071738Y-89861028D01*
X158201972Y-89991262D01*
X158355111Y-90093586D01*
X158525271Y-90164068D01*
X158705911Y-90200000D01*
X158890089Y-90200000D01*
X159070729Y-90164068D01*
X159240889Y-90093586D01*
X159394028Y-89991262D01*
X159524262Y-89861028D01*
X159626586Y-89707889D01*
X159697068Y-89537729D01*
X159733000Y-89357089D01*
X159733000Y-89172911D01*
X159697068Y-88992271D01*
X159626586Y-88822111D01*
X159524262Y-88668972D01*
X159394028Y-88538738D01*
X159240889Y-88436414D01*
X159107991Y-88381366D01*
X159107991Y-88192198D01*
X160486828Y-86813362D01*
X160486828Y-87668100D01*
X160499088Y-87792582D01*
X160535398Y-87912280D01*
X160594363Y-88022594D01*
X160673715Y-88119285D01*
X160770406Y-88198637D01*
X160863000Y-88248130D01*
X160863000Y-88357089D01*
X160898932Y-88537729D01*
X160969414Y-88707889D01*
X161038000Y-88810535D01*
X161038001Y-99420197D01*
X148986352Y-111471847D01*
X148865271Y-111495932D01*
X148695111Y-111566414D01*
X148541972Y-111668738D01*
X148411738Y-111798972D01*
X148309414Y-111952111D01*
X148238932Y-112122271D01*
X148203000Y-112302911D01*
X148203000Y-112487089D01*
X148238932Y-112667729D01*
X148309414Y-112837889D01*
X148378001Y-112940537D01*
X148378000Y-118633135D01*
X148243666Y-119337044D01*
X148161738Y-119418972D01*
X148059414Y-119572111D01*
X147988932Y-119742271D01*
X147953000Y-119922911D01*
X147953000Y-120107089D01*
X147988932Y-120287729D01*
X147995885Y-120304514D01*
X147358000Y-120304514D01*
X147358000Y-111480632D01*
X147432974Y-111389276D01*
X147503546Y-111257247D01*
X147547003Y-111113986D01*
X147561677Y-110965000D01*
X147547003Y-110816014D01*
X147503546Y-110672753D01*
X147458001Y-110587546D01*
X147458001Y-107082152D01*
X147594028Y-106991262D01*
X147724262Y-106861028D01*
X147826586Y-106707889D01*
X147897068Y-106537729D01*
X147933000Y-106357089D01*
X147933000Y-106172911D01*
X147897068Y-105992271D01*
X147826586Y-105822111D01*
X147724262Y-105668972D01*
X147594028Y-105538738D01*
X147440889Y-105436414D01*
X147270729Y-105365932D01*
X147090089Y-105330000D01*
X146905911Y-105330000D01*
X146725271Y-105365932D01*
X146555111Y-105436414D01*
X146401972Y-105538738D01*
X146271738Y-105668972D01*
X146169414Y-105822111D01*
X146098932Y-105992271D01*
X146071442Y-106130469D01*
X146063027Y-106140723D01*
X145996599Y-106265000D01*
X145992455Y-106272753D01*
X145948998Y-106416014D01*
X145938001Y-106527667D01*
X145938001Y-106527677D01*
X145934325Y-106564999D01*
X145938001Y-106602322D01*
X145938002Y-110587540D01*
X145892454Y-110672753D01*
X145848997Y-110816014D01*
X145834323Y-110965000D01*
X145838000Y-111002333D01*
X145838001Y-120754524D01*
X138362326Y-120754524D01*
X138258000Y-120650199D01*
X138258000Y-109779801D01*
X140969012Y-107068790D01*
X140998010Y-107044992D01*
X141092983Y-106929267D01*
X141163555Y-106797238D01*
X141207012Y-106653977D01*
X141218009Y-106542324D01*
X141218009Y-106542314D01*
X141221685Y-106504991D01*
X141218009Y-106467668D01*
X141218009Y-105705921D01*
X141221685Y-105668598D01*
X141218009Y-105631276D01*
X141218009Y-105631266D01*
X141207012Y-105519613D01*
X141163555Y-105376352D01*
X141092983Y-105244323D01*
X140998010Y-105128598D01*
X140969007Y-105104796D01*
X140758205Y-104893994D01*
X140734402Y-104864990D01*
X140618677Y-104770017D01*
X140486648Y-104699445D01*
X140343387Y-104655988D01*
X140231734Y-104644991D01*
X140231723Y-104644991D01*
X140194401Y-104641315D01*
X140157079Y-104644991D01*
X135695331Y-104644991D01*
X135658008Y-104641315D01*
X135620685Y-104644991D01*
X135620676Y-104644991D01*
X135509023Y-104655988D01*
X135365762Y-104699445D01*
X135233733Y-104770017D01*
X135233731Y-104770018D01*
X135233732Y-104770018D01*
X135147005Y-104841192D01*
X135147001Y-104841196D01*
X135118008Y-104864990D01*
X135094214Y-104893983D01*
X128746352Y-111241847D01*
X128625271Y-111265932D01*
X128455111Y-111336414D01*
X128301972Y-111438738D01*
X128171738Y-111568972D01*
X128069414Y-111722111D01*
X127998932Y-111892271D01*
X127963000Y-112072911D01*
X127963000Y-112257089D01*
X127998932Y-112437729D01*
X128069414Y-112607889D01*
X128171738Y-112761028D01*
X128301972Y-112891262D01*
X128455111Y-112993586D01*
X128625271Y-113064068D01*
X128805911Y-113100000D01*
X128990089Y-113100000D01*
X129170729Y-113064068D01*
X129340889Y-112993586D01*
X129494028Y-112891262D01*
X129624262Y-112761028D01*
X129726586Y-112607889D01*
X129797068Y-112437729D01*
X129821153Y-112316648D01*
X135972812Y-106164991D01*
X139698009Y-106164991D01*
X139698009Y-106190189D01*
X136987003Y-108901196D01*
X136957999Y-108924999D01*
X136902871Y-108992174D01*
X136863026Y-109040724D01*
X136835980Y-109091323D01*
X136792454Y-109172754D01*
X136748997Y-109316015D01*
X136738000Y-109427668D01*
X136738000Y-109427678D01*
X136734324Y-109465000D01*
X136738000Y-109502322D01*
X136738001Y-120927668D01*
X136734324Y-120965000D01*
X136738001Y-121002333D01*
X136744126Y-121064515D01*
X136748998Y-121113985D01*
X136792454Y-121257246D01*
X136863026Y-121389276D01*
X136934201Y-121476002D01*
X136958000Y-121505001D01*
X136986998Y-121528799D01*
X137483724Y-122025526D01*
X137507523Y-122054525D01*
X137623248Y-122149498D01*
X137755277Y-122220070D01*
X137898538Y-122263527D01*
X138010191Y-122274524D01*
X138010200Y-122274524D01*
X138047523Y-122278200D01*
X138084846Y-122274524D01*
X138384321Y-122274524D01*
X138361736Y-122281375D01*
X138101394Y-122420531D01*
X137873203Y-122607803D01*
X137685931Y-122835995D01*
X137546775Y-123096337D01*
X137461084Y-123378824D01*
X137439400Y-123598982D01*
X137439400Y-124051019D01*
X137461084Y-124271177D01*
X137546775Y-124553664D01*
X137685931Y-124814006D01*
X137873203Y-125042197D01*
X138101395Y-125229469D01*
X138361737Y-125368625D01*
X138644224Y-125454316D01*
X138938000Y-125483251D01*
X139231777Y-125454316D01*
X139514264Y-125368625D01*
X139774606Y-125229469D01*
X140002797Y-125042197D01*
X140190069Y-124814006D01*
X140208000Y-124780459D01*
X140225931Y-124814006D01*
X140413203Y-125042197D01*
X140641395Y-125229469D01*
X140901737Y-125368625D01*
X141184224Y-125454316D01*
X141478000Y-125483251D01*
X141771777Y-125454316D01*
X142054264Y-125368625D01*
X142314606Y-125229469D01*
X142542797Y-125042197D01*
X142730069Y-124814006D01*
X142748000Y-124780459D01*
X142765931Y-124814006D01*
X142953203Y-125042197D01*
X143181395Y-125229469D01*
X143441737Y-125368625D01*
X143724224Y-125454316D01*
X144018000Y-125483251D01*
X144311777Y-125454316D01*
X144594264Y-125368625D01*
X144854606Y-125229469D01*
X145082797Y-125042197D01*
X145270069Y-124814006D01*
X145288000Y-124780459D01*
X145305931Y-124814006D01*
X145493203Y-125042197D01*
X145721395Y-125229469D01*
X145981737Y-125368625D01*
X146264224Y-125454316D01*
X146558000Y-125483251D01*
X146851777Y-125454316D01*
X147134264Y-125368625D01*
X147394606Y-125229469D01*
X147622797Y-125042197D01*
X147810069Y-124814006D01*
X147828000Y-124780459D01*
X147845931Y-124814006D01*
X148033203Y-125042197D01*
X148261395Y-125229469D01*
X148521737Y-125368625D01*
X148804224Y-125454316D01*
X149098000Y-125483251D01*
X149391777Y-125454316D01*
X149674264Y-125368625D01*
X149934606Y-125229469D01*
X150162797Y-125042197D01*
X150350069Y-124814006D01*
X150371424Y-124774053D01*
X150519514Y-124976729D01*
X150735965Y-125175733D01*
X150987081Y-125328686D01*
X151263211Y-125429709D01*
X151278974Y-125432358D01*
X151511000Y-125311217D01*
X151511000Y-123952000D01*
X151765000Y-123952000D01*
X151765000Y-125311217D01*
X151997026Y-125432358D01*
X152012789Y-125429709D01*
X152288919Y-125328686D01*
X152540035Y-125175733D01*
X152756486Y-124976729D01*
X152908000Y-124769367D01*
X153059514Y-124976729D01*
X153275965Y-125175733D01*
X153527081Y-125328686D01*
X153803211Y-125429709D01*
X153818974Y-125432358D01*
X154051000Y-125311217D01*
X154051000Y-123952000D01*
X151765000Y-123952000D01*
X151511000Y-123952000D01*
X151491000Y-123952000D01*
X151491000Y-123698000D01*
X151511000Y-123698000D01*
X151511000Y-123678000D01*
X151765000Y-123678000D01*
X151765000Y-123698000D01*
X154051000Y-123698000D01*
X154051000Y-123678000D01*
X154305000Y-123678000D01*
X154305000Y-123698000D01*
X154325000Y-123698000D01*
X154325000Y-123952000D01*
X154305000Y-123952000D01*
X154305000Y-125311217D01*
X154537026Y-125432358D01*
X154552789Y-125429709D01*
X154828919Y-125328686D01*
X155080035Y-125175733D01*
X155296486Y-124976729D01*
X155444576Y-124774053D01*
X155465931Y-124814006D01*
X155653203Y-125042197D01*
X155881395Y-125229469D01*
X156141737Y-125368625D01*
X156424224Y-125454316D01*
X156718000Y-125483251D01*
X157011777Y-125454316D01*
X157294264Y-125368625D01*
X157554606Y-125229469D01*
X157782797Y-125042197D01*
X157864469Y-124942680D01*
X158576788Y-125655000D01*
X136884020Y-125655000D01*
X136884020Y-125523931D01*
X136848088Y-125343291D01*
X136777606Y-125173131D01*
X136709020Y-125070485D01*
X136709020Y-122089752D01*
X136712696Y-122052429D01*
X136709020Y-122015106D01*
X136709020Y-122015097D01*
X136698023Y-121903444D01*
X136654566Y-121760183D01*
X136583994Y-121628154D01*
X136522354Y-121553045D01*
X136512819Y-121541426D01*
X136512815Y-121541422D01*
X136489021Y-121512429D01*
X136460028Y-121488635D01*
X129702375Y-114730984D01*
X129772068Y-114562729D01*
X129808000Y-114382089D01*
X129808000Y-114197911D01*
X129772068Y-114017271D01*
X129701586Y-113847111D01*
X129599262Y-113693972D01*
X129469028Y-113563738D01*
X129315889Y-113461414D01*
X129145729Y-113390932D01*
X128965089Y-113355000D01*
X128780911Y-113355000D01*
X128600271Y-113390932D01*
X128430111Y-113461414D01*
X128276972Y-113563738D01*
X128146738Y-113693972D01*
X128044414Y-113847111D01*
X127973932Y-114017271D01*
X127938000Y-114197911D01*
X127938000Y-114382089D01*
X127973932Y-114562729D01*
X128044414Y-114732889D01*
X128113000Y-114835535D01*
X128113000Y-114939088D01*
X128109324Y-114976410D01*
X128113000Y-115013732D01*
X128113000Y-115013742D01*
X128123997Y-115125395D01*
X128163089Y-115254265D01*
X128167454Y-115268656D01*
X128238026Y-115400686D01*
X128253721Y-115419810D01*
X128332999Y-115516411D01*
X128362003Y-115540214D01*
X135189021Y-122367234D01*
X135189021Y-123157876D01*
X135173990Y-123121589D01*
X135011475Y-122878368D01*
X134804632Y-122671525D01*
X134561411Y-122509010D01*
X134291158Y-122397068D01*
X134004260Y-122340000D01*
X133711740Y-122340000D01*
X133424842Y-122397068D01*
X133154589Y-122509010D01*
X132911368Y-122671525D01*
X132704525Y-122878368D01*
X132588000Y-123052760D01*
X132471475Y-122878368D01*
X132264632Y-122671525D01*
X132021411Y-122509010D01*
X131751158Y-122397068D01*
X131464260Y-122340000D01*
X131171740Y-122340000D01*
X130884842Y-122397068D01*
X130614589Y-122509010D01*
X130371368Y-122671525D01*
X130164525Y-122878368D01*
X130048000Y-123052760D01*
X129931475Y-122878368D01*
X129724632Y-122671525D01*
X129481411Y-122509010D01*
X129211158Y-122397068D01*
X128924260Y-122340000D01*
X128631740Y-122340000D01*
X128344842Y-122397068D01*
X128074589Y-122509010D01*
X127831368Y-122671525D01*
X127699513Y-122803380D01*
X127677502Y-122730820D01*
X127618537Y-122620506D01*
X127539185Y-122523815D01*
X127442494Y-122444463D01*
X127332180Y-122385498D01*
X127212482Y-122349188D01*
X127088000Y-122336928D01*
X125388000Y-122336928D01*
X125263518Y-122349188D01*
X125143820Y-122385498D01*
X125033506Y-122444463D01*
X124936815Y-122523815D01*
X124857463Y-122620506D01*
X124798498Y-122730820D01*
X124762188Y-122850518D01*
X124749928Y-122975000D01*
X124749928Y-124675000D01*
X124762188Y-124799482D01*
X124798498Y-124919180D01*
X124857463Y-125029494D01*
X124936815Y-125126185D01*
X125033506Y-125205537D01*
X125143820Y-125264502D01*
X125263518Y-125300812D01*
X125388000Y-125313072D01*
X127088000Y-125313072D01*
X127212482Y-125300812D01*
X127332180Y-125264502D01*
X127442494Y-125205537D01*
X127539185Y-125126185D01*
X127618537Y-125029494D01*
X127677502Y-124919180D01*
X127699513Y-124846620D01*
X127831368Y-124978475D01*
X128074589Y-125140990D01*
X128344842Y-125252932D01*
X128631740Y-125310000D01*
X128924260Y-125310000D01*
X129211158Y-125252932D01*
X129481411Y-125140990D01*
X129724632Y-124978475D01*
X129931475Y-124771632D01*
X130048000Y-124597240D01*
X130164525Y-124771632D01*
X130371368Y-124978475D01*
X130614589Y-125140990D01*
X130884842Y-125252932D01*
X131171740Y-125310000D01*
X131464260Y-125310000D01*
X131751158Y-125252932D01*
X132021411Y-125140990D01*
X132264632Y-124978475D01*
X132471475Y-124771632D01*
X132588000Y-124597240D01*
X132704525Y-124771632D01*
X132911368Y-124978475D01*
X133154589Y-125140990D01*
X133424842Y-125252932D01*
X133711740Y-125310000D01*
X134004260Y-125310000D01*
X134291158Y-125252932D01*
X134561411Y-125140990D01*
X134804632Y-124978475D01*
X135011475Y-124771632D01*
X135173990Y-124528411D01*
X135189020Y-124492124D01*
X135189020Y-125070484D01*
X135120434Y-125173131D01*
X135049952Y-125343291D01*
X135014020Y-125523931D01*
X135014020Y-125655000D01*
X111708000Y-125655000D01*
X111708000Y-122292323D01*
X112141000Y-122292323D01*
X112141000Y-122817677D01*
X112243492Y-123332935D01*
X112444536Y-123818298D01*
X112736406Y-124255113D01*
X113107887Y-124626594D01*
X113544702Y-124918464D01*
X114030065Y-125119508D01*
X114545323Y-125222000D01*
X115070677Y-125222000D01*
X115585935Y-125119508D01*
X116071298Y-124918464D01*
X116508113Y-124626594D01*
X116879594Y-124255113D01*
X117171464Y-123818298D01*
X117372508Y-123332935D01*
X117475000Y-122817677D01*
X117475000Y-122292323D01*
X117372508Y-121777065D01*
X117171464Y-121291702D01*
X116879594Y-120854887D01*
X116508113Y-120483406D01*
X116071298Y-120191536D01*
X115585935Y-119990492D01*
X115070677Y-119888000D01*
X114545323Y-119888000D01*
X114030065Y-119990492D01*
X113544702Y-120191536D01*
X113107887Y-120483406D01*
X112736406Y-120854887D01*
X112444536Y-121291702D01*
X112243492Y-121777065D01*
X112141000Y-122292323D01*
X111708000Y-122292323D01*
X111708000Y-108702391D01*
X122647000Y-108702391D01*
X122647000Y-109027609D01*
X122710447Y-109346579D01*
X122834903Y-109647042D01*
X123015585Y-109917451D01*
X123245549Y-110147415D01*
X123515958Y-110328097D01*
X123816421Y-110452553D01*
X124135391Y-110516000D01*
X124460609Y-110516000D01*
X124779579Y-110452553D01*
X125080042Y-110328097D01*
X125350451Y-110147415D01*
X125580415Y-109917451D01*
X125761097Y-109647042D01*
X125885553Y-109346579D01*
X125949000Y-109027609D01*
X125949000Y-108702391D01*
X125885553Y-108383421D01*
X125761097Y-108082958D01*
X125580415Y-107812549D01*
X125350451Y-107582585D01*
X125080042Y-107401903D01*
X124779579Y-107277447D01*
X124460609Y-107214000D01*
X124135391Y-107214000D01*
X123816421Y-107277447D01*
X123515958Y-107401903D01*
X123245549Y-107582585D01*
X123015585Y-107812549D01*
X122834903Y-108082958D01*
X122710447Y-108383421D01*
X122647000Y-108702391D01*
X111708000Y-108702391D01*
X111708000Y-103622391D01*
X122647000Y-103622391D01*
X122647000Y-103947609D01*
X122710447Y-104266579D01*
X122834903Y-104567042D01*
X123015585Y-104837451D01*
X123245549Y-105067415D01*
X123515958Y-105248097D01*
X123816421Y-105372553D01*
X124135391Y-105436000D01*
X124460609Y-105436000D01*
X124779579Y-105372553D01*
X125080042Y-105248097D01*
X125350451Y-105067415D01*
X125580415Y-104837451D01*
X125761097Y-104567042D01*
X125885553Y-104266579D01*
X125949000Y-103947609D01*
X125949000Y-103622391D01*
X125885553Y-103303421D01*
X125761097Y-103002958D01*
X125580415Y-102732549D01*
X125350451Y-102502585D01*
X125080042Y-102321903D01*
X124779579Y-102197447D01*
X124460609Y-102134000D01*
X124135391Y-102134000D01*
X123816421Y-102197447D01*
X123515958Y-102321903D01*
X123245549Y-102502585D01*
X123015585Y-102732549D01*
X122834903Y-103002958D01*
X122710447Y-103303421D01*
X122647000Y-103622391D01*
X111708000Y-103622391D01*
X111708000Y-89980999D01*
X113159323Y-89980999D01*
X113162999Y-90018322D01*
X113163000Y-91011651D01*
X113159323Y-91048983D01*
X113163000Y-91086316D01*
X113173997Y-91197969D01*
X113183494Y-91229276D01*
X113217453Y-91341229D01*
X113288025Y-91473259D01*
X113354291Y-91554003D01*
X113382999Y-91588984D01*
X113411996Y-91612782D01*
X113584205Y-91784991D01*
X113412001Y-91957196D01*
X113382998Y-91980998D01*
X113327870Y-92048173D01*
X113288025Y-92096723D01*
X113265765Y-92138368D01*
X113217453Y-92228753D01*
X113173996Y-92372014D01*
X113162999Y-92483667D01*
X113162999Y-92483677D01*
X113159323Y-92520999D01*
X113162999Y-92558322D01*
X113163000Y-99289077D01*
X113159323Y-99326409D01*
X113173997Y-99475394D01*
X113217453Y-99618655D01*
X113288025Y-99750685D01*
X113359200Y-99837411D01*
X113382999Y-99866410D01*
X113411997Y-99890208D01*
X116300596Y-102778808D01*
X116387322Y-102849982D01*
X116519352Y-102920554D01*
X116662612Y-102964011D01*
X116811598Y-102978685D01*
X116960584Y-102964011D01*
X117103845Y-102920554D01*
X117235874Y-102849982D01*
X117351599Y-102755009D01*
X117446572Y-102639284D01*
X117517144Y-102507255D01*
X117560601Y-102363994D01*
X117570083Y-102267718D01*
X117712801Y-102125000D01*
X127360678Y-102125000D01*
X127398000Y-102128676D01*
X127435322Y-102125000D01*
X127435333Y-102125000D01*
X127546986Y-102114003D01*
X127690247Y-102070546D01*
X127822276Y-101999974D01*
X127938001Y-101905001D01*
X127961803Y-101875998D01*
X128112801Y-101725000D01*
X133820678Y-101725000D01*
X133858000Y-101728676D01*
X133895322Y-101725000D01*
X133895333Y-101725000D01*
X134006986Y-101714003D01*
X134150247Y-101670546D01*
X134282276Y-101599974D01*
X134398001Y-101505001D01*
X134421804Y-101475997D01*
X139089649Y-96808153D01*
X139210729Y-96784068D01*
X139380889Y-96713586D01*
X139498048Y-96635303D01*
X139511250Y-96634003D01*
X139654511Y-96590546D01*
X139786540Y-96519974D01*
X139902265Y-96425001D01*
X139926068Y-96395997D01*
X139951809Y-96370256D01*
X140022983Y-96283530D01*
X140093555Y-96151500D01*
X140137012Y-96008240D01*
X140151686Y-95859255D01*
X140137012Y-95710269D01*
X140093555Y-95567008D01*
X140022983Y-95434979D01*
X139928010Y-95319254D01*
X139812285Y-95224281D01*
X139698000Y-95163194D01*
X139698000Y-79014799D01*
X141993001Y-81309801D01*
X141993002Y-94562659D01*
X141993001Y-94562669D01*
X141993001Y-94804466D01*
X141924415Y-94907112D01*
X141853933Y-95077272D01*
X141818001Y-95257912D01*
X141818001Y-95442090D01*
X141853933Y-95622730D01*
X141924415Y-95792890D01*
X142026739Y-95946029D01*
X142156973Y-96076263D01*
X142310112Y-96178587D01*
X142480272Y-96249069D01*
X142660912Y-96285001D01*
X142845090Y-96285001D01*
X143025730Y-96249069D01*
X143195890Y-96178587D01*
X143349029Y-96076263D01*
X143479263Y-95946029D01*
X143581587Y-95792890D01*
X143652069Y-95622730D01*
X143688001Y-95442090D01*
X143688001Y-95257912D01*
X143652069Y-95077272D01*
X143581587Y-94907112D01*
X143513001Y-94804466D01*
X143513001Y-86512086D01*
X143575111Y-86553586D01*
X143745271Y-86624068D01*
X143925911Y-86660000D01*
X144110089Y-86660000D01*
X144290729Y-86624068D01*
X144460889Y-86553586D01*
X144614028Y-86451262D01*
X144744262Y-86321028D01*
X144846586Y-86167889D01*
X144917068Y-85997729D01*
X144953000Y-85817089D01*
X144953000Y-85632911D01*
X144917068Y-85452271D01*
X144846586Y-85282111D01*
X144744262Y-85128972D01*
X144614028Y-84998738D01*
X144528000Y-84941256D01*
X144528000Y-78650535D01*
X144596586Y-78547889D01*
X144667068Y-78377729D01*
X144703000Y-78197089D01*
X144703000Y-78012911D01*
X145373000Y-78012911D01*
X145373000Y-78197089D01*
X145408932Y-78377729D01*
X145479414Y-78547889D01*
X145548000Y-78650536D01*
X145548001Y-82547436D01*
X145508998Y-82676014D01*
X145498001Y-82787667D01*
X145498001Y-82787677D01*
X145494325Y-82824999D01*
X145497280Y-82855000D01*
X145494325Y-82885001D01*
X145498001Y-82922323D01*
X145498001Y-82922334D01*
X145508998Y-83033987D01*
X145552455Y-83177248D01*
X145623027Y-83309277D01*
X145631442Y-83319531D01*
X145658932Y-83457729D01*
X145729414Y-83627889D01*
X145831738Y-83781028D01*
X145961972Y-83911262D01*
X146115111Y-84013586D01*
X146285271Y-84084068D01*
X146465911Y-84120000D01*
X146650089Y-84120000D01*
X146830729Y-84084068D01*
X147000889Y-84013586D01*
X147154028Y-83911262D01*
X147284262Y-83781028D01*
X147386586Y-83627889D01*
X147457068Y-83457729D01*
X147493000Y-83277089D01*
X147493000Y-83092911D01*
X147457068Y-82912271D01*
X147386586Y-82742111D01*
X147284262Y-82588972D01*
X147154028Y-82458738D01*
X147068000Y-82401256D01*
X147068000Y-78650535D01*
X147136586Y-78547889D01*
X147207068Y-78377729D01*
X147243000Y-78197089D01*
X147243000Y-78012911D01*
X147913000Y-78012911D01*
X147913000Y-78197089D01*
X147948932Y-78377729D01*
X148019414Y-78547889D01*
X148088000Y-78650536D01*
X148088001Y-85807670D01*
X148084324Y-85845002D01*
X148088001Y-85882335D01*
X148098212Y-85986002D01*
X148098998Y-85993987D01*
X148142454Y-86137248D01*
X148213026Y-86269278D01*
X148257446Y-86323403D01*
X148308000Y-86385003D01*
X148336998Y-86408801D01*
X153254847Y-91326651D01*
X153278932Y-91447731D01*
X153349414Y-91617891D01*
X153451738Y-91771030D01*
X153581972Y-91901264D01*
X153735111Y-92003588D01*
X153905271Y-92074070D01*
X154085911Y-92110002D01*
X154270089Y-92110002D01*
X154450729Y-92074070D01*
X154620889Y-92003588D01*
X154774028Y-91901264D01*
X154904262Y-91771030D01*
X155006586Y-91617891D01*
X155077068Y-91447731D01*
X155113000Y-91267091D01*
X155113000Y-91082913D01*
X155077068Y-90902273D01*
X155006586Y-90732113D01*
X154904262Y-90578974D01*
X154774028Y-90448740D01*
X154620889Y-90346416D01*
X154450729Y-90275934D01*
X154329649Y-90251849D01*
X149608000Y-85530201D01*
X149608000Y-78650535D01*
X149676586Y-78547889D01*
X149747068Y-78377729D01*
X149783000Y-78197089D01*
X149783000Y-78012911D01*
X149747068Y-77832271D01*
X149676586Y-77662111D01*
X149574262Y-77508972D01*
X149444028Y-77378738D01*
X149290889Y-77276414D01*
X149120729Y-77205932D01*
X148940089Y-77170000D01*
X148755911Y-77170000D01*
X148575271Y-77205932D01*
X148405111Y-77276414D01*
X148251972Y-77378738D01*
X148121738Y-77508972D01*
X148019414Y-77662111D01*
X147948932Y-77832271D01*
X147913000Y-78012911D01*
X147243000Y-78012911D01*
X147207068Y-77832271D01*
X147136586Y-77662111D01*
X147034262Y-77508972D01*
X146904028Y-77378738D01*
X146750889Y-77276414D01*
X146580729Y-77205932D01*
X146400089Y-77170000D01*
X146215911Y-77170000D01*
X146035271Y-77205932D01*
X145865111Y-77276414D01*
X145711972Y-77378738D01*
X145581738Y-77508972D01*
X145479414Y-77662111D01*
X145408932Y-77832271D01*
X145373000Y-78012911D01*
X144703000Y-78012911D01*
X144667068Y-77832271D01*
X144596586Y-77662111D01*
X144494262Y-77508972D01*
X144364028Y-77378738D01*
X144210889Y-77276414D01*
X144040729Y-77205932D01*
X143860089Y-77170000D01*
X143675911Y-77170000D01*
X143495271Y-77205932D01*
X143325111Y-77276414D01*
X143171972Y-77378738D01*
X143041738Y-77508972D01*
X142939414Y-77662111D01*
X142868932Y-77832271D01*
X142833000Y-78012911D01*
X142833000Y-78197089D01*
X142868932Y-78377729D01*
X142939414Y-78547889D01*
X143008000Y-78650536D01*
X143008000Y-80175196D01*
X140046904Y-77214101D01*
X140247777Y-77194316D01*
X140530264Y-77108625D01*
X140790606Y-76969469D01*
X141018797Y-76782197D01*
X141206069Y-76554006D01*
X141224000Y-76520459D01*
X141241931Y-76554006D01*
X141429203Y-76782197D01*
X141657395Y-76969469D01*
X141917737Y-77108625D01*
X142200224Y-77194316D01*
X142494000Y-77223251D01*
X142787777Y-77194316D01*
X143070264Y-77108625D01*
X143330606Y-76969469D01*
X143558797Y-76782197D01*
X143746069Y-76554006D01*
X143764000Y-76520459D01*
X143781931Y-76554006D01*
X143969203Y-76782197D01*
X144197395Y-76969469D01*
X144457737Y-77108625D01*
X144740224Y-77194316D01*
X145034000Y-77223251D01*
X145327777Y-77194316D01*
X145610264Y-77108625D01*
X145870606Y-76969469D01*
X146098797Y-76782197D01*
X146286069Y-76554006D01*
X146304000Y-76520459D01*
X146321931Y-76554006D01*
X146509203Y-76782197D01*
X146737395Y-76969469D01*
X146997737Y-77108625D01*
X147280224Y-77194316D01*
X147574000Y-77223251D01*
X147867777Y-77194316D01*
X148150264Y-77108625D01*
X148410606Y-76969469D01*
X148638797Y-76782197D01*
X148826069Y-76554006D01*
X148844000Y-76520459D01*
X148861931Y-76554006D01*
X149049203Y-76782197D01*
X149277395Y-76969469D01*
X149537737Y-77108625D01*
X149820224Y-77194316D01*
X150114000Y-77223251D01*
X150407777Y-77194316D01*
X150690264Y-77108625D01*
X150950606Y-76969469D01*
X151178797Y-76782197D01*
X151366069Y-76554006D01*
X151384000Y-76520459D01*
X151401931Y-76554006D01*
X151589203Y-76782197D01*
X151817395Y-76969469D01*
X152077737Y-77108625D01*
X152360224Y-77194316D01*
X152654000Y-77223251D01*
X152947777Y-77194316D01*
X153230264Y-77108625D01*
X153490606Y-76969469D01*
X153718797Y-76782197D01*
X153906069Y-76554006D01*
X154045225Y-76293663D01*
X154130916Y-76011176D01*
X154152600Y-75791018D01*
X154152600Y-75338982D01*
X155219400Y-75338982D01*
X155219400Y-75791019D01*
X155241084Y-76011177D01*
X155326775Y-76293664D01*
X155465931Y-76554006D01*
X155653203Y-76782197D01*
X155881395Y-76969469D01*
X156141737Y-77108625D01*
X156424224Y-77194316D01*
X156718000Y-77223251D01*
X157011777Y-77194316D01*
X157294264Y-77108625D01*
X157554606Y-76969469D01*
X157782797Y-76782197D01*
X157970069Y-76554006D01*
X157988000Y-76520459D01*
X158005931Y-76554006D01*
X158193203Y-76782197D01*
X158421395Y-76969469D01*
X158681737Y-77108625D01*
X158964224Y-77194316D01*
X159258000Y-77223251D01*
X159551777Y-77194316D01*
X159834264Y-77108625D01*
X160094606Y-76969469D01*
X160322797Y-76782197D01*
X160510069Y-76554006D01*
X160528000Y-76520459D01*
X160545931Y-76554006D01*
X160733203Y-76782197D01*
X160961395Y-76969469D01*
X161221737Y-77108625D01*
X161504224Y-77194316D01*
X161557358Y-77199549D01*
X161525271Y-77205932D01*
X161355111Y-77276414D01*
X161201972Y-77378738D01*
X161071738Y-77508972D01*
X160969414Y-77662111D01*
X160898932Y-77832271D01*
X160874847Y-77953351D01*
X156481353Y-82346846D01*
X156360272Y-82370931D01*
X156190112Y-82441413D01*
X156036973Y-82543737D01*
X155906739Y-82673971D01*
X155804415Y-82827110D01*
X155733933Y-82997270D01*
X155698001Y-83177910D01*
X155698001Y-83362088D01*
X155733933Y-83542728D01*
X155804415Y-83712888D01*
X155906739Y-83866027D01*
X156036973Y-83996261D01*
X156190112Y-84098585D01*
X156360272Y-84169067D01*
X156540912Y-84204999D01*
X156725090Y-84204999D01*
X156905730Y-84169067D01*
X157075890Y-84098585D01*
X157229029Y-83996261D01*
X157359263Y-83866027D01*
X157461587Y-83712888D01*
X157532069Y-83542728D01*
X157556154Y-83421647D01*
X158160759Y-82817042D01*
X161075563Y-82817042D01*
X161131758Y-83048069D01*
X161365611Y-83156274D01*
X161616079Y-83216779D01*
X161873540Y-83227257D01*
X162128097Y-83187305D01*
X162369968Y-83098460D01*
X162464242Y-83048069D01*
X162508771Y-82865000D01*
X170659928Y-82865000D01*
X170659928Y-84465000D01*
X170672188Y-84589482D01*
X170708498Y-84709180D01*
X170767463Y-84819494D01*
X170846815Y-84916185D01*
X170943506Y-84995537D01*
X171053820Y-85054502D01*
X171173518Y-85090812D01*
X171298000Y-85103072D01*
X172898000Y-85103072D01*
X173022482Y-85090812D01*
X173142180Y-85054502D01*
X173252494Y-84995537D01*
X173349185Y-84916185D01*
X173428537Y-84819494D01*
X173487502Y-84709180D01*
X173503117Y-84657702D01*
X173784903Y-84657702D01*
X173856486Y-84901671D01*
X174111996Y-85022571D01*
X174386184Y-85091300D01*
X174668512Y-85105217D01*
X174948130Y-85063787D01*
X175214292Y-84968603D01*
X175339514Y-84901671D01*
X175411097Y-84657702D01*
X174598000Y-83844605D01*
X173784903Y-84657702D01*
X173503117Y-84657702D01*
X173523812Y-84589482D01*
X173536072Y-84465000D01*
X173536072Y-84457785D01*
X173605298Y-84478097D01*
X174418395Y-83665000D01*
X174777605Y-83665000D01*
X175590702Y-84478097D01*
X175834671Y-84406514D01*
X175955571Y-84151004D01*
X176024300Y-83876816D01*
X176038217Y-83594488D01*
X175996787Y-83314870D01*
X175901603Y-83048708D01*
X175834671Y-82923486D01*
X175590702Y-82851903D01*
X174777605Y-83665000D01*
X174418395Y-83665000D01*
X173605298Y-82851903D01*
X173536072Y-82872215D01*
X173536072Y-82865000D01*
X173523812Y-82740518D01*
X173503118Y-82672298D01*
X173784903Y-82672298D01*
X174598000Y-83485395D01*
X175411097Y-82672298D01*
X175339514Y-82428329D01*
X175084004Y-82307429D01*
X174809816Y-82238700D01*
X174527488Y-82224783D01*
X174247870Y-82266213D01*
X173981708Y-82361397D01*
X173856486Y-82428329D01*
X173784903Y-82672298D01*
X173503118Y-82672298D01*
X173487502Y-82620820D01*
X173428537Y-82510506D01*
X173349185Y-82413815D01*
X173252494Y-82334463D01*
X173142180Y-82275498D01*
X173022482Y-82239188D01*
X172898000Y-82226928D01*
X171298000Y-82226928D01*
X171173518Y-82239188D01*
X171053820Y-82275498D01*
X170943506Y-82334463D01*
X170846815Y-82413815D01*
X170767463Y-82510506D01*
X170708498Y-82620820D01*
X170672188Y-82740518D01*
X170659928Y-82865000D01*
X162508771Y-82865000D01*
X162520437Y-82817042D01*
X161798000Y-82094605D01*
X161075563Y-82817042D01*
X158160759Y-82817042D01*
X158987261Y-81990540D01*
X160485743Y-81990540D01*
X160525695Y-82245097D01*
X160614540Y-82486968D01*
X160664931Y-82581242D01*
X160895958Y-82637437D01*
X161618395Y-81915000D01*
X161977605Y-81915000D01*
X162700042Y-82637437D01*
X162931069Y-82581242D01*
X163039274Y-82347389D01*
X163099779Y-82096921D01*
X163110257Y-81839460D01*
X163070305Y-81584903D01*
X162981460Y-81343032D01*
X162931069Y-81248758D01*
X162700042Y-81192563D01*
X161977605Y-81915000D01*
X161618395Y-81915000D01*
X160895958Y-81192563D01*
X160664931Y-81248758D01*
X160556726Y-81482611D01*
X160496221Y-81733079D01*
X160485743Y-81990540D01*
X158987261Y-81990540D01*
X159964843Y-81012958D01*
X161075563Y-81012958D01*
X161798000Y-81735395D01*
X162520437Y-81012958D01*
X162464242Y-80781931D01*
X162230389Y-80673726D01*
X161979921Y-80613221D01*
X161722460Y-80602743D01*
X161467903Y-80642695D01*
X161226032Y-80731540D01*
X161131758Y-80781931D01*
X161075563Y-81012958D01*
X159964843Y-81012958D01*
X161949649Y-79028153D01*
X162070729Y-79004068D01*
X162240889Y-78933586D01*
X162394028Y-78831262D01*
X162524262Y-78701028D01*
X162626586Y-78547889D01*
X162697068Y-78377729D01*
X162733000Y-78197089D01*
X162733000Y-78012911D01*
X162697068Y-77832271D01*
X162626586Y-77662111D01*
X162524262Y-77508972D01*
X162394028Y-77378738D01*
X162240889Y-77276414D01*
X162070729Y-77205932D01*
X162038642Y-77199549D01*
X162091777Y-77194316D01*
X162374264Y-77108625D01*
X162634606Y-76969469D01*
X162862797Y-76782197D01*
X163050069Y-76554006D01*
X163068000Y-76520459D01*
X163085931Y-76554006D01*
X163273203Y-76782197D01*
X163501395Y-76969469D01*
X163761737Y-77108625D01*
X164044224Y-77194316D01*
X164338000Y-77223251D01*
X164631777Y-77194316D01*
X164914264Y-77108625D01*
X165174606Y-76969469D01*
X165402797Y-76782197D01*
X165590069Y-76554006D01*
X165608000Y-76520459D01*
X165625931Y-76554006D01*
X165813203Y-76782197D01*
X166041395Y-76969469D01*
X166301737Y-77108625D01*
X166584224Y-77194316D01*
X166878000Y-77223251D01*
X167171777Y-77194316D01*
X167454264Y-77108625D01*
X167714606Y-76969469D01*
X167942797Y-76782197D01*
X168130069Y-76554006D01*
X168148000Y-76520459D01*
X168165931Y-76554006D01*
X168353203Y-76782197D01*
X168581395Y-76969469D01*
X168841737Y-77108625D01*
X169124224Y-77194316D01*
X169418000Y-77223251D01*
X169711777Y-77194316D01*
X169994264Y-77108625D01*
X170254606Y-76969469D01*
X170482797Y-76782197D01*
X170670069Y-76554006D01*
X170688000Y-76520459D01*
X170705931Y-76554006D01*
X170893203Y-76782197D01*
X171121395Y-76969469D01*
X171381737Y-77108625D01*
X171664224Y-77194316D01*
X171958000Y-77223251D01*
X172251777Y-77194316D01*
X172534264Y-77108625D01*
X172794606Y-76969469D01*
X173022797Y-76782197D01*
X173210069Y-76554006D01*
X173228000Y-76520459D01*
X173245931Y-76554006D01*
X173433203Y-76782197D01*
X173661395Y-76969469D01*
X173921737Y-77108625D01*
X174204224Y-77194316D01*
X174498000Y-77223251D01*
X174791777Y-77194316D01*
X175074264Y-77108625D01*
X175334606Y-76969469D01*
X175562797Y-76782197D01*
X175750069Y-76554006D01*
X175889225Y-76293663D01*
X175974916Y-76011176D01*
X175996600Y-75791018D01*
X175996600Y-75338981D01*
X175974916Y-75118823D01*
X175889225Y-74836336D01*
X175750069Y-74575994D01*
X175562797Y-74347803D01*
X175334605Y-74160531D01*
X175074263Y-74021375D01*
X174791776Y-73935684D01*
X174498000Y-73906749D01*
X174204223Y-73935684D01*
X173921736Y-74021375D01*
X173661394Y-74160531D01*
X173433203Y-74347803D01*
X173245931Y-74575995D01*
X173228000Y-74609541D01*
X173210069Y-74575994D01*
X173022797Y-74347803D01*
X172794605Y-74160531D01*
X172534263Y-74021375D01*
X172251776Y-73935684D01*
X171958000Y-73906749D01*
X171664223Y-73935684D01*
X171381736Y-74021375D01*
X171121394Y-74160531D01*
X170893203Y-74347803D01*
X170705931Y-74575995D01*
X170688000Y-74609541D01*
X170670069Y-74575994D01*
X170482797Y-74347803D01*
X170254605Y-74160531D01*
X169994263Y-74021375D01*
X169711776Y-73935684D01*
X169418000Y-73906749D01*
X169124223Y-73935684D01*
X168841736Y-74021375D01*
X168581394Y-74160531D01*
X168353203Y-74347803D01*
X168165931Y-74575995D01*
X168148000Y-74609541D01*
X168130069Y-74575994D01*
X167942797Y-74347803D01*
X167714605Y-74160531D01*
X167454263Y-74021375D01*
X167171776Y-73935684D01*
X166878000Y-73906749D01*
X166584223Y-73935684D01*
X166301736Y-74021375D01*
X166041394Y-74160531D01*
X165813203Y-74347803D01*
X165625931Y-74575995D01*
X165608000Y-74609541D01*
X165590069Y-74575994D01*
X165402797Y-74347803D01*
X165174605Y-74160531D01*
X164914263Y-74021375D01*
X164631776Y-73935684D01*
X164338000Y-73906749D01*
X164044223Y-73935684D01*
X163761736Y-74021375D01*
X163501394Y-74160531D01*
X163273203Y-74347803D01*
X163085931Y-74575995D01*
X163068000Y-74609541D01*
X163050069Y-74575994D01*
X162862797Y-74347803D01*
X162634605Y-74160531D01*
X162374263Y-74021375D01*
X162091776Y-73935684D01*
X161798000Y-73906749D01*
X161504223Y-73935684D01*
X161221736Y-74021375D01*
X160961394Y-74160531D01*
X160733203Y-74347803D01*
X160545931Y-74575995D01*
X160528000Y-74609541D01*
X160510069Y-74575994D01*
X160322797Y-74347803D01*
X160094605Y-74160531D01*
X159834263Y-74021375D01*
X159551776Y-73935684D01*
X159258000Y-73906749D01*
X158964223Y-73935684D01*
X158681736Y-74021375D01*
X158421394Y-74160531D01*
X158193203Y-74347803D01*
X158005931Y-74575995D01*
X157988000Y-74609541D01*
X157970069Y-74575994D01*
X157782797Y-74347803D01*
X157554605Y-74160531D01*
X157294263Y-74021375D01*
X157011776Y-73935684D01*
X156718000Y-73906749D01*
X156424223Y-73935684D01*
X156141736Y-74021375D01*
X155881394Y-74160531D01*
X155653203Y-74347803D01*
X155465931Y-74575995D01*
X155326775Y-74836337D01*
X155241084Y-75118824D01*
X155219400Y-75338982D01*
X154152600Y-75338982D01*
X154152600Y-75338981D01*
X154130916Y-75118823D01*
X154045225Y-74836336D01*
X153906069Y-74575994D01*
X153718797Y-74347803D01*
X153490605Y-74160531D01*
X153230263Y-74021375D01*
X152947776Y-73935684D01*
X152654000Y-73906749D01*
X152360223Y-73935684D01*
X152077736Y-74021375D01*
X151817394Y-74160531D01*
X151589203Y-74347803D01*
X151401931Y-74575995D01*
X151384000Y-74609541D01*
X151366069Y-74575994D01*
X151178797Y-74347803D01*
X150950605Y-74160531D01*
X150690263Y-74021375D01*
X150407776Y-73935684D01*
X150114000Y-73906749D01*
X149820223Y-73935684D01*
X149537736Y-74021375D01*
X149277394Y-74160531D01*
X149049203Y-74347803D01*
X148861931Y-74575995D01*
X148844000Y-74609541D01*
X148826069Y-74575994D01*
X148638797Y-74347803D01*
X148410605Y-74160531D01*
X148150263Y-74021375D01*
X147867776Y-73935684D01*
X147574000Y-73906749D01*
X147280223Y-73935684D01*
X146997736Y-74021375D01*
X146737394Y-74160531D01*
X146509203Y-74347803D01*
X146321931Y-74575995D01*
X146304000Y-74609541D01*
X146286069Y-74575994D01*
X146098797Y-74347803D01*
X145870605Y-74160531D01*
X145610263Y-74021375D01*
X145327776Y-73935684D01*
X145034000Y-73906749D01*
X144740223Y-73935684D01*
X144457736Y-74021375D01*
X144197394Y-74160531D01*
X143969203Y-74347803D01*
X143781931Y-74575995D01*
X143764000Y-74609541D01*
X143746069Y-74575994D01*
X143558797Y-74347803D01*
X143330605Y-74160531D01*
X143070263Y-74021375D01*
X142787776Y-73935684D01*
X142494000Y-73906749D01*
X142200223Y-73935684D01*
X141917736Y-74021375D01*
X141657394Y-74160531D01*
X141429203Y-74347803D01*
X141241931Y-74575995D01*
X141224000Y-74609541D01*
X141206069Y-74575994D01*
X141018797Y-74347803D01*
X140790605Y-74160531D01*
X140530263Y-74021375D01*
X140247776Y-73935684D01*
X139954000Y-73906749D01*
X139660223Y-73935684D01*
X139377736Y-74021375D01*
X139117394Y-74160531D01*
X138889203Y-74347803D01*
X138701931Y-74575995D01*
X138680576Y-74615947D01*
X138532486Y-74413271D01*
X138316035Y-74214267D01*
X138064919Y-74061314D01*
X137788789Y-73960291D01*
X137773026Y-73957642D01*
X137541000Y-74078783D01*
X137541000Y-75438000D01*
X137561000Y-75438000D01*
X137561000Y-75692000D01*
X137541000Y-75692000D01*
X137541000Y-77051217D01*
X137773026Y-77172358D01*
X137788789Y-77169709D01*
X137922352Y-77120845D01*
X137801996Y-77241200D01*
X137772999Y-77264998D01*
X137749201Y-77293996D01*
X137749200Y-77293997D01*
X137678025Y-77380723D01*
X137664662Y-77405724D01*
X137607453Y-77512752D01*
X137563996Y-77656013D01*
X137552999Y-77767666D01*
X137552999Y-77767677D01*
X137549323Y-77804999D01*
X137552999Y-77842321D01*
X137552999Y-78367679D01*
X137549323Y-78405001D01*
X137552999Y-78442323D01*
X137552999Y-78442333D01*
X137563996Y-78553986D01*
X137584904Y-78622911D01*
X137607453Y-78697247D01*
X137678025Y-78829277D01*
X137713283Y-78872238D01*
X137727991Y-78890160D01*
X137727990Y-93105000D01*
X129337066Y-93105000D01*
X126586068Y-90354003D01*
X126562265Y-90324999D01*
X126446540Y-90230026D01*
X126314511Y-90159454D01*
X126171250Y-90115997D01*
X126158048Y-90114697D01*
X126040889Y-90036414D01*
X126011290Y-90024154D01*
X125890246Y-89959454D01*
X125746986Y-89915997D01*
X125598000Y-89901324D01*
X125449014Y-89915997D01*
X125305753Y-89959454D01*
X125184710Y-90024154D01*
X125155111Y-90036414D01*
X125001972Y-90138738D01*
X124871738Y-90268972D01*
X124776113Y-90412085D01*
X123713198Y-91475001D01*
X116262587Y-91475001D01*
X116413990Y-91248411D01*
X116525932Y-90978158D01*
X116583000Y-90691260D01*
X116583000Y-90398740D01*
X116525932Y-90111842D01*
X116413990Y-89841589D01*
X116251475Y-89598368D01*
X116044632Y-89391525D01*
X115870240Y-89275000D01*
X116044632Y-89158475D01*
X116251475Y-88951632D01*
X116413990Y-88708411D01*
X116525932Y-88438158D01*
X116583000Y-88151260D01*
X116583000Y-87858740D01*
X116536506Y-87625000D01*
X120009928Y-87625000D01*
X120009928Y-87715000D01*
X120022188Y-87839482D01*
X120058498Y-87959180D01*
X120117463Y-88069494D01*
X120196815Y-88166185D01*
X120293506Y-88245537D01*
X120403820Y-88304502D01*
X120523518Y-88340812D01*
X120648000Y-88353072D01*
X122348000Y-88353072D01*
X122472482Y-88340812D01*
X122592180Y-88304502D01*
X122702494Y-88245537D01*
X122799185Y-88166185D01*
X122878537Y-88069494D01*
X122937502Y-87959180D01*
X122959513Y-87886620D01*
X123091368Y-88018475D01*
X123334589Y-88180990D01*
X123604842Y-88292932D01*
X123891740Y-88350000D01*
X124184260Y-88350000D01*
X124404408Y-88306209D01*
X125744201Y-89646003D01*
X125767999Y-89675001D01*
X125883724Y-89769974D01*
X126015753Y-89840546D01*
X126159014Y-89884003D01*
X126270667Y-89895000D01*
X126270675Y-89895000D01*
X126308000Y-89898676D01*
X126345325Y-89895000D01*
X131832465Y-89895000D01*
X131935111Y-89963586D01*
X132105271Y-90034068D01*
X132285911Y-90070000D01*
X132470089Y-90070000D01*
X132650729Y-90034068D01*
X132820889Y-89963586D01*
X132974028Y-89861262D01*
X133104262Y-89731028D01*
X133206586Y-89577889D01*
X133277068Y-89407729D01*
X133313000Y-89227089D01*
X133313000Y-89042911D01*
X133277068Y-88862271D01*
X133206586Y-88692111D01*
X133138000Y-88589465D01*
X133138000Y-79364799D01*
X134878000Y-81104800D01*
X134878001Y-86239463D01*
X134809414Y-86342111D01*
X134738932Y-86512271D01*
X134703000Y-86692911D01*
X134703000Y-86877089D01*
X134738932Y-87057729D01*
X134809414Y-87227889D01*
X134911738Y-87381028D01*
X135041972Y-87511262D01*
X135195111Y-87613586D01*
X135365271Y-87684068D01*
X135545911Y-87720000D01*
X135730089Y-87720000D01*
X135910729Y-87684068D01*
X136080889Y-87613586D01*
X136234028Y-87511262D01*
X136364262Y-87381028D01*
X136466586Y-87227889D01*
X136537068Y-87057729D01*
X136573000Y-86877089D01*
X136573000Y-86692911D01*
X136537068Y-86512271D01*
X136466586Y-86342111D01*
X136398000Y-86239465D01*
X136398000Y-80827323D01*
X136401676Y-80789998D01*
X136398000Y-80752673D01*
X136398000Y-80752665D01*
X136387003Y-80641012D01*
X136343546Y-80497751D01*
X136272974Y-80365722D01*
X136178001Y-80249997D01*
X136149004Y-80226200D01*
X133241805Y-77319002D01*
X133218002Y-77289998D01*
X133102277Y-77195025D01*
X132970248Y-77124453D01*
X132913090Y-77107115D01*
X133170606Y-76969469D01*
X133398797Y-76782197D01*
X133586069Y-76554006D01*
X133604000Y-76520459D01*
X133621931Y-76554006D01*
X133809203Y-76782197D01*
X134037395Y-76969469D01*
X134297737Y-77108625D01*
X134580224Y-77194316D01*
X134874000Y-77223251D01*
X135167777Y-77194316D01*
X135450264Y-77108625D01*
X135710606Y-76969469D01*
X135938797Y-76782197D01*
X136126069Y-76554006D01*
X136147424Y-76514053D01*
X136295514Y-76716729D01*
X136511965Y-76915733D01*
X136763081Y-77068686D01*
X137039211Y-77169709D01*
X137054974Y-77172358D01*
X137287000Y-77051217D01*
X137287000Y-75692000D01*
X137267000Y-75692000D01*
X137267000Y-75438000D01*
X137287000Y-75438000D01*
X137287000Y-74078783D01*
X137054974Y-73957642D01*
X137039211Y-73960291D01*
X136763081Y-74061314D01*
X136511965Y-74214267D01*
X136295514Y-74413271D01*
X136147424Y-74615947D01*
X136126069Y-74575994D01*
X135938797Y-74347803D01*
X135710605Y-74160531D01*
X135450263Y-74021375D01*
X135167776Y-73935684D01*
X134874000Y-73906749D01*
X134580223Y-73935684D01*
X134297736Y-74021375D01*
X134037394Y-74160531D01*
X133809203Y-74347803D01*
X133621931Y-74575995D01*
X133604000Y-74609541D01*
X133586069Y-74575994D01*
X133398797Y-74347803D01*
X133170605Y-74160531D01*
X132910263Y-74021375D01*
X132627776Y-73935684D01*
X132334000Y-73906749D01*
X132040223Y-73935684D01*
X131757736Y-74021375D01*
X131497394Y-74160531D01*
X131269203Y-74347803D01*
X131081931Y-74575995D01*
X131064000Y-74609541D01*
X131046069Y-74575994D01*
X130858797Y-74347803D01*
X130630605Y-74160531D01*
X130370263Y-74021375D01*
X130087776Y-73935684D01*
X129794000Y-73906749D01*
X129500223Y-73935684D01*
X129217736Y-74021375D01*
X128957394Y-74160531D01*
X128729203Y-74347803D01*
X128541931Y-74575995D01*
X128402775Y-74836337D01*
X128317084Y-75118824D01*
X128295400Y-75338982D01*
X128295400Y-75791019D01*
X128317084Y-76011177D01*
X128402775Y-76293664D01*
X128541931Y-76554006D01*
X128729203Y-76782197D01*
X128957395Y-76969469D01*
X129217737Y-77108625D01*
X129500224Y-77194316D01*
X129794000Y-77223251D01*
X130087777Y-77194316D01*
X130370264Y-77108625D01*
X130630606Y-76969469D01*
X130858797Y-76782197D01*
X131046069Y-76554006D01*
X131064000Y-76520459D01*
X131081931Y-76554006D01*
X131269203Y-76782197D01*
X131497395Y-76969469D01*
X131685473Y-77069999D01*
X130780323Y-77069999D01*
X130743000Y-77066323D01*
X130705677Y-77069999D01*
X130705668Y-77069999D01*
X130594015Y-77080996D01*
X130450754Y-77124453D01*
X130318725Y-77195025D01*
X130318723Y-77195026D01*
X130318724Y-77195026D01*
X130231997Y-77266200D01*
X130231993Y-77266204D01*
X130203000Y-77289998D01*
X130179206Y-77318991D01*
X129706351Y-77791847D01*
X129585271Y-77815932D01*
X129415111Y-77886414D01*
X129261972Y-77988738D01*
X129131738Y-78118972D01*
X129029414Y-78272111D01*
X128958932Y-78442271D01*
X128923000Y-78622911D01*
X128923000Y-78807089D01*
X128958932Y-78987729D01*
X129029414Y-79157889D01*
X129098001Y-79260537D01*
X129098000Y-83270197D01*
X126944408Y-85423790D01*
X126724260Y-85380000D01*
X126431740Y-85380000D01*
X126144842Y-85437068D01*
X125874589Y-85549010D01*
X125631368Y-85711525D01*
X125424525Y-85918368D01*
X125308000Y-86092760D01*
X125191475Y-85918368D01*
X124984632Y-85711525D01*
X124741411Y-85549010D01*
X124471158Y-85437068D01*
X124184260Y-85380000D01*
X123891740Y-85380000D01*
X123604842Y-85437068D01*
X123334589Y-85549010D01*
X123091368Y-85711525D01*
X122959513Y-85843380D01*
X122937502Y-85770820D01*
X122878537Y-85660506D01*
X122799185Y-85563815D01*
X122702494Y-85484463D01*
X122592180Y-85425498D01*
X122472482Y-85389188D01*
X122348000Y-85376928D01*
X120648000Y-85376928D01*
X120523518Y-85389188D01*
X120403820Y-85425498D01*
X120293506Y-85484463D01*
X120196815Y-85563815D01*
X120117463Y-85660506D01*
X120058498Y-85770820D01*
X120022188Y-85890518D01*
X120009928Y-86015000D01*
X120009928Y-86105000D01*
X116586072Y-86105000D01*
X116586072Y-84615000D01*
X116573812Y-84490518D01*
X116537502Y-84370820D01*
X116478537Y-84260506D01*
X116399185Y-84163815D01*
X116302494Y-84084463D01*
X116192180Y-84025498D01*
X116072482Y-83989188D01*
X115948000Y-83976928D01*
X114248000Y-83976928D01*
X114123518Y-83989188D01*
X114003820Y-84025498D01*
X113893506Y-84084463D01*
X113796815Y-84163815D01*
X113717463Y-84260506D01*
X113658498Y-84370820D01*
X113622188Y-84490518D01*
X113609928Y-84615000D01*
X113609928Y-86315000D01*
X113622188Y-86439482D01*
X113658498Y-86559180D01*
X113717463Y-86669494D01*
X113796815Y-86766185D01*
X113893506Y-86845537D01*
X114003820Y-86904502D01*
X114076380Y-86926513D01*
X113944525Y-87058368D01*
X113782010Y-87301589D01*
X113670068Y-87571842D01*
X113613000Y-87858740D01*
X113613000Y-88151260D01*
X113670068Y-88438158D01*
X113782010Y-88708411D01*
X113917704Y-88911492D01*
X113412002Y-89417195D01*
X113382998Y-89440998D01*
X113330472Y-89505002D01*
X113288025Y-89556723D01*
X113217454Y-89688752D01*
X113217453Y-89688753D01*
X113173996Y-89832014D01*
X113162999Y-89943667D01*
X113162999Y-89943677D01*
X113159323Y-89980999D01*
X111708000Y-89980999D01*
X111708000Y-82272911D01*
X115363000Y-82272911D01*
X115363000Y-82457089D01*
X115398932Y-82637729D01*
X115469414Y-82807889D01*
X115571738Y-82961028D01*
X115701972Y-83091262D01*
X115855111Y-83193586D01*
X116025271Y-83264068D01*
X116205911Y-83300000D01*
X116390089Y-83300000D01*
X116570729Y-83264068D01*
X116740889Y-83193586D01*
X116894028Y-83091262D01*
X117024262Y-82961028D01*
X117126586Y-82807889D01*
X117197068Y-82637729D01*
X117221153Y-82516649D01*
X118212802Y-81525000D01*
X125352465Y-81525000D01*
X125455111Y-81593586D01*
X125625271Y-81664068D01*
X125805911Y-81700000D01*
X125990089Y-81700000D01*
X126170729Y-81664068D01*
X126340889Y-81593586D01*
X126494028Y-81491262D01*
X126624262Y-81361028D01*
X126726586Y-81207889D01*
X126797068Y-81037729D01*
X126833000Y-80857089D01*
X126833000Y-80672911D01*
X126797068Y-80492271D01*
X126726586Y-80322111D01*
X126624262Y-80168972D01*
X126494028Y-80038738D01*
X126340889Y-79936414D01*
X126170729Y-79865932D01*
X125990089Y-79830000D01*
X125805911Y-79830000D01*
X125625271Y-79865932D01*
X125455111Y-79936414D01*
X125352465Y-80005000D01*
X117935325Y-80005000D01*
X117898000Y-80001324D01*
X117860675Y-80005000D01*
X117860667Y-80005000D01*
X117749014Y-80015997D01*
X117605753Y-80059454D01*
X117473724Y-80130026D01*
X117357999Y-80224999D01*
X117334201Y-80253997D01*
X116146351Y-81441847D01*
X116025271Y-81465932D01*
X115855111Y-81536414D01*
X115701972Y-81638738D01*
X115571738Y-81768972D01*
X115469414Y-81922111D01*
X115398932Y-82092271D01*
X115363000Y-82272911D01*
X111708000Y-82272911D01*
X111708000Y-76572323D01*
X112141000Y-76572323D01*
X112141000Y-77097677D01*
X112243492Y-77612935D01*
X112444536Y-78098298D01*
X112736406Y-78535113D01*
X113107887Y-78906594D01*
X113544702Y-79198464D01*
X114030065Y-79399508D01*
X114545323Y-79502000D01*
X115070677Y-79502000D01*
X115585935Y-79399508D01*
X116071298Y-79198464D01*
X116508113Y-78906594D01*
X116879594Y-78535113D01*
X117171464Y-78098298D01*
X117372508Y-77612935D01*
X117475000Y-77097677D01*
X117475000Y-76572323D01*
X117372508Y-76057065D01*
X117171464Y-75571702D01*
X116879594Y-75134887D01*
X116508113Y-74763406D01*
X116071298Y-74471536D01*
X115585935Y-74270492D01*
X115070677Y-74168000D01*
X114545323Y-74168000D01*
X114030065Y-74270492D01*
X113544702Y-74471536D01*
X113107887Y-74763406D01*
X112736406Y-75134887D01*
X112444536Y-75571702D01*
X112243492Y-76057065D01*
X112141000Y-76572323D01*
X111708000Y-76572323D01*
X111708000Y-73735000D01*
X175219909Y-73735000D01*
X176328001Y-74843093D01*
G37*
X176328001Y-74843093D02*
X176328000Y-85944125D01*
X176324565Y-85979000D01*
X176328000Y-86013875D01*
X176328000Y-86013876D01*
X176338273Y-86118183D01*
X176378872Y-86252019D01*
X176444800Y-86375362D01*
X176533525Y-86483474D01*
X176560617Y-86505708D01*
X178868001Y-88813093D01*
X178868001Y-88863294D01*
X178738113Y-88733406D01*
X178301298Y-88441536D01*
X177815935Y-88240492D01*
X177300677Y-88138000D01*
X176775323Y-88138000D01*
X176260065Y-88240492D01*
X175774702Y-88441536D01*
X175337887Y-88733406D01*
X174966406Y-89104887D01*
X174674536Y-89541702D01*
X174473492Y-90027065D01*
X174371000Y-90542323D01*
X174371000Y-91067677D01*
X174473492Y-91582935D01*
X174674536Y-92068298D01*
X174966406Y-92505113D01*
X175337887Y-92876594D01*
X175774702Y-93168464D01*
X176260065Y-93369508D01*
X176775323Y-93472000D01*
X177300677Y-93472000D01*
X177815935Y-93369508D01*
X178301298Y-93168464D01*
X178738113Y-92876594D01*
X178868001Y-92746706D01*
X178868000Y-116803293D01*
X178738113Y-116673406D01*
X178301298Y-116381536D01*
X177815935Y-116180492D01*
X177300677Y-116078000D01*
X176775323Y-116078000D01*
X176260065Y-116180492D01*
X175774702Y-116381536D01*
X175337887Y-116673406D01*
X174966406Y-117044887D01*
X174674536Y-117481702D01*
X174473492Y-117967065D01*
X174371000Y-118482323D01*
X174371000Y-119007677D01*
X174473492Y-119522935D01*
X174674536Y-120008298D01*
X174966406Y-120445113D01*
X175337887Y-120816594D01*
X175774702Y-121108464D01*
X176260065Y-121309508D01*
X176775323Y-121412000D01*
X177300677Y-121412000D01*
X177815935Y-121309508D01*
X178301298Y-121108464D01*
X178738113Y-120816594D01*
X178868000Y-120686707D01*
X178868000Y-120990908D01*
X176560617Y-123298292D01*
X176533526Y-123320525D01*
X176511293Y-123347616D01*
X176444801Y-123428637D01*
X176378872Y-123551981D01*
X176338274Y-123685816D01*
X176324565Y-123825000D01*
X176328001Y-123859885D01*
X176328000Y-125655000D01*
X170565212Y-125655000D01*
X171049635Y-125170577D01*
X171121395Y-125229469D01*
X171381737Y-125368625D01*
X171664224Y-125454316D01*
X171958000Y-125483251D01*
X172251777Y-125454316D01*
X172534264Y-125368625D01*
X172794606Y-125229469D01*
X173022797Y-125042197D01*
X173210069Y-124814006D01*
X173228000Y-124780459D01*
X173245931Y-124814006D01*
X173433203Y-125042197D01*
X173661395Y-125229469D01*
X173921737Y-125368625D01*
X174204224Y-125454316D01*
X174498000Y-125483251D01*
X174791777Y-125454316D01*
X175074264Y-125368625D01*
X175334606Y-125229469D01*
X175562797Y-125042197D01*
X175750069Y-124814006D01*
X175889225Y-124553663D01*
X175974916Y-124271176D01*
X175996600Y-124051018D01*
X175996600Y-123598981D01*
X175974916Y-123378823D01*
X175889225Y-123096336D01*
X175750069Y-122835994D01*
X175562797Y-122607803D01*
X175334605Y-122420531D01*
X175074263Y-122281375D01*
X174791776Y-122195684D01*
X174498000Y-122166749D01*
X174204223Y-122195684D01*
X173921736Y-122281375D01*
X173661394Y-122420531D01*
X173433203Y-122607803D01*
X173245931Y-122835995D01*
X173228000Y-122869541D01*
X173210069Y-122835994D01*
X173022797Y-122607803D01*
X172794605Y-122420531D01*
X172534263Y-122281375D01*
X172251776Y-122195684D01*
X171958000Y-122166749D01*
X171664223Y-122195684D01*
X171381736Y-122281375D01*
X171121394Y-122420531D01*
X171011703Y-122510553D01*
X170474141Y-121972992D01*
X170450339Y-121943989D01*
X170334614Y-121849016D01*
X170202585Y-121778444D01*
X170059324Y-121734987D01*
X169947671Y-121723990D01*
X169947660Y-121723990D01*
X169910338Y-121720314D01*
X169873016Y-121723990D01*
X165168201Y-121723990D01*
X165237068Y-121557729D01*
X165273000Y-121377089D01*
X165273000Y-121192911D01*
X165237068Y-121012271D01*
X165166586Y-120842111D01*
X165098000Y-120739465D01*
X165098000Y-109130535D01*
X165166586Y-109027889D01*
X165237068Y-108857729D01*
X165273000Y-108677089D01*
X165273000Y-108492911D01*
X165237068Y-108312271D01*
X165166586Y-108142111D01*
X165064262Y-107988972D01*
X164934028Y-107858738D01*
X164780889Y-107756414D01*
X164610729Y-107685932D01*
X164430089Y-107650000D01*
X164245911Y-107650000D01*
X164065271Y-107685932D01*
X163895111Y-107756414D01*
X163741972Y-107858738D01*
X163611738Y-107988972D01*
X163509414Y-108142111D01*
X163438932Y-108312271D01*
X163403000Y-108492911D01*
X163403000Y-108677089D01*
X163438932Y-108857729D01*
X163509414Y-109027889D01*
X163578000Y-109130535D01*
X163578001Y-120739463D01*
X163509414Y-120842111D01*
X163438932Y-121012271D01*
X163403000Y-121192911D01*
X163403000Y-121377089D01*
X163438932Y-121557729D01*
X163507799Y-121723990D01*
X162628201Y-121723990D01*
X162697068Y-121557729D01*
X162733000Y-121377089D01*
X162733000Y-121192911D01*
X162697068Y-121012271D01*
X162626586Y-120842111D01*
X162558000Y-120739465D01*
X162558000Y-110400535D01*
X162626586Y-110297889D01*
X162697068Y-110127729D01*
X162733000Y-109947089D01*
X162733000Y-109762911D01*
X162697068Y-109582271D01*
X162626586Y-109412111D01*
X162524262Y-109258972D01*
X162394028Y-109128738D01*
X162240889Y-109026414D01*
X162070729Y-108955932D01*
X161890089Y-108920000D01*
X161705911Y-108920000D01*
X161525271Y-108955932D01*
X161355111Y-109026414D01*
X161201972Y-109128738D01*
X161071738Y-109258972D01*
X160969414Y-109412111D01*
X160898932Y-109582271D01*
X160863000Y-109762911D01*
X160863000Y-109947089D01*
X160898932Y-110127729D01*
X160969414Y-110297889D01*
X161038000Y-110400535D01*
X161038001Y-120739463D01*
X160969414Y-120842111D01*
X160898932Y-121012271D01*
X160863000Y-121192911D01*
X160863000Y-121377089D01*
X160898932Y-121557729D01*
X160966841Y-121721677D01*
X159798676Y-120553513D01*
X159774878Y-120524515D01*
X159724787Y-120483406D01*
X159659153Y-120429541D01*
X159527123Y-120358969D01*
X159427319Y-120328695D01*
X159383863Y-120315513D01*
X159272210Y-120304516D01*
X159234877Y-120300839D01*
X159197545Y-120304516D01*
X149780115Y-120304515D01*
X149787068Y-120287729D01*
X149823000Y-120107089D01*
X149823000Y-119922911D01*
X149787068Y-119742271D01*
X149736884Y-119621116D01*
X149741867Y-119595000D01*
X151419928Y-119595000D01*
X151432188Y-119719482D01*
X151468498Y-119839180D01*
X151527463Y-119949494D01*
X151606815Y-120046185D01*
X151703506Y-120125537D01*
X151813820Y-120184502D01*
X151933518Y-120220812D01*
X152058000Y-120233072D01*
X152622250Y-120230000D01*
X152781000Y-120071250D01*
X152781000Y-118872000D01*
X151581750Y-118872000D01*
X151423000Y-119030750D01*
X151419928Y-119595000D01*
X149741867Y-119595000D01*
X149876972Y-118887055D01*
X149887003Y-118853986D01*
X149890971Y-118813699D01*
X149891525Y-118810796D01*
X149894621Y-118776641D01*
X149898000Y-118742333D01*
X149898000Y-118739362D01*
X149901653Y-118699061D01*
X149898000Y-118664710D01*
X149898000Y-117895000D01*
X151419928Y-117895000D01*
X151423000Y-118459250D01*
X151581750Y-118618000D01*
X152781000Y-118618000D01*
X152781000Y-117418750D01*
X153035000Y-117418750D01*
X153035000Y-118618000D01*
X153055000Y-118618000D01*
X153055000Y-118872000D01*
X153035000Y-118872000D01*
X153035000Y-120071250D01*
X153193750Y-120230000D01*
X153758000Y-120233072D01*
X153882482Y-120220812D01*
X154002180Y-120184502D01*
X154112494Y-120125537D01*
X154209185Y-120046185D01*
X154288537Y-119949494D01*
X154347502Y-119839180D01*
X154369513Y-119766620D01*
X154501368Y-119898475D01*
X154744589Y-120060990D01*
X155014842Y-120172932D01*
X155301740Y-120230000D01*
X155594260Y-120230000D01*
X155881158Y-120172932D01*
X156151411Y-120060990D01*
X156394632Y-119898475D01*
X156601475Y-119691632D01*
X156718000Y-119517240D01*
X156834525Y-119691632D01*
X157041368Y-119898475D01*
X157284589Y-120060990D01*
X157554842Y-120172932D01*
X157841740Y-120230000D01*
X158134260Y-120230000D01*
X158421158Y-120172932D01*
X158691411Y-120060990D01*
X158934632Y-119898475D01*
X159141475Y-119691632D01*
X159303990Y-119448411D01*
X159415932Y-119178158D01*
X159473000Y-118891260D01*
X159473000Y-118598740D01*
X159415932Y-118311842D01*
X159303990Y-118041589D01*
X159141475Y-117798368D01*
X158934632Y-117591525D01*
X158691411Y-117429010D01*
X158421158Y-117317068D01*
X158134260Y-117260000D01*
X157841740Y-117260000D01*
X157554842Y-117317068D01*
X157284589Y-117429010D01*
X157041368Y-117591525D01*
X156834525Y-117798368D01*
X156718000Y-117972760D01*
X156601475Y-117798368D01*
X156394632Y-117591525D01*
X156151411Y-117429010D01*
X155881158Y-117317068D01*
X155594260Y-117260000D01*
X155301740Y-117260000D01*
X155014842Y-117317068D01*
X154744589Y-117429010D01*
X154501368Y-117591525D01*
X154369513Y-117723380D01*
X154347502Y-117650820D01*
X154288537Y-117540506D01*
X154209185Y-117443815D01*
X154112494Y-117364463D01*
X154002180Y-117305498D01*
X153882482Y-117269188D01*
X153758000Y-117256928D01*
X153193750Y-117260000D01*
X153035000Y-117418750D01*
X152781000Y-117418750D01*
X152622250Y-117260000D01*
X152058000Y-117256928D01*
X151933518Y-117269188D01*
X151813820Y-117305498D01*
X151703506Y-117364463D01*
X151606815Y-117443815D01*
X151527463Y-117540506D01*
X151468498Y-117650820D01*
X151432188Y-117770518D01*
X151419928Y-117895000D01*
X149898000Y-117895000D01*
X149898000Y-112940535D01*
X149966586Y-112837889D01*
X150037068Y-112667729D01*
X150061153Y-112546648D01*
X157475911Y-105131890D01*
X164166524Y-105131890D01*
X164211175Y-105279099D01*
X164336359Y-105541920D01*
X164510412Y-105775269D01*
X164726645Y-105970178D01*
X164976748Y-106119157D01*
X165251109Y-106216481D01*
X165481000Y-106095814D01*
X165481000Y-104902000D01*
X165735000Y-104902000D01*
X165735000Y-106095814D01*
X165964891Y-106216481D01*
X166239252Y-106119157D01*
X166489355Y-105970178D01*
X166705588Y-105775269D01*
X166879641Y-105541920D01*
X167004825Y-105279099D01*
X167049476Y-105131890D01*
X166928155Y-104902000D01*
X165735000Y-104902000D01*
X165481000Y-104902000D01*
X164287845Y-104902000D01*
X164166524Y-105131890D01*
X157475911Y-105131890D01*
X162112802Y-100495000D01*
X164119928Y-100495000D01*
X164119928Y-100545000D01*
X164132188Y-100669482D01*
X164168498Y-100789180D01*
X164227463Y-100899494D01*
X164306815Y-100996185D01*
X164403506Y-101075537D01*
X164513820Y-101134502D01*
X164586380Y-101156513D01*
X164454525Y-101288368D01*
X164292010Y-101531589D01*
X164180068Y-101801842D01*
X164123000Y-102088740D01*
X164123000Y-102381260D01*
X164180068Y-102668158D01*
X164292010Y-102938411D01*
X164454525Y-103181632D01*
X164661368Y-103388475D01*
X164843534Y-103510195D01*
X164726645Y-103579822D01*
X164510412Y-103774731D01*
X164336359Y-104008080D01*
X164211175Y-104270901D01*
X164166524Y-104418110D01*
X164287845Y-104648000D01*
X165481000Y-104648000D01*
X165481000Y-104628000D01*
X165735000Y-104628000D01*
X165735000Y-104648000D01*
X166928155Y-104648000D01*
X167049476Y-104418110D01*
X167004825Y-104270901D01*
X166879641Y-104008080D01*
X166705588Y-103774731D01*
X166489355Y-103579822D01*
X166372466Y-103510195D01*
X166554632Y-103388475D01*
X166761475Y-103181632D01*
X166923990Y-102938411D01*
X167035932Y-102668158D01*
X167093000Y-102381260D01*
X167093000Y-102088740D01*
X167035932Y-101801842D01*
X166923990Y-101531589D01*
X166761475Y-101288368D01*
X166629620Y-101156513D01*
X166702180Y-101134502D01*
X166812494Y-101075537D01*
X166909185Y-100996185D01*
X166988537Y-100899494D01*
X167047502Y-100789180D01*
X167083812Y-100669482D01*
X167096072Y-100545000D01*
X167096072Y-98845000D01*
X167083812Y-98720518D01*
X167047502Y-98600820D01*
X166988537Y-98490506D01*
X166909185Y-98393815D01*
X166812494Y-98314463D01*
X166702180Y-98255498D01*
X166582482Y-98219188D01*
X166458000Y-98206928D01*
X164758000Y-98206928D01*
X164633518Y-98219188D01*
X164513820Y-98255498D01*
X164403506Y-98314463D01*
X164306815Y-98393815D01*
X164227463Y-98490506D01*
X164168498Y-98600820D01*
X164132188Y-98720518D01*
X164119928Y-98845000D01*
X164119928Y-98975000D01*
X162558000Y-98975000D01*
X162558000Y-88810535D01*
X162626586Y-88707889D01*
X162697068Y-88537729D01*
X162733000Y-88357089D01*
X162733000Y-88248130D01*
X162825594Y-88198637D01*
X162922285Y-88119285D01*
X163001637Y-88022594D01*
X163060602Y-87912280D01*
X163096912Y-87792582D01*
X163109172Y-87668100D01*
X163109172Y-86614563D01*
X165480341Y-88985733D01*
X165463000Y-89072911D01*
X165463000Y-89257089D01*
X165493958Y-89412725D01*
X165499006Y-89463974D01*
X165531960Y-89572611D01*
X165537017Y-89589280D01*
X165542463Y-89607235D01*
X165613035Y-89739264D01*
X165708008Y-89854990D01*
X165823733Y-89949963D01*
X165955762Y-90020535D01*
X166036414Y-90045000D01*
X164883535Y-90045000D01*
X164780889Y-89976414D01*
X164610729Y-89905932D01*
X164430089Y-89870000D01*
X164245911Y-89870000D01*
X164065271Y-89905932D01*
X163895111Y-89976414D01*
X163741972Y-90078738D01*
X163611738Y-90208972D01*
X163509414Y-90362111D01*
X163438932Y-90532271D01*
X163403000Y-90712911D01*
X163403000Y-90897089D01*
X163438932Y-91077729D01*
X163509414Y-91247889D01*
X163611738Y-91401028D01*
X163741972Y-91531262D01*
X163895111Y-91633586D01*
X164065271Y-91704068D01*
X164245911Y-91740000D01*
X164430089Y-91740000D01*
X164610729Y-91704068D01*
X164780889Y-91633586D01*
X164883535Y-91565000D01*
X168872465Y-91565000D01*
X168975111Y-91633586D01*
X169145271Y-91704068D01*
X169325911Y-91740000D01*
X169510089Y-91740000D01*
X169690729Y-91704068D01*
X169860889Y-91633586D01*
X170014028Y-91531262D01*
X170144262Y-91401028D01*
X170246586Y-91247889D01*
X170317068Y-91077729D01*
X170353000Y-90897089D01*
X170353000Y-90712911D01*
X170317068Y-90532271D01*
X170246586Y-90362111D01*
X170144262Y-90208972D01*
X170014028Y-90078738D01*
X169860889Y-89976414D01*
X169690729Y-89905932D01*
X169510089Y-89870000D01*
X169325911Y-89870000D01*
X169145271Y-89905932D01*
X168975111Y-89976414D01*
X168872465Y-90045000D01*
X166716764Y-90045000D01*
X166840889Y-89993586D01*
X166994028Y-89891262D01*
X167124262Y-89761028D01*
X167226586Y-89607889D01*
X167297068Y-89437729D01*
X167333000Y-89257089D01*
X167333000Y-89072911D01*
X167297068Y-88892271D01*
X167226586Y-88722111D01*
X167124262Y-88568972D01*
X166994028Y-88438738D01*
X166963197Y-88418137D01*
X166953555Y-88386352D01*
X166882983Y-88254323D01*
X166788010Y-88138598D01*
X166759012Y-88114800D01*
X163680097Y-85035886D01*
X163656299Y-85006888D01*
X163609649Y-84968603D01*
X163540575Y-84911915D01*
X163408545Y-84841343D01*
X163392774Y-84836559D01*
X163265284Y-84797886D01*
X163153631Y-84786889D01*
X163153621Y-84786889D01*
X163116299Y-84783213D01*
X163078976Y-84786889D01*
X160715840Y-84786891D01*
X160678498Y-84783213D01*
X160529512Y-84797887D01*
X160523138Y-84799821D01*
X160566100Y-84583837D01*
X160566100Y-84326163D01*
X160515830Y-84073441D01*
X160417223Y-83835382D01*
X160274067Y-83621135D01*
X160091865Y-83438933D01*
X159877618Y-83295777D01*
X159639559Y-83197170D01*
X159386837Y-83146900D01*
X159129163Y-83146900D01*
X158876441Y-83197170D01*
X158638382Y-83295777D01*
X158424135Y-83438933D01*
X158241933Y-83621135D01*
X158098777Y-83835382D01*
X158000170Y-84073441D01*
X157949900Y-84326163D01*
X157949900Y-84583837D01*
X158000170Y-84836559D01*
X158098777Y-85074618D01*
X158241933Y-85288865D01*
X158424135Y-85471067D01*
X158638382Y-85614223D01*
X158876441Y-85712830D01*
X159129163Y-85763100D01*
X159386837Y-85763100D01*
X159387648Y-85762939D01*
X157836994Y-87313593D01*
X157807990Y-87337396D01*
X157752862Y-87404571D01*
X157713017Y-87453121D01*
X157651393Y-87568411D01*
X157642445Y-87585151D01*
X157598988Y-87728412D01*
X157587991Y-87840065D01*
X157587991Y-87840075D01*
X157584315Y-87877397D01*
X157587991Y-87914720D01*
X157587992Y-88777659D01*
X157584315Y-88814991D01*
X157587992Y-88852324D01*
X157598989Y-88963977D01*
X157601651Y-88972753D01*
X157642445Y-89107237D01*
X157713017Y-89239267D01*
X157780086Y-89320990D01*
X157807991Y-89354992D01*
X157836989Y-89378790D01*
X157874847Y-89416648D01*
X157898932Y-89537729D01*
X157969414Y-89707889D01*
X158071738Y-89861028D01*
X158201972Y-89991262D01*
X158355111Y-90093586D01*
X158525271Y-90164068D01*
X158705911Y-90200000D01*
X158890089Y-90200000D01*
X159070729Y-90164068D01*
X159240889Y-90093586D01*
X159394028Y-89991262D01*
X159524262Y-89861028D01*
X159626586Y-89707889D01*
X159697068Y-89537729D01*
X159733000Y-89357089D01*
X159733000Y-89172911D01*
X159697068Y-88992271D01*
X159626586Y-88822111D01*
X159524262Y-88668972D01*
X159394028Y-88538738D01*
X159240889Y-88436414D01*
X159107991Y-88381366D01*
X159107991Y-88192198D01*
X160486828Y-86813362D01*
X160486828Y-87668100D01*
X160499088Y-87792582D01*
X160535398Y-87912280D01*
X160594363Y-88022594D01*
X160673715Y-88119285D01*
X160770406Y-88198637D01*
X160863000Y-88248130D01*
X160863000Y-88357089D01*
X160898932Y-88537729D01*
X160969414Y-88707889D01*
X161038000Y-88810535D01*
X161038001Y-99420197D01*
X148986352Y-111471847D01*
X148865271Y-111495932D01*
X148695111Y-111566414D01*
X148541972Y-111668738D01*
X148411738Y-111798972D01*
X148309414Y-111952111D01*
X148238932Y-112122271D01*
X148203000Y-112302911D01*
X148203000Y-112487089D01*
X148238932Y-112667729D01*
X148309414Y-112837889D01*
X148378001Y-112940537D01*
X148378000Y-118633135D01*
X148243666Y-119337044D01*
X148161738Y-119418972D01*
X148059414Y-119572111D01*
X147988932Y-119742271D01*
X147953000Y-119922911D01*
X147953000Y-120107089D01*
X147988932Y-120287729D01*
X147995885Y-120304514D01*
X147358000Y-120304514D01*
X147358000Y-111480632D01*
X147432974Y-111389276D01*
X147503546Y-111257247D01*
X147547003Y-111113986D01*
X147561677Y-110965000D01*
X147547003Y-110816014D01*
X147503546Y-110672753D01*
X147458001Y-110587546D01*
X147458001Y-107082152D01*
X147594028Y-106991262D01*
X147724262Y-106861028D01*
X147826586Y-106707889D01*
X147897068Y-106537729D01*
X147933000Y-106357089D01*
X147933000Y-106172911D01*
X147897068Y-105992271D01*
X147826586Y-105822111D01*
X147724262Y-105668972D01*
X147594028Y-105538738D01*
X147440889Y-105436414D01*
X147270729Y-105365932D01*
X147090089Y-105330000D01*
X146905911Y-105330000D01*
X146725271Y-105365932D01*
X146555111Y-105436414D01*
X146401972Y-105538738D01*
X146271738Y-105668972D01*
X146169414Y-105822111D01*
X146098932Y-105992271D01*
X146071442Y-106130469D01*
X146063027Y-106140723D01*
X145996599Y-106265000D01*
X145992455Y-106272753D01*
X145948998Y-106416014D01*
X145938001Y-106527667D01*
X145938001Y-106527677D01*
X145934325Y-106564999D01*
X145938001Y-106602322D01*
X145938002Y-110587540D01*
X145892454Y-110672753D01*
X145848997Y-110816014D01*
X145834323Y-110965000D01*
X145838000Y-111002333D01*
X145838001Y-120754524D01*
X138362326Y-120754524D01*
X138258000Y-120650199D01*
X138258000Y-109779801D01*
X140969012Y-107068790D01*
X140998010Y-107044992D01*
X141092983Y-106929267D01*
X141163555Y-106797238D01*
X141207012Y-106653977D01*
X141218009Y-106542324D01*
X141218009Y-106542314D01*
X141221685Y-106504991D01*
X141218009Y-106467668D01*
X141218009Y-105705921D01*
X141221685Y-105668598D01*
X141218009Y-105631276D01*
X141218009Y-105631266D01*
X141207012Y-105519613D01*
X141163555Y-105376352D01*
X141092983Y-105244323D01*
X140998010Y-105128598D01*
X140969007Y-105104796D01*
X140758205Y-104893994D01*
X140734402Y-104864990D01*
X140618677Y-104770017D01*
X140486648Y-104699445D01*
X140343387Y-104655988D01*
X140231734Y-104644991D01*
X140231723Y-104644991D01*
X140194401Y-104641315D01*
X140157079Y-104644991D01*
X135695331Y-104644991D01*
X135658008Y-104641315D01*
X135620685Y-104644991D01*
X135620676Y-104644991D01*
X135509023Y-104655988D01*
X135365762Y-104699445D01*
X135233733Y-104770017D01*
X135233731Y-104770018D01*
X135233732Y-104770018D01*
X135147005Y-104841192D01*
X135147001Y-104841196D01*
X135118008Y-104864990D01*
X135094214Y-104893983D01*
X128746352Y-111241847D01*
X128625271Y-111265932D01*
X128455111Y-111336414D01*
X128301972Y-111438738D01*
X128171738Y-111568972D01*
X128069414Y-111722111D01*
X127998932Y-111892271D01*
X127963000Y-112072911D01*
X127963000Y-112257089D01*
X127998932Y-112437729D01*
X128069414Y-112607889D01*
X128171738Y-112761028D01*
X128301972Y-112891262D01*
X128455111Y-112993586D01*
X128625271Y-113064068D01*
X128805911Y-113100000D01*
X128990089Y-113100000D01*
X129170729Y-113064068D01*
X129340889Y-112993586D01*
X129494028Y-112891262D01*
X129624262Y-112761028D01*
X129726586Y-112607889D01*
X129797068Y-112437729D01*
X129821153Y-112316648D01*
X135972812Y-106164991D01*
X139698009Y-106164991D01*
X139698009Y-106190189D01*
X136987003Y-108901196D01*
X136957999Y-108924999D01*
X136902871Y-108992174D01*
X136863026Y-109040724D01*
X136835980Y-109091323D01*
X136792454Y-109172754D01*
X136748997Y-109316015D01*
X136738000Y-109427668D01*
X136738000Y-109427678D01*
X136734324Y-109465000D01*
X136738000Y-109502322D01*
X136738001Y-120927668D01*
X136734324Y-120965000D01*
X136738001Y-121002333D01*
X136744126Y-121064515D01*
X136748998Y-121113985D01*
X136792454Y-121257246D01*
X136863026Y-121389276D01*
X136934201Y-121476002D01*
X136958000Y-121505001D01*
X136986998Y-121528799D01*
X137483724Y-122025526D01*
X137507523Y-122054525D01*
X137623248Y-122149498D01*
X137755277Y-122220070D01*
X137898538Y-122263527D01*
X138010191Y-122274524D01*
X138010200Y-122274524D01*
X138047523Y-122278200D01*
X138084846Y-122274524D01*
X138384321Y-122274524D01*
X138361736Y-122281375D01*
X138101394Y-122420531D01*
X137873203Y-122607803D01*
X137685931Y-122835995D01*
X137546775Y-123096337D01*
X137461084Y-123378824D01*
X137439400Y-123598982D01*
X137439400Y-124051019D01*
X137461084Y-124271177D01*
X137546775Y-124553664D01*
X137685931Y-124814006D01*
X137873203Y-125042197D01*
X138101395Y-125229469D01*
X138361737Y-125368625D01*
X138644224Y-125454316D01*
X138938000Y-125483251D01*
X139231777Y-125454316D01*
X139514264Y-125368625D01*
X139774606Y-125229469D01*
X140002797Y-125042197D01*
X140190069Y-124814006D01*
X140208000Y-124780459D01*
X140225931Y-124814006D01*
X140413203Y-125042197D01*
X140641395Y-125229469D01*
X140901737Y-125368625D01*
X141184224Y-125454316D01*
X141478000Y-125483251D01*
X141771777Y-125454316D01*
X142054264Y-125368625D01*
X142314606Y-125229469D01*
X142542797Y-125042197D01*
X142730069Y-124814006D01*
X142748000Y-124780459D01*
X142765931Y-124814006D01*
X142953203Y-125042197D01*
X143181395Y-125229469D01*
X143441737Y-125368625D01*
X143724224Y-125454316D01*
X144018000Y-125483251D01*
X144311777Y-125454316D01*
X144594264Y-125368625D01*
X144854606Y-125229469D01*
X145082797Y-125042197D01*
X145270069Y-124814006D01*
X145288000Y-124780459D01*
X145305931Y-124814006D01*
X145493203Y-125042197D01*
X145721395Y-125229469D01*
X145981737Y-125368625D01*
X146264224Y-125454316D01*
X146558000Y-125483251D01*
X146851777Y-125454316D01*
X147134264Y-125368625D01*
X147394606Y-125229469D01*
X147622797Y-125042197D01*
X147810069Y-124814006D01*
X147828000Y-124780459D01*
X147845931Y-124814006D01*
X148033203Y-125042197D01*
X148261395Y-125229469D01*
X148521737Y-125368625D01*
X148804224Y-125454316D01*
X149098000Y-125483251D01*
X149391777Y-125454316D01*
X149674264Y-125368625D01*
X149934606Y-125229469D01*
X150162797Y-125042197D01*
X150350069Y-124814006D01*
X150371424Y-124774053D01*
X150519514Y-124976729D01*
X150735965Y-125175733D01*
X150987081Y-125328686D01*
X151263211Y-125429709D01*
X151278974Y-125432358D01*
X151511000Y-125311217D01*
X151511000Y-123952000D01*
X151765000Y-123952000D01*
X151765000Y-125311217D01*
X151997026Y-125432358D01*
X152012789Y-125429709D01*
X152288919Y-125328686D01*
X152540035Y-125175733D01*
X152756486Y-124976729D01*
X152908000Y-124769367D01*
X153059514Y-124976729D01*
X153275965Y-125175733D01*
X153527081Y-125328686D01*
X153803211Y-125429709D01*
X153818974Y-125432358D01*
X154051000Y-125311217D01*
X154051000Y-123952000D01*
X151765000Y-123952000D01*
X151511000Y-123952000D01*
X151491000Y-123952000D01*
X151491000Y-123698000D01*
X151511000Y-123698000D01*
X151511000Y-123678000D01*
X151765000Y-123678000D01*
X151765000Y-123698000D01*
X154051000Y-123698000D01*
X154051000Y-123678000D01*
X154305000Y-123678000D01*
X154305000Y-123698000D01*
X154325000Y-123698000D01*
X154325000Y-123952000D01*
X154305000Y-123952000D01*
X154305000Y-125311217D01*
X154537026Y-125432358D01*
X154552789Y-125429709D01*
X154828919Y-125328686D01*
X155080035Y-125175733D01*
X155296486Y-124976729D01*
X155444576Y-124774053D01*
X155465931Y-124814006D01*
X155653203Y-125042197D01*
X155881395Y-125229469D01*
X156141737Y-125368625D01*
X156424224Y-125454316D01*
X156718000Y-125483251D01*
X157011777Y-125454316D01*
X157294264Y-125368625D01*
X157554606Y-125229469D01*
X157782797Y-125042197D01*
X157864469Y-124942680D01*
X158576788Y-125655000D01*
X136884020Y-125655000D01*
X136884020Y-125523931D01*
X136848088Y-125343291D01*
X136777606Y-125173131D01*
X136709020Y-125070485D01*
X136709020Y-122089752D01*
X136712696Y-122052429D01*
X136709020Y-122015106D01*
X136709020Y-122015097D01*
X136698023Y-121903444D01*
X136654566Y-121760183D01*
X136583994Y-121628154D01*
X136522354Y-121553045D01*
X136512819Y-121541426D01*
X136512815Y-121541422D01*
X136489021Y-121512429D01*
X136460028Y-121488635D01*
X129702375Y-114730984D01*
X129772068Y-114562729D01*
X129808000Y-114382089D01*
X129808000Y-114197911D01*
X129772068Y-114017271D01*
X129701586Y-113847111D01*
X129599262Y-113693972D01*
X129469028Y-113563738D01*
X129315889Y-113461414D01*
X129145729Y-113390932D01*
X128965089Y-113355000D01*
X128780911Y-113355000D01*
X128600271Y-113390932D01*
X128430111Y-113461414D01*
X128276972Y-113563738D01*
X128146738Y-113693972D01*
X128044414Y-113847111D01*
X127973932Y-114017271D01*
X127938000Y-114197911D01*
X127938000Y-114382089D01*
X127973932Y-114562729D01*
X128044414Y-114732889D01*
X128113000Y-114835535D01*
X128113000Y-114939088D01*
X128109324Y-114976410D01*
X128113000Y-115013732D01*
X128113000Y-115013742D01*
X128123997Y-115125395D01*
X128163089Y-115254265D01*
X128167454Y-115268656D01*
X128238026Y-115400686D01*
X128253721Y-115419810D01*
X128332999Y-115516411D01*
X128362003Y-115540214D01*
X135189021Y-122367234D01*
X135189021Y-123157876D01*
X135173990Y-123121589D01*
X135011475Y-122878368D01*
X134804632Y-122671525D01*
X134561411Y-122509010D01*
X134291158Y-122397068D01*
X134004260Y-122340000D01*
X133711740Y-122340000D01*
X133424842Y-122397068D01*
X133154589Y-122509010D01*
X132911368Y-122671525D01*
X132704525Y-122878368D01*
X132588000Y-123052760D01*
X132471475Y-122878368D01*
X132264632Y-122671525D01*
X132021411Y-122509010D01*
X131751158Y-122397068D01*
X131464260Y-122340000D01*
X131171740Y-122340000D01*
X130884842Y-122397068D01*
X130614589Y-122509010D01*
X130371368Y-122671525D01*
X130164525Y-122878368D01*
X130048000Y-123052760D01*
X129931475Y-122878368D01*
X129724632Y-122671525D01*
X129481411Y-122509010D01*
X129211158Y-122397068D01*
X128924260Y-122340000D01*
X128631740Y-122340000D01*
X128344842Y-122397068D01*
X128074589Y-122509010D01*
X127831368Y-122671525D01*
X127699513Y-122803380D01*
X127677502Y-122730820D01*
X127618537Y-122620506D01*
X127539185Y-122523815D01*
X127442494Y-122444463D01*
X127332180Y-122385498D01*
X127212482Y-122349188D01*
X127088000Y-122336928D01*
X125388000Y-122336928D01*
X125263518Y-122349188D01*
X125143820Y-122385498D01*
X125033506Y-122444463D01*
X124936815Y-122523815D01*
X124857463Y-122620506D01*
X124798498Y-122730820D01*
X124762188Y-122850518D01*
X124749928Y-122975000D01*
X124749928Y-124675000D01*
X124762188Y-124799482D01*
X124798498Y-124919180D01*
X124857463Y-125029494D01*
X124936815Y-125126185D01*
X125033506Y-125205537D01*
X125143820Y-125264502D01*
X125263518Y-125300812D01*
X125388000Y-125313072D01*
X127088000Y-125313072D01*
X127212482Y-125300812D01*
X127332180Y-125264502D01*
X127442494Y-125205537D01*
X127539185Y-125126185D01*
X127618537Y-125029494D01*
X127677502Y-124919180D01*
X127699513Y-124846620D01*
X127831368Y-124978475D01*
X128074589Y-125140990D01*
X128344842Y-125252932D01*
X128631740Y-125310000D01*
X128924260Y-125310000D01*
X129211158Y-125252932D01*
X129481411Y-125140990D01*
X129724632Y-124978475D01*
X129931475Y-124771632D01*
X130048000Y-124597240D01*
X130164525Y-124771632D01*
X130371368Y-124978475D01*
X130614589Y-125140990D01*
X130884842Y-125252932D01*
X131171740Y-125310000D01*
X131464260Y-125310000D01*
X131751158Y-125252932D01*
X132021411Y-125140990D01*
X132264632Y-124978475D01*
X132471475Y-124771632D01*
X132588000Y-124597240D01*
X132704525Y-124771632D01*
X132911368Y-124978475D01*
X133154589Y-125140990D01*
X133424842Y-125252932D01*
X133711740Y-125310000D01*
X134004260Y-125310000D01*
X134291158Y-125252932D01*
X134561411Y-125140990D01*
X134804632Y-124978475D01*
X135011475Y-124771632D01*
X135173990Y-124528411D01*
X135189020Y-124492124D01*
X135189020Y-125070484D01*
X135120434Y-125173131D01*
X135049952Y-125343291D01*
X135014020Y-125523931D01*
X135014020Y-125655000D01*
X111708000Y-125655000D01*
X111708000Y-122292323D01*
X112141000Y-122292323D01*
X112141000Y-122817677D01*
X112243492Y-123332935D01*
X112444536Y-123818298D01*
X112736406Y-124255113D01*
X113107887Y-124626594D01*
X113544702Y-124918464D01*
X114030065Y-125119508D01*
X114545323Y-125222000D01*
X115070677Y-125222000D01*
X115585935Y-125119508D01*
X116071298Y-124918464D01*
X116508113Y-124626594D01*
X116879594Y-124255113D01*
X117171464Y-123818298D01*
X117372508Y-123332935D01*
X117475000Y-122817677D01*
X117475000Y-122292323D01*
X117372508Y-121777065D01*
X117171464Y-121291702D01*
X116879594Y-120854887D01*
X116508113Y-120483406D01*
X116071298Y-120191536D01*
X115585935Y-119990492D01*
X115070677Y-119888000D01*
X114545323Y-119888000D01*
X114030065Y-119990492D01*
X113544702Y-120191536D01*
X113107887Y-120483406D01*
X112736406Y-120854887D01*
X112444536Y-121291702D01*
X112243492Y-121777065D01*
X112141000Y-122292323D01*
X111708000Y-122292323D01*
X111708000Y-108702391D01*
X122647000Y-108702391D01*
X122647000Y-109027609D01*
X122710447Y-109346579D01*
X122834903Y-109647042D01*
X123015585Y-109917451D01*
X123245549Y-110147415D01*
X123515958Y-110328097D01*
X123816421Y-110452553D01*
X124135391Y-110516000D01*
X124460609Y-110516000D01*
X124779579Y-110452553D01*
X125080042Y-110328097D01*
X125350451Y-110147415D01*
X125580415Y-109917451D01*
X125761097Y-109647042D01*
X125885553Y-109346579D01*
X125949000Y-109027609D01*
X125949000Y-108702391D01*
X125885553Y-108383421D01*
X125761097Y-108082958D01*
X125580415Y-107812549D01*
X125350451Y-107582585D01*
X125080042Y-107401903D01*
X124779579Y-107277447D01*
X124460609Y-107214000D01*
X124135391Y-107214000D01*
X123816421Y-107277447D01*
X123515958Y-107401903D01*
X123245549Y-107582585D01*
X123015585Y-107812549D01*
X122834903Y-108082958D01*
X122710447Y-108383421D01*
X122647000Y-108702391D01*
X111708000Y-108702391D01*
X111708000Y-103622391D01*
X122647000Y-103622391D01*
X122647000Y-103947609D01*
X122710447Y-104266579D01*
X122834903Y-104567042D01*
X123015585Y-104837451D01*
X123245549Y-105067415D01*
X123515958Y-105248097D01*
X123816421Y-105372553D01*
X124135391Y-105436000D01*
X124460609Y-105436000D01*
X124779579Y-105372553D01*
X125080042Y-105248097D01*
X125350451Y-105067415D01*
X125580415Y-104837451D01*
X125761097Y-104567042D01*
X125885553Y-104266579D01*
X125949000Y-103947609D01*
X125949000Y-103622391D01*
X125885553Y-103303421D01*
X125761097Y-103002958D01*
X125580415Y-102732549D01*
X125350451Y-102502585D01*
X125080042Y-102321903D01*
X124779579Y-102197447D01*
X124460609Y-102134000D01*
X124135391Y-102134000D01*
X123816421Y-102197447D01*
X123515958Y-102321903D01*
X123245549Y-102502585D01*
X123015585Y-102732549D01*
X122834903Y-103002958D01*
X122710447Y-103303421D01*
X122647000Y-103622391D01*
X111708000Y-103622391D01*
X111708000Y-89980999D01*
X113159323Y-89980999D01*
X113162999Y-90018322D01*
X113163000Y-91011651D01*
X113159323Y-91048983D01*
X113163000Y-91086316D01*
X113173997Y-91197969D01*
X113183494Y-91229276D01*
X113217453Y-91341229D01*
X113288025Y-91473259D01*
X113354291Y-91554003D01*
X113382999Y-91588984D01*
X113411996Y-91612782D01*
X113584205Y-91784991D01*
X113412001Y-91957196D01*
X113382998Y-91980998D01*
X113327870Y-92048173D01*
X113288025Y-92096723D01*
X113265765Y-92138368D01*
X113217453Y-92228753D01*
X113173996Y-92372014D01*
X113162999Y-92483667D01*
X113162999Y-92483677D01*
X113159323Y-92520999D01*
X113162999Y-92558322D01*
X113163000Y-99289077D01*
X113159323Y-99326409D01*
X113173997Y-99475394D01*
X113217453Y-99618655D01*
X113288025Y-99750685D01*
X113359200Y-99837411D01*
X113382999Y-99866410D01*
X113411997Y-99890208D01*
X116300596Y-102778808D01*
X116387322Y-102849982D01*
X116519352Y-102920554D01*
X116662612Y-102964011D01*
X116811598Y-102978685D01*
X116960584Y-102964011D01*
X117103845Y-102920554D01*
X117235874Y-102849982D01*
X117351599Y-102755009D01*
X117446572Y-102639284D01*
X117517144Y-102507255D01*
X117560601Y-102363994D01*
X117570083Y-102267718D01*
X117712801Y-102125000D01*
X127360678Y-102125000D01*
X127398000Y-102128676D01*
X127435322Y-102125000D01*
X127435333Y-102125000D01*
X127546986Y-102114003D01*
X127690247Y-102070546D01*
X127822276Y-101999974D01*
X127938001Y-101905001D01*
X127961803Y-101875998D01*
X128112801Y-101725000D01*
X133820678Y-101725000D01*
X133858000Y-101728676D01*
X133895322Y-101725000D01*
X133895333Y-101725000D01*
X134006986Y-101714003D01*
X134150247Y-101670546D01*
X134282276Y-101599974D01*
X134398001Y-101505001D01*
X134421804Y-101475997D01*
X139089649Y-96808153D01*
X139210729Y-96784068D01*
X139380889Y-96713586D01*
X139498048Y-96635303D01*
X139511250Y-96634003D01*
X139654511Y-96590546D01*
X139786540Y-96519974D01*
X139902265Y-96425001D01*
X139926068Y-96395997D01*
X139951809Y-96370256D01*
X140022983Y-96283530D01*
X140093555Y-96151500D01*
X140137012Y-96008240D01*
X140151686Y-95859255D01*
X140137012Y-95710269D01*
X140093555Y-95567008D01*
X140022983Y-95434979D01*
X139928010Y-95319254D01*
X139812285Y-95224281D01*
X139698000Y-95163194D01*
X139698000Y-79014799D01*
X141993001Y-81309801D01*
X141993002Y-94562659D01*
X141993001Y-94562669D01*
X141993001Y-94804466D01*
X141924415Y-94907112D01*
X141853933Y-95077272D01*
X141818001Y-95257912D01*
X141818001Y-95442090D01*
X141853933Y-95622730D01*
X141924415Y-95792890D01*
X142026739Y-95946029D01*
X142156973Y-96076263D01*
X142310112Y-96178587D01*
X142480272Y-96249069D01*
X142660912Y-96285001D01*
X142845090Y-96285001D01*
X143025730Y-96249069D01*
X143195890Y-96178587D01*
X143349029Y-96076263D01*
X143479263Y-95946029D01*
X143581587Y-95792890D01*
X143652069Y-95622730D01*
X143688001Y-95442090D01*
X143688001Y-95257912D01*
X143652069Y-95077272D01*
X143581587Y-94907112D01*
X143513001Y-94804466D01*
X143513001Y-86512086D01*
X143575111Y-86553586D01*
X143745271Y-86624068D01*
X143925911Y-86660000D01*
X144110089Y-86660000D01*
X144290729Y-86624068D01*
X144460889Y-86553586D01*
X144614028Y-86451262D01*
X144744262Y-86321028D01*
X144846586Y-86167889D01*
X144917068Y-85997729D01*
X144953000Y-85817089D01*
X144953000Y-85632911D01*
X144917068Y-85452271D01*
X144846586Y-85282111D01*
X144744262Y-85128972D01*
X144614028Y-84998738D01*
X144528000Y-84941256D01*
X144528000Y-78650535D01*
X144596586Y-78547889D01*
X144667068Y-78377729D01*
X144703000Y-78197089D01*
X144703000Y-78012911D01*
X145373000Y-78012911D01*
X145373000Y-78197089D01*
X145408932Y-78377729D01*
X145479414Y-78547889D01*
X145548000Y-78650536D01*
X145548001Y-82547436D01*
X145508998Y-82676014D01*
X145498001Y-82787667D01*
X145498001Y-82787677D01*
X145494325Y-82824999D01*
X145497280Y-82855000D01*
X145494325Y-82885001D01*
X145498001Y-82922323D01*
X145498001Y-82922334D01*
X145508998Y-83033987D01*
X145552455Y-83177248D01*
X145623027Y-83309277D01*
X145631442Y-83319531D01*
X145658932Y-83457729D01*
X145729414Y-83627889D01*
X145831738Y-83781028D01*
X145961972Y-83911262D01*
X146115111Y-84013586D01*
X146285271Y-84084068D01*
X146465911Y-84120000D01*
X146650089Y-84120000D01*
X146830729Y-84084068D01*
X147000889Y-84013586D01*
X147154028Y-83911262D01*
X147284262Y-83781028D01*
X147386586Y-83627889D01*
X147457068Y-83457729D01*
X147493000Y-83277089D01*
X147493000Y-83092911D01*
X147457068Y-82912271D01*
X147386586Y-82742111D01*
X147284262Y-82588972D01*
X147154028Y-82458738D01*
X147068000Y-82401256D01*
X147068000Y-78650535D01*
X147136586Y-78547889D01*
X147207068Y-78377729D01*
X147243000Y-78197089D01*
X147243000Y-78012911D01*
X147913000Y-78012911D01*
X147913000Y-78197089D01*
X147948932Y-78377729D01*
X148019414Y-78547889D01*
X148088000Y-78650536D01*
X148088001Y-85807670D01*
X148084324Y-85845002D01*
X148088001Y-85882335D01*
X148098212Y-85986002D01*
X148098998Y-85993987D01*
X148142454Y-86137248D01*
X148213026Y-86269278D01*
X148257446Y-86323403D01*
X148308000Y-86385003D01*
X148336998Y-86408801D01*
X153254847Y-91326651D01*
X153278932Y-91447731D01*
X153349414Y-91617891D01*
X153451738Y-91771030D01*
X153581972Y-91901264D01*
X153735111Y-92003588D01*
X153905271Y-92074070D01*
X154085911Y-92110002D01*
X154270089Y-92110002D01*
X154450729Y-92074070D01*
X154620889Y-92003588D01*
X154774028Y-91901264D01*
X154904262Y-91771030D01*
X155006586Y-91617891D01*
X155077068Y-91447731D01*
X155113000Y-91267091D01*
X155113000Y-91082913D01*
X155077068Y-90902273D01*
X155006586Y-90732113D01*
X154904262Y-90578974D01*
X154774028Y-90448740D01*
X154620889Y-90346416D01*
X154450729Y-90275934D01*
X154329649Y-90251849D01*
X149608000Y-85530201D01*
X149608000Y-78650535D01*
X149676586Y-78547889D01*
X149747068Y-78377729D01*
X149783000Y-78197089D01*
X149783000Y-78012911D01*
X149747068Y-77832271D01*
X149676586Y-77662111D01*
X149574262Y-77508972D01*
X149444028Y-77378738D01*
X149290889Y-77276414D01*
X149120729Y-77205932D01*
X148940089Y-77170000D01*
X148755911Y-77170000D01*
X148575271Y-77205932D01*
X148405111Y-77276414D01*
X148251972Y-77378738D01*
X148121738Y-77508972D01*
X148019414Y-77662111D01*
X147948932Y-77832271D01*
X147913000Y-78012911D01*
X147243000Y-78012911D01*
X147207068Y-77832271D01*
X147136586Y-77662111D01*
X147034262Y-77508972D01*
X146904028Y-77378738D01*
X146750889Y-77276414D01*
X146580729Y-77205932D01*
X146400089Y-77170000D01*
X146215911Y-77170000D01*
X146035271Y-77205932D01*
X145865111Y-77276414D01*
X145711972Y-77378738D01*
X145581738Y-77508972D01*
X145479414Y-77662111D01*
X145408932Y-77832271D01*
X145373000Y-78012911D01*
X144703000Y-78012911D01*
X144667068Y-77832271D01*
X144596586Y-77662111D01*
X144494262Y-77508972D01*
X144364028Y-77378738D01*
X144210889Y-77276414D01*
X144040729Y-77205932D01*
X143860089Y-77170000D01*
X143675911Y-77170000D01*
X143495271Y-77205932D01*
X143325111Y-77276414D01*
X143171972Y-77378738D01*
X143041738Y-77508972D01*
X142939414Y-77662111D01*
X142868932Y-77832271D01*
X142833000Y-78012911D01*
X142833000Y-78197089D01*
X142868932Y-78377729D01*
X142939414Y-78547889D01*
X143008000Y-78650536D01*
X143008000Y-80175196D01*
X140046904Y-77214101D01*
X140247777Y-77194316D01*
X140530264Y-77108625D01*
X140790606Y-76969469D01*
X141018797Y-76782197D01*
X141206069Y-76554006D01*
X141224000Y-76520459D01*
X141241931Y-76554006D01*
X141429203Y-76782197D01*
X141657395Y-76969469D01*
X141917737Y-77108625D01*
X142200224Y-77194316D01*
X142494000Y-77223251D01*
X142787777Y-77194316D01*
X143070264Y-77108625D01*
X143330606Y-76969469D01*
X143558797Y-76782197D01*
X143746069Y-76554006D01*
X143764000Y-76520459D01*
X143781931Y-76554006D01*
X143969203Y-76782197D01*
X144197395Y-76969469D01*
X144457737Y-77108625D01*
X144740224Y-77194316D01*
X145034000Y-77223251D01*
X145327777Y-77194316D01*
X145610264Y-77108625D01*
X145870606Y-76969469D01*
X146098797Y-76782197D01*
X146286069Y-76554006D01*
X146304000Y-76520459D01*
X146321931Y-76554006D01*
X146509203Y-76782197D01*
X146737395Y-76969469D01*
X146997737Y-77108625D01*
X147280224Y-77194316D01*
X147574000Y-77223251D01*
X147867777Y-77194316D01*
X148150264Y-77108625D01*
X148410606Y-76969469D01*
X148638797Y-76782197D01*
X148826069Y-76554006D01*
X148844000Y-76520459D01*
X148861931Y-76554006D01*
X149049203Y-76782197D01*
X149277395Y-76969469D01*
X149537737Y-77108625D01*
X149820224Y-77194316D01*
X150114000Y-77223251D01*
X150407777Y-77194316D01*
X150690264Y-77108625D01*
X150950606Y-76969469D01*
X151178797Y-76782197D01*
X151366069Y-76554006D01*
X151384000Y-76520459D01*
X151401931Y-76554006D01*
X151589203Y-76782197D01*
X151817395Y-76969469D01*
X152077737Y-77108625D01*
X152360224Y-77194316D01*
X152654000Y-77223251D01*
X152947777Y-77194316D01*
X153230264Y-77108625D01*
X153490606Y-76969469D01*
X153718797Y-76782197D01*
X153906069Y-76554006D01*
X154045225Y-76293663D01*
X154130916Y-76011176D01*
X154152600Y-75791018D01*
X154152600Y-75338982D01*
X155219400Y-75338982D01*
X155219400Y-75791019D01*
X155241084Y-76011177D01*
X155326775Y-76293664D01*
X155465931Y-76554006D01*
X155653203Y-76782197D01*
X155881395Y-76969469D01*
X156141737Y-77108625D01*
X156424224Y-77194316D01*
X156718000Y-77223251D01*
X157011777Y-77194316D01*
X157294264Y-77108625D01*
X157554606Y-76969469D01*
X157782797Y-76782197D01*
X157970069Y-76554006D01*
X157988000Y-76520459D01*
X158005931Y-76554006D01*
X158193203Y-76782197D01*
X158421395Y-76969469D01*
X158681737Y-77108625D01*
X158964224Y-77194316D01*
X159258000Y-77223251D01*
X159551777Y-77194316D01*
X159834264Y-77108625D01*
X160094606Y-76969469D01*
X160322797Y-76782197D01*
X160510069Y-76554006D01*
X160528000Y-76520459D01*
X160545931Y-76554006D01*
X160733203Y-76782197D01*
X160961395Y-76969469D01*
X161221737Y-77108625D01*
X161504224Y-77194316D01*
X161557358Y-77199549D01*
X161525271Y-77205932D01*
X161355111Y-77276414D01*
X161201972Y-77378738D01*
X161071738Y-77508972D01*
X160969414Y-77662111D01*
X160898932Y-77832271D01*
X160874847Y-77953351D01*
X156481353Y-82346846D01*
X156360272Y-82370931D01*
X156190112Y-82441413D01*
X156036973Y-82543737D01*
X155906739Y-82673971D01*
X155804415Y-82827110D01*
X155733933Y-82997270D01*
X155698001Y-83177910D01*
X155698001Y-83362088D01*
X155733933Y-83542728D01*
X155804415Y-83712888D01*
X155906739Y-83866027D01*
X156036973Y-83996261D01*
X156190112Y-84098585D01*
X156360272Y-84169067D01*
X156540912Y-84204999D01*
X156725090Y-84204999D01*
X156905730Y-84169067D01*
X157075890Y-84098585D01*
X157229029Y-83996261D01*
X157359263Y-83866027D01*
X157461587Y-83712888D01*
X157532069Y-83542728D01*
X157556154Y-83421647D01*
X158160759Y-82817042D01*
X161075563Y-82817042D01*
X161131758Y-83048069D01*
X161365611Y-83156274D01*
X161616079Y-83216779D01*
X161873540Y-83227257D01*
X162128097Y-83187305D01*
X162369968Y-83098460D01*
X162464242Y-83048069D01*
X162508771Y-82865000D01*
X170659928Y-82865000D01*
X170659928Y-84465000D01*
X170672188Y-84589482D01*
X170708498Y-84709180D01*
X170767463Y-84819494D01*
X170846815Y-84916185D01*
X170943506Y-84995537D01*
X171053820Y-85054502D01*
X171173518Y-85090812D01*
X171298000Y-85103072D01*
X172898000Y-85103072D01*
X173022482Y-85090812D01*
X173142180Y-85054502D01*
X173252494Y-84995537D01*
X173349185Y-84916185D01*
X173428537Y-84819494D01*
X173487502Y-84709180D01*
X173503117Y-84657702D01*
X173784903Y-84657702D01*
X173856486Y-84901671D01*
X174111996Y-85022571D01*
X174386184Y-85091300D01*
X174668512Y-85105217D01*
X174948130Y-85063787D01*
X175214292Y-84968603D01*
X175339514Y-84901671D01*
X175411097Y-84657702D01*
X174598000Y-83844605D01*
X173784903Y-84657702D01*
X173503117Y-84657702D01*
X173523812Y-84589482D01*
X173536072Y-84465000D01*
X173536072Y-84457785D01*
X173605298Y-84478097D01*
X174418395Y-83665000D01*
X174777605Y-83665000D01*
X175590702Y-84478097D01*
X175834671Y-84406514D01*
X175955571Y-84151004D01*
X176024300Y-83876816D01*
X176038217Y-83594488D01*
X175996787Y-83314870D01*
X175901603Y-83048708D01*
X175834671Y-82923486D01*
X175590702Y-82851903D01*
X174777605Y-83665000D01*
X174418395Y-83665000D01*
X173605298Y-82851903D01*
X173536072Y-82872215D01*
X173536072Y-82865000D01*
X173523812Y-82740518D01*
X173503118Y-82672298D01*
X173784903Y-82672298D01*
X174598000Y-83485395D01*
X175411097Y-82672298D01*
X175339514Y-82428329D01*
X175084004Y-82307429D01*
X174809816Y-82238700D01*
X174527488Y-82224783D01*
X174247870Y-82266213D01*
X173981708Y-82361397D01*
X173856486Y-82428329D01*
X173784903Y-82672298D01*
X173503118Y-82672298D01*
X173487502Y-82620820D01*
X173428537Y-82510506D01*
X173349185Y-82413815D01*
X173252494Y-82334463D01*
X173142180Y-82275498D01*
X173022482Y-82239188D01*
X172898000Y-82226928D01*
X171298000Y-82226928D01*
X171173518Y-82239188D01*
X171053820Y-82275498D01*
X170943506Y-82334463D01*
X170846815Y-82413815D01*
X170767463Y-82510506D01*
X170708498Y-82620820D01*
X170672188Y-82740518D01*
X170659928Y-82865000D01*
X162508771Y-82865000D01*
X162520437Y-82817042D01*
X161798000Y-82094605D01*
X161075563Y-82817042D01*
X158160759Y-82817042D01*
X158987261Y-81990540D01*
X160485743Y-81990540D01*
X160525695Y-82245097D01*
X160614540Y-82486968D01*
X160664931Y-82581242D01*
X160895958Y-82637437D01*
X161618395Y-81915000D01*
X161977605Y-81915000D01*
X162700042Y-82637437D01*
X162931069Y-82581242D01*
X163039274Y-82347389D01*
X163099779Y-82096921D01*
X163110257Y-81839460D01*
X163070305Y-81584903D01*
X162981460Y-81343032D01*
X162931069Y-81248758D01*
X162700042Y-81192563D01*
X161977605Y-81915000D01*
X161618395Y-81915000D01*
X160895958Y-81192563D01*
X160664931Y-81248758D01*
X160556726Y-81482611D01*
X160496221Y-81733079D01*
X160485743Y-81990540D01*
X158987261Y-81990540D01*
X159964843Y-81012958D01*
X161075563Y-81012958D01*
X161798000Y-81735395D01*
X162520437Y-81012958D01*
X162464242Y-80781931D01*
X162230389Y-80673726D01*
X161979921Y-80613221D01*
X161722460Y-80602743D01*
X161467903Y-80642695D01*
X161226032Y-80731540D01*
X161131758Y-80781931D01*
X161075563Y-81012958D01*
X159964843Y-81012958D01*
X161949649Y-79028153D01*
X162070729Y-79004068D01*
X162240889Y-78933586D01*
X162394028Y-78831262D01*
X162524262Y-78701028D01*
X162626586Y-78547889D01*
X162697068Y-78377729D01*
X162733000Y-78197089D01*
X162733000Y-78012911D01*
X162697068Y-77832271D01*
X162626586Y-77662111D01*
X162524262Y-77508972D01*
X162394028Y-77378738D01*
X162240889Y-77276414D01*
X162070729Y-77205932D01*
X162038642Y-77199549D01*
X162091777Y-77194316D01*
X162374264Y-77108625D01*
X162634606Y-76969469D01*
X162862797Y-76782197D01*
X163050069Y-76554006D01*
X163068000Y-76520459D01*
X163085931Y-76554006D01*
X163273203Y-76782197D01*
X163501395Y-76969469D01*
X163761737Y-77108625D01*
X164044224Y-77194316D01*
X164338000Y-77223251D01*
X164631777Y-77194316D01*
X164914264Y-77108625D01*
X165174606Y-76969469D01*
X165402797Y-76782197D01*
X165590069Y-76554006D01*
X165608000Y-76520459D01*
X165625931Y-76554006D01*
X165813203Y-76782197D01*
X166041395Y-76969469D01*
X166301737Y-77108625D01*
X166584224Y-77194316D01*
X166878000Y-77223251D01*
X167171777Y-77194316D01*
X167454264Y-77108625D01*
X167714606Y-76969469D01*
X167942797Y-76782197D01*
X168130069Y-76554006D01*
X168148000Y-76520459D01*
X168165931Y-76554006D01*
X168353203Y-76782197D01*
X168581395Y-76969469D01*
X168841737Y-77108625D01*
X169124224Y-77194316D01*
X169418000Y-77223251D01*
X169711777Y-77194316D01*
X169994264Y-77108625D01*
X170254606Y-76969469D01*
X170482797Y-76782197D01*
X170670069Y-76554006D01*
X170688000Y-76520459D01*
X170705931Y-76554006D01*
X170893203Y-76782197D01*
X171121395Y-76969469D01*
X171381737Y-77108625D01*
X171664224Y-77194316D01*
X171958000Y-77223251D01*
X172251777Y-77194316D01*
X172534264Y-77108625D01*
X172794606Y-76969469D01*
X173022797Y-76782197D01*
X173210069Y-76554006D01*
X173228000Y-76520459D01*
X173245931Y-76554006D01*
X173433203Y-76782197D01*
X173661395Y-76969469D01*
X173921737Y-77108625D01*
X174204224Y-77194316D01*
X174498000Y-77223251D01*
X174791777Y-77194316D01*
X175074264Y-77108625D01*
X175334606Y-76969469D01*
X175562797Y-76782197D01*
X175750069Y-76554006D01*
X175889225Y-76293663D01*
X175974916Y-76011176D01*
X175996600Y-75791018D01*
X175996600Y-75338981D01*
X175974916Y-75118823D01*
X175889225Y-74836336D01*
X175750069Y-74575994D01*
X175562797Y-74347803D01*
X175334605Y-74160531D01*
X175074263Y-74021375D01*
X174791776Y-73935684D01*
X174498000Y-73906749D01*
X174204223Y-73935684D01*
X173921736Y-74021375D01*
X173661394Y-74160531D01*
X173433203Y-74347803D01*
X173245931Y-74575995D01*
X173228000Y-74609541D01*
X173210069Y-74575994D01*
X173022797Y-74347803D01*
X172794605Y-74160531D01*
X172534263Y-74021375D01*
X172251776Y-73935684D01*
X171958000Y-73906749D01*
X171664223Y-73935684D01*
X171381736Y-74021375D01*
X171121394Y-74160531D01*
X170893203Y-74347803D01*
X170705931Y-74575995D01*
X170688000Y-74609541D01*
X170670069Y-74575994D01*
X170482797Y-74347803D01*
X170254605Y-74160531D01*
X169994263Y-74021375D01*
X169711776Y-73935684D01*
X169418000Y-73906749D01*
X169124223Y-73935684D01*
X168841736Y-74021375D01*
X168581394Y-74160531D01*
X168353203Y-74347803D01*
X168165931Y-74575995D01*
X168148000Y-74609541D01*
X168130069Y-74575994D01*
X167942797Y-74347803D01*
X167714605Y-74160531D01*
X167454263Y-74021375D01*
X167171776Y-73935684D01*
X166878000Y-73906749D01*
X166584223Y-73935684D01*
X166301736Y-74021375D01*
X166041394Y-74160531D01*
X165813203Y-74347803D01*
X165625931Y-74575995D01*
X165608000Y-74609541D01*
X165590069Y-74575994D01*
X165402797Y-74347803D01*
X165174605Y-74160531D01*
X164914263Y-74021375D01*
X164631776Y-73935684D01*
X164338000Y-73906749D01*
X164044223Y-73935684D01*
X163761736Y-74021375D01*
X163501394Y-74160531D01*
X163273203Y-74347803D01*
X163085931Y-74575995D01*
X163068000Y-74609541D01*
X163050069Y-74575994D01*
X162862797Y-74347803D01*
X162634605Y-74160531D01*
X162374263Y-74021375D01*
X162091776Y-73935684D01*
X161798000Y-73906749D01*
X161504223Y-73935684D01*
X161221736Y-74021375D01*
X160961394Y-74160531D01*
X160733203Y-74347803D01*
X160545931Y-74575995D01*
X160528000Y-74609541D01*
X160510069Y-74575994D01*
X160322797Y-74347803D01*
X160094605Y-74160531D01*
X159834263Y-74021375D01*
X159551776Y-73935684D01*
X159258000Y-73906749D01*
X158964223Y-73935684D01*
X158681736Y-74021375D01*
X158421394Y-74160531D01*
X158193203Y-74347803D01*
X158005931Y-74575995D01*
X157988000Y-74609541D01*
X157970069Y-74575994D01*
X157782797Y-74347803D01*
X157554605Y-74160531D01*
X157294263Y-74021375D01*
X157011776Y-73935684D01*
X156718000Y-73906749D01*
X156424223Y-73935684D01*
X156141736Y-74021375D01*
X155881394Y-74160531D01*
X155653203Y-74347803D01*
X155465931Y-74575995D01*
X155326775Y-74836337D01*
X155241084Y-75118824D01*
X155219400Y-75338982D01*
X154152600Y-75338982D01*
X154152600Y-75338981D01*
X154130916Y-75118823D01*
X154045225Y-74836336D01*
X153906069Y-74575994D01*
X153718797Y-74347803D01*
X153490605Y-74160531D01*
X153230263Y-74021375D01*
X152947776Y-73935684D01*
X152654000Y-73906749D01*
X152360223Y-73935684D01*
X152077736Y-74021375D01*
X151817394Y-74160531D01*
X151589203Y-74347803D01*
X151401931Y-74575995D01*
X151384000Y-74609541D01*
X151366069Y-74575994D01*
X151178797Y-74347803D01*
X150950605Y-74160531D01*
X150690263Y-74021375D01*
X150407776Y-73935684D01*
X150114000Y-73906749D01*
X149820223Y-73935684D01*
X149537736Y-74021375D01*
X149277394Y-74160531D01*
X149049203Y-74347803D01*
X148861931Y-74575995D01*
X148844000Y-74609541D01*
X148826069Y-74575994D01*
X148638797Y-74347803D01*
X148410605Y-74160531D01*
X148150263Y-74021375D01*
X147867776Y-73935684D01*
X147574000Y-73906749D01*
X147280223Y-73935684D01*
X146997736Y-74021375D01*
X146737394Y-74160531D01*
X146509203Y-74347803D01*
X146321931Y-74575995D01*
X146304000Y-74609541D01*
X146286069Y-74575994D01*
X146098797Y-74347803D01*
X145870605Y-74160531D01*
X145610263Y-74021375D01*
X145327776Y-73935684D01*
X145034000Y-73906749D01*
X144740223Y-73935684D01*
X144457736Y-74021375D01*
X144197394Y-74160531D01*
X143969203Y-74347803D01*
X143781931Y-74575995D01*
X143764000Y-74609541D01*
X143746069Y-74575994D01*
X143558797Y-74347803D01*
X143330605Y-74160531D01*
X143070263Y-74021375D01*
X142787776Y-73935684D01*
X142494000Y-73906749D01*
X142200223Y-73935684D01*
X141917736Y-74021375D01*
X141657394Y-74160531D01*
X141429203Y-74347803D01*
X141241931Y-74575995D01*
X141224000Y-74609541D01*
X141206069Y-74575994D01*
X141018797Y-74347803D01*
X140790605Y-74160531D01*
X140530263Y-74021375D01*
X140247776Y-73935684D01*
X139954000Y-73906749D01*
X139660223Y-73935684D01*
X139377736Y-74021375D01*
X139117394Y-74160531D01*
X138889203Y-74347803D01*
X138701931Y-74575995D01*
X138680576Y-74615947D01*
X138532486Y-74413271D01*
X138316035Y-74214267D01*
X138064919Y-74061314D01*
X137788789Y-73960291D01*
X137773026Y-73957642D01*
X137541000Y-74078783D01*
X137541000Y-75438000D01*
X137561000Y-75438000D01*
X137561000Y-75692000D01*
X137541000Y-75692000D01*
X137541000Y-77051217D01*
X137773026Y-77172358D01*
X137788789Y-77169709D01*
X137922352Y-77120845D01*
X137801996Y-77241200D01*
X137772999Y-77264998D01*
X137749201Y-77293996D01*
X137749200Y-77293997D01*
X137678025Y-77380723D01*
X137664662Y-77405724D01*
X137607453Y-77512752D01*
X137563996Y-77656013D01*
X137552999Y-77767666D01*
X137552999Y-77767677D01*
X137549323Y-77804999D01*
X137552999Y-77842321D01*
X137552999Y-78367679D01*
X137549323Y-78405001D01*
X137552999Y-78442323D01*
X137552999Y-78442333D01*
X137563996Y-78553986D01*
X137584904Y-78622911D01*
X137607453Y-78697247D01*
X137678025Y-78829277D01*
X137713283Y-78872238D01*
X137727991Y-78890160D01*
X137727990Y-93105000D01*
X129337066Y-93105000D01*
X126586068Y-90354003D01*
X126562265Y-90324999D01*
X126446540Y-90230026D01*
X126314511Y-90159454D01*
X126171250Y-90115997D01*
X126158048Y-90114697D01*
X126040889Y-90036414D01*
X126011290Y-90024154D01*
X125890246Y-89959454D01*
X125746986Y-89915997D01*
X125598000Y-89901324D01*
X125449014Y-89915997D01*
X125305753Y-89959454D01*
X125184710Y-90024154D01*
X125155111Y-90036414D01*
X125001972Y-90138738D01*
X124871738Y-90268972D01*
X124776113Y-90412085D01*
X123713198Y-91475001D01*
X116262587Y-91475001D01*
X116413990Y-91248411D01*
X116525932Y-90978158D01*
X116583000Y-90691260D01*
X116583000Y-90398740D01*
X116525932Y-90111842D01*
X116413990Y-89841589D01*
X116251475Y-89598368D01*
X116044632Y-89391525D01*
X115870240Y-89275000D01*
X116044632Y-89158475D01*
X116251475Y-88951632D01*
X116413990Y-88708411D01*
X116525932Y-88438158D01*
X116583000Y-88151260D01*
X116583000Y-87858740D01*
X116536506Y-87625000D01*
X120009928Y-87625000D01*
X120009928Y-87715000D01*
X120022188Y-87839482D01*
X120058498Y-87959180D01*
X120117463Y-88069494D01*
X120196815Y-88166185D01*
X120293506Y-88245537D01*
X120403820Y-88304502D01*
X120523518Y-88340812D01*
X120648000Y-88353072D01*
X122348000Y-88353072D01*
X122472482Y-88340812D01*
X122592180Y-88304502D01*
X122702494Y-88245537D01*
X122799185Y-88166185D01*
X122878537Y-88069494D01*
X122937502Y-87959180D01*
X122959513Y-87886620D01*
X123091368Y-88018475D01*
X123334589Y-88180990D01*
X123604842Y-88292932D01*
X123891740Y-88350000D01*
X124184260Y-88350000D01*
X124404408Y-88306209D01*
X125744201Y-89646003D01*
X125767999Y-89675001D01*
X125883724Y-89769974D01*
X126015753Y-89840546D01*
X126159014Y-89884003D01*
X126270667Y-89895000D01*
X126270675Y-89895000D01*
X126308000Y-89898676D01*
X126345325Y-89895000D01*
X131832465Y-89895000D01*
X131935111Y-89963586D01*
X132105271Y-90034068D01*
X132285911Y-90070000D01*
X132470089Y-90070000D01*
X132650729Y-90034068D01*
X132820889Y-89963586D01*
X132974028Y-89861262D01*
X133104262Y-89731028D01*
X133206586Y-89577889D01*
X133277068Y-89407729D01*
X133313000Y-89227089D01*
X133313000Y-89042911D01*
X133277068Y-88862271D01*
X133206586Y-88692111D01*
X133138000Y-88589465D01*
X133138000Y-79364799D01*
X134878000Y-81104800D01*
X134878001Y-86239463D01*
X134809414Y-86342111D01*
X134738932Y-86512271D01*
X134703000Y-86692911D01*
X134703000Y-86877089D01*
X134738932Y-87057729D01*
X134809414Y-87227889D01*
X134911738Y-87381028D01*
X135041972Y-87511262D01*
X135195111Y-87613586D01*
X135365271Y-87684068D01*
X135545911Y-87720000D01*
X135730089Y-87720000D01*
X135910729Y-87684068D01*
X136080889Y-87613586D01*
X136234028Y-87511262D01*
X136364262Y-87381028D01*
X136466586Y-87227889D01*
X136537068Y-87057729D01*
X136573000Y-86877089D01*
X136573000Y-86692911D01*
X136537068Y-86512271D01*
X136466586Y-86342111D01*
X136398000Y-86239465D01*
X136398000Y-80827323D01*
X136401676Y-80789998D01*
X136398000Y-80752673D01*
X136398000Y-80752665D01*
X136387003Y-80641012D01*
X136343546Y-80497751D01*
X136272974Y-80365722D01*
X136178001Y-80249997D01*
X136149004Y-80226200D01*
X133241805Y-77319002D01*
X133218002Y-77289998D01*
X133102277Y-77195025D01*
X132970248Y-77124453D01*
X132913090Y-77107115D01*
X133170606Y-76969469D01*
X133398797Y-76782197D01*
X133586069Y-76554006D01*
X133604000Y-76520459D01*
X133621931Y-76554006D01*
X133809203Y-76782197D01*
X134037395Y-76969469D01*
X134297737Y-77108625D01*
X134580224Y-77194316D01*
X134874000Y-77223251D01*
X135167777Y-77194316D01*
X135450264Y-77108625D01*
X135710606Y-76969469D01*
X135938797Y-76782197D01*
X136126069Y-76554006D01*
X136147424Y-76514053D01*
X136295514Y-76716729D01*
X136511965Y-76915733D01*
X136763081Y-77068686D01*
X137039211Y-77169709D01*
X137054974Y-77172358D01*
X137287000Y-77051217D01*
X137287000Y-75692000D01*
X137267000Y-75692000D01*
X137267000Y-75438000D01*
X137287000Y-75438000D01*
X137287000Y-74078783D01*
X137054974Y-73957642D01*
X137039211Y-73960291D01*
X136763081Y-74061314D01*
X136511965Y-74214267D01*
X136295514Y-74413271D01*
X136147424Y-74615947D01*
X136126069Y-74575994D01*
X135938797Y-74347803D01*
X135710605Y-74160531D01*
X135450263Y-74021375D01*
X135167776Y-73935684D01*
X134874000Y-73906749D01*
X134580223Y-73935684D01*
X134297736Y-74021375D01*
X134037394Y-74160531D01*
X133809203Y-74347803D01*
X133621931Y-74575995D01*
X133604000Y-74609541D01*
X133586069Y-74575994D01*
X133398797Y-74347803D01*
X133170605Y-74160531D01*
X132910263Y-74021375D01*
X132627776Y-73935684D01*
X132334000Y-73906749D01*
X132040223Y-73935684D01*
X131757736Y-74021375D01*
X131497394Y-74160531D01*
X131269203Y-74347803D01*
X131081931Y-74575995D01*
X131064000Y-74609541D01*
X131046069Y-74575994D01*
X130858797Y-74347803D01*
X130630605Y-74160531D01*
X130370263Y-74021375D01*
X130087776Y-73935684D01*
X129794000Y-73906749D01*
X129500223Y-73935684D01*
X129217736Y-74021375D01*
X128957394Y-74160531D01*
X128729203Y-74347803D01*
X128541931Y-74575995D01*
X128402775Y-74836337D01*
X128317084Y-75118824D01*
X128295400Y-75338982D01*
X128295400Y-75791019D01*
X128317084Y-76011177D01*
X128402775Y-76293664D01*
X128541931Y-76554006D01*
X128729203Y-76782197D01*
X128957395Y-76969469D01*
X129217737Y-77108625D01*
X129500224Y-77194316D01*
X129794000Y-77223251D01*
X130087777Y-77194316D01*
X130370264Y-77108625D01*
X130630606Y-76969469D01*
X130858797Y-76782197D01*
X131046069Y-76554006D01*
X131064000Y-76520459D01*
X131081931Y-76554006D01*
X131269203Y-76782197D01*
X131497395Y-76969469D01*
X131685473Y-77069999D01*
X130780323Y-77069999D01*
X130743000Y-77066323D01*
X130705677Y-77069999D01*
X130705668Y-77069999D01*
X130594015Y-77080996D01*
X130450754Y-77124453D01*
X130318725Y-77195025D01*
X130318723Y-77195026D01*
X130318724Y-77195026D01*
X130231997Y-77266200D01*
X130231993Y-77266204D01*
X130203000Y-77289998D01*
X130179206Y-77318991D01*
X129706351Y-77791847D01*
X129585271Y-77815932D01*
X129415111Y-77886414D01*
X129261972Y-77988738D01*
X129131738Y-78118972D01*
X129029414Y-78272111D01*
X128958932Y-78442271D01*
X128923000Y-78622911D01*
X128923000Y-78807089D01*
X128958932Y-78987729D01*
X129029414Y-79157889D01*
X129098001Y-79260537D01*
X129098000Y-83270197D01*
X126944408Y-85423790D01*
X126724260Y-85380000D01*
X126431740Y-85380000D01*
X126144842Y-85437068D01*
X125874589Y-85549010D01*
X125631368Y-85711525D01*
X125424525Y-85918368D01*
X125308000Y-86092760D01*
X125191475Y-85918368D01*
X124984632Y-85711525D01*
X124741411Y-85549010D01*
X124471158Y-85437068D01*
X124184260Y-85380000D01*
X123891740Y-85380000D01*
X123604842Y-85437068D01*
X123334589Y-85549010D01*
X123091368Y-85711525D01*
X122959513Y-85843380D01*
X122937502Y-85770820D01*
X122878537Y-85660506D01*
X122799185Y-85563815D01*
X122702494Y-85484463D01*
X122592180Y-85425498D01*
X122472482Y-85389188D01*
X122348000Y-85376928D01*
X120648000Y-85376928D01*
X120523518Y-85389188D01*
X120403820Y-85425498D01*
X120293506Y-85484463D01*
X120196815Y-85563815D01*
X120117463Y-85660506D01*
X120058498Y-85770820D01*
X120022188Y-85890518D01*
X120009928Y-86015000D01*
X120009928Y-86105000D01*
X116586072Y-86105000D01*
X116586072Y-84615000D01*
X116573812Y-84490518D01*
X116537502Y-84370820D01*
X116478537Y-84260506D01*
X116399185Y-84163815D01*
X116302494Y-84084463D01*
X116192180Y-84025498D01*
X116072482Y-83989188D01*
X115948000Y-83976928D01*
X114248000Y-83976928D01*
X114123518Y-83989188D01*
X114003820Y-84025498D01*
X113893506Y-84084463D01*
X113796815Y-84163815D01*
X113717463Y-84260506D01*
X113658498Y-84370820D01*
X113622188Y-84490518D01*
X113609928Y-84615000D01*
X113609928Y-86315000D01*
X113622188Y-86439482D01*
X113658498Y-86559180D01*
X113717463Y-86669494D01*
X113796815Y-86766185D01*
X113893506Y-86845537D01*
X114003820Y-86904502D01*
X114076380Y-86926513D01*
X113944525Y-87058368D01*
X113782010Y-87301589D01*
X113670068Y-87571842D01*
X113613000Y-87858740D01*
X113613000Y-88151260D01*
X113670068Y-88438158D01*
X113782010Y-88708411D01*
X113917704Y-88911492D01*
X113412002Y-89417195D01*
X113382998Y-89440998D01*
X113330472Y-89505002D01*
X113288025Y-89556723D01*
X113217454Y-89688752D01*
X113217453Y-89688753D01*
X113173996Y-89832014D01*
X113162999Y-89943667D01*
X113162999Y-89943677D01*
X113159323Y-89980999D01*
X111708000Y-89980999D01*
X111708000Y-82272911D01*
X115363000Y-82272911D01*
X115363000Y-82457089D01*
X115398932Y-82637729D01*
X115469414Y-82807889D01*
X115571738Y-82961028D01*
X115701972Y-83091262D01*
X115855111Y-83193586D01*
X116025271Y-83264068D01*
X116205911Y-83300000D01*
X116390089Y-83300000D01*
X116570729Y-83264068D01*
X116740889Y-83193586D01*
X116894028Y-83091262D01*
X117024262Y-82961028D01*
X117126586Y-82807889D01*
X117197068Y-82637729D01*
X117221153Y-82516649D01*
X118212802Y-81525000D01*
X125352465Y-81525000D01*
X125455111Y-81593586D01*
X125625271Y-81664068D01*
X125805911Y-81700000D01*
X125990089Y-81700000D01*
X126170729Y-81664068D01*
X126340889Y-81593586D01*
X126494028Y-81491262D01*
X126624262Y-81361028D01*
X126726586Y-81207889D01*
X126797068Y-81037729D01*
X126833000Y-80857089D01*
X126833000Y-80672911D01*
X126797068Y-80492271D01*
X126726586Y-80322111D01*
X126624262Y-80168972D01*
X126494028Y-80038738D01*
X126340889Y-79936414D01*
X126170729Y-79865932D01*
X125990089Y-79830000D01*
X125805911Y-79830000D01*
X125625271Y-79865932D01*
X125455111Y-79936414D01*
X125352465Y-80005000D01*
X117935325Y-80005000D01*
X117898000Y-80001324D01*
X117860675Y-80005000D01*
X117860667Y-80005000D01*
X117749014Y-80015997D01*
X117605753Y-80059454D01*
X117473724Y-80130026D01*
X117357999Y-80224999D01*
X117334201Y-80253997D01*
X116146351Y-81441847D01*
X116025271Y-81465932D01*
X115855111Y-81536414D01*
X115701972Y-81638738D01*
X115571738Y-81768972D01*
X115469414Y-81922111D01*
X115398932Y-82092271D01*
X115363000Y-82272911D01*
X111708000Y-82272911D01*
X111708000Y-76572323D01*
X112141000Y-76572323D01*
X112141000Y-77097677D01*
X112243492Y-77612935D01*
X112444536Y-78098298D01*
X112736406Y-78535113D01*
X113107887Y-78906594D01*
X113544702Y-79198464D01*
X114030065Y-79399508D01*
X114545323Y-79502000D01*
X115070677Y-79502000D01*
X115585935Y-79399508D01*
X116071298Y-79198464D01*
X116508113Y-78906594D01*
X116879594Y-78535113D01*
X117171464Y-78098298D01*
X117372508Y-77612935D01*
X117475000Y-77097677D01*
X117475000Y-76572323D01*
X117372508Y-76057065D01*
X117171464Y-75571702D01*
X116879594Y-75134887D01*
X116508113Y-74763406D01*
X116071298Y-74471536D01*
X115585935Y-74270492D01*
X115070677Y-74168000D01*
X114545323Y-74168000D01*
X114030065Y-74270492D01*
X113544702Y-74471536D01*
X113107887Y-74763406D01*
X112736406Y-75134887D01*
X112444536Y-75571702D01*
X112243492Y-76057065D01*
X112141000Y-76572323D01*
X111708000Y-76572323D01*
X111708000Y-73735000D01*
X175219909Y-73735000D01*
X176328001Y-74843093D01*
G36*
X115225000Y-98038000D02*
G01*
X115245000Y-98038000D01*
X115245000Y-98292000D01*
X115225000Y-98292000D01*
X115225000Y-98312000D01*
X114971000Y-98312000D01*
X114971000Y-98292000D01*
X114951000Y-98292000D01*
X114951000Y-98038000D01*
X114971000Y-98038000D01*
X114971000Y-98018000D01*
X115225000Y-98018000D01*
X115225000Y-98038000D01*
G37*
X115225000Y-98038000D02*
X115245000Y-98038000D01*
X115245000Y-98292000D01*
X115225000Y-98292000D01*
X115225000Y-98312000D01*
X114971000Y-98312000D01*
X114971000Y-98292000D01*
X114951000Y-98292000D01*
X114951000Y-98038000D01*
X114971000Y-98038000D01*
X114971000Y-98018000D01*
X115225000Y-98018000D01*
X115225000Y-98038000D01*
G36*
X131478932Y-78727729D02*
G01*
X131549414Y-78897889D01*
X131618001Y-79000537D01*
X131618000Y-88375000D01*
X126622802Y-88375000D01*
X126597802Y-88350000D01*
X126724260Y-88350000D01*
X127011158Y-88292932D01*
X127281411Y-88180990D01*
X127524632Y-88018475D01*
X127731475Y-87811632D01*
X127853195Y-87629466D01*
X127922822Y-87746355D01*
X128117731Y-87962588D01*
X128351080Y-88136641D01*
X128613901Y-88261825D01*
X128761110Y-88306476D01*
X128991000Y-88185155D01*
X128991000Y-86992000D01*
X129245000Y-86992000D01*
X129245000Y-88185155D01*
X129474890Y-88306476D01*
X129622099Y-88261825D01*
X129884920Y-88136641D01*
X130118269Y-87962588D01*
X130313178Y-87746355D01*
X130462157Y-87496252D01*
X130559481Y-87221891D01*
X130438814Y-86992000D01*
X129245000Y-86992000D01*
X128991000Y-86992000D01*
X128971000Y-86992000D01*
X128971000Y-86738000D01*
X128991000Y-86738000D01*
X128991000Y-86718000D01*
X129245000Y-86718000D01*
X129245000Y-86738000D01*
X130438814Y-86738000D01*
X130559481Y-86508109D01*
X130462157Y-86233748D01*
X130313178Y-85983645D01*
X130118269Y-85767412D01*
X129884920Y-85593359D01*
X129622099Y-85468175D01*
X129474890Y-85423524D01*
X129245002Y-85544844D01*
X129245002Y-85380000D01*
X129137802Y-85380000D01*
X130369009Y-84148794D01*
X130398001Y-84125001D01*
X130421795Y-84096008D01*
X130421799Y-84096004D01*
X130492973Y-84009277D01*
X130492974Y-84009276D01*
X130563546Y-83877247D01*
X130607003Y-83733986D01*
X130618000Y-83622333D01*
X130618000Y-83622324D01*
X130621676Y-83585001D01*
X130618000Y-83547678D01*
X130618000Y-79260535D01*
X130686586Y-79157889D01*
X130757068Y-78987729D01*
X130781153Y-78866649D01*
X131057803Y-78589999D01*
X131451535Y-78589999D01*
X131478932Y-78727729D01*
G37*
X131478932Y-78727729D02*
X131549414Y-78897889D01*
X131618001Y-79000537D01*
X131618000Y-88375000D01*
X126622802Y-88375000D01*
X126597802Y-88350000D01*
X126724260Y-88350000D01*
X127011158Y-88292932D01*
X127281411Y-88180990D01*
X127524632Y-88018475D01*
X127731475Y-87811632D01*
X127853195Y-87629466D01*
X127922822Y-87746355D01*
X128117731Y-87962588D01*
X128351080Y-88136641D01*
X128613901Y-88261825D01*
X128761110Y-88306476D01*
X128991000Y-88185155D01*
X128991000Y-86992000D01*
X129245000Y-86992000D01*
X129245000Y-88185155D01*
X129474890Y-88306476D01*
X129622099Y-88261825D01*
X129884920Y-88136641D01*
X130118269Y-87962588D01*
X130313178Y-87746355D01*
X130462157Y-87496252D01*
X130559481Y-87221891D01*
X130438814Y-86992000D01*
X129245000Y-86992000D01*
X128991000Y-86992000D01*
X128971000Y-86992000D01*
X128971000Y-86738000D01*
X128991000Y-86738000D01*
X128991000Y-86718000D01*
X129245000Y-86718000D01*
X129245000Y-86738000D01*
X130438814Y-86738000D01*
X130559481Y-86508109D01*
X130462157Y-86233748D01*
X130313178Y-85983645D01*
X130118269Y-85767412D01*
X129884920Y-85593359D01*
X129622099Y-85468175D01*
X129474890Y-85423524D01*
X129245002Y-85544844D01*
X129245002Y-85380000D01*
X129137802Y-85380000D01*
X130369009Y-84148794D01*
X130398001Y-84125001D01*
X130421795Y-84096008D01*
X130421799Y-84096004D01*
X130492973Y-84009277D01*
X130492974Y-84009276D01*
X130563546Y-83877247D01*
X130607003Y-83733986D01*
X130618000Y-83622333D01*
X130618000Y-83622324D01*
X130621676Y-83585001D01*
X130618000Y-83547678D01*
X130618000Y-79260535D01*
X130686586Y-79157889D01*
X130757068Y-78987729D01*
X130781153Y-78866649D01*
X131057803Y-78589999D01*
X131451535Y-78589999D01*
X131478932Y-78727729D01*
M02*
